<svg width="28" height="271" viewBox="0 0 28 271" fill="none" xmlns="http://www.w3.org/2000/svg">
<path d="M0.5 270.5L0.499988 1.37109L13 1.37109C21.0081 1.37109 27.5 7.86297 27.5 15.8711L27.5 256C27.5 264.008 21.0081 270.5 13 270.5L0.5 270.5Z" fill="black" stroke="black"/>
<path d="M9.624 162.563C9.624 161.683 9.796 160.911 10.14 160.247C10.484 159.575 10.976 159.059 11.616 158.699C12.248 158.331 12.984 158.147 13.824 158.147C14.664 158.147 15.4 158.331 16.032 158.699C16.656 159.059 17.14 159.575 17.484 160.247C17.828 160.911 18 161.683 18 162.563L18 165.491L9.624 165.491L9.624 162.563ZM16.572 162.623C16.572 161.743 16.332 161.063 15.852 160.583C15.372 160.103 14.696 159.863 13.824 159.863C12.952 159.863 12.272 160.103 11.784 160.583C11.288 161.063 11.04 161.743 11.04 162.623L11.04 163.811L16.572 163.811L16.572 162.623ZM10.56 156.037C10.56 156.333 10.468 156.581 10.284 156.781C10.092 156.973 9.856 157.069 9.576 157.069C9.296 157.069 9.064 156.973 8.88 156.781C8.688 156.581 8.592 156.333 8.592 156.037C8.592 155.741 8.688 155.497 8.88 155.305C9.064 155.105 9.296 155.005 9.576 155.005C9.856 155.005 10.092 155.105 10.284 155.305C10.468 155.497 10.56 155.741 10.56 156.037ZM11.352 155.209L18 155.209L18 156.889L11.352 156.889L11.352 155.209ZM18.108 151.005C18.108 151.549 18.012 152.037 17.82 152.469C17.62 152.901 17.352 153.245 17.016 153.501C16.68 153.749 16.308 153.885 15.9 153.909L15.9 152.217C16.156 152.185 16.368 152.061 16.536 151.845C16.704 151.621 16.788 151.345 16.788 151.017C16.788 150.697 16.724 150.449 16.596 150.273C16.468 150.089 16.304 149.997 16.104 149.997C15.888 149.997 15.728 150.109 15.624 150.333C15.512 150.549 15.392 150.897 15.264 151.377C15.144 151.873 15.02 152.281 14.892 152.601C14.764 152.913 14.568 153.185 14.304 153.417C14.04 153.641 13.684 153.753 13.236 153.753C12.868 153.753 12.532 153.649 12.228 153.441C11.924 153.225 11.684 152.921 11.508 152.529C11.332 152.129 11.244 151.661 11.244 151.125C11.244 150.333 11.444 149.701 11.844 149.229C12.236 148.757 12.768 148.497 13.44 148.449L13.44 150.057C13.176 150.081 12.968 150.193 12.816 150.393C12.656 150.585 12.576 150.845 12.576 151.173C12.576 151.477 12.632 151.713 12.744 151.881C12.856 152.041 13.012 152.121 13.212 152.121C13.436 152.121 13.608 152.009 13.728 151.785C13.84 151.561 13.956 151.213 14.076 150.741C14.196 150.261 14.32 149.865 14.448 149.553C14.576 149.241 14.776 148.973 15.048 148.749C15.312 148.517 15.664 148.397 16.104 148.389C16.488 148.389 16.832 148.497 17.136 148.713C17.44 148.921 17.68 149.225 17.856 149.625C18.024 150.017 18.108 150.477 18.108 151.005ZM12.312 145.33C12.008 145.114 11.756 144.818 11.556 144.442C11.348 144.058 11.244 143.622 11.244 143.134C11.244 142.566 11.384 142.054 11.664 141.598C11.944 141.134 12.344 140.77 12.864 140.506C13.376 140.234 13.972 140.098 14.652 140.098C15.332 140.098 15.936 140.234 16.464 140.506C16.984 140.77 17.388 141.134 17.676 141.598C17.964 142.054 18.108 142.566 18.108 143.134C18.108 143.622 18.008 144.054 17.808 144.43C17.608 144.798 17.356 145.098 17.052 145.33L21.168 145.33L21.168 147.01L11.352 147.01L11.352 145.33L12.312 145.33ZM14.652 141.814C14.252 141.814 13.908 141.898 13.62 142.066C13.324 142.226 13.1 142.442 12.948 142.714C12.796 142.978 12.72 143.266 12.72 143.578C12.72 143.882 12.8 144.17 12.96 144.442C13.112 144.706 13.336 144.922 13.632 145.09C13.928 145.25 14.276 145.33 14.676 145.33C15.076 145.33 15.424 145.25 15.72 145.09C16.016 144.922 16.244 144.706 16.404 144.442C16.556 144.17 16.632 143.882 16.632 143.578C16.632 143.266 16.552 142.978 16.392 142.714C16.232 142.442 16.004 142.226 15.708 142.066C15.412 141.898 15.06 141.814 14.652 141.814ZM18.108 135.925C18.108 136.565 17.968 137.141 17.688 137.653C17.4 138.165 16.996 138.569 16.476 138.865C15.956 139.153 15.356 139.297 14.676 139.297C13.996 139.297 13.396 139.149 12.876 138.853C12.356 138.549 11.956 138.137 11.676 137.617C11.388 137.097 11.244 136.517 11.244 135.877C11.244 135.237 11.388 134.657 11.676 134.137C11.956 133.617 12.356 133.209 12.876 132.913C13.396 132.609 13.996 132.457 14.676 132.457C15.356 132.457 15.956 132.613 16.476 132.925C16.996 133.229 17.4 133.645 17.688 134.173C17.968 134.693 18.108 135.277 18.108 135.925ZM16.644 135.925C16.644 135.621 16.572 135.337 16.428 135.073C16.276 134.801 16.052 134.585 15.756 134.425C15.46 134.265 15.1 134.185 14.676 134.185C14.044 134.185 13.56 134.353 13.224 134.689C12.88 135.017 12.708 135.421 12.708 135.901C12.708 136.381 12.88 136.785 13.224 137.113C13.56 137.433 14.044 137.593 14.676 137.593C15.308 137.593 15.796 137.437 16.14 137.125C16.476 136.805 16.644 136.405 16.644 135.925ZM11.256 127.541C11.256 126.749 11.508 126.109 12.012 125.621C12.508 125.133 13.204 124.889 14.1 124.889L18 124.889L18 126.569L14.328 126.569C13.8 126.569 13.396 126.701 13.116 126.965C12.828 127.229 12.684 127.589 12.684 128.045C12.684 128.509 12.828 128.877 13.116 129.149C13.396 129.413 13.8 129.545 14.328 129.545L18 129.545L18 131.225L11.352 131.225L11.352 129.545L12.18 129.545C11.892 129.321 11.668 129.037 11.508 128.693C11.34 128.341 11.256 127.957 11.256 127.541ZM11.352 121.539L18 121.539L18 123.219L11.352 123.219L11.352 121.539ZM9.62399 121.071L10.884 123.831L9.68399 123.831L8.25599 121.071L9.62399 121.071ZM16.452 117.039L11.352 115.359L11.352 113.571L18 116.031L18 118.071L11.352 120.519L11.352 118.719L16.452 117.039ZM14.532 106.447C14.772 106.447 14.988 106.463 15.18 106.495L15.18 111.355C15.66 111.315 16.036 111.147 16.308 110.851C16.58 110.555 16.716 110.191 16.716 109.759C16.716 109.135 16.448 108.691 15.912 108.427L15.912 106.615C16.552 106.807 17.08 107.175 17.496 107.719C17.904 108.263 18.108 108.931 18.108 109.723C18.108 110.363 17.968 110.939 17.688 111.451C17.4 111.955 16.996 112.351 16.476 112.639C15.956 112.919 15.356 113.059 14.676 113.059C13.988 113.059 13.384 112.919 12.864 112.639C12.344 112.359 11.944 111.967 11.664 111.463C11.384 110.959 11.244 110.379 11.244 109.723C11.244 109.091 11.38 108.527 11.652 108.031C11.924 107.527 12.312 107.139 12.816 106.867C13.312 106.587 13.884 106.447 14.532 106.447ZM14.052 108.187C13.62 108.195 13.276 108.351 13.02 108.655C12.756 108.959 12.624 109.331 12.624 109.771C12.624 110.187 12.752 110.539 13.008 110.827C13.256 111.107 13.604 111.279 14.052 111.343L14.052 108.187ZM9.11999 103.541L18 103.541L18 105.221L9.11999 105.221L9.11999 103.541Z" fill="white"/>
</svg>
