<svg width="28" height="96" viewBox="0 0 28 96" fill="none" xmlns="http://www.w3.org/2000/svg">
<path d="M0.5 95.3711L0.499996 1.37109L13 1.37109C21.0081 1.37109 27.5 7.86297 27.5 15.8711L27.5 80.8711C27.5 88.8792 21.0081 95.3711 13 95.3711L0.5 95.3711Z" fill="#A4CBC8" stroke="#A4CBC8"/>
<path d="M18.084 59.4265C18.084 60.0105 17.984 60.5385 17.784 61.0105C17.584 61.4745 17.296 61.8425 16.92 62.1145C16.544 62.3865 16.1 62.5265 15.588 62.5345L15.588 60.7345C15.932 60.7105 16.204 60.5905 16.404 60.3745C16.604 60.1505 16.704 59.8465 16.704 59.4625C16.704 59.0705 16.612 58.7625 16.428 58.5385C16.236 58.3145 15.988 58.2025 15.684 58.2025C15.436 58.2025 15.232 58.2785 15.072 58.4305C14.912 58.5825 14.788 58.7745 14.7 59.0065C14.604 59.2305 14.5 59.5425 14.388 59.9425C14.228 60.4865 14.072 60.9305 13.92 61.2745C13.76 61.6105 13.524 61.9025 13.212 62.1505C12.892 62.3905 12.468 62.5105 11.94 62.5105C11.444 62.5105 11.012 62.3865 10.644 62.1385C10.276 61.8905 9.996 61.5425 9.804 61.0945C9.604 60.6465 9.504 60.1345 9.504 59.5585C9.504 58.6945 9.716 57.9945 10.14 57.4585C10.556 56.9145 11.14 56.6145 11.892 56.5585L11.892 58.4065C11.604 58.4225 11.368 58.5465 11.184 58.7785C10.992 59.0025 10.896 59.3025 10.896 59.6785C10.896 60.0065 10.98 60.2705 11.148 60.4705C11.316 60.6625 11.56 60.7585 11.88 60.7585C12.104 60.7585 12.292 60.6865 12.444 60.5425C12.588 60.3905 12.708 60.2065 12.804 59.9905C12.892 59.7665 12.996 59.4545 13.116 59.0545C13.276 58.5105 13.436 58.0665 13.596 57.7225C13.756 57.3785 13.996 57.0825 14.316 56.8345C14.636 56.5865 15.056 56.4625 15.576 56.4625C16.024 56.4625 16.44 56.5785 16.824 56.8105C17.208 57.0425 17.516 57.3825 17.748 57.8305C17.972 58.2785 18.084 58.8105 18.084 59.4265ZM18.108 52.054C18.108 52.694 17.968 53.27 17.688 53.782C17.4 54.294 16.996 54.698 16.476 54.994C15.956 55.282 15.356 55.426 14.676 55.426C13.996 55.426 13.396 55.278 12.876 54.982C12.356 54.678 11.956 54.266 11.676 53.746C11.388 53.226 11.244 52.646 11.244 52.006C11.244 51.366 11.388 50.786 11.676 50.266C11.956 49.746 12.356 49.338 12.876 49.042C13.396 48.738 13.996 48.586 14.676 48.586C15.356 48.586 15.956 48.742 16.476 49.054C16.996 49.358 17.4 49.774 17.688 50.302C17.968 50.822 18.108 51.406 18.108 52.054ZM16.644 52.054C16.644 51.75 16.572 51.466 16.428 51.202C16.276 50.93 16.052 50.714 15.756 50.554C15.46 50.394 15.1 50.314 14.676 50.314C14.044 50.314 13.56 50.482 13.224 50.818C12.88 51.146 12.708 51.55 12.708 52.03C12.708 52.51 12.88 52.914 13.224 53.242C13.56 53.562 14.044 53.722 14.676 53.722C15.308 53.722 15.796 53.566 16.14 53.254C16.476 52.934 16.644 52.534 16.644 52.054ZM18.108 44.4016C18.108 45.0416 17.968 45.6176 17.688 46.1296C17.4 46.6416 16.996 47.0456 16.476 47.3416C15.956 47.6296 15.356 47.7736 14.676 47.7736C13.996 47.7736 13.396 47.6256 12.876 47.3296C12.356 47.0256 11.956 46.6136 11.676 46.0936C11.388 45.5736 11.244 44.9936 11.244 44.3536C11.244 43.7136 11.388 43.1336 11.676 42.6136C11.956 42.0936 12.356 41.6856 12.876 41.3896C13.396 41.0856 13.996 40.9336 14.676 40.9336C15.356 40.9336 15.956 41.0896 16.476 41.4016C16.996 41.7056 17.4 42.1216 17.688 42.6496C17.968 43.1696 18.108 43.7536 18.108 44.4016ZM16.644 44.4016C16.644 44.0976 16.572 43.8136 16.428 43.5496C16.276 43.2776 16.052 43.0616 15.756 42.9016C15.46 42.7416 15.1 42.6616 14.676 42.6616C14.044 42.6616 13.56 42.8296 13.224 43.1656C12.88 43.4936 12.708 43.8976 12.708 44.3776C12.708 44.8576 12.88 45.2616 13.224 45.5896C13.56 45.9096 14.044 46.0696 14.676 46.0696C15.308 46.0696 15.796 45.9136 16.14 45.6016C16.476 45.2816 16.644 44.8816 16.644 44.4016ZM11.256 36.0173C11.256 35.2253 11.508 34.5853 12.012 34.0973C12.508 33.6093 13.204 33.3653 14.1 33.3653L18 33.3653L18 35.0453L14.328 35.0453C13.8 35.0453 13.396 35.1773 13.116 35.4413C12.828 35.7053 12.684 36.0653 12.684 36.5213C12.684 36.9853 12.828 37.3533 13.116 37.6253C13.396 37.8893 13.8 38.0213 14.328 38.0213L18 38.0213L18 39.7013L11.352 39.7013L11.352 38.0213L12.18 38.0213C11.892 37.7973 11.668 37.5133 11.508 37.1693C11.34 36.8173 11.256 36.4333 11.256 36.0173Z" fill="#646464"/>
</svg>
