<svg width="1477" height="855" viewBox="0 0 1477 855" fill="none" xmlns="http://www.w3.org/2000/svg">
<path d="M194.999 63.6289L3 151.407L194.999 239.186L386.999 151.407L194.999 63.6289Z" stroke="white" stroke-opacity="0.2" stroke-width="2"/>
<path d="M386.957 151.412L194.958 239.19L386.957 326.969L578.956 239.19L386.957 151.412Z" stroke="white" stroke-opacity="0.2" stroke-width="2"/>
<path d="M386.957 -24.1504L194.958 63.6282L386.957 151.407L578.956 63.6282L386.957 -24.1504Z" stroke="white" stroke-opacity="0.2" stroke-width="2"/>
<path d="M578.986 63.6289L386.987 151.407L578.986 239.186L770.986 151.407L578.986 63.6289Z" stroke="white" stroke-opacity="0.2" stroke-width="2"/>
<path d="M578.986 239.191L386.987 326.97L578.986 414.748L770.986 326.97L578.986 239.191Z" stroke="white" stroke-opacity="0.2" stroke-width="2"/>
<path d="M771.016 326.974L579.016 414.752L771.016 502.531L963.015 414.752L771.016 326.974Z" stroke="white" stroke-opacity="0.2" stroke-width="2"/>
<path d="M771.016 151.412L579.016 239.19L771.016 326.969L963.015 239.19L771.016 151.412Z" stroke="white" stroke-opacity="0.2" stroke-width="2"/>
<path d="M963.045 239.191L771.046 326.97L963.045 414.748L1155.04 326.97L963.045 239.191Z" stroke="white" stroke-opacity="0.2" stroke-width="2"/>
<path d="M194.999 414.754L3 502.532L194.999 590.311L386.999 502.532L194.999 414.754Z" stroke="white" stroke-opacity="0.2" stroke-width="2"/>
<path d="M386.957 502.513L194.958 590.291L386.957 678.07L578.956 590.291L386.957 502.513Z" stroke="white" stroke-opacity="0.2" stroke-width="2"/>
<path d="M386.957 326.974L194.958 414.752L386.957 502.531L578.956 414.752L386.957 326.974Z" stroke="white" stroke-opacity="0.2" stroke-width="2"/>
<path d="M578.986 414.754L386.987 502.532L578.986 590.311L770.986 502.532L578.986 414.754Z" stroke="white" stroke-opacity="0.2" stroke-width="2"/>
<path d="M578.986 590.292L386.987 678.07L578.986 765.849L770.986 678.07L578.986 590.292Z" stroke="white" stroke-opacity="0.2" stroke-width="2"/>
<path d="M771.016 678.075L579.016 765.853L771.016 853.632L963.015 765.853L771.016 678.075Z" stroke="white" stroke-opacity="0.2" stroke-width="2"/>
<path d="M771.016 502.513L579.016 590.291L771.016 678.07L963.015 590.291L771.016 502.513Z" stroke="white" stroke-opacity="0.2" stroke-width="2"/>
<path d="M963.045 590.292L771.046 678.07L963.045 765.849L1155.04 678.07L963.045 590.292Z" stroke="white" stroke-opacity="0.2" stroke-width="2"/>
<path d="M963.045 414.754L771.046 502.532L963.045 590.311L1155.04 502.532L963.045 414.754Z" stroke="white" stroke-opacity="0.2" stroke-width="2"/>
<path d="M1154.98 502.513L962.985 590.291L1154.98 678.07L1346.98 590.291L1154.98 502.513Z" stroke="white" stroke-opacity="0.2" stroke-width="2"/>
<path d="M1154.98 326.974L962.985 414.752L1154.98 502.531L1346.98 414.752L1154.98 326.974Z" stroke="white" stroke-opacity="0.2" stroke-width="2"/>
<path d="M1347.01 414.754L1155.01 502.532L1347.01 590.311L1539.01 502.532L1347.01 414.754Z" stroke="white" stroke-opacity="0.2" stroke-width="2"/>
<path d="M1347.01 239.191L1155.01 326.97L1347.01 414.748L1539.01 326.97L1347.01 239.191Z" stroke="white" stroke-opacity="0.2" stroke-width="2"/>
<path d="M1538.97 326.974L1346.97 414.752L1538.97 502.531L1730.97 414.752L1538.97 326.974Z" stroke="white" stroke-opacity="0.2" stroke-width="2"/>
<path d="M1538.97 151.412L1346.97 239.19L1538.97 326.969L1730.97 239.19L1538.97 151.412Z" stroke="white" stroke-opacity="0.2" stroke-width="2"/>
<path d="M1109.51 119.182C1109.04 209.609 1104.45 301.208 1110.94 391.209C1113.63 428.363 1118.23 464.891 1120.89 502.113C1121.45 509.917 1121.82 517.736 1122.36 525.512C1122.74 531.024 1120.81 528.992 1119.01 526.811" stroke="#6FA9A5" stroke-width="2" stroke-linecap="round"/>
<path d="M1060.67 295.288C1070.74 331.869 1069.3 377.764 1069.3 417.618C1069.3 448.816 1068.81 480.01 1068.81 511.213C1068.81 516.554 1070.99 532.834 1068.13 535.433" stroke="black" stroke-width="2" stroke-linecap="round"/>
<path d="M1166.61 463.12C1171.23 490.656 1174.15 505.072 1176.93 533.59C1180.02 565.214 1180.36 597.045 1180.51 629.032C1180.63 654.919 1181.08 680.747 1182.28 706.549C1183.26 727.682 1184.42 749.048 1186.95 769.766" stroke="black" stroke-width="2" stroke-linecap="round"/>
<path d="M1243 414.88C1245.6 495.046 1246.71 575.226 1248.65 655.435C1249.19 678.055 1248.23 701.398 1250.12 723.852C1250.5 728.354 1252.81 738.12 1249.1 731.378" stroke="black" stroke-width="2" stroke-linecap="round"/>
<path d="M1129.84 340.853C1138.19 399.351 1138.44 462.735 1139.34 522.774C1139.84 556.503 1139.27 590.295 1140.69 623.964C1141.03 631.912 1141.79 639.814 1142.01 647.773C1142.14 652.258 1141.85 651.624 1140.02 649.962" stroke="black" stroke-width="2" stroke-linecap="round"/>
<path d="M1033.56 242.333C1033.56 348.728 1033.5 455.181 1034.27 561.568C1034.35 572.592 1036.58 587.563 1034.23 598.239" stroke="black" stroke-width="2" stroke-linecap="round"/>
<path d="M1191.1 -60C1191.1 -3.87437 1187.3 51.9561 1187.15 108.146C1187.02 157.735 1189.7 206.825 1191.47 256.201C1193.85 322.244 1194.99 388.391 1196.89 454.482C1197.83 487.079 1200.02 519.537 1201.63 552.011C1201.77 554.854 1203.29 579.605 1201.93 578.249" stroke="#6FA9A5" stroke-width="2" stroke-linecap="round"/>
<path d="M1088.77 554.165C1090.25 593.904 1092.11 633.61 1092.95 673.416C1093.22 686.102 1093.54 699.107 1092.84 711.798" stroke="black" stroke-width="2" stroke-linecap="round"/>
<path d="M1267.5 407.354C1267.45 469.39 1267.42 531.441 1266.3 593.449C1266 610.09 1264.79 626.603 1264.79 643.257C1264.79 646.078 1265.92 660.087 1263.43 658.583" stroke="black" stroke-width="2" stroke-linecap="round"/>
<path d="M1314.91 75.8398C1312.93 196.173 1310.93 316.976 1314.68 437.288C1315.82 473.779 1321.61 509.885 1320.98 546.482C1320.76 558.752 1320.33 570.912 1320.33 583.222C1320.33 587.434 1320.59 591.53 1318.98 585.685" stroke="#6FA9A5" stroke-width="2" stroke-linecap="round"/>
<path d="M1386.53 554.165C1386.62 579.129 1387.21 604.575 1387.21 629.287" stroke="black" stroke-width="2" stroke-linecap="round"/>
<path d="M1119.42 715.191C1120.46 743.591 1121.86 772.101 1122.14 800.576C1122.16 803.007 1122.5 804.807 1121.46 803.86" stroke="black" stroke-width="2" stroke-linecap="round"/>
<path d="M972.695 49C969.546 191.137 978.12 332.751 978.12 474.76C978.12 479.425 979.083 490.295 975.407 484.955" stroke="#6FA9A5" stroke-width="2" stroke-linecap="round"/>
<circle cx="1009.59" cy="139.79" r="47.4489" fill="black"/>
<path d="M1021.32 153.089C1022.24 151.569 1022.74 149.896 1022.74 148.021C1022.74 144.93 1021.68 142.701 1019.55 141.282C1017.42 139.863 1014.58 138.85 1011.04 138.241C1008.81 137.887 1007.03 137.532 1005.77 137.127C1004.45 136.721 1003.44 136.164 1002.63 135.404C1001.82 134.644 1001.41 133.579 1001.41 132.211C1001.41 130.387 1002.07 128.917 1003.49 127.904C1004.86 126.891 1006.73 126.333 1009.11 126.333C1011.44 126.333 1013.42 126.992 1015.04 128.208C1016.61 129.475 1017.52 131.147 1017.83 133.174H1022.19C1021.98 130.336 1020.97 128.005 1019.09 126.08C1017.17 124.154 1014.74 122.989 1011.7 122.533V117.212H1007.85V122.381C1004.6 122.634 1001.97 123.647 999.991 125.472C997.964 127.296 997.001 129.627 997.001 132.465C997.001 135.606 998.015 137.836 1000.14 139.204C1002.22 140.623 1005.06 141.586 1008.61 142.194C1010.84 142.599 1012.56 142.954 1013.88 143.359C1015.19 143.765 1016.26 144.322 1017.07 145.133C1017.88 145.944 1018.33 147.059 1018.33 148.427C1018.33 150.352 1017.57 151.822 1016.05 152.886C1014.53 153.95 1012.61 154.457 1010.18 154.457C1007.44 154.457 1005.21 153.748 1003.49 152.329C1001.71 150.91 1000.75 148.984 1000.6 146.552H996.241C996.342 149.795 997.457 152.43 999.484 154.558C1001.51 156.687 1004.3 157.953 1007.85 158.359V163.578H1011.7V158.409C1013.82 158.257 1015.75 157.7 1017.42 156.788C1019.09 155.876 1020.41 154.609 1021.32 153.089Z" fill="white"/>
<circle cx="1199.39" cy="605.843" r="70.6461" fill="black"/>
<path d="M1216.85 625.644C1218.21 623.38 1218.96 620.891 1218.96 618.099C1218.96 613.497 1217.38 610.177 1214.21 608.064C1211.04 605.952 1206.82 604.443 1201.54 603.538C1198.22 603.01 1195.58 602.481 1193.69 601.878C1191.73 601.274 1190.22 600.444 1189.01 599.313C1187.8 598.181 1187.2 596.597 1187.2 594.559C1187.2 591.843 1188.18 589.655 1190.29 588.146C1192.33 586.637 1195.12 585.808 1198.67 585.808C1202.14 585.808 1205.08 586.788 1207.5 588.599C1209.83 590.485 1211.19 592.975 1211.65 595.993H1218.13C1217.83 591.768 1216.32 588.297 1213.53 585.43C1210.66 582.563 1207.04 580.828 1202.52 580.149V572.227H1196.78V579.923C1191.95 580.3 1188.03 581.809 1185.09 584.525C1182.07 587.241 1180.64 590.712 1180.64 594.937C1180.64 599.614 1182.15 602.934 1185.31 604.971C1188.41 607.084 1192.63 608.517 1197.91 609.423C1201.23 610.026 1203.8 610.554 1205.76 611.158C1207.72 611.761 1209.31 612.591 1210.51 613.798C1211.72 615.006 1212.4 616.665 1212.4 618.703C1212.4 621.57 1211.27 623.758 1209 625.342C1206.74 626.926 1203.87 627.681 1200.25 627.681C1196.18 627.681 1192.86 626.625 1190.29 624.512C1187.65 622.399 1186.22 619.532 1185.99 615.911H1179.51C1179.66 620.74 1181.32 624.663 1184.33 627.832C1187.35 631 1191.5 632.887 1196.78 633.49V641.261H1202.52V633.566C1205.69 633.339 1208.55 632.509 1211.04 631.151C1213.53 629.793 1215.49 627.907 1216.85 625.644Z" fill="white"/>
<circle cx="906.551" cy="333.804" r="23.1972" fill="black"/>
<path d="M911.285 340.305C911.731 339.562 911.979 338.744 911.979 337.828C911.979 336.316 911.459 335.226 910.418 334.533C909.378 333.839 907.99 333.344 906.256 333.046C905.166 332.873 904.299 332.699 903.68 332.501C903.036 332.303 902.54 332.031 902.144 331.659C901.748 331.287 901.549 330.767 901.549 330.098C901.549 329.206 901.871 328.488 902.565 327.992C903.234 327.497 904.151 327.224 905.315 327.224C906.455 327.224 907.421 327.546 908.213 328.141C908.981 328.76 909.427 329.578 909.576 330.569H911.707C911.607 329.182 911.112 328.042 910.195 327.101C909.254 326.159 908.065 325.589 906.578 325.366V322.765H904.696V325.292C903.11 325.416 901.822 325.911 900.856 326.803C899.865 327.695 899.394 328.835 899.394 330.222C899.394 331.758 899.889 332.848 900.93 333.517C901.946 334.211 903.333 334.681 905.067 334.979C906.157 335.177 907 335.35 907.644 335.548C908.288 335.747 908.808 336.019 909.204 336.415C909.601 336.812 909.824 337.357 909.824 338.026C909.824 338.967 909.452 339.686 908.709 340.206C907.966 340.726 907.024 340.974 905.835 340.974C904.497 340.974 903.407 340.627 902.565 339.933C901.698 339.24 901.227 338.298 901.153 337.109H899.022C899.072 338.695 899.617 339.983 900.608 341.023C901.599 342.064 902.961 342.683 904.696 342.881V345.433H906.578V342.906C907.619 342.832 908.56 342.559 909.378 342.113C910.195 341.667 910.839 341.048 911.285 340.305Z" fill="white"/>
<circle cx="1176.19" cy="245.232" r="28.4693" fill="black"/>
<path d="M1183.23 253.212C1183.77 252.3 1184.08 251.296 1184.08 250.171C1184.08 248.317 1183.44 246.979 1182.16 246.128C1180.89 245.276 1179.18 244.668 1177.06 244.303C1175.72 244.09 1174.65 243.878 1173.89 243.634C1173.1 243.391 1172.49 243.057 1172.01 242.601C1171.52 242.145 1171.28 241.506 1171.28 240.685C1171.28 239.591 1171.67 238.709 1172.53 238.101C1173.35 237.493 1174.47 237.158 1175.9 237.158C1177.3 237.158 1178.48 237.554 1179.46 238.283C1180.4 239.043 1180.95 240.047 1181.13 241.263H1183.74C1183.62 239.56 1183.01 238.162 1181.89 237.006C1180.73 235.851 1179.27 235.152 1177.45 234.878V231.686H1175.14V234.787C1173.19 234.939 1171.61 235.547 1170.43 236.641C1169.21 237.736 1168.63 239.135 1168.63 240.837C1168.63 242.722 1169.24 244.06 1170.52 244.881C1171.76 245.732 1173.47 246.31 1175.6 246.675C1176.93 246.918 1177.97 247.131 1178.76 247.374C1179.55 247.617 1180.19 247.952 1180.67 248.438C1181.16 248.925 1181.43 249.594 1181.43 250.414C1181.43 251.57 1180.98 252.452 1180.07 253.09C1179.15 253.729 1178 254.033 1176.54 254.033C1174.9 254.033 1173.56 253.607 1172.53 252.756C1171.46 251.904 1170.88 250.749 1170.79 249.29H1168.18C1168.24 251.235 1168.91 252.816 1170.12 254.093C1171.34 255.37 1173.01 256.13 1175.14 256.374V259.505H1177.45V256.404C1178.73 256.313 1179.88 255.978 1180.89 255.431C1181.89 254.884 1182.68 254.124 1183.23 253.212Z" fill="white"/>
<circle cx="1062.31" cy="407.612" r="47.4489" fill="black"/>
<path d="M1074.05 420.911C1074.96 419.39 1075.46 417.718 1075.46 415.843C1075.46 412.752 1074.4 410.522 1072.27 409.104C1070.14 407.685 1067.31 406.671 1063.76 406.063C1061.53 405.708 1059.76 405.354 1058.49 404.948C1057.17 404.543 1056.16 403.986 1055.35 403.225C1054.54 402.465 1054.13 401.401 1054.13 400.033C1054.13 398.209 1054.79 396.739 1056.21 395.726C1057.58 394.712 1059.45 394.155 1061.83 394.155C1064.16 394.155 1066.14 394.814 1067.76 396.03C1069.33 397.297 1070.24 398.969 1070.55 400.996H1074.91C1074.7 398.158 1073.69 395.827 1071.82 393.902C1069.89 391.976 1067.46 390.81 1064.42 390.354V385.034H1060.57V390.202C1057.32 390.456 1054.69 391.469 1052.71 393.293C1050.68 395.118 1049.72 397.449 1049.72 400.286C1049.72 403.428 1050.74 405.658 1052.86 407.026C1054.94 408.445 1057.78 409.408 1061.33 410.016C1063.56 410.421 1065.28 410.776 1066.6 411.181C1067.91 411.587 1068.98 412.144 1069.79 412.955C1070.6 413.766 1071.06 414.88 1071.06 416.249C1071.06 418.174 1070.3 419.644 1068.78 420.708C1067.26 421.772 1065.33 422.279 1062.9 422.279C1060.16 422.279 1057.93 421.569 1056.21 420.15C1054.43 418.732 1053.47 416.806 1053.32 414.374H1048.96C1049.06 417.617 1050.18 420.252 1052.21 422.38C1054.23 424.508 1057.02 425.775 1060.57 426.181V431.4H1064.42V426.231C1066.55 426.079 1068.47 425.522 1070.14 424.61C1071.82 423.698 1073.13 422.431 1074.05 420.911Z" fill="white"/>
</svg>
