<svg width="207" height="52" viewBox="0 0 207 52" fill="none" xmlns="http://www.w3.org/2000/svg">
<path d="M174.094 0.631306C165.322 2.46725 157.647 9.08629 154.706 17.2997C148.925 33.3883 159.989 50.1534 177.533 51.8927C187.501 52.859 198.616 47.2062 203.201 38.7512C205.793 33.9681 206.54 31.0693 206.54 25.9963C206.54 16.1885 201.257 7.58855 192.436 3.09533C186.554 0.0998535 180.474 -0.721493 174.094 0.631306ZM185.059 10.5357C187.501 11.2604 189.046 12.1301 191.04 13.9177C198.566 20.5851 198.566 31.4074 191.04 38.0748C184.262 44.0658 174.044 43.6309 167.765 37.1085C164.276 33.485 163.229 30.9726 163.229 25.9963C163.229 21.0199 164.276 18.5076 167.715 14.9323C172.45 10.0526 178.381 8.55484 185.059 10.5357Z" fill="black"/>
<path d="M0 5.22948V10.0609H9.22045H18.4409V30.836V51.6111H23.4249H28.409V30.836V10.0126L47.9962 10.1575L67.5336 10.3025L69.1783 11.4137C70.0754 12.0418 71.2217 13.3946 71.77 14.4092C76.0563 22.5743 65.1911 30.2562 58.5125 23.7821C56.6684 21.9462 55.8211 19.6271 55.8211 16.1968V13.926H50.8371H45.8531L45.9527 32.6236L46.1023 51.3695L50.9866 51.5145L55.8211 51.6594V42.9146C55.8211 38.1315 55.9706 34.218 56.1201 34.218C56.2697 34.218 57.4658 34.5562 58.8115 34.991C61.1042 35.7157 65.3406 35.7641 70.7732 35.0877C71.9195 34.9427 72.1687 35.2809 73.7138 39.0494C74.6109 41.2719 75.8569 45.0404 76.455 47.3595L77.5016 51.6111H82.386C88.1176 51.6111 87.8684 52.0459 85.9745 44.6056C84.7285 39.6292 83.4326 36.0539 80.9904 31.1259L79.6448 28.3237L80.6416 26.2945C85.3764 17.0665 81.5387 6.2924 71.8697 1.94412L69.0288 0.639637L34.5393 0.494694L0 0.349754V5.22948Z" fill="black"/>
<path d="M91.7079 25.9931V51.5996H96.692H101.676V25.9931V0.386562H96.692H91.7079V25.9931Z" fill="black"/>
<path d="M107.654 25.9448V51.5996H121.111C138.755 51.5996 141.247 51.0682 146.082 46.2367C149.471 42.8547 150.667 39.5211 150.418 34.2065C150.168 29.2301 148.673 26.0897 144.885 22.8044L142.443 20.6785L143.091 18.8909C145.284 12.4651 142.144 4.97642 135.814 1.69106C133.92 0.676456 133.023 0.628139 120.762 0.4832L107.654 0.338257V25.9448ZM132.625 11.4505C133.621 12.4168 134.07 13.3348 134.07 14.3977C134.07 15.4606 133.621 16.3786 132.625 17.3448C131.229 18.6976 130.93 18.746 126.893 18.746H122.607V23.5774V28.4088H128.986C136.213 28.4088 138.007 28.9403 139.951 31.7908C140.898 33.1436 141.097 33.9166 140.898 35.8492C140.699 37.8784 140.4 38.5065 138.655 40.1008L136.612 41.9368H126.843H117.124V25.9931V10.0494H124.152H131.179L132.625 11.4505Z" fill="black"/>
</svg>
