<svg width="390" height="680" viewBox="0 0 390 680" fill="none" xmlns="http://www.w3.org/2000/svg">
<path d="M129.259 0H115V36.6856H122.505V24.3697H129.259C131.761 24.3697 133.963 23.898 135.864 22.9023C137.765 21.9065 139.266 20.4915 140.317 18.6572C141.368 16.8229 141.918 14.6742 141.918 12.211C141.918 9.80028 141.368 7.65156 140.317 5.76487C139.266 3.9306 137.765 2.51558 135.864 1.51983C133.963 0.524079 131.761 0 129.259 0ZM122.505 17.8187V6.55099H128.559C130.31 6.55099 131.711 7.07507 132.762 8.07082C133.762 9.11898 134.313 10.4816 134.313 12.211C134.313 13.9405 133.762 15.3031 132.762 16.2989C131.711 17.347 130.31 17.8187 128.559 17.8187H122.505Z" fill="black"/>
<path d="M145.574 0V36.6856H152.629V0H145.574Z" fill="black"/>
<path d="M182.862 30.449H182.061C181.461 30.449 181.06 30.3442 180.81 30.0822C180.51 29.8725 180.41 29.4008 180.41 28.7195V19.2337C180.41 16.0892 179.409 13.6261 177.408 11.949C175.407 10.272 172.605 9.43343 169.002 9.43343C165.5 9.43343 162.748 10.2195 160.647 11.7394C158.545 13.2592 157.345 15.4079 157.144 18.1331H163.949C164.099 17.1374 164.599 16.3513 165.45 15.7224C166.25 15.1459 167.351 14.8314 168.652 14.8314C170.103 14.8314 171.254 15.1983 172.154 15.932C173.005 16.6657 173.455 17.6091 173.455 18.8144V20.1246H168.352C164.499 20.1246 161.547 20.9108 159.546 22.483C157.545 24.0552 156.544 26.2564 156.544 29.0864C156.544 31.602 157.395 33.5935 159.146 34.9561C160.897 36.3187 163.198 37 166.1 37C168.002 37 169.653 36.6331 171.054 35.7946C172.405 35.0085 173.555 33.8555 174.506 32.2833C174.406 35.2181 176.007 36.6856 179.259 36.6856H182.862V30.449ZM173.455 25.051V25.5751C173.405 27.4618 172.855 28.9292 171.804 30.0297C170.703 31.1303 169.252 31.6544 167.451 31.6544C166.25 31.6544 165.35 31.3924 164.649 30.8159C163.949 30.2918 163.649 29.5057 163.649 28.5623C163.649 27.4618 164.049 26.6232 164.85 25.9943C165.65 25.3654 166.801 25.051 168.302 25.051H173.455Z" fill="black"/>
<path d="M206.304 34.2224C208.506 32.3357 209.807 29.7677 210.307 26.466H203.052C202.752 27.881 202.152 28.9816 201.251 29.7677C200.35 30.6062 199.2 30.9731 197.849 30.9731C195.998 30.9731 194.547 30.2918 193.446 28.8244C192.345 27.4094 191.795 25.5227 191.795 23.2167C191.795 20.9108 192.345 19.0765 193.446 17.6091C194.547 16.1941 195.998 15.4603 197.849 15.4603C199.15 15.4603 200.3 15.8796 201.201 16.6657C202.102 17.4518 202.702 18.5 203.002 19.8102H210.307C209.807 16.5609 208.456 14.0453 206.304 12.211C204.103 10.3768 201.301 9.43343 197.899 9.43343C195.197 9.43343 192.845 10.0099 190.844 11.1629C188.843 12.3159 187.292 13.8881 186.191 15.9844C185.09 18.0807 184.59 20.4915 184.59 23.2167C184.59 25.9419 185.09 28.3527 186.191 30.449C187.292 32.5453 188.843 34.17 190.844 35.3229C192.845 36.4759 195.147 37 197.849 37C201.301 37 204.103 36.1091 206.304 34.2224Z" fill="black"/>
<path d="M214.384 15.9844C213.283 18.0807 212.783 20.4915 212.783 23.2691C212.783 26.0467 213.333 28.4575 214.434 30.5538C215.534 32.6501 217.135 34.2224 219.237 35.3229C221.338 36.4759 223.79 37 226.692 37C228.893 37 230.845 36.6331 232.546 35.7946C234.247 34.9561 235.598 33.8555 236.648 32.3881C237.649 30.9731 238.3 29.3484 238.6 27.5666H231.645C231.345 28.8244 230.694 29.8201 229.744 30.449C228.793 31.0779 227.592 31.3924 226.191 31.3924C224.39 31.3924 222.939 30.8683 221.939 29.7153C220.888 28.6147 220.288 27.0949 220.137 25.1034V24.8938H238.8C238.9 24.1601 239 23.3215 239 22.3782C238.95 19.7578 238.35 17.5042 237.249 15.5652C236.148 13.6261 234.597 12.1062 232.596 11.0581C230.594 10.0099 228.343 9.43343 225.741 9.43343C223.139 9.43343 220.888 10.0099 218.937 11.1629C216.985 12.3159 215.484 13.8881 214.384 15.9844ZM231.945 20.0722H220.288C220.488 18.5 221.088 17.2946 222.139 16.3513C223.189 15.4079 224.49 14.9363 226.041 14.9363C227.642 14.9363 228.943 15.4079 229.994 16.2989C231.045 17.1898 231.695 18.4476 231.945 20.0722Z" fill="black"/>
<path d="M91.632 600.087V616.887H102.648V614.967H93.72V609.303H100.896V607.383H93.72V602.007H102.336V600.087H91.632ZM106.239 612.855H104.271C104.271 614.175 104.775 615.207 105.735 615.927C106.695 616.671 107.991 617.031 109.599 617.031C110.487 617.031 111.303 616.887 112.047 616.575C112.767 616.287 113.367 615.855 113.799 615.279C114.231 614.727 114.447 614.079 114.447 613.335C114.447 612.495 114.231 611.823 113.799 611.319C113.367 610.839 112.815 610.479 112.119 610.239C111.423 610.023 110.535 609.855 109.479 609.711C108.711 609.615 108.135 609.543 107.751 609.447C107.367 609.375 107.079 609.231 106.839 608.991C106.599 608.775 106.479 608.463 106.479 608.031C106.479 607.479 106.719 607.023 107.247 606.687C107.751 606.351 108.423 606.159 109.263 606.159C110.079 606.159 110.751 606.375 111.303 606.783C111.831 607.215 112.143 607.743 112.239 608.367H114.207C114.111 607.119 113.607 606.159 112.695 605.487C111.783 604.815 110.631 604.479 109.191 604.479C108.303 604.479 107.511 604.647 106.815 604.959C106.095 605.271 105.543 605.703 105.135 606.255C104.727 606.831 104.535 607.455 104.535 608.175C104.535 608.991 104.727 609.615 105.159 610.071C105.567 610.527 106.119 610.863 106.791 611.055C107.463 611.271 108.327 611.439 109.383 611.559C110.127 611.655 110.703 611.751 111.111 611.847C111.519 611.943 111.855 612.135 112.119 612.375C112.359 612.639 112.503 612.999 112.503 613.479C112.503 614.055 112.215 614.511 111.687 614.847C111.159 615.183 110.463 615.351 109.599 615.351C108.615 615.351 107.823 615.135 107.199 614.655C106.575 614.199 106.263 613.599 106.239 612.855ZM117.496 606.447V613.695C117.496 614.799 117.736 615.615 118.216 616.119C118.696 616.647 119.536 616.887 120.688 616.887H122.944V615.087H120.808C120.304 615.087 119.944 614.991 119.752 614.775C119.56 614.559 119.464 614.199 119.464 613.671V606.447H122.56V604.647H119.464V601.215H117.496V604.647H115.288V606.447H117.496ZM134.88 604.647H132.912V610.767C132.912 612.159 132.576 613.239 131.952 614.031C131.328 614.847 130.44 615.231 129.336 615.231C128.304 615.231 127.512 614.919 126.96 614.247C126.408 613.575 126.144 612.615 126.144 611.343V604.647H124.176V611.463C124.176 613.383 124.608 614.799 125.496 615.687C126.36 616.599 127.536 617.031 129 617.031C130.68 617.031 131.976 616.455 132.912 615.255L133.176 616.887H134.88V604.647ZM149.179 600.087H147.211V606.519C146.803 605.895 146.251 605.415 145.555 605.055C144.835 604.695 143.995 604.503 143.011 604.503C141.883 604.503 140.875 604.767 139.987 605.295C139.075 605.823 138.379 606.567 137.875 607.503C137.371 608.463 137.131 609.543 137.131 610.767C137.131 612.063 137.371 613.191 137.875 614.127C138.379 615.087 139.075 615.807 139.963 616.287C140.851 616.791 141.859 617.031 143.011 617.031C144.787 617.031 146.179 616.335 147.211 614.919L147.475 616.887H149.179V600.087ZM145.291 614.727C144.667 615.111 143.971 615.279 143.203 615.279C141.979 615.279 140.995 614.871 140.251 614.031C139.507 613.191 139.147 612.111 139.147 610.767C139.147 609.447 139.507 608.367 140.251 607.527C140.995 606.687 141.979 606.255 143.203 606.255C143.971 606.255 144.667 606.447 145.291 606.831C145.915 607.215 146.395 607.767 146.731 608.463C147.067 609.159 147.235 609.951 147.235 610.815C147.235 611.679 147.067 612.471 146.731 613.143C146.395 613.815 145.915 614.343 145.291 614.727ZM154.332 616.239C155.244 616.767 156.3 617.031 157.5 617.031C158.676 617.031 159.732 616.767 160.644 616.239C161.556 615.711 162.276 614.991 162.804 614.031C163.308 613.095 163.572 612.015 163.572 610.767C163.572 609.543 163.308 608.463 162.804 607.503C162.276 606.567 161.556 605.823 160.644 605.295C159.732 604.767 158.676 604.503 157.5 604.503C156.3 604.503 155.244 604.767 154.332 605.295C153.42 605.823 152.7 606.567 152.196 607.503C151.668 608.463 151.428 609.543 151.428 610.767C151.428 612.015 151.668 613.095 152.196 614.031C152.7 614.991 153.42 615.711 154.332 616.239ZM159.612 614.703C158.988 615.087 158.292 615.279 157.5 615.279C156.684 615.279 155.988 615.087 155.364 614.703C154.74 614.319 154.284 613.791 153.948 613.095C153.612 612.423 153.444 611.631 153.444 610.767C153.444 609.903 153.612 609.135 153.948 608.439C154.284 607.767 154.74 607.215 155.364 606.831C155.988 606.447 156.684 606.255 157.5 606.255C158.292 606.255 158.988 606.447 159.612 606.831C160.236 607.215 160.716 607.767 161.052 608.439C161.388 609.135 161.556 609.903 161.556 610.767C161.556 611.631 161.388 612.423 161.052 613.095C160.716 613.791 160.236 614.319 159.612 614.703ZM170.886 604.647L175.47 616.887H177.846L182.43 604.647H180.366L176.694 614.655L172.998 604.647H170.886ZM185.902 616.239C186.814 616.767 187.87 617.031 189.07 617.031C190.246 617.031 191.302 616.767 192.214 616.239C193.126 615.711 193.846 614.991 194.374 614.031C194.878 613.095 195.142 612.015 195.142 610.767C195.142 609.543 194.878 608.463 194.374 607.503C193.846 606.567 193.126 605.823 192.214 605.295C191.302 604.767 190.246 604.503 189.07 604.503C187.87 604.503 186.814 604.767 185.902 605.295C184.99 605.823 184.27 606.567 183.766 607.503C183.238 608.463 182.998 609.543 182.998 610.767C182.998 612.015 183.238 613.095 183.766 614.031C184.27 614.991 184.99 615.711 185.902 616.239ZM191.182 614.703C190.558 615.087 189.862 615.279 189.07 615.279C188.254 615.279 187.558 615.087 186.934 614.703C186.31 614.319 185.854 613.791 185.518 613.095C185.182 612.423 185.014 611.631 185.014 610.767C185.014 609.903 185.182 609.135 185.518 608.439C185.854 607.767 186.31 607.215 186.934 606.831C187.558 606.447 188.254 606.255 189.07 606.255C189.862 606.255 190.558 606.447 191.182 606.831C191.806 607.215 192.286 607.767 192.622 608.439C192.958 609.135 193.126 609.903 193.126 610.767C193.126 611.631 192.958 612.423 192.622 613.095C192.286 613.791 191.806 614.319 191.182 614.703ZM197.399 600.087V616.887H199.367V600.087H197.399ZM212.599 604.647H210.631V610.767C210.631 612.159 210.295 613.239 209.671 614.031C209.047 614.847 208.159 615.231 207.055 615.231C206.023 615.231 205.231 614.919 204.679 614.247C204.127 613.575 203.863 612.615 203.863 611.343V604.647H201.895V611.463C201.895 613.383 202.327 614.799 203.215 615.687C204.079 616.599 205.255 617.031 206.719 617.031C208.399 617.031 209.695 616.455 210.631 615.255L210.895 616.887H212.599V604.647ZM232.274 605.799C231.41 604.935 230.306 604.503 228.938 604.503C226.97 604.503 225.554 605.295 224.69 606.831C224.354 606.063 223.826 605.487 223.154 605.103C222.482 604.719 221.69 604.503 220.826 604.503C219.314 604.503 218.114 605.127 217.25 606.327L216.986 604.647H215.282V616.887H217.25V610.431C217.25 609.207 217.538 608.223 218.114 607.455C218.69 606.687 219.482 606.303 220.49 606.303C221.426 606.303 222.146 606.615 222.674 607.239C223.178 607.863 223.442 608.775 223.442 609.951V616.887H225.41V610.335C225.41 609.087 225.698 608.103 226.273 607.383C226.85 606.663 227.666 606.303 228.698 606.303C229.61 606.303 230.33 606.615 230.834 607.239C231.338 607.863 231.602 608.775 231.602 609.951V616.887H233.57V609.831C233.57 608.007 233.138 606.663 232.274 605.799ZM236.382 607.479C235.902 608.439 235.662 609.519 235.662 610.767C235.662 612.015 235.902 613.095 236.406 614.055C236.91 615.015 237.63 615.735 238.542 616.263C239.454 616.791 240.51 617.031 241.734 617.031C243.126 617.031 244.302 616.647 245.262 615.855C246.222 615.063 246.822 614.031 247.062 612.783H245.07C244.854 613.575 244.446 614.199 243.822 614.631C243.198 615.063 242.454 615.279 241.59 615.279C240.438 615.279 239.526 614.919 238.83 614.199C238.11 613.479 237.75 612.519 237.726 611.319V611.151H247.23C247.254 610.767 247.278 610.503 247.278 610.311C247.23 609.135 246.966 608.103 246.486 607.215C245.982 606.351 245.31 605.679 244.446 605.199C243.582 604.743 242.574 604.503 241.47 604.503C240.318 604.503 239.31 604.767 238.446 605.295C237.558 605.823 236.862 606.543 236.382 607.479ZM245.238 609.519H237.846C237.942 608.559 238.326 607.767 239.046 607.143C239.742 606.543 240.558 606.231 241.494 606.231C242.526 606.231 243.39 606.519 244.062 607.095C244.734 607.671 245.142 608.487 245.238 609.519ZM240.678 603.183H242.214L245.022 599.943H242.718L240.678 603.183ZM250.199 606.447V613.695C250.199 614.799 250.439 615.615 250.919 616.119C251.399 616.647 252.239 616.887 253.391 616.887H255.647V615.087H253.511C253.007 615.087 252.647 614.991 252.455 614.775C252.263 614.559 252.167 614.199 252.167 613.671V606.447H255.263V604.647H252.167V601.215H250.199V604.647H247.991V606.447H250.199ZM263.263 604.647H262.711C261.703 604.647 260.935 604.815 260.383 605.151C259.807 605.487 259.351 605.943 259.015 606.495L258.751 604.647H257.047V616.887H259.015V610.647C259.015 609.495 259.255 608.535 259.759 607.743C260.263 606.975 261.103 606.567 262.279 606.567H263.263V604.647ZM266.959 600.279C266.719 600.039 266.407 599.919 266.047 599.919C265.663 599.919 265.375 600.039 265.135 600.279C264.895 600.519 264.775 600.831 264.775 601.191C264.775 601.575 264.895 601.863 265.135 602.103C265.375 602.343 265.663 602.463 266.047 602.463C266.407 602.463 266.719 602.343 266.959 602.103C267.199 601.863 267.319 601.575 267.319 601.191C267.319 600.831 267.199 600.519 266.959 600.279ZM265.063 604.647V616.887H267.031V604.647H265.063ZM278.847 615.879C279.783 615.111 280.383 614.031 280.647 612.663H278.679C278.487 613.479 278.103 614.127 277.503 614.583C276.879 615.063 276.135 615.279 275.247 615.279C274.071 615.279 273.111 614.871 272.391 614.031C271.671 613.191 271.311 612.087 271.311 610.743C271.311 609.423 271.671 608.343 272.391 607.503C273.111 606.687 274.071 606.255 275.247 606.255C276.111 606.255 276.831 606.495 277.455 606.951C278.055 607.431 278.463 608.055 278.655 608.823H280.647C280.407 607.479 279.807 606.423 278.871 605.655C277.935 604.887 276.759 604.503 275.319 604.503C274.119 604.503 273.087 604.767 272.175 605.295C271.263 605.823 270.543 606.543 270.039 607.479C269.535 608.439 269.295 609.519 269.295 610.743C269.295 611.991 269.535 613.071 270.039 614.031C270.519 614.991 271.215 615.711 272.127 616.239C273.015 616.767 274.047 617.031 275.247 617.031C276.687 617.031 277.887 616.647 278.847 615.879ZM285.136 616.239C286.048 616.767 287.104 617.031 288.304 617.031C289.48 617.031 290.536 616.767 291.448 616.239C292.36 615.711 293.08 614.991 293.608 614.031C294.112 613.095 294.376 612.015 294.376 610.767C294.376 609.543 294.112 608.463 293.608 607.503C293.08 606.567 292.36 605.823 291.448 605.295C290.536 604.767 289.48 604.503 288.304 604.503C287.104 604.503 286.048 604.767 285.136 605.295C284.224 605.823 283.504 606.567 283 607.503C282.472 608.463 282.232 609.543 282.232 610.767C282.232 612.015 282.472 613.095 283 614.031C283.504 614.991 284.224 615.711 285.136 616.239ZM290.416 614.703C289.792 615.087 289.096 615.279 288.304 615.279C287.488 615.279 286.792 615.087 286.168 614.703C285.544 614.319 285.088 613.791 284.752 613.095C284.416 612.423 284.248 611.631 284.248 610.767C284.248 609.903 284.416 609.135 284.752 608.439C285.088 607.767 285.544 607.215 286.168 606.831C286.792 606.447 287.488 606.255 288.304 606.255C289.096 606.255 289.792 606.447 290.416 606.831C291.04 607.215 291.52 607.767 291.856 608.439C292.192 609.135 292.36 609.903 292.36 610.767C292.36 611.631 292.192 612.423 291.856 613.095C291.52 613.791 291.04 614.319 290.416 614.703Z" fill="#535353"/>
<path d="M98.088 658.2H91.632V675H93.72V668.544H98.088C99.192 668.544 100.152 668.352 100.992 667.92C101.832 667.488 102.48 666.888 102.96 666.096C103.416 665.328 103.656 664.416 103.656 663.36C103.656 662.328 103.416 661.416 102.96 660.648C102.504 659.88 101.856 659.28 101.016 658.848C100.152 658.416 99.192 658.2 98.088 658.2ZM93.72 666.624V660.12H97.92C99.024 660.12 99.888 660.432 100.536 661.008C101.184 661.584 101.52 662.376 101.52 663.36C101.52 664.368 101.184 665.16 100.536 665.736C99.864 666.336 99 666.624 97.896 666.624H93.72ZM111.81 662.76H111.258C110.25 662.76 109.482 662.928 108.93 663.264C108.354 663.6 107.898 664.056 107.562 664.608L107.298 662.76H105.594V675H107.562V668.76C107.562 667.608 107.802 666.648 108.306 665.856C108.81 665.088 109.65 664.68 110.826 664.68H111.81V662.76ZM115.379 674.352C116.291 674.88 117.347 675.144 118.547 675.144C119.723 675.144 120.779 674.88 121.691 674.352C122.603 673.824 123.323 673.104 123.851 672.144C124.355 671.208 124.619 670.128 124.619 668.88C124.619 667.656 124.355 666.576 123.851 665.616C123.323 664.68 122.603 663.936 121.691 663.408C120.779 662.88 119.723 662.616 118.547 662.616C117.347 662.616 116.291 662.88 115.379 663.408C114.467 663.936 113.747 664.68 113.243 665.616C112.715 666.576 112.475 667.656 112.475 668.88C112.475 670.128 112.715 671.208 113.243 672.144C113.747 673.104 114.467 673.824 115.379 674.352ZM120.659 672.816C120.035 673.2 119.339 673.392 118.547 673.392C117.73 673.392 117.035 673.2 116.411 672.816C115.787 672.432 115.331 671.904 114.995 671.208C114.659 670.536 114.491 669.744 114.491 668.88C114.491 668.016 114.659 667.248 114.995 666.552C115.331 665.88 115.787 665.328 116.411 664.944C117.035 664.56 117.73 664.368 118.547 664.368C119.339 664.368 120.035 664.56 120.659 664.944C121.283 665.328 121.763 665.88 122.099 666.552C122.435 667.248 122.603 668.016 122.603 668.88C122.603 669.744 122.435 670.536 122.099 671.208C121.763 671.904 121.283 672.432 120.659 672.816ZM128.915 658.392C128.675 658.152 128.363 658.032 128.003 658.032C127.619 658.032 127.331 658.152 127.091 658.392C126.851 658.632 126.731 658.944 126.731 659.304C126.731 659.688 126.851 659.976 127.091 660.216C127.331 660.456 127.619 660.576 128.003 660.576C128.363 660.576 128.675 660.456 128.915 660.216C129.155 659.976 129.275 659.688 129.275 659.304C129.275 658.944 129.155 658.632 128.915 658.392ZM125.675 678H124.139V679.8H125.795C126.899 679.8 127.715 679.56 128.219 679.032C128.723 678.504 128.987 677.712 128.987 676.608V662.76H127.019V676.656C127.019 677.136 126.899 677.496 126.707 677.688C126.491 677.904 126.155 678 125.675 678ZM131.968 665.592C131.488 666.552 131.248 667.632 131.248 668.88C131.248 670.128 131.488 671.208 131.992 672.168C132.496 673.128 133.216 673.848 134.128 674.376C135.04 674.904 136.096 675.144 137.32 675.144C138.712 675.144 139.888 674.76 140.848 673.968C141.808 673.176 142.408 672.144 142.648 670.896H140.656C140.44 671.688 140.032 672.312 139.408 672.744C138.784 673.176 138.04 673.392 137.176 673.392C136.024 673.392 135.112 673.032 134.416 672.312C133.696 671.592 133.336 670.632 133.312 669.432V669.264H142.816C142.84 668.88 142.864 668.616 142.864 668.424C142.816 667.248 142.552 666.216 142.072 665.328C141.568 664.464 140.896 663.792 140.032 663.312C139.168 662.856 138.16 662.616 137.056 662.616C135.904 662.616 134.896 662.88 134.032 663.408C133.144 663.936 132.448 664.656 131.968 665.592ZM140.824 667.632H133.432C133.528 666.672 133.912 665.88 134.632 665.256C135.328 664.656 136.144 664.344 137.08 664.344C138.112 664.344 138.976 664.632 139.648 665.208C140.32 665.784 140.728 666.6 140.824 667.632ZM145.785 664.56V671.808C145.785 672.912 146.025 673.728 146.505 674.232C146.985 674.76 147.825 675 148.977 675H151.233V673.2H149.097C148.593 673.2 148.233 673.104 148.041 672.888C147.849 672.672 147.753 672.312 147.753 671.784V664.56H150.849V662.76H147.753V659.328H145.785V662.76H143.577V664.56H145.785ZM154.8 674.352C155.712 674.88 156.768 675.144 157.968 675.144C159.144 675.144 160.2 674.88 161.112 674.352C162.024 673.824 162.744 673.104 163.272 672.144C163.776 671.208 164.04 670.128 164.04 668.88C164.04 667.656 163.776 666.576 163.272 665.616C162.744 664.68 162.024 663.936 161.112 663.408C160.2 662.88 159.144 662.616 157.968 662.616C156.768 662.616 155.712 662.88 154.8 663.408C153.888 663.936 153.168 664.68 152.664 665.616C152.136 666.576 151.896 667.656 151.896 668.88C151.896 670.128 152.136 671.208 152.664 672.144C153.168 673.104 153.888 673.824 154.8 674.352ZM160.08 672.816C159.456 673.2 158.76 673.392 157.968 673.392C157.152 673.392 156.456 673.2 155.832 672.816C155.208 672.432 154.752 671.904 154.416 671.208C154.08 670.536 153.912 669.744 153.912 668.88C153.912 668.016 154.08 667.248 154.416 666.552C154.752 665.88 155.208 665.328 155.832 664.944C156.456 664.56 157.152 664.368 157.968 664.368C158.76 664.368 159.456 664.56 160.08 664.944C160.704 665.328 161.184 665.88 161.52 666.552C161.856 667.248 162.024 668.016 162.024 668.88C162.024 669.744 161.856 670.536 161.52 671.208C161.184 671.904 160.704 672.432 160.08 672.816Z" fill="#535353"/>
<path d="M11 583.587L12.5 583.587V583.587H11ZM57.0607 610.939C57.6464 611.525 57.6464 612.475 57.0607 613.061L47.5147 622.607C46.9289 623.192 45.9792 623.192 45.3934 622.607C44.8076 622.021 44.8076 621.071 45.3934 620.485L53.8787 612L45.3934 603.515C44.8076 602.929 44.8076 601.979 45.3934 601.393C45.9792 600.808 46.9289 600.808 47.5147 601.393L57.0607 610.939ZM12.5 525.413L12.5 583.587L9.50001 583.587L9.5 525.413L12.5 525.413ZM40.3478 613.5C23.3572 613.5 9.50001 600.153 9.50001 583.587H12.5C12.5 598.405 24.9218 610.5 40.3478 610.5V613.5ZM56 613.5H40.3478V610.5H56V613.5Z" fill="#808080"/>
<path d="M23 632.488L21.5 632.488V632.488H23ZM23 647.512L21.5 647.512L21.5 647.512L23 647.512ZM57.0607 666.939C57.6464 667.525 57.6464 668.475 57.0607 669.061L47.5147 678.607C46.9289 679.192 45.9792 679.192 45.3934 678.607C44.8076 678.021 44.8076 677.071 45.3934 676.485L53.8787 668L45.3934 659.515C44.8076 658.929 44.8076 657.979 45.3934 657.393C45.9792 656.808 46.9289 656.808 47.5147 657.393L57.0607 666.939ZM56 613.5H44.5217V610.5H56V613.5ZM24.5 632.488L24.5 647.512L21.5 647.512L21.5 632.488L24.5 632.488ZM44.5217 613.5C33.3936 613.5 24.5 622.07 24.5 632.488H21.5C21.5 620.276 31.8776 610.5 44.5217 610.5V613.5ZM44.5217 669.5C31.8776 669.5 21.5 659.724 21.5 647.512L24.5 647.512C24.5 657.93 33.3936 666.5 44.5217 666.5V669.5ZM56 669.5H44.5217V666.5H56V669.5Z" fill="#808080"/>
<path d="M321.293 97.2929C320.902 97.6834 320.902 98.3166 321.293 98.7071L327.657 105.071C328.047 105.462 328.681 105.462 329.071 105.071C329.462 104.681 329.462 104.047 329.071 103.657L323.414 98L329.071 92.3431C329.462 91.9526 329.462 91.3195 329.071 90.9289C328.681 90.5384 328.047 90.5384 327.657 90.9289L321.293 97.2929ZM342.208 226.5H345.724V224.5H342.208V226.5ZM352.755 226.5H359.787V224.5H352.755V226.5ZM366.818 226.5H370.334V224.5H366.818V226.5ZM370.334 226.5C371.525 226.5 372.692 226.388 373.821 226.175L373.45 224.21C372.442 224.4 371.4 224.5 370.334 224.5V226.5ZM380.31 223.603C382.299 222.331 384.017 220.688 385.359 218.774L383.721 217.626C382.531 219.324 381.004 220.785 379.232 221.918L380.31 223.603ZM388.142 212.353C388.377 211.22 388.5 210.05 388.5 208.852H386.5C386.5 209.912 386.391 210.947 386.184 211.947L388.142 212.353ZM388.5 208.852V205.909H386.5V208.852H388.5ZM388.5 200.022V194.135H386.5V200.022H388.5ZM388.5 188.249V182.362H386.5V188.249H388.5ZM388.5 176.475V170.589H386.5V176.475H388.5ZM388.5 164.702V158.815H386.5V164.702H388.5ZM388.5 152.929V147.042H386.5V152.929H388.5ZM388.5 141.155V135.269H386.5V141.155H388.5ZM388.5 129.382V123.495H386.5V129.382H388.5ZM388.5 117.609V114.665H386.5V117.609H388.5ZM388.5 114.665C388.5 113.468 388.377 112.297 388.142 111.165L386.184 111.57C386.391 112.57 386.5 113.605 386.5 114.665H388.5ZM385.359 104.743C384.017 102.829 382.299 101.186 380.31 99.9141L379.232 101.599C381.004 102.732 382.531 104.193 383.721 105.891L385.359 104.743ZM373.821 97.3422C372.692 97.1288 371.525 97.0172 370.334 97.0172V99.0172C371.4 99.0172 372.442 99.1171 373.45 99.3074L373.821 97.3422ZM322 99H324.965V97H322V99ZM330.896 99H336.827V97H330.896V99ZM342.757 99H348.688V97H342.757V99ZM354.618 99H360.549V97H354.618V99ZM366.48 99H369.445V97H366.48V99ZM320.586 96.5858C319.805 97.3668 319.805 98.6332 320.586 99.4142L333.314 112.142C334.095 112.923 335.361 112.923 336.142 112.142C336.923 111.361 336.923 110.095 336.142 109.314L324.828 98L336.142 86.6863C336.923 85.9052 336.923 84.6389 336.142 83.8579C335.361 83.0768 334.095 83.0768 333.314 83.8579L320.586 96.5858ZM342.208 227.5H345.724V223.5H342.208V227.5ZM352.755 227.5H359.787V223.5H352.755V227.5ZM366.818 227.5H370.334V223.5H366.818V227.5ZM370.334 227.5C371.588 227.5 372.816 227.382 374.007 227.158L373.264 223.227C372.317 223.406 371.338 223.5 370.334 223.5V227.5ZM380.849 224.446C382.947 223.104 384.76 221.37 386.178 219.348L382.902 217.052C381.788 218.642 380.357 220.012 378.694 221.076L380.849 224.446ZM389.122 212.555C389.37 211.357 389.5 210.118 389.5 208.852H385.5C385.5 209.844 385.398 210.81 385.205 211.744L389.122 212.555ZM389.5 208.852V205.909H385.5V208.852H389.5ZM389.5 200.022V194.135H385.5V200.022H389.5ZM389.5 188.249V182.362H385.5V188.249H389.5ZM389.5 176.475V170.589H385.5V176.475H389.5ZM389.5 164.702V158.815H385.5V164.702H389.5ZM389.5 152.929V147.042H385.5V152.929H389.5ZM389.5 141.155V135.269H385.5V141.155H389.5ZM389.5 129.382V123.495H385.5V129.382H389.5ZM389.5 117.609V114.665H385.5V117.609H389.5ZM389.5 114.665C389.5 113.399 389.37 112.16 389.122 110.962L385.205 111.773C385.398 112.707 385.5 113.673 385.5 114.665H389.5ZM386.178 104.169C384.76 102.147 382.947 100.413 380.849 99.0716L378.694 102.442C380.357 103.505 381.788 104.875 382.902 106.465L386.178 104.169ZM374.007 96.3596C372.816 96.1347 371.588 96.0172 370.334 96.0172V100.017C371.338 100.017 372.317 100.111 373.264 100.29L374.007 96.3596ZM322 100H324.965V96H322V100ZM330.896 100H336.827V96H330.896V100ZM342.757 100H348.688V96H342.757V100ZM354.618 100H360.549V96H354.618V100ZM366.48 100H369.445V96H366.48V100Z" fill="white"/>
<path d="M104.474 95.08H103.178C102.818 95.08 102.53 95.032 102.29 94.912C102.05 94.792 101.81 94.576 101.594 94.264C102.17 93.52 102.626 92.656 102.962 91.696C103.274 90.736 103.442 89.704 103.442 88.6C103.442 86.968 103.082 85.504 102.41 84.208C101.738 82.912 100.778 81.904 99.5783 81.16C98.3543 80.44 96.9623 80.056 95.4263 80.056C93.8663 80.056 92.4743 80.44 91.2743 81.16C90.0503 81.904 89.0903 82.912 88.4183 84.208C87.7463 85.504 87.4103 86.968 87.4103 88.6C87.4103 90.232 87.7463 91.696 88.4183 92.992C89.0903 94.288 90.0503 95.32 91.2743 96.04C92.4743 96.784 93.8663 97.144 95.4263 97.144C97.2743 97.144 98.8823 96.64 100.226 95.608L100.394 95.848C100.682 96.28 101.042 96.568 101.426 96.736C101.81 96.928 102.314 97 102.938 97H104.474V95.08ZM99.0263 93.976C98.0183 94.816 96.8183 95.224 95.4263 95.224C94.2743 95.224 93.2423 94.96 92.3543 94.384C91.4663 93.808 90.7703 93.04 90.2903 92.032C89.7863 91.024 89.5463 89.896 89.5463 88.6C89.5463 87.328 89.7863 86.2 90.2903 85.192C90.7703 84.184 91.4663 83.416 92.3543 82.84C93.2423 82.264 94.2743 81.976 95.4263 81.976C96.5783 81.976 97.5863 82.264 98.4743 82.84C99.3623 83.416 100.058 84.184 100.562 85.192C101.042 86.2 101.306 87.328 101.306 88.6C101.306 90.112 100.97 91.408 100.298 92.488L99.7703 91.768C99.4583 91.36 99.1223 91.072 98.7863 90.88C98.4263 90.688 97.9703 90.592 97.4423 90.592H95.6903V92.512H97.1063C97.3943 92.512 97.6583 92.584 97.8983 92.704C98.1143 92.848 98.3303 93.064 98.5703 93.352L99.0263 93.976ZM116.423 84.76H114.455V90.88C114.455 92.272 114.119 93.352 113.495 94.144C112.871 94.96 111.983 95.344 110.879 95.344C109.847 95.344 109.055 95.032 108.503 94.36C107.951 93.688 107.687 92.728 107.687 91.456V84.76H105.719V91.576C105.719 93.496 106.151 94.912 107.039 95.8C107.903 96.712 109.079 97.144 110.543 97.144C112.223 97.144 113.519 96.568 114.455 95.368L114.719 97H116.423V84.76ZM130.554 95.2H129.954C129.402 95.2 129.138 94.912 129.138 94.312V89.032C129.138 87.616 128.706 86.536 127.842 85.768C126.978 85 125.778 84.616 124.218 84.616C122.73 84.616 121.53 84.952 120.618 85.624C119.706 86.296 119.178 87.232 119.034 88.432H121.002C121.122 87.808 121.458 87.328 122.01 86.944C122.562 86.56 123.258 86.368 124.122 86.368C125.082 86.368 125.826 86.608 126.354 87.04C126.882 87.496 127.17 88.12 127.17 88.912V89.752H123.57C121.962 89.752 120.738 90.088 119.898 90.736C119.058 91.408 118.65 92.344 118.65 93.568C118.65 94.672 119.058 95.56 119.874 96.184C120.69 96.832 121.794 97.144 123.162 97.144C124.938 97.144 126.306 96.472 127.266 95.104C127.266 95.728 127.458 96.208 127.794 96.52C128.13 96.856 128.682 97 129.474 97H130.554V95.2ZM127.17 91.408V92.008C127.17 93.064 126.81 93.904 126.138 94.528C125.442 95.152 124.506 95.464 123.306 95.464C122.49 95.464 121.842 95.296 121.362 94.912C120.882 94.552 120.642 94.072 120.642 93.448C120.642 92.104 121.554 91.408 123.378 91.408H127.17ZM132.067 80.2V97H134.035V80.2H132.067ZM148.347 84.76H146.643L146.379 86.632C145.971 86.008 145.419 85.528 144.723 85.168C144.003 84.808 143.163 84.616 142.179 84.616C141.051 84.616 140.043 84.88 139.155 85.408C138.243 85.936 137.547 86.68 137.043 87.616C136.539 88.576 136.299 89.656 136.299 90.88C136.299 92.176 136.539 93.304 137.043 94.24C137.547 95.2 138.243 95.92 139.131 96.4C140.019 96.904 141.027 97.144 142.179 97.144C143.955 97.144 145.347 96.448 146.379 95.032V101.8H148.347V84.76ZM144.459 94.84C143.835 95.224 143.139 95.392 142.371 95.392C141.147 95.392 140.163 94.984 139.419 94.144C138.675 93.304 138.315 92.224 138.315 90.88C138.315 89.56 138.675 88.48 139.419 87.64C140.163 86.8 141.147 86.368 142.371 86.368C143.139 86.368 143.835 86.56 144.459 86.944C145.083 87.328 145.563 87.88 145.899 88.576C146.235 89.272 146.403 90.064 146.403 90.928C146.403 91.792 146.235 92.584 145.899 93.256C145.563 93.928 145.083 94.456 144.459 94.84ZM161.564 84.76H159.596V90.88C159.596 92.272 159.26 93.352 158.636 94.144C158.012 94.96 157.124 95.344 156.02 95.344C154.988 95.344 154.196 95.032 153.644 94.36C153.092 93.688 152.828 92.728 152.828 91.456V84.76H150.86V91.576C150.86 93.496 151.292 94.912 152.18 95.8C153.044 96.712 154.22 97.144 155.684 97.144C157.364 97.144 158.66 96.568 159.596 95.368L159.86 97H161.564V84.76ZM164.534 87.592C164.054 88.552 163.814 89.632 163.814 90.88C163.814 92.128 164.054 93.208 164.558 94.168C165.062 95.128 165.782 95.848 166.694 96.376C167.606 96.904 168.662 97.144 169.886 97.144C171.278 97.144 172.454 96.76 173.414 95.968C174.374 95.176 174.974 94.144 175.214 92.896H173.222C173.006 93.688 172.598 94.312 171.974 94.744C171.35 95.176 170.606 95.392 169.742 95.392C168.59 95.392 167.678 95.032 166.982 94.312C166.262 93.592 165.902 92.632 165.878 91.432V91.264H175.382C175.406 90.88 175.43 90.616 175.43 90.424C175.382 89.248 175.118 88.216 174.638 87.328C174.134 86.464 173.462 85.792 172.598 85.312C171.734 84.856 170.726 84.616 169.622 84.616C168.47 84.616 167.462 84.88 166.598 85.408C165.71 85.936 165.014 86.656 164.534 87.592ZM173.39 89.632H165.998C166.094 88.672 166.478 87.88 167.198 87.256C167.894 86.656 168.71 86.344 169.646 86.344C170.678 86.344 171.542 86.632 172.214 87.208C172.886 87.784 173.294 88.6 173.39 89.632ZM183.892 84.76H183.34C182.332 84.76 181.564 84.928 181.012 85.264C180.436 85.6 179.98 86.056 179.644 86.608L179.38 84.76H177.676V97H179.644V90.76C179.644 89.608 179.884 88.648 180.388 87.856C180.892 87.088 181.732 86.68 182.908 86.68H183.892V84.76ZM192.789 86.56V93.808C192.789 94.912 193.029 95.728 193.509 96.232C193.989 96.76 194.829 97 195.981 97H198.237V95.2H196.101C195.597 95.2 195.237 95.104 195.045 94.888C194.853 94.672 194.757 94.312 194.757 93.784V86.56H197.853V84.76H194.757V81.328H192.789V84.76H190.581V86.56H192.789ZM199.62 87.592C199.14 88.552 198.9 89.632 198.9 90.88C198.9 92.128 199.14 93.208 199.644 94.168C200.148 95.128 200.868 95.848 201.78 96.376C202.692 96.904 203.748 97.144 204.972 97.144C206.364 97.144 207.54 96.76 208.5 95.968C209.46 95.176 210.06 94.144 210.3 92.896H208.308C208.092 93.688 207.684 94.312 207.06 94.744C206.436 95.176 205.692 95.392 204.828 95.392C203.676 95.392 202.764 95.032 202.068 94.312C201.348 93.592 200.988 92.632 200.964 91.432V91.264H210.468C210.492 90.88 210.516 90.616 210.516 90.424C210.468 89.248 210.204 88.216 209.724 87.328C209.22 86.464 208.548 85.792 207.684 85.312C206.82 84.856 205.812 84.616 204.708 84.616C203.556 84.616 202.548 84.88 201.684 85.408C200.796 85.936 200.1 86.656 199.62 87.592ZM208.476 89.632H201.084C201.18 88.672 201.564 87.88 202.284 87.256C202.98 86.656 203.796 86.344 204.732 86.344C205.764 86.344 206.628 86.632 207.3 87.208C207.972 87.784 208.38 88.6 208.476 89.632ZM218.978 84.76H218.426C217.418 84.76 216.65 84.928 216.098 85.264C215.522 85.6 215.066 86.056 214.73 86.608L214.466 84.76H212.762V97H214.73V90.76C214.73 89.608 214.97 88.648 215.474 87.856C215.978 87.088 216.818 86.68 217.994 86.68H218.978V84.76ZM226.994 84.76H226.442C225.434 84.76 224.666 84.928 224.114 85.264C223.538 85.6 223.082 86.056 222.746 86.608L222.482 84.76H220.778V97H222.746V90.76C222.746 89.608 222.986 88.648 223.49 87.856C223.994 87.088 224.834 86.68 226.01 86.68H226.994V84.76ZM228.378 87.592C227.898 88.552 227.658 89.632 227.658 90.88C227.658 92.128 227.898 93.208 228.402 94.168C228.906 95.128 229.626 95.848 230.538 96.376C231.45 96.904 232.506 97.144 233.73 97.144C235.122 97.144 236.298 96.76 237.258 95.968C238.218 95.176 238.818 94.144 239.058 92.896H237.066C236.85 93.688 236.442 94.312 235.818 94.744C235.194 95.176 234.45 95.392 233.586 95.392C232.434 95.392 231.522 95.032 230.826 94.312C230.106 93.592 229.746 92.632 229.722 91.432V91.264H239.226C239.25 90.88 239.274 90.616 239.274 90.424C239.226 89.248 238.962 88.216 238.482 87.328C237.978 86.464 237.306 85.792 236.442 85.312C235.578 84.856 234.57 84.616 233.466 84.616C232.314 84.616 231.306 84.88 230.442 85.408C229.554 85.936 228.858 86.656 228.378 87.592ZM237.234 89.632H229.842C229.938 88.672 230.322 87.88 231.042 87.256C231.738 86.656 232.554 86.344 233.49 86.344C234.522 86.344 235.386 86.632 236.058 87.208C236.73 87.784 237.138 88.6 237.234 89.632ZM251.096 85.96C250.184 85.072 249.008 84.616 247.52 84.616C245.744 84.616 244.4 85.216 243.488 86.416L243.224 84.76H241.52V97H243.488V90.88C243.488 89.512 243.8 88.432 244.472 87.616C245.12 86.824 246.032 86.416 247.184 86.416C248.24 86.416 249.056 86.752 249.632 87.424C250.208 88.096 250.496 89.056 250.496 90.304V97H252.464V90.184C252.464 88.264 252.008 86.872 251.096 85.96ZM257.445 96.352C258.357 96.88 259.413 97.144 260.613 97.144C261.789 97.144 262.845 96.88 263.757 96.352C264.669 95.824 265.389 95.104 265.917 94.144C266.421 93.208 266.685 92.128 266.685 90.88C266.685 89.656 266.421 88.576 265.917 87.616C265.389 86.68 264.669 85.936 263.757 85.408C262.845 84.88 261.789 84.616 260.613 84.616C259.413 84.616 258.357 84.88 257.445 85.408C256.533 85.936 255.813 86.68 255.309 87.616C254.781 88.576 254.541 89.656 254.541 90.88C254.541 92.128 254.781 93.208 255.309 94.144C255.813 95.104 256.533 95.824 257.445 96.352ZM262.725 94.816C262.101 95.2 261.405 95.392 260.613 95.392C259.797 95.392 259.101 95.2 258.477 94.816C257.853 94.432 257.397 93.904 257.061 93.208C256.725 92.536 256.557 91.744 256.557 90.88C256.557 90.016 256.725 89.248 257.061 88.552C257.397 87.88 257.853 87.328 258.477 86.944C259.101 86.56 259.797 86.368 260.613 86.368C261.405 86.368 262.101 86.56 262.725 86.944C263.349 87.328 263.829 87.88 264.165 88.552C264.501 89.248 264.669 90.016 264.669 90.88C264.669 91.744 264.501 92.536 264.165 93.208C263.829 93.904 263.349 94.432 262.725 94.816ZM116.495 117.52C115.967 118.48 115.727 119.584 115.727 120.856C115.727 122.128 115.991 123.232 116.519 124.192C117.047 125.152 117.815 125.872 118.823 126.376C119.831 126.904 121.007 127.144 122.399 127.144C123.455 127.144 124.391 126.976 125.207 126.592C126.023 126.208 126.671 125.704 127.175 125.032C127.655 124.384 127.967 123.64 128.111 122.824H124.775C124.631 123.4 124.319 123.856 123.863 124.144C123.407 124.432 122.831 124.576 122.159 124.576C121.295 124.576 120.599 124.336 120.119 123.808C119.615 123.304 119.327 122.608 119.255 121.696V121.6H128.207C128.255 121.264 128.303 120.88 128.303 120.448C128.279 119.248 127.991 118.216 127.463 117.328C126.935 116.44 126.191 115.744 125.231 115.264C124.271 114.784 123.191 114.52 121.943 114.52C120.695 114.52 119.615 114.784 118.679 115.312C117.743 115.84 117.023 116.56 116.495 117.52ZM124.919 119.392H119.327C119.423 118.672 119.711 118.12 120.215 117.688C120.719 117.256 121.343 117.04 122.087 117.04C122.855 117.04 123.479 117.256 123.983 117.664C124.487 118.072 124.799 118.648 124.919 119.392ZM148.225 115.84C147.385 114.976 146.305 114.52 144.985 114.52C144.049 114.52 143.209 114.712 142.489 115.072C141.769 115.432 141.169 115.936 140.737 116.608C140.041 115.216 138.817 114.52 137.065 114.52C136.201 114.544 135.481 114.688 134.905 114.976C134.329 115.264 133.825 115.672 133.417 116.2L133.105 114.664H130.153V127.024H133.537V120.28C133.537 119.368 133.753 118.648 134.185 118.12C134.617 117.592 135.217 117.304 135.961 117.304C137.401 117.304 138.121 118.24 138.121 120.112V127.024H141.505V120.256C141.505 119.344 141.721 118.624 142.177 118.096C142.609 117.568 143.209 117.304 143.953 117.304C145.369 117.304 146.089 118.24 146.089 120.112V127.024H149.473V120.232C149.473 118.192 149.041 116.728 148.225 115.84ZM163.743 110.2H160.359V111.832C160.359 112.312 160.239 112.72 160.023 113.056C159.807 113.392 159.495 113.536 159.087 113.536H156.567V116.392H159.375C159.759 116.392 160.071 116.368 160.287 116.272V127H163.743V110.2ZM182.3 125.872C183.356 125.008 183.98 123.832 184.22 122.32H180.74C180.596 122.968 180.308 123.472 179.876 123.832C179.444 124.216 178.892 124.384 178.243 124.384C177.355 124.384 176.66 124.072 176.132 123.4C175.604 122.752 175.34 121.888 175.34 120.832C175.34 119.776 175.604 118.936 176.132 118.264C176.66 117.616 177.355 117.28 178.243 117.28C178.868 117.28 179.42 117.472 179.852 117.832C180.284 118.192 180.572 118.672 180.716 119.272H184.22C183.98 117.784 183.332 116.632 182.3 115.792C181.244 114.952 179.9 114.52 178.268 114.52C176.972 114.52 175.844 114.784 174.884 115.312C173.924 115.84 173.18 116.56 172.652 117.52C172.124 118.48 171.884 119.584 171.884 120.832C171.884 122.08 172.124 123.184 172.652 124.144C173.18 125.104 173.924 125.848 174.884 126.376C175.844 126.904 176.948 127.144 178.243 127.144C179.9 127.144 181.244 126.736 182.3 125.872ZM186.051 110.2V127H189.435V110.2H186.051ZM194.889 110.08C194.505 109.72 194.049 109.528 193.497 109.528C192.921 109.528 192.465 109.72 192.081 110.08C191.697 110.44 191.529 110.896 191.529 111.424C191.529 111.976 191.697 112.432 192.081 112.792C192.465 113.176 192.921 113.344 193.497 113.344C194.049 113.344 194.505 113.176 194.889 112.792C195.249 112.432 195.441 111.976 195.441 111.424C195.441 110.896 195.249 110.44 194.889 110.08ZM191.793 114.664V127H195.177V114.664H191.793ZM209.871 114.664H206.919L206.583 116.32C206.151 115.768 205.623 115.336 204.975 115C204.327 114.688 203.583 114.52 202.743 114.52C201.639 114.52 200.679 114.784 199.815 115.312C198.951 115.84 198.255 116.584 197.775 117.544C197.295 118.504 197.055 119.608 197.055 120.856C197.055 122.152 197.295 123.256 197.775 124.216C198.255 125.176 198.951 125.896 199.815 126.4C200.679 126.904 201.663 127.144 202.767 127.144C204.303 127.144 205.551 126.568 206.487 125.416V131.8H209.871V114.664ZM205.719 123.4C205.167 124.072 204.447 124.384 203.535 124.384C202.623 124.384 201.879 124.072 201.327 123.4C200.775 122.752 200.511 121.888 200.511 120.808C200.511 119.752 200.775 118.912 201.327 118.264C201.879 117.616 202.623 117.28 203.535 117.28C204.447 117.28 205.167 117.616 205.719 118.264C206.247 118.912 206.535 119.776 206.535 120.832C206.535 121.888 206.247 122.752 205.719 123.4ZM223.847 114.664H220.463V120.736C220.463 121.888 220.223 122.776 219.767 123.4C219.287 124.024 218.639 124.336 217.799 124.336C216.983 124.336 216.359 124.072 215.975 123.496C215.591 122.92 215.399 122.08 215.399 120.952V114.664H212.015V121.36C212.015 123.448 212.471 124.936 213.383 125.824C214.295 126.712 215.471 127.144 216.911 127.144C217.727 127.144 218.447 127 219.023 126.712C219.599 126.424 220.103 126.04 220.535 125.512L220.847 127H223.847V114.664ZM226.487 117.52C225.959 118.48 225.719 119.584 225.719 120.856C225.719 122.128 225.983 123.232 226.511 124.192C227.039 125.152 227.807 125.872 228.815 126.376C229.823 126.904 230.999 127.144 232.391 127.144C233.447 127.144 234.383 126.976 235.199 126.592C236.015 126.208 236.663 125.704 237.167 125.032C237.647 124.384 237.959 123.64 238.103 122.824H234.767C234.623 123.4 234.311 123.856 233.855 124.144C233.399 124.432 232.823 124.576 232.151 124.576C231.287 124.576 230.591 124.336 230.111 123.808C229.607 123.304 229.319 122.608 229.247 121.696V121.6H238.199C238.247 121.264 238.295 120.88 238.295 120.448C238.271 119.248 237.983 118.216 237.455 117.328C236.927 116.44 236.183 115.744 235.223 115.264C234.263 114.784 233.183 114.52 231.935 114.52C230.687 114.52 229.607 114.784 228.671 115.312C227.735 115.84 227.015 116.56 226.487 117.52ZM234.911 119.392H229.319C229.415 118.672 229.703 118.12 230.207 117.688C230.711 117.256 231.335 117.04 232.079 117.04C232.847 117.04 233.471 117.256 233.975 117.664C234.479 118.072 234.791 118.648 234.911 119.392Z" fill="black"/>
<path d="M95.0919 260.6V283H110.484V278.872H99.8919V273.688H108.212V269.752H99.8919V264.728H110.132V260.6H95.0919ZM116.701 277.528H112.413C112.477 279.288 113.245 280.664 114.685 281.688C116.093 282.712 117.949 283.192 120.253 283.192C121.725 283.192 123.005 283 124.125 282.552C125.245 282.104 126.109 281.496 126.749 280.664C127.389 279.864 127.709 278.936 127.709 277.848C127.709 276.184 127.101 275 125.917 274.296C124.733 273.592 123.037 273.112 120.829 272.856C119.773 272.76 119.037 272.664 118.589 272.568C118.141 272.504 117.757 272.344 117.501 272.152C117.213 271.96 117.085 271.672 117.085 271.288C117.085 270.776 117.341 270.328 117.853 270.008C118.365 269.688 119.069 269.528 119.933 269.528C120.829 269.528 121.597 269.752 122.173 270.136C122.749 270.52 123.101 271.032 123.165 271.64H127.453C127.325 269.976 126.589 268.696 125.213 267.736C123.837 266.808 122.045 266.328 119.805 266.296C118.397 266.296 117.181 266.52 116.125 266.968C115.037 267.416 114.205 268.056 113.629 268.888C113.053 269.72 112.765 270.648 112.765 271.704C112.765 272.792 113.053 273.624 113.629 274.264C114.205 274.904 114.973 275.384 115.933 275.672C116.893 275.992 118.077 276.216 119.549 276.408C120.605 276.536 121.373 276.664 121.853 276.76C122.301 276.856 122.685 277.016 122.941 277.208C123.197 277.432 123.325 277.752 123.325 278.168C123.325 278.744 123.037 279.192 122.493 279.512C121.917 279.832 121.181 279.96 120.221 279.96C119.197 279.96 118.397 279.736 117.757 279.288C117.117 278.84 116.765 278.264 116.701 277.528ZM131.358 270.36V278.296C131.358 281.432 132.926 283 136.062 283H139.806V279.192H137.47C136.894 279.192 136.478 279.064 136.222 278.808C135.966 278.552 135.87 278.136 135.87 277.56V270.36H139.614V266.552H135.87V261.944H131.358V266.552H128.638V270.36H131.358ZM157.197 266.552H152.685V274.648C152.685 276.184 152.365 277.368 151.757 278.2C151.117 279.032 150.253 279.448 149.133 279.448C148.045 279.448 147.213 279.096 146.701 278.328C146.189 277.56 145.933 276.44 145.933 274.936V266.552H141.421V275.48C141.421 278.264 142.029 280.248 143.245 281.432C144.461 282.616 146.029 283.192 147.949 283.192C149.037 283.192 149.997 283 150.765 282.616C151.533 282.232 152.205 281.72 152.781 281.016L153.197 283H157.197V266.552ZM176.782 260.6H172.27V268.6C171.086 267.128 169.422 266.36 167.31 266.36C165.838 266.36 164.526 266.712 163.374 267.416C162.222 268.12 161.294 269.08 160.654 270.36C160.014 271.64 159.694 273.08 159.694 274.744C159.694 276.44 160.014 277.912 160.654 279.192C161.294 280.472 162.222 281.464 163.374 282.168C164.526 282.872 165.806 283.192 167.278 283.192C169.422 283.192 171.118 282.392 172.398 280.728L172.846 283H176.782V260.6ZM171.246 278.232C170.51 279.096 169.55 279.512 168.334 279.512C167.118 279.512 166.126 279.096 165.39 278.2C164.654 277.336 164.302 276.184 164.302 274.776C164.302 273.368 164.654 272.248 165.39 271.352C166.126 270.488 167.118 270.04 168.334 270.04C169.55 270.04 170.51 270.488 171.246 271.352C171.95 272.248 172.334 273.4 172.334 274.808C172.334 276.216 171.95 277.368 171.246 278.232ZM183.383 282.168C184.695 282.872 186.231 283.192 187.959 283.192C189.687 283.192 191.191 282.872 192.503 282.168C193.815 281.464 194.839 280.504 195.543 279.224C196.247 277.944 196.631 276.472 196.631 274.776C196.631 273.112 196.247 271.64 195.543 270.36C194.839 269.08 193.815 268.12 192.503 267.416C191.191 266.712 189.687 266.36 187.959 266.36C186.231 266.36 184.695 266.712 183.383 267.416C182.071 268.12 181.047 269.08 180.343 270.36C179.639 271.64 179.287 273.112 179.287 274.776C179.287 276.44 179.639 277.912 180.343 279.192C181.047 280.472 182.071 281.464 183.383 282.168ZM190.935 278.2C190.199 279.096 189.207 279.512 187.959 279.512C186.711 279.512 185.719 279.096 184.983 278.2C184.247 277.336 183.895 276.184 183.895 274.776C183.895 273.368 184.247 272.248 184.983 271.352C185.719 270.488 186.711 270.04 187.959 270.04C189.207 270.04 190.199 270.488 190.935 271.352C191.671 272.248 192.055 273.368 192.055 274.776C192.055 276.184 191.671 277.336 190.935 278.2ZM202.67 277.528H198.382C198.446 279.288 199.214 280.664 200.654 281.688C202.062 282.712 203.918 283.192 206.222 283.192C207.694 283.192 208.974 283 210.094 282.552C211.214 282.104 212.078 281.496 212.718 280.664C213.358 279.864 213.678 278.936 213.678 277.848C213.678 276.184 213.07 275 211.886 274.296C210.702 273.592 209.006 273.112 206.798 272.856C205.742 272.76 205.006 272.664 204.558 272.568C204.11 272.504 203.726 272.344 203.47 272.152C203.182 271.96 203.054 271.672 203.054 271.288C203.054 270.776 203.31 270.328 203.822 270.008C204.334 269.688 205.038 269.528 205.902 269.528C206.798 269.528 207.566 269.752 208.142 270.136C208.718 270.52 209.07 271.032 209.134 271.64H213.422C213.294 269.976 212.558 268.696 211.182 267.736C209.806 266.808 208.014 266.328 205.774 266.296C204.366 266.296 203.15 266.52 202.094 266.968C201.006 267.416 200.174 268.056 199.598 268.888C199.022 269.72 198.734 270.648 198.734 271.704C198.734 272.792 199.022 273.624 199.598 274.264C200.174 274.904 200.942 275.384 201.902 275.672C202.862 275.992 204.046 276.216 205.518 276.408C206.574 276.536 207.342 276.664 207.822 276.76C208.27 276.856 208.654 277.016 208.91 277.208C209.166 277.432 209.294 277.752 209.294 278.168C209.294 278.744 209.006 279.192 208.462 279.512C207.886 279.832 207.15 279.96 206.19 279.96C205.166 279.96 204.366 279.736 203.726 279.288C203.086 278.84 202.734 278.264 202.67 277.528ZM240.657 260.6H236.145V268.6C234.961 267.128 233.297 266.36 231.185 266.36C229.713 266.36 228.401 266.712 227.249 267.416C226.097 268.12 225.169 269.08 224.529 270.36C223.889 271.64 223.569 273.08 223.569 274.744C223.569 276.44 223.889 277.912 224.529 279.192C225.169 280.472 226.097 281.464 227.249 282.168C228.401 282.872 229.681 283.192 231.153 283.192C233.297 283.192 234.993 282.392 236.273 280.728L236.721 283H240.657V260.6ZM235.121 278.232C234.385 279.096 233.425 279.512 232.209 279.512C230.993 279.512 230.001 279.096 229.265 278.2C228.529 277.336 228.177 276.184 228.177 274.776C228.177 273.368 228.529 272.248 229.265 271.352C230.001 270.488 230.993 270.04 232.209 270.04C233.425 270.04 234.385 270.488 235.121 271.352C235.825 272.248 236.209 273.4 236.209 274.808C236.209 276.216 235.825 277.368 235.121 278.232ZM244.186 270.36C243.482 271.64 243.162 273.112 243.162 274.808C243.162 276.504 243.514 277.976 244.218 279.256C244.922 280.536 245.946 281.496 247.29 282.168C248.634 282.872 250.202 283.192 252.058 283.192C253.466 283.192 254.714 282.968 255.802 282.456C256.89 281.944 257.754 281.272 258.426 280.376C259.066 279.512 259.482 278.52 259.674 277.432H255.226C255.034 278.2 254.618 278.808 254.01 279.192C253.402 279.576 252.634 279.768 251.738 279.768C250.586 279.768 249.658 279.448 249.018 278.744C248.346 278.072 247.962 277.144 247.866 275.928V275.8H259.802C259.866 275.352 259.93 274.84 259.93 274.264C259.898 272.664 259.514 271.288 258.81 270.104C258.106 268.92 257.114 267.992 255.834 267.352C254.554 266.712 253.114 266.36 251.45 266.36C249.786 266.36 248.346 266.712 247.098 267.416C245.85 268.12 244.89 269.08 244.186 270.36ZM255.418 272.856H247.962C248.09 271.896 248.474 271.16 249.146 270.584C249.818 270.008 250.65 269.72 251.642 269.72C252.666 269.72 253.498 270.008 254.17 270.552C254.842 271.096 255.258 271.864 255.418 272.856ZM96.3586 304.552L102.279 321H107.879L113.799 304.552H109.063L105.159 316.392L101.191 304.552H96.3586ZM119.43 298.44C118.918 297.96 118.31 297.704 117.574 297.704C116.806 297.704 116.198 297.96 115.686 298.44C115.174 298.92 114.95 299.528 114.95 300.232C114.95 300.968 115.174 301.576 115.686 302.056C116.198 302.568 116.806 302.792 117.574 302.792C118.31 302.792 118.918 302.568 119.43 302.056C119.91 301.576 120.166 300.968 120.166 300.232C120.166 299.528 119.91 298.92 119.43 298.44ZM115.302 304.552V321H119.814V304.552H115.302ZM139.151 317.192H138.639C138.255 317.192 137.999 317.128 137.839 316.968C137.647 316.84 137.583 316.552 137.583 316.136V310.344C137.583 308.424 136.943 306.92 135.663 305.896C134.383 304.872 132.591 304.36 130.287 304.36C128.047 304.36 126.287 304.84 124.943 305.768C123.599 306.696 122.831 308.008 122.703 309.672H127.055C127.151 309.064 127.471 308.584 128.015 308.2C128.527 307.848 129.231 307.656 130.063 307.656C130.991 307.656 131.727 307.88 132.303 308.328C132.847 308.776 133.135 309.352 133.135 310.088V310.888H129.871C127.407 310.888 125.519 311.368 124.239 312.328C122.959 313.288 122.319 314.632 122.319 316.36C122.319 317.896 122.863 319.112 123.983 319.944C125.103 320.776 126.575 321.192 128.431 321.192C129.647 321.192 130.703 320.968 131.599 320.456C132.463 319.976 133.199 319.272 133.807 318.312C133.743 320.104 134.767 321 136.847 321H139.151V317.192ZM133.135 313.896V314.216C133.103 315.368 132.751 316.264 132.079 316.936C131.375 317.608 130.447 317.928 129.295 317.928C128.527 317.928 127.951 317.768 127.503 317.416C127.055 317.096 126.863 316.616 126.863 316.04C126.863 315.368 127.119 314.856 127.631 314.472C128.143 314.088 128.879 313.896 129.839 313.896H133.135ZM154.304 305.384C153.152 304.712 151.84 304.36 150.368 304.36C148.32 304.36 146.656 305.128 145.408 306.632V298.6H140.896V321H144.832L145.28 318.76C145.824 319.528 146.528 320.104 147.392 320.552C148.224 321 149.248 321.192 150.4 321.192C151.84 321.192 153.152 320.84 154.304 320.136C155.456 319.432 156.352 318.44 156.992 317.16C157.632 315.88 157.984 314.408 157.984 312.744C157.984 311.048 157.632 309.576 156.992 308.296C156.352 307.016 155.456 306.056 154.304 305.384ZM152.288 316.2C151.52 317.096 150.56 317.512 149.344 317.512C148.128 317.512 147.136 317.096 146.432 316.2C145.696 315.336 145.344 314.184 145.344 312.744C145.344 311.336 145.696 310.216 146.432 309.352C147.136 308.488 148.128 308.04 149.344 308.04C150.56 308.04 151.52 308.488 152.288 309.352C153.024 310.248 153.408 311.368 153.408 312.776C153.408 314.184 153.024 315.336 152.288 316.2ZM164.618 298.44C164.106 297.96 163.498 297.704 162.762 297.704C161.994 297.704 161.386 297.96 160.874 298.44C160.362 298.92 160.138 299.528 160.138 300.232C160.138 300.968 160.362 301.576 160.874 302.056C161.386 302.568 161.994 302.792 162.762 302.792C163.498 302.792 164.106 302.568 164.618 302.056C165.098 301.576 165.354 300.968 165.354 300.232C165.354 299.528 165.098 298.92 164.618 298.44ZM160.49 304.552V321H165.002V304.552H160.49ZM168.146 298.6V321H172.658V298.6H168.146ZM179.93 298.44C179.418 297.96 178.81 297.704 178.074 297.704C177.306 297.704 176.698 297.96 176.186 298.44C175.674 298.92 175.45 299.528 175.45 300.232C175.45 300.968 175.674 301.576 176.186 302.056C176.698 302.568 177.306 302.792 178.074 302.792C178.81 302.792 179.418 302.568 179.93 302.056C180.41 301.576 180.666 300.968 180.666 300.232C180.666 299.528 180.41 298.92 179.93 298.44ZM175.802 304.552V321H180.314V304.552H175.802ZM199.907 298.6H195.395V306.6C194.211 305.128 192.547 304.36 190.435 304.36C188.963 304.36 187.651 304.712 186.499 305.416C185.347 306.12 184.419 307.08 183.779 308.36C183.139 309.64 182.819 311.08 182.819 312.744C182.819 314.44 183.139 315.912 183.779 317.192C184.419 318.472 185.347 319.464 186.499 320.168C187.651 320.872 188.931 321.192 190.403 321.192C192.547 321.192 194.243 320.392 195.523 318.728L195.971 321H199.907V298.6ZM194.371 316.232C193.635 317.096 192.675 317.512 191.459 317.512C190.243 317.512 189.251 317.096 188.515 316.2C187.779 315.336 187.427 314.184 187.427 312.776C187.427 311.368 187.779 310.248 188.515 309.352C189.251 308.488 190.243 308.04 191.459 308.04C192.675 308.04 193.635 308.488 194.371 309.352C195.075 310.248 195.459 311.4 195.459 312.808C195.459 314.216 195.075 315.368 194.371 316.232ZM219.244 317.192H218.732C218.348 317.192 218.092 317.128 217.932 316.968C217.74 316.84 217.676 316.552 217.676 316.136V310.344C217.676 308.424 217.036 306.92 215.756 305.896C214.476 304.872 212.684 304.36 210.38 304.36C208.14 304.36 206.38 304.84 205.036 305.768C203.692 306.696 202.924 308.008 202.796 309.672H207.148C207.244 309.064 207.564 308.584 208.108 308.2C208.62 307.848 209.324 307.656 210.156 307.656C211.084 307.656 211.82 307.88 212.396 308.328C212.94 308.776 213.228 309.352 213.228 310.088V310.888H209.964C207.5 310.888 205.612 311.368 204.332 312.328C203.052 313.288 202.412 314.632 202.412 316.36C202.412 317.896 202.956 319.112 204.076 319.944C205.196 320.776 206.668 321.192 208.524 321.192C209.74 321.192 210.796 320.968 211.692 320.456C212.556 319.976 213.292 319.272 213.9 318.312C213.836 320.104 214.86 321 216.94 321H219.244V317.192ZM213.228 313.896V314.216C213.196 315.368 212.844 316.264 212.172 316.936C211.468 317.608 210.54 317.928 209.388 317.928C208.62 317.928 208.044 317.768 207.596 317.416C207.148 317.096 206.956 316.616 206.956 316.04C206.956 315.368 207.212 314.856 207.724 314.472C208.236 314.088 208.972 313.896 209.932 313.896H213.228ZM237.438 298.6H232.926V306.6C231.742 305.128 230.078 304.36 227.966 304.36C226.494 304.36 225.182 304.712 224.03 305.416C222.878 306.12 221.95 307.08 221.31 308.36C220.67 309.64 220.35 311.08 220.35 312.744C220.35 314.44 220.67 315.912 221.31 317.192C221.95 318.472 222.878 319.464 224.03 320.168C225.182 320.872 226.462 321.192 227.934 321.192C230.078 321.192 231.774 320.392 233.054 318.728L233.502 321H237.438V298.6ZM231.902 316.232C231.166 317.096 230.206 317.512 228.99 317.512C227.774 317.512 226.782 317.096 226.046 316.2C225.31 315.336 224.958 314.184 224.958 312.776C224.958 311.368 225.31 310.248 226.046 309.352C226.782 308.488 227.774 308.04 228.99 308.04C230.206 308.04 231.166 308.488 231.902 309.352C232.606 310.248 232.99 311.4 232.99 312.808C232.99 314.216 232.606 315.368 231.902 316.232ZM240.968 308.36C240.264 309.64 239.944 311.112 239.944 312.808C239.944 314.504 240.296 315.976 241 317.256C241.704 318.536 242.728 319.496 244.072 320.168C245.416 320.872 246.984 321.192 248.84 321.192C250.248 321.192 251.496 320.968 252.584 320.456C253.672 319.944 254.536 319.272 255.208 318.376C255.848 317.512 256.264 316.52 256.456 315.432H252.008C251.816 316.2 251.4 316.808 250.792 317.192C250.184 317.576 249.416 317.768 248.52 317.768C247.368 317.768 246.44 317.448 245.8 316.744C245.128 316.072 244.744 315.144 244.648 313.928V313.8H256.584C256.648 313.352 256.712 312.84 256.712 312.264C256.68 310.664 256.296 309.288 255.592 308.104C254.888 306.92 253.896 305.992 252.616 305.352C251.336 304.712 249.896 304.36 248.232 304.36C246.568 304.36 245.128 304.712 243.88 305.416C242.632 306.12 241.672 307.08 240.968 308.36ZM252.2 310.856H244.744C244.872 309.896 245.256 309.16 245.928 308.584C246.6 308.008 247.432 307.72 248.424 307.72C249.448 307.72 250.28 308.008 250.952 308.552C251.624 309.096 252.04 309.864 252.2 310.856ZM102.893 340.056C103.373 340.568 103.981 340.792 104.749 340.792C105.485 340.792 106.093 340.568 106.605 340.056C107.117 339.576 107.373 338.968 107.373 338.232C107.373 337.528 107.117 336.92 106.605 336.44C106.093 335.96 105.485 335.704 104.749 335.704C103.981 335.704 103.373 335.96 102.893 336.44C102.381 336.92 102.157 337.528 102.157 338.232C102.157 338.968 102.381 339.576 102.893 340.056ZM106.989 359V342.552H96.5891V341.784C96.5891 341.336 96.6851 340.984 96.9091 340.76C97.1011 340.568 97.4531 340.44 97.9331 340.44H100.205V336.6H97.0371C95.3731 336.6 94.1571 337.016 93.3251 337.784C92.4931 338.552 92.0771 339.672 92.0771 341.112V342.552H89.3571V346.36H92.0771V359H96.5891V346.36H102.477V359H106.989ZM124.291 344.152C123.043 342.968 121.475 342.36 119.555 342.36C118.339 342.36 117.347 342.584 116.547 342.968C115.715 343.352 115.043 343.896 114.467 344.6L114.051 342.552H110.115V359H114.627V350.584C114.627 349.176 114.947 348.056 115.587 347.256C116.227 346.488 117.123 346.072 118.307 346.072C120.515 346.072 121.635 347.512 121.635 350.328V359H126.147V350.072C126.147 347.32 125.507 345.368 124.291 344.152ZM145.182 355.192H144.67C144.286 355.192 144.03 355.128 143.87 354.968C143.678 354.84 143.614 354.552 143.614 354.136V348.344C143.614 346.424 142.974 344.92 141.694 343.896C140.414 342.872 138.622 342.36 136.318 342.36C134.078 342.36 132.318 342.84 130.974 343.768C129.63 344.696 128.862 346.008 128.734 347.672H133.086C133.182 347.064 133.502 346.584 134.046 346.2C134.558 345.848 135.262 345.656 136.094 345.656C137.022 345.656 137.758 345.88 138.334 346.328C138.878 346.776 139.166 347.352 139.166 348.088V348.888H135.902C133.438 348.888 131.55 349.368 130.27 350.328C128.99 351.288 128.35 352.632 128.35 354.36C128.35 355.896 128.894 357.112 130.014 357.944C131.134 358.776 132.606 359.192 134.462 359.192C135.678 359.192 136.734 358.968 137.63 358.456C138.494 357.976 139.23 357.272 139.838 356.312C139.774 358.104 140.798 359 142.878 359H145.182V355.192ZM139.166 351.896V352.216C139.134 353.368 138.782 354.264 138.11 354.936C137.406 355.608 136.478 355.928 135.326 355.928C134.558 355.928 133.982 355.768 133.534 355.416C133.086 355.096 132.894 354.616 132.894 354.04C132.894 353.368 133.15 352.856 133.662 352.472C134.174 352.088 134.91 351.896 135.87 351.896H139.166ZM161.103 344.152C159.855 342.968 158.287 342.36 156.367 342.36C155.151 342.36 154.159 342.584 153.359 342.968C152.527 343.352 151.855 343.896 151.279 344.6L150.863 342.552H146.927V359H151.439V350.584C151.439 349.176 151.759 348.056 152.399 347.256C153.039 346.488 153.935 346.072 155.119 346.072C157.327 346.072 158.447 347.512 158.447 350.328V359H162.959V350.072C162.959 347.32 162.319 345.368 161.103 344.152ZM179.05 357.496C180.458 356.344 181.29 354.776 181.61 352.76H176.97C176.778 353.624 176.394 354.296 175.818 354.776C175.242 355.288 174.506 355.512 173.642 355.512C172.458 355.512 171.53 355.096 170.826 354.2C170.122 353.336 169.77 352.184 169.77 350.776C169.77 349.368 170.122 348.248 170.826 347.352C171.53 346.488 172.458 346.04 173.642 346.04C174.474 346.04 175.21 346.296 175.786 346.776C176.362 347.256 176.746 347.896 176.938 348.696H181.61C181.29 346.712 180.426 345.176 179.05 344.056C177.642 342.936 175.85 342.36 173.674 342.36C171.946 342.36 170.442 342.712 169.162 343.416C167.882 344.12 166.89 345.08 166.186 346.36C165.482 347.64 165.162 349.112 165.162 350.776C165.162 352.44 165.482 353.912 166.186 355.192C166.89 356.472 167.882 357.464 169.162 358.168C170.442 358.872 171.914 359.192 173.642 359.192C175.85 359.192 177.642 358.648 179.05 357.496ZM184.218 346.36C183.514 347.64 183.194 349.112 183.194 350.808C183.194 352.504 183.546 353.976 184.25 355.256C184.954 356.536 185.978 357.496 187.322 358.168C188.666 358.872 190.234 359.192 192.09 359.192C193.498 359.192 194.746 358.968 195.834 358.456C196.922 357.944 197.786 357.272 198.458 356.376C199.098 355.512 199.514 354.52 199.706 353.432H195.258C195.066 354.2 194.65 354.808 194.042 355.192C193.434 355.576 192.666 355.768 191.77 355.768C190.618 355.768 189.69 355.448 189.05 354.744C188.378 354.072 187.994 353.144 187.898 351.928V351.8H199.834C199.898 351.352 199.962 350.84 199.962 350.264C199.93 348.664 199.546 347.288 198.842 346.104C198.138 344.92 197.146 343.992 195.866 343.352C194.586 342.712 193.146 342.36 191.482 342.36C189.818 342.36 188.378 342.712 187.13 343.416C185.882 344.12 184.922 345.08 184.218 346.36ZM195.45 348.856H187.994C188.122 347.896 188.506 347.16 189.178 346.584C189.85 346.008 190.682 345.72 191.674 345.72C192.698 345.72 193.53 346.008 194.202 346.552C194.874 347.096 195.29 347.864 195.45 348.856ZM206.555 336.44C206.043 335.96 205.435 335.704 204.699 335.704C203.931 335.704 203.323 335.96 202.811 336.44C202.299 336.92 202.075 337.528 202.075 338.232C202.075 338.968 202.299 339.576 202.811 340.056C203.323 340.568 203.931 340.792 204.699 340.792C205.435 340.792 206.043 340.568 206.555 340.056C207.035 339.576 207.291 338.968 207.291 338.232C207.291 337.528 207.035 336.92 206.555 336.44ZM202.427 342.552V359H206.939V342.552H202.427ZM220.1 342.552H219.332C218.116 342.552 217.124 342.776 216.42 343.192C215.684 343.608 215.076 344.216 214.596 345.016L214.18 342.552H210.084V359H214.596V350.936C214.596 349.624 214.884 348.568 215.492 347.8C216.068 347.032 217.028 346.648 218.308 346.648H220.1V342.552ZM237.838 355.192H237.326C236.942 355.192 236.686 355.128 236.526 354.968C236.334 354.84 236.27 354.552 236.27 354.136V348.344C236.27 346.424 235.63 344.92 234.35 343.896C233.07 342.872 231.278 342.36 228.974 342.36C226.734 342.36 224.974 342.84 223.63 343.768C222.286 344.696 221.518 346.008 221.39 347.672H225.742C225.838 347.064 226.158 346.584 226.702 346.2C227.214 345.848 227.918 345.656 228.75 345.656C229.678 345.656 230.414 345.88 230.99 346.328C231.534 346.776 231.822 347.352 231.822 348.088V348.888H228.558C226.094 348.888 224.206 349.368 222.926 350.328C221.646 351.288 221.006 352.632 221.006 354.36C221.006 355.896 221.55 357.112 222.67 357.944C223.79 358.776 225.262 359.192 227.118 359.192C228.334 359.192 229.39 358.968 230.286 358.456C231.15 357.976 231.886 357.272 232.494 356.312C232.43 358.104 233.454 359 235.534 359H237.838V355.192ZM231.822 351.896V352.216C231.79 353.368 231.438 354.264 230.766 354.936C230.062 355.608 229.134 355.928 227.982 355.928C227.214 355.928 226.638 355.768 226.19 355.416C225.742 355.096 225.55 354.616 225.55 354.04C225.55 353.368 225.806 352.856 226.318 352.472C226.83 352.088 227.566 351.896 228.526 351.896H231.822ZM247.905 346.36C247.201 347.64 246.881 349.112 246.881 350.808C246.881 352.504 247.233 353.976 247.937 355.256C248.641 356.536 249.665 357.496 251.009 358.168C252.353 358.872 253.921 359.192 255.777 359.192C257.185 359.192 258.433 358.968 259.521 358.456C260.609 357.944 261.473 357.272 262.145 356.376C262.785 355.512 263.201 354.52 263.393 353.432H258.945C258.753 354.2 258.337 354.808 257.729 355.192C257.121 355.576 256.353 355.768 255.457 355.768C254.305 355.768 253.377 355.448 252.737 354.744C252.065 354.072 251.681 353.144 251.585 351.928V351.8H263.521C263.585 351.352 263.649 350.84 263.649 350.264C263.617 348.664 263.233 347.288 262.529 346.104C261.825 344.92 260.833 343.992 259.553 343.352C258.273 342.712 256.833 342.36 255.169 342.36C253.505 342.36 252.065 342.712 250.817 343.416C249.569 344.12 248.609 345.08 247.905 346.36ZM259.137 348.856H251.681C251.809 347.896 252.193 347.16 252.865 346.584C253.537 346.008 254.369 345.72 255.361 345.72C256.385 345.72 257.217 346.008 257.889 346.552C258.561 347.096 258.977 347.864 259.137 348.856ZM110.431 380.552H105.919V388.648C105.919 390.184 105.599 391.368 104.991 392.2C104.351 393.032 103.487 393.448 102.367 393.448C101.279 393.448 100.447 393.096 99.935 392.328C99.423 391.56 99.167 390.44 99.167 388.936V380.552H94.655V389.48C94.655 392.264 95.263 394.248 96.479 395.432C97.695 396.616 99.263 397.192 101.183 397.192C102.271 397.192 103.231 397 103.999 396.616C104.767 396.232 105.439 395.72 106.015 395.016L106.431 397H110.431V380.552ZM123.584 380.552H122.816C121.6 380.552 120.608 380.776 119.904 381.192C119.168 381.608 118.56 382.216 118.08 383.016L117.664 380.552H113.568V397H118.08V388.936C118.08 387.624 118.368 386.568 118.976 385.8C119.552 385.032 120.512 384.648 121.792 384.648H123.584V380.552ZM139.007 381.384C137.855 380.712 136.543 380.36 135.071 380.36C133.023 380.36 131.359 381.128 130.111 382.632V374.6H125.599V397H129.535L129.983 394.76C130.527 395.528 131.231 396.104 132.095 396.552C132.927 397 133.951 397.192 135.103 397.192C136.543 397.192 137.855 396.84 139.007 396.136C140.159 395.432 141.055 394.44 141.695 393.16C142.335 391.88 142.687 390.408 142.687 388.744C142.687 387.048 142.335 385.576 141.695 384.296C141.055 383.016 140.159 382.056 139.007 381.384ZM136.991 392.2C136.223 393.096 135.263 393.512 134.047 393.512C132.831 393.512 131.839 393.096 131.135 392.2C130.399 391.336 130.047 390.184 130.047 388.744C130.047 387.336 130.399 386.216 131.135 385.352C131.839 384.488 132.831 384.04 134.047 384.04C135.263 384.04 136.223 384.488 136.991 385.352C137.727 386.248 138.111 387.368 138.111 388.776C138.111 390.184 137.727 391.336 136.991 392.2ZM161.385 393.192H160.873C160.489 393.192 160.233 393.128 160.073 392.968C159.881 392.84 159.817 392.552 159.817 392.136V386.344C159.817 384.424 159.177 382.92 157.897 381.896C156.617 380.872 154.825 380.36 152.521 380.36C150.281 380.36 148.521 380.84 147.177 381.768C145.833 382.696 145.065 384.008 144.937 385.672H149.289C149.385 385.064 149.705 384.584 150.249 384.2C150.761 383.848 151.465 383.656 152.297 383.656C153.225 383.656 153.961 383.88 154.537 384.328C155.081 384.776 155.369 385.352 155.369 386.088V386.888H152.105C149.641 386.888 147.753 387.368 146.473 388.328C145.193 389.288 144.553 390.632 144.553 392.36C144.553 393.896 145.097 395.112 146.217 395.944C147.337 396.776 148.809 397.192 150.665 397.192C151.881 397.192 152.937 396.968 153.833 396.456C154.697 395.976 155.433 395.272 156.041 394.312C155.977 396.104 157.001 397 159.081 397H161.385V393.192ZM155.369 389.896V390.216C155.337 391.368 154.985 392.264 154.313 392.936C153.609 393.608 152.681 393.928 151.529 393.928C150.761 393.928 150.185 393.768 149.737 393.416C149.289 393.096 149.097 392.616 149.097 392.04C149.097 391.368 149.353 390.856 149.865 390.472C150.377 390.088 151.113 389.896 152.073 389.896H155.369ZM177.307 382.152C176.059 380.968 174.491 380.36 172.571 380.36C171.355 380.36 170.363 380.584 169.562 380.968C168.731 381.352 168.059 381.896 167.483 382.6L167.067 380.552H163.131V397H167.643V388.584C167.643 387.176 167.963 386.056 168.603 385.256C169.243 384.488 170.139 384.072 171.323 384.072C173.531 384.072 174.651 385.512 174.651 388.328V397H179.163V388.072C179.163 385.32 178.523 383.368 177.307 382.152ZM182.006 380.552V397H186.55V380.552H182.006ZM182.71 378.792H186.006L190.198 374.28H185.046L182.71 378.792ZM193.342 391.528H189.054C189.118 393.288 189.886 394.664 191.326 395.688C192.734 396.712 194.59 397.192 196.894 397.192C198.366 397.192 199.646 397 200.766 396.552C201.886 396.104 202.75 395.496 203.39 394.664C204.03 393.864 204.35 392.936 204.35 391.848C204.35 390.184 203.742 389 202.558 388.296C201.374 387.592 199.678 387.112 197.47 386.856C196.414 386.76 195.678 386.664 195.23 386.568C194.782 386.504 194.398 386.344 194.142 386.152C193.854 385.96 193.726 385.672 193.726 385.288C193.726 384.776 193.982 384.328 194.494 384.008C195.006 383.688 195.71 383.528 196.574 383.528C197.47 383.528 198.238 383.752 198.814 384.136C199.39 384.52 199.742 385.032 199.806 385.64H204.094C203.966 383.976 203.23 382.696 201.854 381.736C200.478 380.808 198.686 380.328 196.446 380.296C195.038 380.296 193.822 380.52 192.766 380.968C191.678 381.416 190.846 382.056 190.27 382.888C189.694 383.72 189.406 384.648 189.406 385.704C189.406 386.792 189.694 387.624 190.27 388.264C190.846 388.904 191.614 389.384 192.574 389.672C193.534 389.992 194.718 390.216 196.19 390.408C197.246 390.536 198.014 390.664 198.494 390.76C198.942 390.856 199.326 391.016 199.582 391.208C199.838 391.432 199.966 391.752 199.966 392.168C199.966 392.744 199.678 393.192 199.134 393.512C198.558 393.832 197.822 393.96 196.862 393.96C195.838 393.96 195.038 393.736 194.398 393.288C193.758 392.84 193.406 392.264 193.342 391.528ZM207.999 384.36V392.296C207.999 395.432 209.567 397 212.703 397H216.447V393.192H214.111C213.535 393.192 213.119 393.064 212.863 392.808C212.607 392.552 212.511 392.136 212.511 391.56V384.36H216.255V380.552H212.511V375.944H207.999V380.552H205.279V384.36H207.999ZM222.477 374.44C221.965 373.96 221.357 373.704 220.621 373.704C219.853 373.704 219.245 373.96 218.733 374.44C218.221 374.92 217.997 375.528 217.997 376.232C217.997 376.968 218.221 377.576 218.733 378.056C219.245 378.568 219.853 378.792 220.621 378.792C221.357 378.792 221.965 378.568 222.477 378.056C222.957 377.576 223.213 376.968 223.213 376.232C223.213 375.528 222.957 374.92 222.477 374.44ZM218.349 380.552V397H222.861V380.552H218.349ZM239.254 395.496C240.662 394.344 241.494 392.776 241.814 390.76H237.174C236.982 391.624 236.598 392.296 236.022 392.776C235.446 393.288 234.71 393.512 233.845 393.512C232.661 393.512 231.734 393.096 231.03 392.2C230.326 391.336 229.974 390.184 229.974 388.776C229.974 387.368 230.326 386.248 231.03 385.352C231.734 384.488 232.661 384.04 233.845 384.04C234.678 384.04 235.414 384.296 235.99 384.776C236.566 385.256 236.95 385.896 237.142 386.696H241.814C241.494 384.712 240.63 383.176 239.254 382.056C237.846 380.936 236.054 380.36 233.878 380.36C232.15 380.36 230.646 380.712 229.366 381.416C228.086 382.12 227.094 383.08 226.39 384.36C225.686 385.64 225.366 387.112 225.366 388.776C225.366 390.44 225.686 391.912 226.39 393.192C227.094 394.472 228.086 395.464 229.366 396.168C230.646 396.872 232.118 397.192 233.845 397.192C236.054 397.192 237.846 396.648 239.254 395.496ZM260.448 393.192H259.936C259.552 393.192 259.296 393.128 259.135 392.968C258.944 392.84 258.88 392.552 258.88 392.136V386.344C258.88 384.424 258.24 382.92 256.96 381.896C255.68 380.872 253.888 380.36 251.584 380.36C249.344 380.36 247.584 380.84 246.24 381.768C244.896 382.696 244.128 384.008 244 385.672H248.352C248.448 385.064 248.768 384.584 249.312 384.2C249.824 383.848 250.528 383.656 251.36 383.656C252.288 383.656 253.024 383.88 253.6 384.328C254.144 384.776 254.432 385.352 254.432 386.088V386.888H251.168C248.704 386.888 246.816 387.368 245.536 388.328C244.256 389.288 243.616 390.632 243.616 392.36C243.616 393.896 244.16 395.112 245.28 395.944C246.4 396.776 247.872 397.192 249.728 397.192C250.944 397.192 252 396.968 252.896 396.456C253.76 395.976 254.496 395.272 255.104 394.312C255.04 396.104 256.064 397 258.144 397H260.448V393.192ZM254.432 389.896V390.216C254.4 391.368 254.048 392.264 253.376 392.936C252.672 393.608 251.744 393.928 250.592 393.928C249.824 393.928 249.248 393.768 248.8 393.416C248.352 393.096 248.16 392.616 248.16 392.04C248.16 391.368 248.416 390.856 248.928 390.472C249.44 390.088 250.176 389.896 251.135 389.896H254.432ZM105.582 422.456C104.942 423.736 104.622 425.176 104.622 426.84C104.622 428.504 104.942 429.944 105.614 431.224C106.286 432.504 107.246 433.464 108.462 434.168C109.678 434.872 111.086 435.192 112.718 435.192C114.574 435.192 116.142 434.68 117.422 433.624C118.702 432.568 119.502 431.192 119.822 429.528H117.166C116.878 430.584 116.334 431.416 115.502 431.992C114.67 432.568 113.678 432.856 112.526 432.856C110.99 432.856 109.774 432.376 108.846 431.416C107.886 430.456 107.406 429.176 107.374 427.576V427.352H120.046C120.078 426.84 120.11 426.488 120.11 426.232C120.046 424.664 119.694 423.288 119.054 422.104C118.382 420.952 117.486 420.056 116.334 419.416C115.182 418.808 113.838 418.488 112.366 418.488C110.83 418.488 109.486 418.84 108.334 419.544C107.15 420.248 106.222 421.208 105.582 422.456ZM117.39 425.176H107.534C107.662 423.896 108.174 422.84 109.134 422.008C110.062 421.208 111.15 420.792 112.398 420.792C113.774 420.792 114.926 421.176 115.822 421.944C116.718 422.712 117.262 423.8 117.39 425.176ZM145.761 420.216C144.609 419.064 143.137 418.488 141.312 418.488C138.689 418.488 136.801 419.544 135.649 421.592C135.201 420.568 134.497 419.8 133.601 419.288C132.705 418.776 131.649 418.488 130.497 418.488C128.481 418.488 126.881 419.32 125.729 420.92L125.377 418.68H123.105V435H125.729V426.392C125.729 424.76 126.113 423.448 126.881 422.424C127.649 421.4 128.705 420.888 130.049 420.888C131.297 420.888 132.257 421.304 132.961 422.136C133.633 422.968 133.985 424.184 133.985 425.752V435H136.609V426.264C136.609 424.6 136.993 423.288 137.76 422.328C138.529 421.368 139.617 420.888 140.993 420.888C142.209 420.888 143.169 421.304 143.841 422.136C144.513 422.968 144.865 424.184 144.865 425.752V435H147.489V425.592C147.489 423.16 146.913 421.368 145.761 420.216ZM160.318 421.08V430.744C160.318 432.216 160.638 433.304 161.278 433.976C161.918 434.68 163.038 435 164.574 435H167.582V432.6H164.734C164.062 432.6 163.582 432.472 163.326 432.184C163.07 431.896 162.942 431.416 162.942 430.712V421.08H167.07V418.68H162.942V414.104H160.318V418.68H157.373V421.08H160.318ZM169.426 422.456C168.786 423.736 168.466 425.176 168.466 426.84C168.466 428.504 168.786 429.944 169.458 431.224C170.13 432.504 171.09 433.464 172.306 434.168C173.522 434.872 174.93 435.192 176.562 435.192C178.418 435.192 179.986 434.68 181.266 433.624C182.546 432.568 183.346 431.192 183.666 429.528H181.01C180.722 430.584 180.178 431.416 179.346 431.992C178.514 432.568 177.522 432.856 176.37 432.856C174.834 432.856 173.618 432.376 172.69 431.416C171.73 430.456 171.25 429.176 171.218 427.576V427.352H183.89C183.922 426.84 183.954 426.488 183.954 426.232C183.89 424.664 183.538 423.288 182.898 422.104C182.226 420.952 181.33 420.056 180.178 419.416C179.026 418.808 177.682 418.488 176.21 418.488C174.674 418.488 173.33 418.84 172.178 419.544C170.994 420.248 170.066 421.208 169.426 422.456ZM181.234 425.176H171.378C171.506 423.896 172.018 422.84 172.978 422.008C173.906 421.208 174.994 420.792 176.242 420.792C177.618 420.792 178.77 421.176 179.666 421.944C180.562 422.712 181.106 423.8 181.234 425.176ZM209.604 420.216C208.452 419.064 206.98 418.488 205.156 418.488C202.532 418.488 200.644 419.544 199.492 421.592C199.044 420.568 198.34 419.8 197.444 419.288C196.548 418.776 195.492 418.488 194.34 418.488C192.324 418.488 190.724 419.32 189.572 420.92L189.22 418.68H186.948V435H189.572V426.392C189.572 424.76 189.956 423.448 190.724 422.424C191.492 421.4 192.548 420.888 193.892 420.888C195.14 420.888 196.1 421.304 196.804 422.136C197.476 422.968 197.828 424.184 197.828 425.752V435H200.452V426.264C200.452 424.6 200.836 423.288 201.604 422.328C202.372 421.368 203.46 420.888 204.836 420.888C206.052 420.888 207.012 421.304 207.684 422.136C208.356 422.968 208.708 424.184 208.708 425.752V435H211.332V425.592C211.332 423.16 210.756 421.368 209.604 420.216ZM226.954 419.48C225.77 418.84 224.426 418.488 222.922 418.488C220.554 418.488 218.666 419.448 217.322 421.304L216.97 418.68H214.698V441.4H217.322V432.504C217.834 433.336 218.57 434.008 219.53 434.488C220.458 434.968 221.578 435.192 222.922 435.192C224.394 435.192 225.738 434.84 226.954 434.136C228.138 433.432 229.066 432.472 229.738 431.192C230.41 429.944 230.762 428.504 230.762 426.84C230.762 425.112 230.41 423.64 229.738 422.36C229.066 421.112 228.138 420.152 226.954 419.48ZM226.57 431.192C225.578 432.312 224.266 432.856 222.666 432.856C221.61 432.856 220.682 432.6 219.85 432.088C219.018 431.576 218.41 430.872 217.962 429.944C217.514 429.016 217.29 427.96 217.29 426.776C217.29 425.624 217.514 424.6 217.962 423.704C218.41 422.808 219.018 422.104 219.85 421.592C220.682 421.08 221.61 420.824 222.666 420.824C224.266 420.824 225.578 421.4 226.57 422.52C227.562 423.64 228.074 425.08 228.074 426.84C228.074 428.632 227.562 430.072 226.57 431.192ZM237.057 434.136C238.273 434.84 239.681 435.192 241.281 435.192C242.849 435.192 244.257 434.84 245.473 434.136C246.689 433.432 247.649 432.472 248.353 431.192C249.025 429.944 249.377 428.504 249.377 426.84C249.377 425.208 249.025 423.768 248.353 422.488C247.649 421.24 246.689 420.248 245.473 419.544C244.257 418.84 242.849 418.488 241.281 418.488C239.681 418.488 238.273 418.84 237.057 419.544C235.841 420.248 234.881 421.24 234.209 422.488C233.505 423.768 233.185 425.208 233.185 426.84C233.185 428.504 233.505 429.944 234.209 431.192C234.881 432.472 235.841 433.432 237.057 434.136ZM244.097 432.088C243.265 432.6 242.337 432.856 241.281 432.856C240.193 432.856 239.265 432.6 238.433 432.088C237.601 431.576 236.993 430.872 236.545 429.944C236.097 429.048 235.873 427.992 235.873 426.84C235.873 425.688 236.097 424.664 236.545 423.736C236.993 422.84 237.601 422.104 238.433 421.592C239.265 421.08 240.193 420.824 241.281 420.824C242.337 420.824 243.265 421.08 244.097 421.592C244.929 422.104 245.569 422.84 246.017 423.736C246.465 424.664 246.689 425.688 246.689 426.84C246.689 427.992 246.465 429.048 246.017 429.944C245.569 430.872 244.929 431.576 244.097 432.088ZM158.205 456.68H157.469C156.125 456.68 155.101 456.904 154.365 457.352C153.597 457.8 152.989 458.408 152.541 459.144L152.189 456.68H149.917V473H152.541V464.68C152.541 463.144 152.861 461.864 153.533 460.808C154.205 459.784 155.325 459.24 156.893 459.24H158.205V456.68ZM160.051 460.456C159.411 461.736 159.091 463.176 159.091 464.84C159.091 466.504 159.411 467.944 160.083 469.224C160.755 470.504 161.715 471.464 162.931 472.168C164.147 472.872 165.555 473.192 167.187 473.192C169.043 473.192 170.611 472.68 171.891 471.624C173.171 470.568 173.971 469.192 174.291 467.528H171.635C171.347 468.584 170.803 469.416 169.971 469.992C169.139 470.568 168.147 470.856 166.995 470.856C165.459 470.856 164.243 470.376 163.315 469.416C162.355 468.456 161.875 467.176 161.843 465.576V465.352H174.515C174.547 464.84 174.579 464.488 174.579 464.232C174.515 462.664 174.163 461.288 173.523 460.104C172.851 458.952 171.955 458.056 170.803 457.416C169.651 456.808 168.307 456.488 166.835 456.488C165.299 456.488 163.955 456.84 162.803 457.544C161.619 458.248 160.691 459.208 160.051 460.456ZM171.859 463.176H162.003C162.131 461.896 162.643 460.84 163.603 460.008C164.531 459.208 165.619 458.792 166.867 458.792C168.243 458.792 169.395 459.176 170.291 459.944C171.187 460.712 171.731 461.8 171.859 463.176ZM192.837 470.6H192.037C191.301 470.6 190.949 470.216 190.949 469.416V462.376C190.949 460.488 190.373 459.048 189.221 458.024C188.069 457 186.469 456.488 184.389 456.488C182.405 456.488 180.805 456.936 179.589 457.832C178.373 458.728 177.669 459.976 177.477 461.576H180.101C180.261 460.744 180.709 460.104 181.445 459.592C182.181 459.08 183.109 458.824 184.261 458.824C185.541 458.824 186.533 459.144 187.237 459.72C187.941 460.328 188.325 461.16 188.325 462.216V463.336H183.525C181.381 463.336 179.749 463.784 178.629 464.648C177.509 465.544 176.965 466.792 176.965 468.424C176.965 469.896 177.509 471.08 178.597 471.912C179.685 472.776 181.157 473.192 182.981 473.192C185.349 473.192 187.173 472.296 188.453 470.472C188.453 471.304 188.709 471.944 189.157 472.36C189.605 472.808 190.341 473 191.397 473H192.837V470.6ZM188.325 465.544V466.344C188.325 467.752 187.845 468.872 186.949 469.704C186.021 470.536 184.773 470.952 183.173 470.952C182.085 470.952 181.221 470.728 180.581 470.216C179.941 469.736 179.621 469.096 179.621 468.264C179.621 466.472 180.837 465.544 183.269 465.544H188.325ZM194.855 450.6V473H197.479V450.6H194.855ZM201.265 470.12C200.913 470.44 200.753 470.888 200.753 471.4C200.753 471.944 200.913 472.392 201.265 472.712C201.585 473.032 202.033 473.192 202.577 473.192C203.089 473.192 203.537 473.032 203.889 472.712C204.209 472.392 204.401 471.944 204.401 471.4C204.401 470.888 204.209 470.44 203.889 470.12C203.537 469.8 203.089 469.608 202.577 469.608C202.033 469.608 201.585 469.8 201.265 470.12Z" fill="black"/>
<g filter="url(#filter0_d_374:341)">
<path d="M11 189.072C11 182.957 15.4788 178 21.0038 178H332.996C338.521 178 343 182.957 343 189.072V539.928C343 546.043 338.521 551 332.996 551H21.0038C15.4788 551 11 546.043 11 539.928V189.072Z" stroke="white" stroke-width="4"/>
</g>
<g filter="url(#filter1_d_374:341)">
<path d="M179 150C179 148.895 178.105 148 177 148C175.895 148 175 148.895 175 150L179 150ZM175.586 222.414C176.367 223.195 177.633 223.195 178.414 222.414L191.142 209.686C191.923 208.905 191.923 207.639 191.142 206.858C190.361 206.077 189.095 206.077 188.314 206.858L177 218.172L165.686 206.858C164.905 206.077 163.639 206.077 162.858 206.858C162.077 207.639 162.077 208.905 162.858 209.686L175.586 222.414ZM175 150L175 221L179 221L179 150L175 150Z" fill="white"/>
</g>
<path d="M343.322 220.604L349.926 214L354.643 218.717L348.982 224.378L343.322 230.039L337.661 224.378L332 218.717L336.717 214L343.322 220.604Z" fill="black"/>
<path d="M343.322 230.039L336.717 236.643L332 231.926L337.661 226.265L343.322 220.604L348.982 226.265L354.643 231.926L349.926 236.643L343.322 230.039Z" fill="black"/>
<g filter="url(#filter2_d_374:341)">
<path d="M48.0475 553.434L71.8615 529.621L80.0168 537.777L56.2028 561.589L48.776 569.016L31 551.24L38.4268 543.813L48.0475 553.434Z" fill="black"/>
</g>
<g filter="url(#filter3_d_374:341)">
<path d="M110.064 553.434L133.878 529.621L142.033 537.777L118.219 561.589L110.793 569.016L93.0166 551.24L100.443 543.813L110.064 553.434Z" fill="black"/>
</g>
<g filter="url(#filter4_d_374:341)">
<path d="M172.081 553.434L195.895 529.621L204.05 537.777L180.236 561.589L172.809 569.016L155.033 551.24L162.46 543.813L172.081 553.434Z" fill="black"/>
</g>
<g filter="url(#filter5_d_374:341)">
<path d="M234.097 553.434L257.911 529.621L266.067 537.777L242.253 561.589L234.826 569.016L217.05 551.24L224.477 543.813L234.097 553.434Z" fill="black"/>
</g>
<g filter="url(#filter6_d_374:341)">
<path d="M296.114 553.434L319.928 529.621L328.083 537.777L304.269 561.589L296.842 569.016L279.066 551.24L286.493 543.813L296.114 553.434Z" fill="black"/>
</g>
<defs>
<filter id="filter0_d_374:341" x="0" y="167" width="354" height="395" filterUnits="userSpaceOnUse" color-interpolation-filters="sRGB">
<feFlood flood-opacity="0" result="BackgroundImageFix"/>
<feColorMatrix in="SourceAlpha" type="matrix" values="0 0 0 0 0 0 0 0 0 0 0 0 0 0 0 0 0 0 127 0" result="hardAlpha"/>
<feMorphology radius="1" operator="dilate" in="SourceAlpha" result="effect1_dropShadow_374:341"/>
<feOffset/>
<feGaussianBlur stdDeviation="4"/>
<feColorMatrix type="matrix" values="0 0 0 0 1 0 0 0 0 1 0 0 0 0 1 0 0 0 0.25 0"/>
<feBlend mode="normal" in2="BackgroundImageFix" result="effect1_dropShadow_374:341"/>
<feBlend mode="normal" in="SourceGraphic" in2="effect1_dropShadow_374:341" result="shape"/>
</filter>
<filter id="filter1_d_374:341" x="153.272" y="139" width="47.4558" height="93" filterUnits="userSpaceOnUse" color-interpolation-filters="sRGB">
<feFlood flood-opacity="0" result="BackgroundImageFix"/>
<feColorMatrix in="SourceAlpha" type="matrix" values="0 0 0 0 0 0 0 0 0 0 0 0 0 0 0 0 0 0 127 0" result="hardAlpha"/>
<feMorphology radius="1" operator="dilate" in="SourceAlpha" result="effect1_dropShadow_374:341"/>
<feOffset/>
<feGaussianBlur stdDeviation="4"/>
<feColorMatrix type="matrix" values="0 0 0 0 1 0 0 0 0 1 0 0 0 0 1 0 0 0 0.25 0"/>
<feBlend mode="normal" in2="BackgroundImageFix" result="effect1_dropShadow_374:341"/>
<feBlend mode="normal" in="SourceGraphic" in2="effect1_dropShadow_374:341" result="shape"/>
</filter>
<filter id="filter2_d_374:341" x="22" y="520.621" width="67.0167" height="57.3948" filterUnits="userSpaceOnUse" color-interpolation-filters="sRGB">
<feFlood flood-opacity="0" result="BackgroundImageFix"/>
<feColorMatrix in="SourceAlpha" type="matrix" values="0 0 0 0 0 0 0 0 0 0 0 0 0 0 0 0 0 0 127 0" result="hardAlpha"/>
<feMorphology radius="1" operator="dilate" in="SourceAlpha" result="effect1_dropShadow_374:341"/>
<feOffset/>
<feGaussianBlur stdDeviation="4"/>
<feColorMatrix type="matrix" values="0 0 0 0 1 0 0 0 0 1 0 0 0 0 1 0 0 0 0.25 0"/>
<feBlend mode="normal" in2="BackgroundImageFix" result="effect1_dropShadow_374:341"/>
<feBlend mode="normal" in="SourceGraphic" in2="effect1_dropShadow_374:341" result="shape"/>
</filter>
<filter id="filter3_d_374:341" x="84.0166" y="520.621" width="67.0167" height="57.3948" filterUnits="userSpaceOnUse" color-interpolation-filters="sRGB">
<feFlood flood-opacity="0" result="BackgroundImageFix"/>
<feColorMatrix in="SourceAlpha" type="matrix" values="0 0 0 0 0 0 0 0 0 0 0 0 0 0 0 0 0 0 127 0" result="hardAlpha"/>
<feMorphology radius="1" operator="dilate" in="SourceAlpha" result="effect1_dropShadow_374:341"/>
<feOffset/>
<feGaussianBlur stdDeviation="4"/>
<feColorMatrix type="matrix" values="0 0 0 0 1 0 0 0 0 1 0 0 0 0 1 0 0 0 0.25 0"/>
<feBlend mode="normal" in2="BackgroundImageFix" result="effect1_dropShadow_374:341"/>
<feBlend mode="normal" in="SourceGraphic" in2="effect1_dropShadow_374:341" result="shape"/>
</filter>
<filter id="filter4_d_374:341" x="146.033" y="520.621" width="67.0167" height="57.3948" filterUnits="userSpaceOnUse" color-interpolation-filters="sRGB">
<feFlood flood-opacity="0" result="BackgroundImageFix"/>
<feColorMatrix in="SourceAlpha" type="matrix" values="0 0 0 0 0 0 0 0 0 0 0 0 0 0 0 0 0 0 127 0" result="hardAlpha"/>
<feMorphology radius="1" operator="dilate" in="SourceAlpha" result="effect1_dropShadow_374:341"/>
<feOffset/>
<feGaussianBlur stdDeviation="4"/>
<feColorMatrix type="matrix" values="0 0 0 0 1 0 0 0 0 1 0 0 0 0 1 0 0 0 0.25 0"/>
<feBlend mode="normal" in2="BackgroundImageFix" result="effect1_dropShadow_374:341"/>
<feBlend mode="normal" in="SourceGraphic" in2="effect1_dropShadow_374:341" result="shape"/>
</filter>
<filter id="filter5_d_374:341" x="208.05" y="520.621" width="67.0167" height="57.3948" filterUnits="userSpaceOnUse" color-interpolation-filters="sRGB">
<feFlood flood-opacity="0" result="BackgroundImageFix"/>
<feColorMatrix in="SourceAlpha" type="matrix" values="0 0 0 0 0 0 0 0 0 0 0 0 0 0 0 0 0 0 127 0" result="hardAlpha"/>
<feMorphology radius="1" operator="dilate" in="SourceAlpha" result="effect1_dropShadow_374:341"/>
<feOffset/>
<feGaussianBlur stdDeviation="4"/>
<feColorMatrix type="matrix" values="0 0 0 0 1 0 0 0 0 1 0 0 0 0 1 0 0 0 0.25 0"/>
<feBlend mode="normal" in2="BackgroundImageFix" result="effect1_dropShadow_374:341"/>
<feBlend mode="normal" in="SourceGraphic" in2="effect1_dropShadow_374:341" result="shape"/>
</filter>
<filter id="filter6_d_374:341" x="270.066" y="520.621" width="67.0167" height="57.3948" filterUnits="userSpaceOnUse" color-interpolation-filters="sRGB">
<feFlood flood-opacity="0" result="BackgroundImageFix"/>
<feColorMatrix in="SourceAlpha" type="matrix" values="0 0 0 0 0 0 0 0 0 0 0 0 0 0 0 0 0 0 127 0" result="hardAlpha"/>
<feMorphology radius="1" operator="dilate" in="SourceAlpha" result="effect1_dropShadow_374:341"/>
<feOffset/>
<feGaussianBlur stdDeviation="4"/>
<feColorMatrix type="matrix" values="0 0 0 0 1 0 0 0 0 1 0 0 0 0 1 0 0 0 0.25 0"/>
<feBlend mode="normal" in2="BackgroundImageFix" result="effect1_dropShadow_374:341"/>
<feBlend mode="normal" in="SourceGraphic" in2="effect1_dropShadow_374:341" result="shape"/>
</filter>
</defs>
</svg>
