<svg width="154" height="26" viewBox="0 0 154 26" fill="none" xmlns="http://www.w3.org/2000/svg">
<path d="M15.0932 14.0284C15.3521 14.2848 15.5371 14.6511 15.5371 15.054V21.2807C15.5371 21.647 15.3891 22.0133 15.0932 22.3063L12.1707 25.1999C11.9118 25.4563 11.5418 25.6028 11.1349 25.6028H1.51672C1.40574 25.6028 1.29476 25.5662 1.18378 25.4563L0.147973 24.4307C0.0369936 24.3208 0 24.211 0 24.1011V1.50173C0 1.39185 0.0369936 1.28197 0.147973 1.17208L1.18378 0.14651C1.29476 0.0366276 1.40574 0 1.51672 0H10.1361C10.543 0 10.913 0.183137 11.1719 0.439531L14.0944 3.33312C14.3533 3.58952 14.5383 3.9558 14.5383 4.35871V9.2302C14.5383 9.59647 14.3903 9.96275 14.0944 10.2558L12.6886 11.6476L15.0932 14.0284ZM7.9001 4.11474H5.02671V9.60105H7.9001C8.03858 9.60105 8.14243 9.5652 8.24629 9.45763L9.42334 8.20258C9.5272 8.09501 9.59644 7.98743 9.59644 7.844V5.87179C9.59644 5.72835 9.5272 5.62078 9.42334 5.5132L8.24629 4.29403C8.14243 4.18645 8.03858 4.11474 7.9001 4.11474ZM10.5104 19.9842V15.5807C10.5104 15.4363 10.4414 15.328 10.3379 15.2197L9.61368 14.3535C9.51022 14.2452 9.40675 14.173 9.2688 14.173H5.02671V21.0309H9.51022C9.64817 21.0309 9.75164 20.9948 9.8551 20.8865L10.3379 20.3451C10.4414 20.2368 10.5104 20.1285 10.5104 19.9842ZM27.2524 21.2263C27.4266 21.2263 27.5659 21.2992 27.6705 21.4086L28.1582 21.9557C28.2627 22.0651 28.3323 22.211 28.3323 22.3933V24.4357C28.3323 24.6181 28.2627 24.764 28.1582 24.8734L27.6705 25.4205C27.5659 25.5299 27.4266 25.6028 27.2524 25.6028H22.6888C22.5146 25.6028 22.3753 25.5299 22.2708 25.4205L20.738 23.8157C20.6335 23.7063 20.5638 23.5604 20.5638 23.3781V1.16709C20.5638 0.984731 20.6335 0.838836 20.738 0.729422L21.2605 0.182363C21.365 0.0729491 21.5044 0 21.6786 0H24.2216C24.3958 0 24.5352 0.0729491 24.6397 0.182363L25.1274 0.729422C25.2319 0.838836 25.3016 0.984731 25.3016 1.16709V21.2263H27.2524ZM33.359 20.9212V1.13384C33.359 0.950958 33.4336 0.804662 33.5453 0.694936L34.1042 0.182877C34.216 0.0731504 34.3651 0 34.5513 0H37.0477C37.234 0 37.383 0.0731504 37.4948 0.182877L38.0164 0.694936C38.1282 0.804662 38.2027 0.950958 38.2027 1.13384V19.6044C38.2027 19.7507 38.2773 19.8605 38.389 19.9702L39.2833 20.8846C39.395 20.9943 39.5068 21.0309 39.6559 21.0309H42.5993C42.7484 21.0309 42.8601 20.9943 42.9719 20.8846L43.9034 19.9702C44.0152 19.8605 44.0524 19.7507 44.0524 19.6044V1.13384C44.0524 0.950958 44.127 0.804662 44.2387 0.694936L44.7976 0.182877C44.9094 0.0731504 45.0584 0 45.2447 0H47.7411C47.9274 0 48.0764 0.0731504 48.1882 0.182877L48.7098 0.694936C48.8216 0.804662 48.8961 0.950958 48.8961 1.13384V20.9212C48.8961 21.2869 48.7844 21.6527 48.4863 21.9453L45.1702 25.2005C44.8721 25.4931 44.4996 25.6028 44.127 25.6028H38.1655C37.7556 25.6028 37.383 25.4565 37.1222 25.2005L33.8062 21.9453C33.5081 21.6527 33.359 21.2869 33.359 20.9212ZM58.9187 4.38279V11.3222H61.3432C61.5268 11.3222 61.6738 11.3953 61.784 11.5048L62.2982 12.0162C62.4084 12.1257 62.4819 12.2718 62.4819 12.4544V14.5363C62.4819 14.7189 62.4084 14.865 62.2982 14.9745L61.784 15.4859C61.6738 15.5954 61.5268 15.6685 61.3432 15.6685H58.9187V21.2565H64.2084C64.3921 21.2565 64.539 21.3296 64.6492 21.4392L65.1635 21.987C65.2737 22.0966 65.3472 22.2427 65.3472 22.4253V24.4706C65.3472 24.6532 65.2737 24.7993 65.1635 24.9089L64.6492 25.4202C64.539 25.5298 64.3921 25.6028 64.2084 25.6028H56.1636C55.98 25.6028 55.833 25.5298 55.7228 25.4202L54.1065 23.8132C53.9963 23.7036 53.9229 23.5575 53.9229 23.3749V2.84882C53.9229 2.6662 53.9963 2.52011 54.1065 2.41054L56.3473 0.182613C56.4575 0.0730429 56.6044 0 56.7881 0H64.2084C64.3921 0 64.539 0.0730429 64.6492 0.182613L65.1635 0.693937C65.2737 0.803507 65.3472 0.949603 65.3472 1.13222V3.25057C65.3472 3.43319 65.2737 3.57929 65.1635 3.68886L64.6492 4.20018C64.539 4.30975 64.3921 4.38279 64.2084 4.38279H58.9187ZM85.0061 4.75481C85.2674 5.08398 85.454 5.41317 85.454 5.77892V16.02C85.454 16.4224 85.2674 16.7881 85.0061 17.0442L81.3107 20.6651C81.0494 20.9212 80.6761 21.104 80.2655 21.104H75.413V24.469C75.413 24.6519 75.3384 24.7982 75.2264 24.9079L74.7038 25.4199C74.5918 25.5297 74.4425 25.6028 74.2559 25.6028H71.5684C71.3817 25.6028 71.2324 25.5297 71.1204 25.4199L70.5605 24.9079C70.4485 24.7982 70.3739 24.6519 70.3739 24.469V1.13384C70.3739 0.950958 70.4112 0.804662 70.5605 0.694936L71.1204 0.182877C71.2324 0.109727 71.3817 0 71.5684 0H80.2655C80.6761 0 81.0494 0.0731475 81.3107 0.402327L85.0061 4.75481ZM80.8843 14.1779V6.77099C80.8843 6.62211 80.8468 6.58489 80.6967 6.39879L79.1587 4.72385C79.0086 4.53774 78.9336 4.57497 78.7836 4.57497H75.8576V16.0018H79.0462C79.1962 16.0018 79.3087 15.9273 79.4213 15.8157L80.6967 14.5501C80.8092 14.4385 80.8843 14.3268 80.8843 14.1779ZM104.647 9.66973C104.647 10.036 104.539 10.4389 104.214 10.6953L102.268 12.0505L104.214 14.0284C104.503 14.3215 104.647 14.6511 104.647 15.054V24.4307C104.647 24.6139 104.575 24.7604 104.467 24.8703L103.962 25.4197C103.854 25.5296 103.71 25.6028 103.529 25.6028H101.295C101.114 25.6028 100.97 25.5296 100.862 25.4197L100.321 24.8703C100.213 24.7604 100.141 24.6139 100.141 24.4307V16.4459C100.141 16.2994 100.069 16.1895 99.9609 16.0796L98.6272 14.6877L95.383 16.9953V24.4307C95.383 24.6139 95.3109 24.7604 95.2028 24.8703L94.6981 25.4197C94.59 25.5296 94.4458 25.6028 94.2656 25.6028H91.6342C91.454 25.6028 91.3098 25.5296 91.2016 25.4197L90.6609 24.8703C90.5528 24.7604 90.4807 24.6139 90.4807 24.4307V1.50173C90.4807 1.39185 90.5168 1.28197 90.6249 1.17208L91.6342 0.14651C91.7423 0.0366276 91.8505 0 91.9586 0H100.357C100.754 0 101.114 0.183137 101.367 0.439531L104.214 3.33312C104.467 3.58952 104.647 3.9558 104.647 4.35871V9.66973ZM95.5074 4.11474V11.4298L99.9041 8.20258C100.008 8.13087 100.077 7.98743 100.077 7.844V5.5132C100.077 5.36977 100.008 5.26221 99.9041 5.15463L99.0732 4.29403C98.9693 4.18645 98.8655 4.11474 98.727 4.11474H95.5074ZM114.011 0C114.196 0 114.344 0.0729491 114.455 0.182363L114.972 0.729422C115.083 0.838836 115.157 0.984731 115.157 1.16709V24.4357C115.157 24.6181 115.083 24.764 114.972 24.8734L114.455 25.4205C114.344 25.5299 114.196 25.6028 114.011 25.6028H111.313C111.129 25.6028 110.981 25.5299 110.87 25.4205L110.315 24.8734C110.204 24.764 110.131 24.6181 110.131 24.4357V1.16709C110.131 0.984731 110.204 0.838836 110.315 0.729422L110.87 0.182363C110.981 0.0729491 111.129 0 111.313 0H114.011ZM133.601 0C133.789 0 133.94 0.0729491 134.053 0.182363L134.619 0.729422C134.732 0.838836 134.807 0.984731 134.807 1.16709V24.4357C134.807 24.6181 134.732 24.764 134.619 24.8734L134.053 25.4205C133.94 25.5299 133.789 25.6028 133.601 25.6028H131.113C130.999 25.6028 130.886 25.5663 130.773 25.4934L130.208 25.1287C130.095 25.0557 130.019 24.9463 129.981 24.8369L124.854 13.5673V24.4357C124.854 24.6181 124.779 24.764 124.666 24.8734L124.138 25.384C124.025 25.5299 123.836 25.6028 123.648 25.6028H120.933C120.745 25.6028 120.594 25.5299 120.481 25.4205L119.916 24.8734C119.802 24.764 119.727 24.6181 119.727 24.4357V1.16709C119.727 0.984731 119.802 0.838836 119.916 0.729422L120.481 0.182363C120.594 0.0729491 120.745 0 120.933 0H124.025C124.741 0 124.967 0.583535 125.043 0.765892L129.68 13.1296V1.16709C129.68 0.984731 129.755 0.838836 129.868 0.729422L130.396 0.182363C130.509 0.0729491 130.66 0 130.849 0H133.601ZM152.885 0C153.065 0 153.209 0.0730429 153.317 0.182613L153.82 0.693937C153.928 0.803507 154 0.949603 154 1.13222V3.79843C154 3.98104 153.928 4.12712 153.82 4.23669L153.317 4.78455C153.209 4.89412 153.065 4.96716 152.885 4.96716H148.677V24.4706C148.677 24.6532 148.605 24.7993 148.497 24.9089L147.958 25.4202C147.85 25.5298 147.706 25.6028 147.526 25.6028H144.937C144.757 25.6028 144.613 25.5298 144.505 25.4202L143.966 24.9089C143.858 24.7993 143.786 24.6532 143.786 24.4706V4.96716H139.578C139.398 4.96716 139.254 4.89412 139.146 4.78455L138.643 4.23669C138.535 4.12712 138.463 3.98104 138.463 3.79843V1.13222C138.463 0.949603 138.535 0.803507 138.643 0.693937L139.146 0.182613C139.254 0.0730429 139.398 0 139.578 0H152.885Z" fill="black"/>
</svg>
