<svg width="202" height="12" viewBox="0 0 202 12" fill="none" xmlns="http://www.w3.org/2000/svg">
<path d="M0.0458757 0.224683H8.49388V1.55268H1.56588V4.92868H7.78988V6.25668H1.56588V9.87268H8.58988V11.2007H0.0458757V0.224683ZM18.5258 11.3927C17.1924 11.3927 16.1044 11.126 15.2618 10.5927C14.4191 10.0594 13.9978 9.22735 13.9978 8.09668L14.0138 7.77668H15.5178C15.4964 7.92602 15.4858 8.03802 15.4858 8.11268C15.4858 8.76335 15.7524 9.25935 16.2858 9.60068C16.8298 9.93135 17.5498 10.0967 18.4458 10.0967C19.4484 10.0967 20.2164 9.94202 20.7498 9.63268C21.2831 9.31268 21.5498 8.85935 21.5498 8.27268C21.5498 7.87802 21.4111 7.55268 21.1338 7.29668C20.8564 7.03002 20.5044 6.82202 20.0778 6.67268C19.6618 6.52335 19.0964 6.35802 18.3818 6.17668C17.4964 5.95268 16.7818 5.73935 16.2378 5.53668C15.6938 5.32335 15.2298 5.01402 14.8458 4.60868C14.4618 4.19268 14.2698 3.64868 14.2698 2.97668C14.2698 2.01668 14.6698 1.28602 15.4698 0.784683C16.2698 0.28335 17.2938 0.0326834 18.5418 0.0326834C19.7898 0.0326834 20.8031 0.288683 21.5818 0.800683C22.3604 1.30202 22.7498 2.07535 22.7498 3.12068V3.31268H21.2618V3.07268C21.2618 2.52868 21.0111 2.10202 20.5098 1.79268C20.0191 1.48335 19.3791 1.32868 18.5898 1.32868C17.7471 1.32868 17.0698 1.45668 16.5578 1.71268C16.0564 1.96868 15.8058 2.35268 15.8058 2.86468C15.8058 3.23802 15.9391 3.54202 16.2058 3.77668C16.4831 4.01135 16.8191 4.20335 17.2138 4.35268C17.6191 4.49135 18.1791 4.65135 18.8938 4.83268C19.7791 5.05668 20.4991 5.27535 21.0538 5.48868C21.6191 5.70202 22.0938 6.01668 22.4778 6.43268C22.8724 6.83802 23.0698 7.37135 23.0698 8.03268C23.0698 9.20602 22.6591 10.0594 21.8378 10.5927C21.0271 11.126 19.9231 11.3927 18.5258 11.3927ZM31.7736 1.55268H27.9976V0.224683H37.0696V1.55268H33.2936V11.2007H31.7736V1.55268ZM44.3674 0.224683H46.3034L50.5594 11.2007H48.9434L47.8394 8.27268H42.7514L41.6794 11.2007H40.1114L44.3674 0.224683ZM47.3434 6.94468L46.0634 3.52068L45.3274 1.53668H45.2474L44.5274 3.48868L43.2474 6.94468H47.3434ZM55.6953 0.224683H57.9513L60.5753 7.71268C60.7246 8.13935 60.8899 8.68868 61.0713 9.36068H61.1353C61.3273 8.61402 61.4873 8.06468 61.6153 7.71268L64.2553 0.224683H66.4953V11.2007H64.9753V3.95268L65.0073 1.90468H64.8953C64.8099 2.34202 64.7193 2.69402 64.6233 2.96068L61.6473 11.2007H60.3833L57.4553 2.96068C57.3699 2.73668 57.2793 2.38468 57.1833 1.90468H57.0873L57.1193 3.95268V11.2007H55.6953V0.224683ZM77.7434 11.3927C76.0047 11.3927 74.6554 10.918 73.6954 9.96868C72.746 9.00868 72.2714 7.59002 72.2714 5.71268C72.2714 3.83535 72.746 2.42202 73.6954 1.47268C74.6554 0.512683 76.0047 0.0326834 77.7434 0.0326834C79.4927 0.0326834 80.842 0.512683 81.7914 1.47268C82.7514 2.42202 83.2314 3.83535 83.2314 5.71268C83.2314 7.57935 82.7514 8.99268 81.7914 9.95268C80.842 10.9127 79.4927 11.3927 77.7434 11.3927ZM77.7434 10.0967C79.0127 10.0967 79.9834 9.75535 80.6554 9.07268C81.3274 8.37935 81.6634 7.28068 81.6634 5.77668V5.71268C81.6527 4.18735 81.3114 3.07802 80.6394 2.38468C79.9674 1.68068 79.002 1.32868 77.7434 1.32868C76.4954 1.32868 75.5354 1.68068 74.8634 2.38468C74.1914 3.07802 73.85 4.18735 73.8394 5.71268V5.77668C73.8394 7.28068 74.1754 8.37935 74.8474 9.07268C75.5194 9.75535 76.4847 10.0967 77.7434 10.0967ZM93.0445 11.3927C91.7112 11.3927 90.6232 11.126 89.7805 10.5927C88.9378 10.0594 88.5165 9.22735 88.5165 8.09668L88.5325 7.77668H90.0365C90.0152 7.92602 90.0045 8.03802 90.0045 8.11268C90.0045 8.76335 90.2712 9.25935 90.8045 9.60068C91.3485 9.93135 92.0685 10.0967 92.9645 10.0967C93.9672 10.0967 94.7352 9.94202 95.2685 9.63268C95.8018 9.31268 96.0685 8.85935 96.0685 8.27268C96.0685 7.87802 95.9298 7.55268 95.6525 7.29668C95.3752 7.03002 95.0232 6.82202 94.5965 6.67268C94.1805 6.52335 93.6152 6.35802 92.9005 6.17668C92.0152 5.95268 91.3005 5.73935 90.7565 5.53668C90.2125 5.32335 89.7485 5.01402 89.3645 4.60868C88.9805 4.19268 88.7885 3.64868 88.7885 2.97668C88.7885 2.01668 89.1885 1.28602 89.9885 0.784683C90.7885 0.28335 91.8125 0.0326834 93.0605 0.0326834C94.3085 0.0326834 95.3218 0.288683 96.1005 0.800683C96.8792 1.30202 97.2685 2.07535 97.2685 3.12068V3.31268H95.7805V3.07268C95.7805 2.52868 95.5298 2.10202 95.0285 1.79268C94.5378 1.48335 93.8978 1.32868 93.1085 1.32868C92.2658 1.32868 91.5885 1.45668 91.0765 1.71268C90.5752 1.96868 90.3245 2.35268 90.3245 2.86468C90.3245 3.23802 90.4578 3.54202 90.7245 3.77668C91.0018 4.01135 91.3378 4.20335 91.7325 4.35268C92.1378 4.49135 92.6978 4.65135 93.4125 4.83268C94.2978 5.05668 95.0178 5.27535 95.5725 5.48868C96.1378 5.70202 96.6125 6.01668 96.9965 6.43268C97.3912 6.83802 97.5885 7.37135 97.5885 8.03268C97.5885 9.20602 97.1778 10.0594 96.3565 10.5927C95.5458 11.126 94.4418 11.3927 93.0445 11.3927ZM111.642 0.224683H120.09V1.55268H113.162V4.92868H119.386V6.25668H113.162V9.87268H120.186V11.2007H111.642V0.224683ZM126.073 0.224683H128.329L130.953 7.71268C131.103 8.13935 131.268 8.68868 131.449 9.36068H131.513C131.705 8.61402 131.865 8.06468 131.993 7.71268L134.633 0.224683H136.873V11.2007H135.353V3.95268L135.385 1.90468H135.273C135.188 2.34202 135.097 2.69402 135.001 2.96068L132.025 11.2007H130.761L127.833 2.96068C127.748 2.73668 127.657 2.38468 127.561 1.90468H127.465L127.497 3.95268V11.2007H126.073V0.224683ZM151.375 0.224683H156.671C157.588 0.224683 158.324 0.470016 158.879 0.960683C159.444 1.45135 159.727 2.10202 159.727 2.91268C159.727 3.53135 159.556 4.06468 159.215 4.51268C158.873 4.96068 158.436 5.27002 157.903 5.44068V5.50468C158.553 5.65402 159.071 5.96335 159.455 6.43268C159.839 6.90202 160.031 7.52068 160.031 8.28868C160.031 9.27002 159.721 10.0007 159.103 10.4807C158.495 10.9607 157.684 11.2007 156.671 11.2007H151.375V0.224683ZM156.367 4.91268C156.911 4.91268 157.348 4.75802 157.679 4.44868C158.009 4.12868 158.175 3.71802 158.175 3.21668C158.175 2.66202 158.025 2.24602 157.727 1.96868C157.428 1.69135 157.017 1.55268 156.495 1.55268H152.895V4.91268H156.367ZM156.639 9.87268C157.865 9.87268 158.479 9.28068 158.479 8.09668C158.479 6.85935 157.828 6.24068 156.527 6.24068H152.895V9.87268H156.639ZM165.806 0.224683H174.254V1.55268H167.326V4.92868H173.55V6.25668H167.326V9.87268H174.35V11.2007H165.806V0.224683ZM183.102 1.55268H179.326V0.224683H188.398V1.55268H184.622V11.2007H183.102V1.55268ZM195.696 0.224683H197.632L201.888 11.2007H200.272L199.168 8.27268H194.08L193.008 11.2007H191.44L195.696 0.224683ZM198.672 6.94468L197.392 3.52068L196.656 1.53668H196.576L195.856 3.48868L194.576 6.94468H198.672Z" fill="#646464"/>
</svg>
