<svg xmlns="http://www.w3.org/2000/svg" viewBox="0 0 283.77 219.78"><defs><style>.cls-1{fill:#1a171b;}</style></defs><g id="Camada_2" data-name="Camada 2"><g id="Layer_1" data-name="Layer 1"><polygon class="cls-1" points="0 145.36 0 174.81 19.12 174.81 19.12 170.26 5.3 170.26 5.3 162.01 16.25 162.01 16.25 157.72 5.3 157.72 5.3 149.73 18.94 149.73 18.94 145.36 0 145.36"/><path class="cls-1" d="M23.45,153h4.46v5c.84-1.81,2.51-5.48,6.58-5.48,7.06,0,6.93,6.45,6.93,9.32v12.89h-4.9V162c0-5-2.52-5.13-3.36-5.13-1.06,0-4.81.27-4.81,7.73v10.2h-4.9Z"/><path class="cls-1" d="M56.12,155.69c-3.18,0-4.11,2.12-4.11,3.62,0,1.9,1.28,3.58,4,3.58a5.26,5.26,0,0,0,2.74-.75,3.08,3.08,0,0,0,1.28-3c0-1.32-.79-3.44-3.93-3.44m-3.27,23.09a16.09,16.09,0,0,0,4.11.49c2.16,0,5.65-.35,5.65-2.91,0-1.55-1.68-2.21-3.22-2.21H55.94a18.94,18.94,0,0,1-5.29-.53,2.56,2.56,0,0,0-1.06,1.9c0,1.37,1.41,2.82,3.26,3.26M67.2,152.64H65.7a3.11,3.11,0,0,0-3.18,1.77,6,6,0,0,1,2.56,4.68c0,3.93-3.57,6.71-8.83,6.71a15.73,15.73,0,0,1-4.06-.57,2.22,2.22,0,0,0-1.5,2.12c0,.79.71,2.16,3.49,2.16h5.56c5.34,0,7.46,3.09,7.46,6s-2.07,7.16-11.3,7.16c-5.74,0-10.55-1.33-10.55-5.92,0-2.65,1.59-3.58,3.18-4.42-1.24-1.1-2-2-2-3.57,0-2.78,2.29-3.93,3.48-4.55a5.54,5.54,0,0,1-3-5c0-2.25,1.32-6.58,9-6.58a20.57,20.57,0,0,1,4.24.44,4.73,4.73,0,0,1,2-3.22,6.32,6.32,0,0,1,3.58-.93h1.5Z"/><path class="cls-1" d="M83.72,161.34a5.48,5.48,0,0,0-1.06-3.4,4.63,4.63,0,0,0-3.8-1.89,4.45,4.45,0,0,0-3.93,2.11,6.29,6.29,0,0,0-1,3.18Zm4.72,7.16c-1.54,4.81-5.34,6.75-9.62,6.75-7.2,0-10-5.78-10-11.26,0-6.4,3.85-11.39,10.25-11.39,7.06,0,9.93,5.61,9.8,11.92H73.92a7.32,7.32,0,0,0,1.14,4.91,4.59,4.59,0,0,0,4.07,2,4.83,4.83,0,0,0,4.9-3.53Z"/><path class="cls-1" d="M93.34,153H97.8v5c.84-1.81,2.52-5.48,6.58-5.48,7.07,0,6.93,6.45,6.93,9.32v12.89h-4.9V162c0-5-2.51-5.13-3.35-5.13-1.06,0-4.81.27-4.81,7.73v10.2H93.34Z"/><path class="cls-1" d="M117.23,145.36h4.9v11.52c.53-1.28,2-4.72,6.41-4.72,4.67,0,6.71,2.56,6.71,8.61v14h-4.9V161.57c0-1.86,0-5.17-3.27-5.17a4.6,4.6,0,0,0-4,2.38,12.56,12.56,0,0,0-.93,5.61v10.42h-4.9Z"/><path class="cls-1" d="M154.32,163.73a22.26,22.26,0,0,0-6,.7c-1,.31-3.57,1.06-3.57,3.84,0,.8.35,3.27,3.84,3.27,4.81,0,5.69-4.1,5.69-5.83Zm4.82,6.66a15.42,15.42,0,0,0,.66,4.42h-4.68a15.61,15.61,0,0,1-.8-4.42c-.66,1.55-2.16,4.86-7.37,4.86-4.68,0-7.2-3.13-7.2-6.71,0-7.33,9.89-7.55,14.57-7.46v-1.64c0-2.78-2.43-3.35-4.63-3.35-4.33,0-4.86,2.38-5.08,3.35l-4.2-.61c.84-4.91,5.44-6.23,9.85-6.23,2.38,0,5.12.31,6.62,1.59,2.26,1.94,2.26,3.66,2.26,6.4Z"/><path class="cls-1" d="M165,153h4.41v5.21c.53-1.59,2-6.05,6.67-5.82v5.29a5.36,5.36,0,0,0-4.55,1.77c-.84,1-1.63,3.13-1.63,6.49v8.83H165Z"/><path class="cls-1" d="M179.62,153h4.91v21.81h-4.91Zm0-7.64h4.91v5.12h-4.91Z"/><path class="cls-1" d="M203.6,163.73a22.26,22.26,0,0,0-6,.7c-1,.31-3.58,1.06-3.58,3.84,0,.8.36,3.27,3.84,3.27,4.82,0,5.7-4.1,5.7-5.83Zm4.81,6.66a15,15,0,0,0,.67,4.42H204.4a15.27,15.27,0,0,1-.8-4.42c-.66,1.55-2.16,4.86-7.37,4.86-4.68,0-7.2-3.13-7.2-6.71,0-7.33,9.89-7.55,14.57-7.46v-1.64c0-2.78-2.43-3.35-4.64-3.35-4.32,0-4.85,2.38-5.07,3.35l-4.2-.61c.84-4.91,5.43-6.23,9.85-6.23,2.38,0,5.12.31,6.62,1.59,2.25,1.94,2.25,3.66,2.25,6.4Z"/><polygon class="cls-1" points="0 189.89 0 219.34 19.12 219.34 19.12 214.79 5.3 214.79 5.3 206.54 16.25 206.54 16.25 202.25 5.3 202.25 5.3 194.26 18.94 194.26 18.94 189.89 0 189.89"/><path class="cls-1" d="M41.37,219.34H36.3V197.57h5.07Zm0-24.28H36.3v-5.17h5.07ZM29.28,219.34H24.2V201.42H21v-3.85H24.2c0-1.89.09-4.06,1.41-5.74A6.59,6.59,0,0,1,31,189.45a18.45,18.45,0,0,1,3,.22v3.89H32.9c-3.09,0-3.62,1-3.62,3.18v.83H34v3.85H29.28Z"/><path class="cls-1" d="M64.07,211.79c-.44,2-1.85,8-8.92,8s-9.27-6.4-9.27-11.34c0-6,3.31-11.31,9.71-11.31,7.11,0,8.17,5.79,8.48,7.51l-4.24.57c-.4-2.87-1.94-4.06-4-4.06-2.78,0-3.71,2.21-4.1,3.4a13.71,13.71,0,0,0-.62,4.11c0,.88,0,6.84,4.46,6.84,2.34,0,3.66-1.68,4.28-4.15Z"/><path class="cls-1" d="M67.87,219.34h4.9V197.53h-4.9Zm0-24.33h4.9v-5.12h-4.9Z"/><path class="cls-1" d="M92.2,205.88a5.57,5.57,0,0,0-1.06-3.41,4.63,4.63,0,0,0-3.8-1.89,4.44,4.44,0,0,0-3.93,2.12,6.34,6.34,0,0,0-1,3.18ZM96.92,213c-1.54,4.81-5.34,6.75-9.63,6.75-7.19,0-10-5.78-10-11.26,0-6.4,3.84-11.39,10.25-11.39,7.06,0,9.93,5.61,9.8,11.92H82.39A7.39,7.39,0,0,0,83.54,214a4.56,4.56,0,0,0,4.06,2,4.81,4.81,0,0,0,4.9-3.53Z"/><path class="cls-1" d="M101.82,197.57h4.46v5c.84-1.81,2.52-5.48,6.58-5.48,7.07,0,6.93,6.45,6.93,9.32v12.89h-4.9v-12.8c0-5-2.51-5.12-3.35-5.12-1.06,0-4.82.26-4.82,7.72v10.2h-4.9Z"/><path class="cls-1" d="M135.82,219.34a16.3,16.3,0,0,1-3.44.44,6.46,6.46,0,0,1-4.64-1.72c-1.32-1.5-1.5-2.91-1.5-5.38V201.42h-2.69v-3.85h3l.44-5.65,4-.35v6h4.37v3.85H131V212c0,3,1.06,3.53,3.58,3.53.39,0,.7,0,1.23,0Z"/><path class="cls-1" d="M153.44,205.88a5.51,5.51,0,0,0-1.06-3.41,4.61,4.61,0,0,0-3.8-1.89,4.44,4.44,0,0,0-3.93,2.12,6.23,6.23,0,0,0-1,3.18Zm4.73,7.15c-1.55,4.81-5.35,6.75-9.63,6.75-7.2,0-10-5.78-10-11.26,0-6.4,3.84-11.39,10.24-11.39,7.06,0,9.93,5.61,9.8,11.92H143.64a7.28,7.28,0,0,0,1.15,4.91,4.54,4.54,0,0,0,4.06,2,4.83,4.83,0,0,0,4.9-3.53Z"/><path class="cls-1" d="M41.41,32.48h-18V64.94H41.88c11.68,0,18.5-7,18.5-16.07v-.32c0-10.46-7.29-16.07-19-16.07m87.83,0H106V63h23.68c11.37,0,17.89-6.07,17.89-15v-.3c0-10-7-15.17-18.34-15.17m112.87,9.23a31.44,31.44,0,0,0-10-7,30.14,30.14,0,0,0-12.54-2.59A31,31,0,0,0,207,34.64a29,29,0,0,0-9.73,6.94,32.37,32.37,0,0,0-6.34,10.24,33.69,33.69,0,0,0-2.29,12.47v.3a34.15,34.15,0,0,0,2.29,12.52,31,31,0,0,0,16.36,17.34A30.17,30.17,0,0,0,219.91,97a31.35,31.35,0,0,0,12.55-2.5,28.72,28.72,0,0,0,9.79-6.94,33.11,33.11,0,0,0,6.35-10.25,33.92,33.92,0,0,0,2.28-12.46v-.29A34.47,34.47,0,0,0,248.6,52a31.63,31.63,0,0,0-6.49-10.33m32.52,22.88A52.17,52.17,0,0,1,270.5,85.3a52.77,52.77,0,0,1-28.83,28.47A56.75,56.75,0,0,1,219.61,118a56.08,56.08,0,0,1-22-4.21,54.64,54.64,0,0,1-17.33-11.36A50.87,50.87,0,0,1,169,85.6a52,52,0,0,1-4-18,35,35,0,0,1-16.46,12l25.93,37.92h-27.3l-22.76-34H106v34H82.67V59.15c-4.79,17.53-21.5,26.56-41.56,26.56H23.36v31.86H0V11.39H43.39c21,0,35,10.3,39.28,26.13V11.39H131.2c13.5,0,24,3.79,30.94,10.77a31.36,31.36,0,0,1,8.65,18,52.43,52.43,0,0,1,27.07-24.76,56.88,56.88,0,0,1,22-4.2,59,59,0,0,1,13.64,1.53L240.76,0c7.3,1,16.43,5.16,22.08,12l-7.22,11.55q1.88,1.53,3.59,3.22a50.61,50.61,0,0,1,11.36,16.81,53,53,0,0,1,4.06,20.72Z"/><path class="cls-1" d="M283.77,106.87a9.14,9.14,0,1,1-9.14-9.14,9.14,9.14,0,0,1,9.14,9.14"/></g></g></svg>