<svg width="221" height="52" viewBox="0 0 221 52" fill="none" xmlns="http://www.w3.org/2000/svg">
<path d="M19.6327 4.10328C12.7453 6.44496 5.89278 8.78664 4.36226 9.30318C0.0489686 10.7495 0.188107 10.5429 0.0489687 16.3626C-0.0901696 22.8367 -0.298877 22.6301 5.12752 21.1837C7.35373 20.5639 12.954 19.0831 17.5456 17.8434C22.1372 16.6037 27.3896 15.2262 29.1984 14.7097L32.503 13.8488L44.5036 17.0858C64.6787 22.5268 63.983 22.389 64.5396 21.6314C65.1309 20.8394 65.2005 13.5044 64.6439 11.8859C64.4352 11.2316 63.8439 10.6462 63.183 10.3363C62.1394 9.85416 34.4161 0.384148 32.8508 0.0053463C32.4334 -0.0979633 26.8331 1.62386 19.6327 4.10328Z" fill="black"/>
<path d="M73.6201 15.495C73.4809 15.5983 73.3766 17.148 73.3766 18.9042C73.3766 21.487 73.4809 22.1068 73.9331 22.279C74.2462 22.3823 76.7507 22.4856 79.4987 22.4856H84.5076V36.7768C84.5076 50.5169 84.5424 51.0679 85.1685 51.4123C85.899 51.7911 90.4558 51.8944 91.7428 51.55L92.5081 51.3434V36.9145V22.4856H97.8301C100.717 22.4856 103.326 22.3479 103.57 22.2101C103.883 22.0035 103.987 21.0393 103.917 18.6632L103.813 15.4261L88.8209 15.3228C80.577 15.2884 73.7244 15.3573 73.6201 15.495Z" fill="black"/>
<path d="M180.237 15.6659C179.959 15.9414 179.82 17.6977 179.82 21.6923V27.271L178.289 26.2379C172.41 22.3121 162.984 24.6538 159.784 30.818C157.383 35.5013 157.349 40.6324 159.644 45.2124C162.706 51.2388 170.776 53.7871 177.037 50.6534C178.219 50.1024 179.333 49.3104 179.576 48.966C180.167 48.0362 180.376 48.1395 181.002 49.6547C181.663 51.3421 182.394 51.7554 184.759 51.7554C188.098 51.7554 187.855 53.3395 187.75 33.1597L187.646 15.4248L184.168 15.3215C181.733 15.2527 180.55 15.356 180.237 15.6659ZM176.932 31.8511C180.863 34.4338 180.898 41.8721 176.967 44.4204C174.463 46.0733 170.567 45.9356 168.445 44.076C165.245 41.2867 165.001 35.7768 167.923 32.6775C169.349 31.1623 170.636 30.7147 173.245 30.8524C175.054 30.9213 175.854 31.1279 176.932 31.8511Z" fill="black"/>
<path d="M25.197 19.635C22.136 20.4959 19.4228 21.3568 19.2141 21.529C18.5879 22.0456 18.5532 50.3868 19.1793 51.0067C19.4923 51.3166 22.9012 51.4199 32.3278 51.4199C44.2589 51.4199 45.1285 51.3855 45.6503 50.8001C46.1721 50.2146 46.2416 48.6994 46.2416 36.0268C46.2416 25.1449 46.1373 21.8045 45.8242 21.529C45.059 20.9436 33.5453 18.0165 32.1191 18.0509C31.3886 18.0854 28.258 18.7741 25.197 19.635Z" fill="black"/>
<path d="M108.647 24.5492C104.438 25.3757 100.021 29.0948 98.4206 33.1927C96.2639 38.6681 98.1075 45.8654 102.525 49.2401C106.073 51.9262 111.708 52.6838 116.683 51.1686C119.57 50.2732 122.422 48.5514 122.422 47.7594C122.422 46.864 119.709 43.4893 118.978 43.4893C118.63 43.4893 117.587 43.9025 116.717 44.3846C114.769 45.4521 111.36 45.8654 109.447 45.2455C108.334 44.8667 106.073 42.835 106.073 42.1807C106.073 42.0429 108.682 41.3542 111.917 40.5966C115.117 39.8734 119.117 38.9781 120.787 38.5993C122.77 38.1172 123.953 37.6695 124.161 37.2907C124.544 36.602 123.639 32.504 122.7 30.6444C120.265 25.8578 114.561 23.4128 108.647 24.5492ZM113.656 30.8855C114.909 31.5054 115.709 32.4351 115.987 33.5371C116.196 34.398 116.196 34.398 110.873 35.6722C107.952 36.3953 105.412 36.9463 105.238 36.9463C104.682 36.9463 105.343 34.4669 106.247 33.1239C107.812 30.7478 111.326 29.6802 113.656 30.8855Z" fill="black"/>
<path d="M140.266 24.6941C138.318 25.1762 137.066 25.8649 135.57 27.2424C135.048 27.7245 134.561 28.0688 134.492 27.9655C134.422 27.8967 134.109 27.1735 133.761 26.3814C133.066 24.8318 132.544 24.5563 129.97 24.5563C126.7 24.5563 126.944 23.5232 126.944 38.1932V51.0724L127.848 51.4168C129.031 51.8644 133.413 51.8644 134.283 51.4168C134.909 51.0724 134.944 50.6247 134.944 44.1851C134.944 40.4315 135.118 36.5402 135.327 35.576C135.814 33.3721 137.24 31.6847 139.292 30.8926C142.144 29.8251 144.753 30.7204 146.249 33.1999C146.875 34.2674 146.945 35.0939 147.049 42.6355C147.153 49.7983 147.223 50.9691 147.71 51.3135C148.614 52.0022 153.867 51.8989 154.562 51.2102C155.049 50.7625 155.119 49.5572 155.119 43.2209C155.119 34.6806 154.841 32.3734 153.484 29.7218C152.371 27.6212 149.971 25.5894 147.779 24.9351C145.658 24.3153 142.249 24.1775 140.266 24.6941Z" fill="black"/>
<path d="M202.32 24.552C200.06 24.9308 196.546 26.6182 194.877 28.1334C194.111 28.8221 192.963 30.4062 192.337 31.6803C191.329 33.6776 191.155 34.4352 191.016 37.2935C190.598 46.1092 195.711 51.8257 204.164 51.8945C207.538 51.8945 209.973 51.0681 211.678 49.3118C212.199 48.7608 212.756 48.3131 212.895 48.3131C213.034 48.3131 213.347 48.8641 213.556 49.5184C214.147 51.3091 215.226 51.8601 217.765 51.6879C219.087 51.5846 219.991 51.3435 220.2 51.0336C220.617 50.3793 220.582 38.6709 220.13 35.916C218.808 27.6857 211.504 23.0368 202.32 24.552ZM208.999 31.4737C210.564 32.4035 211.33 33.3677 211.991 35.1928C213.486 39.5318 211.225 44.6973 207.469 45.4205C202.32 46.3503 198.807 43.4232 198.807 38.1544C198.807 33.4366 201.312 30.7505 205.729 30.7505C207.225 30.7505 208.164 30.9572 208.999 31.4737Z" fill="black"/>
</svg>
