<svg width="60" height="60" viewBox="0 0 60 60" fill="none" xmlns="http://www.w3.org/2000/svg">
<rect width="60" height="60" rx="30" fill="#B3C7C6"/>
<path d="M33.303 13H19V47H26.5279V35.5857H33.303C35.8123 35.5857 38.0204 35.1486 39.9275 34.2257C41.8346 33.3029 43.3401 31.9914 44.3941 30.2914C45.448 28.5914 46 26.6 46 24.3171C46 22.0829 45.448 20.0914 44.3941 18.3429C43.3401 16.6429 41.8346 15.3314 39.9275 14.4086C38.0204 13.4857 35.8123 13 33.303 13ZM26.5279 29.5143V19.0714H32.6004C34.3569 19.0714 35.7621 19.5571 36.816 20.48C37.8197 21.4514 38.3717 22.7143 38.3717 24.3171C38.3717 25.92 37.8197 27.1829 36.816 28.1057C35.7621 29.0771 34.3569 29.5143 32.6004 29.5143H26.5279Z" fill="black"/>
</svg>
