<svg width="166" height="30" viewBox="0 0 166 30" fill="none" xmlns="http://www.w3.org/2000/svg">
<path d="M14.125 10.625C13.6417 9.60833 12.9417 8.825 12.025 8.275C11.1083 7.70833 10.0417 7.425 8.82501 7.425C7.60835 7.425 6.50835 7.70833 5.52501 8.275C4.55835 8.825 3.79168 9.625 3.22501 10.675C2.67501 11.7083 2.40001 12.9083 2.40001 14.275C2.40001 15.6417 2.67501 16.8417 3.22501 17.875C3.79168 18.9083 4.55835 19.7083 5.52501 20.275C6.50835 20.825 7.60835 21.1 8.82501 21.1C10.525 21.1 11.925 20.5917 13.025 19.575C14.125 18.5583 14.7667 17.1833 14.95 15.45H8.00001V13.6H17.375V15.35C17.2417 16.7833 16.7917 18.1 16.025 19.3C15.2583 20.4833 14.25 21.425 13 22.125C11.75 22.8083 10.3583 23.15 8.82501 23.15C7.20835 23.15 5.73335 22.775 4.40001 22.025C3.06668 21.2583 2.00835 20.2 1.22501 18.85C0.458346 17.5 0.0750122 15.975 0.0750122 14.275C0.0750122 12.575 0.458346 11.05 1.22501 9.7C2.00835 8.33333 3.06668 7.275 4.40001 6.525C5.73335 5.75833 7.20835 5.375 8.82501 5.375C10.675 5.375 12.3083 5.83333 13.725 6.75C15.1583 7.66667 16.2 8.95833 16.85 10.625H14.125Z" fill="white"/>
<path d="M22.658 11.525C23.058 10.7417 23.6247 10.1333 24.358 9.7C25.108 9.26667 26.0164 9.05 27.083 9.05V11.4H26.483C23.933 11.4 22.658 12.7833 22.658 15.55V23H20.383V9.3H22.658V11.525Z" fill="white"/>
<path d="M41.8592 9.3V23H39.5842V20.975C39.1509 21.675 38.5425 22.225 37.7592 22.625C36.9925 23.0083 36.1425 23.2 35.2092 23.2C34.1425 23.2 33.1842 22.9833 32.3342 22.55C31.4842 22.1 30.8092 21.4333 30.3092 20.55C29.8259 19.6667 29.5842 18.5917 29.5842 17.325V9.3H31.8342V17.025C31.8342 18.375 32.1759 19.4167 32.8592 20.15C33.5425 20.8667 34.4759 21.225 35.6592 21.225C36.8759 21.225 37.8342 20.85 38.5342 20.1C39.2342 19.35 39.5842 18.2583 39.5842 16.825V9.3H41.8592Z" fill="white"/>
<path d="M47.9754 11.825C48.4254 11.0417 49.0921 10.3917 49.9754 9.875C50.8754 9.34167 51.9171 9.075 53.1004 9.075C54.3171 9.075 55.4171 9.36667 56.4004 9.95C57.4004 10.5333 58.1837 11.3583 58.7504 12.425C59.3171 13.475 59.6004 14.7 59.6004 16.1C59.6004 17.4833 59.3171 18.7167 58.7504 19.8C58.1837 20.8833 57.4004 21.725 56.4004 22.325C55.4171 22.925 54.3171 23.225 53.1004 23.225C51.9337 23.225 50.9004 22.9667 50.0004 22.45C49.1171 21.9167 48.4421 21.2583 47.9754 20.475V29.5H45.7004V9.3H47.9754V11.825ZM57.2754 16.1C57.2754 15.0667 57.0671 14.1667 56.6504 13.4C56.2337 12.6333 55.6671 12.05 54.9504 11.65C54.2504 11.25 53.4754 11.05 52.6254 11.05C51.7921 11.05 51.0171 11.2583 50.3004 11.675C49.6004 12.075 49.0337 12.6667 48.6004 13.45C48.1837 14.2167 47.9754 15.1083 47.9754 16.125C47.9754 17.1583 48.1837 18.0667 48.6004 18.85C49.0337 19.6167 49.6004 20.2083 50.3004 20.625C51.0171 21.025 51.7921 21.225 52.6254 21.225C53.4754 21.225 54.2504 21.025 54.9504 20.625C55.6671 20.2083 56.2337 19.6167 56.6504 18.85C57.0671 18.0667 57.2754 17.15 57.2754 16.1Z" fill="white"/>
<path d="M68.5699 23.225C67.2866 23.225 66.1199 22.9333 65.0699 22.35C64.0366 21.7667 63.2199 20.9417 62.6199 19.875C62.0366 18.7917 61.7449 17.5417 61.7449 16.125C61.7449 14.725 62.0449 13.4917 62.6449 12.425C63.2616 11.3417 64.0949 10.5167 65.1449 9.95C66.1949 9.36667 67.3699 9.075 68.6699 9.075C69.9699 9.075 71.1449 9.36667 72.1949 9.95C73.2449 10.5167 74.0699 11.3333 74.6699 12.4C75.2866 13.4667 75.5949 14.7083 75.5949 16.125C75.5949 17.5417 75.2783 18.7917 74.6449 19.875C74.0283 20.9417 73.1866 21.7667 72.1199 22.35C71.0533 22.9333 69.8699 23.225 68.5699 23.225ZM68.5699 21.225C69.3866 21.225 70.1533 21.0333 70.8699 20.65C71.5866 20.2667 72.1616 19.6917 72.5949 18.925C73.0449 18.1583 73.2699 17.225 73.2699 16.125C73.2699 15.025 73.0533 14.0917 72.6199 13.325C72.1866 12.5583 71.6199 11.9917 70.9199 11.625C70.2199 11.2417 69.4616 11.05 68.6449 11.05C67.8116 11.05 67.0449 11.2417 66.3449 11.625C65.6616 11.9917 65.1116 12.5583 64.6949 13.325C64.2783 14.0917 64.0699 15.025 64.0699 16.125C64.0699 17.2417 64.2699 18.1833 64.6699 18.95C65.0866 19.7167 65.6366 20.2917 66.3199 20.675C67.0033 21.0417 67.7533 21.225 68.5699 21.225Z" fill="white"/>
<path d="M115.576 29.9992H112.594C111.377 29.9992 110.209 29.5311 109.347 28.6979C108.486 27.8647 108.001 26.7345 108 25.5555V4.4437C108.002 3.26575 108.486 2.13658 109.346 1.30364C110.207 0.470702 111.373 0.00191452 112.589 5.86228e-06H115.571C116.175 -0.000942748 116.773 0.113245 117.331 0.336048C117.889 0.558852 118.396 0.885909 118.824 1.29854C119.251 1.71118 119.591 2.20131 119.823 2.74096C120.054 3.28061 120.174 3.8592 120.175 4.4437V25.5555C120.175 26.1397 120.055 26.718 119.824 27.2575C119.592 27.7969 119.253 28.287 118.826 28.6996C118.399 29.1123 117.892 29.4394 117.335 29.6624C116.777 29.8854 116.179 29.9998 115.576 29.9992ZM112.594 2.8125C112.149 2.81314 111.722 2.98469 111.407 3.28956C111.092 3.59443 110.915 4.00774 110.915 4.43889V25.5507C110.915 25.982 111.092 26.3957 111.407 26.7007C111.722 27.0057 112.149 27.177 112.594 27.177H115.576C116.022 27.177 116.449 27.0058 116.765 26.7008C117.08 26.3959 117.258 25.9822 117.258 25.5507V4.4437C117.257 4.01233 117.079 3.59903 116.764 3.29423C116.449 2.98943 116.022 2.81795 115.576 2.81732L112.594 2.8125Z" fill="white"/>
<path d="M130.898 29.9992H127.762C125.223 29.9992 123.079 27.9662 123.079 25.5603V19.6634H125.988V25.5603C125.988 26.424 126.818 27.1819 127.762 27.1819H130.898C131.348 27.1822 131.781 27.0133 132.106 26.7109C132.43 26.4085 132.621 25.996 132.637 25.5603V17.9697C132.619 17.5397 132.426 17.1342 132.1 16.8416C131.774 16.5491 131.342 16.3933 130.898 16.4082H127.762C126.527 16.3989 125.345 15.9214 124.47 15.0781C123.594 14.2348 123.095 13.0929 123.079 11.8972V4.30897C123.079 1.93194 125.181 1.12374e-10 127.762 1.12374e-10H130.898C133.505 1.12374e-10 135.547 1.89344 135.547 4.30897V10.047H132.637V4.30897C132.637 3.37548 131.753 2.81731 130.898 2.81731H127.762C126.89 2.81731 125.988 3.37548 125.988 4.30897V11.8972C126.011 12.3426 126.206 12.7635 126.535 13.0757C126.863 13.3879 127.302 13.5685 127.762 13.5813H130.898C133.46 13.5813 135.547 15.5469 135.547 17.96V25.5507C135.539 26.7373 135.045 27.8724 134.173 28.7065C133.302 29.5406 132.124 30.0056 130.898 29.9992Z" fill="white"/>
<path d="M141.38 30H138.471V4.30979C138.471 1.85337 140.406 0.000825021 142.975 0.000825021H146.111C146.702 -0.0103909 147.29 0.0928495 147.839 0.304488C148.389 0.516127 148.889 0.8319 149.311 1.23328C149.733 1.63465 150.067 2.11354 150.295 2.64185C150.523 3.17015 150.64 3.73723 150.638 4.30979V17.8935C150.638 20.4245 148.608 22.4816 146.111 22.4816H141.39L141.38 30ZM141.38 19.6546H146.101C146.963 19.6546 147.719 18.827 147.719 17.8839V4.30979C147.719 3.43164 147.053 2.81814 146.101 2.81814H142.975C142.767 2.80383 142.557 2.83219 142.361 2.90137C142.164 2.97055 141.985 3.07901 141.834 3.21969C141.684 3.36038 141.566 3.53014 141.488 3.71795C141.409 3.90576 141.373 4.10741 141.38 4.30979V19.6546Z" fill="white"/>
<path d="M166 29.9992H163.09V22.4807H156.454V29.9992H153.534V4.30897C153.534 1.90307 155.567 1.12374e-10 158.163 1.12374e-10H161.299C163.89 1.12374e-10 166 1.92472 166 4.30897V29.9992ZM156.444 19.6538H163.09V4.30897C163.09 3.38751 162.161 2.81731 161.299 2.81731H158.163C157.184 2.81731 156.444 3.45728 156.444 4.30897V19.6538Z" fill="white"/>
</svg>
