<svg width="172" height="29" viewBox="0 0 172 29" fill="none" xmlns="http://www.w3.org/2000/svg">
<path d="M7.88847 12.2158H5.67298V8.73973C5.67298 8.47489 5.60025 8.2597 5.45479 8.09418C5.32052 7.92865 5.09114 7.84589 4.76665 7.84589H2.21548V12.2158H0V0.628995H4.4981C5.10233 0.628995 5.63382 0.711758 6.09258 0.877283C6.55134 1.04281 6.93178 1.27454 7.23389 1.57249C7.54719 1.8594 7.78217 2.19597 7.93882 2.58219C8.10666 2.96842 8.19058 3.38223 8.19058 3.82363V4.22089C8.19058 4.6954 8.0619 5.14231 7.80455 5.56164C7.54719 5.96994 7.14997 6.28444 6.61288 6.50514V6.80308C7.00451 6.84722 7.31222 6.9962 7.536 7.25C7.77098 7.50381 7.88847 7.82382 7.88847 8.21005V12.2158ZM2.21548 5.76027H4.33026C4.86735 5.76027 5.27576 5.63889 5.55549 5.39612C5.83523 5.14231 5.97509 4.78919 5.97509 4.33676V4.13813C5.97509 3.7519 5.83523 3.42085 5.55549 3.14498C5.27576 2.85807 4.86735 2.71461 4.33026 2.71461H2.21548V5.76027Z" fill="#ECECEC"/>
<path d="M12.2238 8.78938C12.235 9.03215 12.291 9.25837 12.3917 9.46804C12.5036 9.66667 12.649 9.84323 12.8281 9.99772C13.0183 10.1412 13.2309 10.257 13.4659 10.3453C13.712 10.4226 13.9694 10.4612 14.2379 10.4612C14.7638 10.4612 15.1666 10.3729 15.4464 10.1963C15.7261 10.0088 15.9275 9.78805 16.0506 9.53425L17.8633 10.5274C17.7626 10.7371 17.6227 10.9578 17.4437 11.1895C17.2646 11.4102 17.0297 11.6143 16.7387 11.8019C16.459 11.9895 16.1121 12.144 15.6981 12.2654C15.2953 12.3868 14.8198 12.4475 14.2715 12.4475C13.6449 12.4475 13.0742 12.3482 12.5595 12.1495C12.0448 11.9509 11.5972 11.664 11.2168 11.2888C10.8476 10.9136 10.5566 10.4557 10.344 9.91496C10.1426 9.37424 10.0419 8.7618 10.0419 8.07763V7.97831C10.0419 7.34932 10.1482 6.7755 10.3608 6.25685C10.5846 5.7382 10.8867 5.2968 11.2672 4.93265C11.6476 4.56849 12.0896 4.2871 12.5931 4.08847C13.1078 3.8788 13.6561 3.77397 14.2379 3.77397C14.954 3.77397 15.5694 3.90088 16.0842 4.15468C16.5989 4.39745 17.0241 4.71195 17.3597 5.09817C17.6954 5.47336 17.9416 5.89269 18.0982 6.35616C18.2549 6.8086 18.3332 7.25 18.3332 7.68037V8.78938H12.2238ZM14.2211 5.66096C13.684 5.66096 13.2477 5.7989 12.912 6.07477C12.5763 6.33961 12.3581 6.64859 12.2574 7.00171H16.1849C16.1177 6.61549 15.9051 6.29547 15.5471 6.04167C15.2002 5.78786 14.7582 5.66096 14.2211 5.66096Z" fill="#ECECEC"/>
<path d="M23.2896 6.32306C23.2896 6.5879 23.4295 6.78101 23.7092 6.9024C23.9889 7.01275 24.498 7.10654 25.2365 7.18379C26.0869 7.27207 26.7807 7.52588 27.3177 7.94521C27.8548 8.3535 28.1234 8.92732 28.1234 9.66667V9.76598C28.1234 10.5826 27.8213 11.2336 27.217 11.7192C26.6128 12.2047 25.7624 12.4475 24.6659 12.4475C24.0169 12.4475 23.463 12.3647 23.0043 12.1992C22.5455 12.0337 22.1651 11.8295 21.863 11.5868C21.5608 11.333 21.3259 11.0571 21.158 10.7591C21.0014 10.4502 20.8951 10.1522 20.8391 9.8653L22.7861 9.2363C22.8756 9.58942 23.0602 9.8984 23.3399 10.1632C23.6309 10.4281 24.0728 10.5605 24.6659 10.5605C25.1918 10.5605 25.5498 10.4833 25.7401 10.3288C25.9415 10.1632 26.0422 9.98668 26.0422 9.79909C26.0422 9.68874 26.0142 9.58942 25.9582 9.50114C25.9135 9.40183 25.824 9.31355 25.6897 9.2363C25.5554 9.14802 25.3708 9.07629 25.1358 9.02112C24.912 8.96594 24.6267 8.9218 24.2798 8.8887C23.3399 8.81145 22.5903 8.5742 22.0308 8.17694C21.4825 7.76865 21.2084 7.17276 21.2084 6.38927V6.28995C21.2084 5.88166 21.2979 5.52302 21.4769 5.21404C21.656 4.90506 21.8909 4.64574 22.1818 4.43607C22.4728 4.21537 22.8085 4.04985 23.1889 3.9395C23.5693 3.82915 23.9609 3.77397 24.3638 3.77397C24.8897 3.77397 25.3428 3.84018 25.7233 3.9726C26.1149 4.09399 26.445 4.25951 26.7135 4.46918C26.9821 4.66781 27.2003 4.89403 27.3681 5.14783C27.5359 5.3906 27.6646 5.62785 27.7541 5.85959L25.8408 6.621C25.7401 6.32306 25.5666 6.09132 25.3205 5.9258C25.0743 5.74924 24.7554 5.66096 24.3638 5.66096C24.0057 5.66096 23.7372 5.72717 23.5581 5.85959C23.3791 5.98097 23.2896 6.13546 23.2896 6.32306Z" fill="#ECECEC"/>
<path d="M32.593 15.5263H30.4782V4.00571H32.593V5.19749H32.8951C33.1189 4.74505 33.4434 4.39745 33.8686 4.15468C34.2938 3.90088 34.8365 3.77397 35.4967 3.77397C35.989 3.77397 36.4533 3.86777 36.8897 4.05537C37.3373 4.24296 37.7233 4.51884 38.0478 4.88299C38.3835 5.23611 38.6464 5.67199 38.8367 6.19064C39.0381 6.70928 39.1388 7.29966 39.1388 7.96176V8.2597C39.1388 8.93284 39.0437 9.52873 38.8534 10.0474C38.6632 10.566 38.4059 11.0074 38.0814 11.3716C37.7569 11.7247 37.3709 11.9951 36.9233 12.1826C36.4869 12.3592 36.0114 12.4475 35.4967 12.4475C35.1162 12.4475 34.7861 12.4089 34.5064 12.3316C34.2267 12.2544 33.9805 12.1495 33.7679 12.0171C33.5665 11.8847 33.3931 11.7357 33.2476 11.5702C33.1133 11.3936 32.9958 11.2116 32.8951 11.024H32.593V15.5263ZM34.8085 10.4612C35.4687 10.4612 36.0002 10.2626 36.403 9.8653C36.817 9.457 37.024 8.90525 37.024 8.21005V8.01142C37.024 7.31621 36.817 6.76998 36.403 6.37272C36.0002 5.96442 35.4687 5.76027 34.8085 5.76027C34.1483 5.76027 33.6113 5.96994 33.1972 6.38927C32.7944 6.79756 32.593 7.33828 32.593 8.01142V8.21005C32.593 8.88318 32.7944 9.42941 33.1972 9.84874C33.6113 10.257 34.1483 10.4612 34.8085 10.4612Z" fill="#ECECEC"/>
<path d="M49.3485 8.21005C49.3485 8.89422 49.231 9.50114 48.9961 10.0308C48.7611 10.5495 48.4422 10.9909 48.0394 11.355C47.6366 11.7081 47.1722 11.9785 46.6463 12.1661C46.1316 12.3537 45.5889 12.4475 45.0183 12.4475C44.4476 12.4475 43.8993 12.3537 43.3734 12.1661C42.8587 11.9785 42.4 11.7081 41.9972 11.355C41.5943 10.9909 41.2754 10.5495 41.0405 10.0308C40.8055 9.50114 40.688 8.89422 40.688 8.21005V8.01142C40.688 7.33828 40.8055 6.74239 41.0405 6.22374C41.2754 5.69406 41.5943 5.24715 41.9972 4.88299C42.4 4.51884 42.8587 4.24296 43.3734 4.05537C43.8993 3.86777 44.4476 3.77397 45.0183 3.77397C45.5889 3.77397 46.1316 3.86777 46.6463 4.05537C47.1722 4.24296 47.6366 4.51884 48.0394 4.88299C48.4422 5.24715 48.7611 5.69406 48.9961 6.22374C49.231 6.74239 49.3485 7.33828 49.3485 8.01142V8.21005ZM45.0183 10.4612C45.3204 10.4612 45.6057 10.4115 45.8743 10.3122C46.1428 10.2129 46.3778 10.0694 46.5792 9.88185C46.7806 9.69425 46.9372 9.46804 47.0491 9.2032C47.1722 8.92732 47.2338 8.61834 47.2338 8.27626V7.94521C47.2338 7.60312 47.1722 7.29966 47.0491 7.03482C46.9372 6.75894 46.7806 6.52721 46.5792 6.33961C46.3778 6.15202 46.1428 6.00856 45.8743 5.90925C45.6057 5.80993 45.3204 5.76027 45.0183 5.76027C44.7162 5.76027 44.4308 5.80993 44.1623 5.90925C43.8937 6.00856 43.6588 6.15202 43.4574 6.33961C43.256 6.52721 43.0937 6.75894 42.9706 7.03482C42.8587 7.29966 42.8028 7.60312 42.8028 7.94521V8.27626C42.8028 8.61834 42.8587 8.92732 42.9706 9.2032C43.0937 9.46804 43.256 9.69425 43.4574 9.88185C43.6588 10.0694 43.8937 10.2129 44.1623 10.3122C44.4308 10.4115 44.7162 10.4612 45.0183 10.4612Z" fill="#ECECEC"/>
<path d="M53.5832 12.2158H51.4684V4.00571H53.5832V5.23059H53.8853C54.0755 4.76712 54.3832 4.40849 54.8084 4.15468C55.2336 3.90088 55.7316 3.77397 56.3022 3.77397C56.705 3.77397 57.0799 3.84018 57.4267 3.9726C57.7848 4.09399 58.0981 4.2871 58.3666 4.55194C58.6352 4.81678 58.8422 5.15335 58.9877 5.56164C59.1443 5.96994 59.2226 6.45548 59.2226 7.01827V12.2158H57.1078V7.54795C57.1078 6.96309 56.9624 6.50514 56.6715 6.17409C56.3917 5.832 55.9833 5.66096 55.4462 5.66096C54.8196 5.66096 54.3497 5.87062 54.0364 6.28995C53.7343 6.69825 53.5832 7.25 53.5832 7.94521V12.2158Z" fill="#ECECEC"/>
<path d="M64.3972 6.32306C64.3972 6.5879 64.5371 6.78101 64.8168 6.9024C65.0965 7.01275 65.6056 7.10654 66.3441 7.18379C67.1945 7.27207 67.8883 7.52588 68.4254 7.94521C68.9624 8.3535 69.231 8.92732 69.231 9.66667V9.76598C69.231 10.5826 68.9289 11.2336 68.3246 11.7192C67.7204 12.2047 66.87 12.4475 65.7735 12.4475C65.1245 12.4475 64.5706 12.3647 64.1119 12.1992C63.6531 12.0337 63.2727 11.8295 62.9706 11.5868C62.6685 11.333 62.4335 11.0571 62.2656 10.7591C62.109 10.4502 62.0027 10.1522 61.9467 9.8653L63.8937 9.2363C63.9832 9.58942 64.1678 9.8984 64.4475 10.1632C64.7385 10.4281 65.1805 10.5605 65.7735 10.5605C66.2994 10.5605 66.6574 10.4833 66.8477 10.3288C67.0491 10.1632 67.1498 9.98668 67.1498 9.79909C67.1498 9.68874 67.1218 9.58942 67.0658 9.50114C67.0211 9.40183 66.9316 9.31355 66.7973 9.2363C66.663 9.14802 66.4784 9.07629 66.2434 9.02112C66.0197 8.96594 65.7343 8.9218 65.3875 8.8887C64.4476 8.81145 63.6979 8.5742 63.1384 8.17694C62.5901 7.76865 62.316 7.17276 62.316 6.38927V6.28995C62.316 5.88166 62.4055 5.52302 62.5845 5.21404C62.7636 4.90506 62.9985 4.64574 63.2895 4.43607C63.5804 4.21537 63.9161 4.04985 64.2965 3.9395C64.6769 3.82915 65.0686 3.77397 65.4714 3.77397C65.9973 3.77397 66.4504 3.84018 66.8309 3.9726C67.2225 4.09399 67.5526 4.25951 67.8211 4.46918C68.0897 4.66781 68.3079 4.89403 68.4757 5.14783C68.6435 5.3906 68.7722 5.62785 68.8617 5.85959L66.9484 6.621C66.8477 6.32306 66.6742 6.09132 66.4281 5.9258C66.1819 5.74924 65.863 5.66096 65.4714 5.66096C65.1133 5.66096 64.8448 5.72717 64.6657 5.85959C64.4867 5.98097 64.3972 6.13546 64.3972 6.32306Z" fill="#ECECEC"/>
<path d="M72.1733 10.2295H74.993V5.99201H72.3747V4.00571H77.1078V10.2295H79.5247V12.2158H72.1733V10.2295ZM77.6281 1.57249C77.6281 1.79319 77.5833 2.00285 77.4938 2.20148C77.4155 2.38908 77.3036 2.5546 77.1581 2.69806C77.0127 2.83048 76.8392 2.94083 76.6378 3.02911C76.4476 3.10635 76.2462 3.14498 76.0336 3.14498C75.8098 3.14498 75.6028 3.10635 75.4126 3.02911C75.2224 2.94083 75.0545 2.83048 74.9091 2.69806C74.7636 2.5546 74.6461 2.38908 74.5566 2.20148C74.4783 2.00285 74.4391 1.79319 74.4391 1.57249C74.4391 1.35179 74.4783 1.14764 74.5566 0.960046C74.6461 0.761416 74.7636 0.595891 74.9091 0.46347C75.0545 0.320015 75.2224 0.209665 75.4126 0.13242C75.6028 0.0441401 75.8098 0 76.0336 0C76.2462 0 76.4476 0.0441401 76.6378 0.13242C76.8392 0.209665 77.0127 0.320015 77.1581 0.46347C77.3036 0.595891 77.4155 0.761416 77.4938 0.960046C77.5833 1.14764 77.6281 1.35179 77.6281 1.57249Z" fill="#ECECEC"/>
<path d="M81.7117 4.00571H83.9943L85.958 11.2226H86.2602L88.2239 4.00571H90.5065L88.1232 12.2158H84.095L81.7117 4.00571Z" fill="#ECECEC"/>
<path d="M94.4391 8.78938C94.4503 9.03215 94.5062 9.25837 94.6069 9.46804C94.7188 9.66667 94.8643 9.84323 95.0433 9.99772C95.2335 10.1412 95.4461 10.257 95.6811 10.3453C95.9272 10.4226 96.1846 10.4612 96.4531 10.4612C96.979 10.4612 97.3819 10.3729 97.6616 10.1963C97.9413 10.0088 98.1427 9.78805 98.2658 9.53425L100.078 10.5274C99.9778 10.7371 99.8379 10.9578 99.6589 11.1895C99.4798 11.4102 99.2449 11.6143 98.9539 11.8019C98.6742 11.9895 98.3273 12.144 97.9133 12.2654C97.5105 12.3868 97.035 12.4475 96.4867 12.4475C95.8601 12.4475 95.2895 12.3482 94.7747 12.1495C94.26 11.9509 93.8125 11.664 93.432 11.2888C93.0628 10.9136 92.7719 10.4557 92.5593 9.91496C92.3578 9.37424 92.2571 8.7618 92.2571 8.07763V7.97831C92.2571 7.34932 92.3634 6.7755 92.576 6.25685C92.7998 5.7382 93.1019 5.2968 93.4824 4.93265C93.8628 4.56849 94.3048 4.2871 94.8083 4.08847C95.323 3.8788 95.8713 3.77397 96.4531 3.77397C97.1693 3.77397 97.7847 3.90088 98.2994 4.15468C98.8141 4.39745 99.2393 4.71195 99.575 5.09817C99.9106 5.47336 100.157 5.89269 100.313 6.35616C100.47 6.8086 100.548 7.25 100.548 7.68037V8.78938H94.4391ZM96.4364 5.66096C95.8993 5.66096 95.4629 5.7989 95.1272 6.07477C94.7915 6.33961 94.5733 6.64859 94.4726 7.00171H98.4001C98.3329 6.61549 98.1203 6.29547 97.7623 6.04167C97.4154 5.78786 96.9734 5.66096 96.4364 5.66096Z" fill="#ECECEC"/>
<path d="M116.99 10.4612C117.415 10.4612 117.762 10.4005 118.031 10.2791C118.31 10.1467 118.523 9.97565 118.669 9.76598C118.825 9.54528 118.932 9.29699 118.987 9.02112C119.043 8.73421 119.071 8.44178 119.071 8.14384V7.84589H121.287V8.14384C121.287 9.52321 120.918 10.5881 120.179 11.3385C119.452 12.0778 118.389 12.4475 116.99 12.4475C115.647 12.4475 114.584 12.0447 113.801 11.2392C113.018 10.4336 112.626 9.25837 112.626 7.71347V5.13128C112.626 4.39193 112.727 3.72983 112.928 3.14498C113.13 2.54909 113.421 2.05251 113.801 1.65525C114.182 1.24696 114.64 0.937976 115.177 0.728311C115.715 0.50761 116.319 0.39726 116.99 0.39726C117.684 0.39726 118.299 0.496575 118.836 0.695205C119.373 0.893836 119.821 1.18075 120.179 1.55594C120.548 1.93113 120.822 2.38356 121.002 2.91324C121.192 3.44292 121.287 4.03881 121.287 4.70091V4.99886H119.071V4.70091C119.071 4.42504 119.038 4.14916 118.971 3.87329C118.904 3.59741 118.792 3.34912 118.635 3.12842C118.478 2.90772 118.266 2.73116 117.997 2.59874C117.729 2.45529 117.393 2.38356 116.99 2.38356C116.621 2.38356 116.302 2.45529 116.033 2.59874C115.765 2.73116 115.541 2.91876 115.362 3.16153C115.183 3.39326 115.049 3.66914 114.959 3.98916C114.881 4.29814 114.842 4.62367 114.842 4.96575V7.879C114.842 8.25419 114.881 8.60179 114.959 8.9218C115.038 9.23078 115.161 9.50114 115.329 9.73288C115.496 9.96461 115.715 10.1467 115.983 10.2791C116.263 10.4005 116.599 10.4612 116.99 10.4612Z" fill="#ECECEC"/>
<path d="M123.558 10.2295H126.378V5.99201H123.759V4.00571H128.492V10.2295H130.909V12.2158H123.558V10.2295ZM129.013 1.57249C129.013 1.79319 128.968 2.00285 128.878 2.20148C128.8 2.38908 128.688 2.5546 128.543 2.69806C128.397 2.83048 128.224 2.94083 128.022 3.02911C127.832 3.10635 127.631 3.14498 127.418 3.14498C127.194 3.14498 126.987 3.10635 126.797 3.02911C126.607 2.94083 126.439 2.83048 126.294 2.69806C126.148 2.5546 126.031 2.38908 125.941 2.20148C125.863 2.00285 125.824 1.79319 125.824 1.57249C125.824 1.35179 125.863 1.14764 125.941 0.960046C126.031 0.761416 126.148 0.595891 126.294 0.46347C126.439 0.320015 126.607 0.209665 126.797 0.13242C126.987 0.0441401 127.194 0 127.418 0C127.631 0 127.832 0.0441401 128.022 0.13242C128.224 0.209665 128.397 0.320015 128.543 0.46347C128.688 0.595891 128.8 0.761416 128.878 0.960046C128.968 1.14764 129.013 1.35179 129.013 1.57249Z" fill="#ECECEC"/>
<path d="M133.449 4.00571H135.916V0.628995H138.031V4.00571H141.035V5.99201H138.031V9.73288C138.031 10.0639 138.182 10.2295 138.484 10.2295H140.733V12.2158H137.208C136.828 12.2158 136.515 12.0944 136.268 11.8516C136.033 11.6088 135.916 11.2998 135.916 10.9247V5.99201H133.449V4.00571Z" fill="#ECECEC"/>
<path d="M144.112 10.2295H146.931V5.99201H144.313V4.00571H149.046V10.2295H151.463V12.2158H144.112V10.2295ZM149.566 1.57249C149.566 1.79319 149.522 2.00285 149.432 2.20148C149.354 2.38908 149.242 2.5546 149.096 2.69806C148.951 2.83048 148.778 2.94083 148.576 3.02911C148.386 3.10635 148.185 3.14498 147.972 3.14498C147.748 3.14498 147.541 3.10635 147.351 3.02911C147.161 2.94083 146.993 2.83048 146.847 2.69806C146.702 2.5546 146.584 2.38908 146.495 2.20148C146.417 2.00285 146.377 1.79319 146.377 1.57249C146.377 1.35179 146.417 1.14764 146.495 0.960046C146.584 0.761416 146.702 0.595891 146.847 0.46347C146.993 0.320015 147.161 0.209665 147.351 0.13242C147.541 0.0441401 147.748 0 147.972 0C148.185 0 148.386 0.0441401 148.576 0.13242C148.778 0.209665 148.951 0.320015 149.096 0.46347C149.242 0.595891 149.354 0.761416 149.432 0.960046C149.522 1.14764 149.566 1.35179 149.566 1.57249Z" fill="#ECECEC"/>
<path d="M156.1 8.78938C156.112 9.03215 156.168 9.25837 156.268 9.46804C156.38 9.66667 156.526 9.84323 156.705 9.99772C156.895 10.1412 157.107 10.257 157.342 10.3453C157.589 10.4226 157.846 10.4612 158.115 10.4612C158.64 10.4612 159.043 10.3729 159.323 10.1963C159.603 10.0088 159.804 9.78805 159.927 9.53425L161.74 10.5274C161.639 10.7371 161.499 10.9578 161.32 11.1895C161.141 11.4102 160.906 11.6143 160.615 11.8019C160.336 11.9895 159.989 12.144 159.575 12.2654C159.172 12.3868 158.696 12.4475 158.148 12.4475C157.522 12.4475 156.951 12.3482 156.436 12.1495C155.921 11.9509 155.474 11.664 155.093 11.2888C154.724 10.9136 154.433 10.4557 154.221 9.91496C154.019 9.37424 153.919 8.7618 153.919 8.07763V7.97831C153.919 7.34932 154.025 6.7755 154.237 6.25685C154.461 5.7382 154.763 5.2968 155.144 4.93265C155.524 4.56849 155.966 4.2871 156.47 4.08847C156.984 3.8788 157.533 3.77397 158.115 3.77397C158.831 3.77397 159.446 3.90088 159.961 4.15468C160.475 4.39745 160.901 4.71195 161.236 5.09817C161.572 5.47336 161.818 5.89269 161.975 6.35616C162.132 6.8086 162.21 7.25 162.21 7.68037V8.78938H156.1ZM158.098 5.66096C157.561 5.66096 157.124 5.7989 156.789 6.07477C156.453 6.33961 156.235 6.64859 156.134 7.00171H160.061C159.994 6.61549 159.782 6.29547 159.424 6.04167C159.077 5.78786 158.635 5.66096 158.098 5.66096Z" fill="#ECECEC"/>
<path d="M167.166 6.32306C167.166 6.5879 167.306 6.78101 167.586 6.9024C167.866 7.01275 168.375 7.10654 169.113 7.18379C169.964 7.27207 170.657 7.52588 171.194 7.94521C171.731 8.3535 172 8.92732 172 9.66667V9.76598C172 10.5826 171.698 11.2336 171.094 11.7192C170.489 12.2047 169.639 12.4475 168.543 12.4475C167.894 12.4475 167.34 12.3647 166.881 12.1992C166.422 12.0337 166.042 11.8295 165.74 11.5868C165.437 11.333 165.202 11.0571 165.035 10.7591C164.878 10.4502 164.772 10.1522 164.716 9.8653L166.663 9.2363C166.752 9.58942 166.937 9.8984 167.217 10.1632C167.508 10.4281 167.949 10.5605 168.543 10.5605C169.068 10.5605 169.426 10.4833 169.617 10.3288C169.818 10.1632 169.919 9.98668 169.919 9.79909C169.919 9.68874 169.891 9.58942 169.835 9.50114C169.79 9.40183 169.701 9.31355 169.566 9.2363C169.432 9.14802 169.247 9.07629 169.012 9.02112C168.789 8.96594 168.503 8.9218 168.156 8.8887C167.217 8.81145 166.467 8.5742 165.907 8.17694C165.359 7.76865 165.085 7.17276 165.085 6.38927V6.28995C165.085 5.88166 165.175 5.52302 165.354 5.21404C165.533 4.90506 165.768 4.64574 166.058 4.43607C166.349 4.21537 166.685 4.04985 167.066 3.9395C167.446 3.82915 167.838 3.77397 168.24 3.77397C168.766 3.77397 169.219 3.84018 169.6 3.9726C169.992 4.09399 170.322 4.25951 170.59 4.46918C170.859 4.66781 171.077 4.89403 171.245 5.14783C171.413 5.3906 171.541 5.62785 171.631 5.85959L169.717 6.621C169.617 6.32306 169.443 6.09132 169.197 5.9258C168.951 5.74924 168.632 5.66096 168.24 5.66096C167.882 5.66096 167.614 5.72717 167.435 5.85959C167.256 5.98097 167.166 6.13546 167.166 6.32306Z" fill="#ECECEC"/>
<path d="M0.184624 17.1815H7.6367V18.4726H4.61559V27.4772H7.6367V28.7683H0.184624V27.4772H3.20574V18.4726H0.184624V17.1815Z" fill="#ECECEC"/>
<path d="M11.821 28.7683H10.5119V20.5582H11.821V21.9486H12.0224C12.5371 20.8672 13.4323 20.3265 14.7079 20.3265C15.6702 20.3265 16.4366 20.6244 17.0073 21.2203C17.5779 21.8052 17.8633 22.688 17.8633 23.8687V28.7683H16.5541V24.1336C16.5541 23.2728 16.3583 22.6273 15.9667 22.1969C15.575 21.7666 15.0435 21.5514 14.3722 21.5514C13.5777 21.5514 12.9511 21.8217 12.4924 22.3624C12.0448 22.8921 11.821 23.6039 11.821 24.4977V28.7683Z" fill="#ECECEC"/>
<path d="M22.5175 22.6769C22.5175 23.0742 22.6854 23.3777 23.021 23.5873C23.3679 23.797 23.9945 23.9349 24.9009 24.0011C25.8743 24.0784 26.6128 24.3101 27.1163 24.6963C27.631 25.0715 27.8884 25.6233 27.8884 26.3516V26.4509C27.8884 26.8482 27.8045 27.2068 27.6366 27.5268C27.48 27.8358 27.2562 28.1006 26.9653 28.3213C26.6855 28.542 26.3387 28.7076 25.9247 28.8179C25.5219 28.9393 25.0799 29 24.5987 29C23.9498 29 23.3903 28.9172 22.9203 28.7517C22.4616 28.5752 22.0756 28.3489 21.7623 28.0731C21.4601 27.7861 21.2308 27.4661 21.0741 27.113C20.9175 26.7489 20.8279 26.3847 20.8056 26.0205L22.0476 25.7226C22.1035 26.3516 22.3497 26.8592 22.7861 27.2454C23.2225 27.6206 23.8043 27.8082 24.5316 27.8082C25.147 27.8082 25.6393 27.6924 26.0086 27.4606C26.389 27.2178 26.5792 26.8813 26.5792 26.4509C26.5792 25.9874 26.3946 25.6564 26.0254 25.4578C25.6561 25.2591 25.0575 25.1322 24.2295 25.0771C23.2672 25.0108 22.5287 24.7901 22.014 24.415C21.4993 24.0398 21.2419 23.4935 21.2419 22.7763V22.6769C21.2419 22.2907 21.3259 21.9541 21.4937 21.6672C21.6615 21.3693 21.8853 21.121 22.1651 20.9224C22.456 20.7237 22.7805 20.5748 23.1385 20.4755C23.4966 20.3761 23.8714 20.3265 24.2631 20.3265C24.8113 20.3265 25.2925 20.4037 25.7065 20.5582C26.1205 20.7017 26.4674 20.8948 26.7471 21.1376C27.0268 21.3693 27.2394 21.6396 27.3849 21.9486C27.5415 22.2576 27.6422 22.5666 27.687 22.8756L26.445 23.1735C26.389 22.6438 26.1708 22.23 25.7904 21.9321C25.4212 21.6341 24.9344 21.4852 24.3302 21.4852C24.0952 21.4852 23.8658 21.5127 23.6421 21.5679C23.4295 21.6121 23.2392 21.6838 23.0714 21.7831C22.9036 21.8824 22.7693 22.0093 22.6686 22.1638C22.5679 22.3073 22.5175 22.4783 22.5175 22.6769Z" fill="#ECECEC"/>
<path d="M30.7804 20.5582H33.3987V17.1815H34.7078V20.5582H37.9303V21.75H34.7078V27.0799C34.7078 27.411 34.8589 27.5765 35.161 27.5765H37.5275V28.7683H34.691C34.3106 28.7683 33.9973 28.6469 33.7511 28.4041C33.5161 28.1613 33.3987 27.8524 33.3987 27.4772V21.75H30.7804V20.5582Z" fill="#ECECEC"/>
<path d="M43.9273 18.1084C43.9273 17.7884 44.0392 17.5181 44.263 17.2974C44.498 17.0656 44.7777 16.9498 45.1022 16.9498C45.4267 16.9498 45.7008 17.0656 45.9246 17.2974C46.1596 17.5181 46.2771 17.7884 46.2771 18.1084C46.2771 18.4285 46.1596 18.7043 45.9246 18.9361C45.7008 19.1568 45.4267 19.2671 45.1022 19.2671C44.7777 19.2671 44.498 19.1568 44.263 18.9361C44.0392 18.7043 43.9273 18.4285 43.9273 18.1084ZM41.544 27.5765H44.4644V21.75H41.8461V20.5582H45.7736V27.5765H48.4926V28.7683H41.544V27.5765Z" fill="#ECECEC"/>
<path d="M51.3342 20.5582H53.9525V17.1815H55.2616V20.5582H58.4841V21.75H55.2616V27.0799C55.2616 27.411 55.4127 27.5765 55.7148 27.5765H58.0813V28.7683H55.2448C54.8644 28.7683 54.5511 28.6469 54.3049 28.4041C54.0699 28.1613 53.9525 27.8524 53.9525 27.4772V21.75H51.3342V20.5582Z" fill="#ECECEC"/>
<path d="M67.8379 20.5582H69.1471V28.7683H67.8379V27.2785H67.6365C67.368 27.8082 67.0155 28.2275 66.5791 28.5365C66.1427 28.8455 65.5889 29 64.9175 29C64.4587 29 64.0335 28.9228 63.6419 28.7683C63.2615 28.6248 62.9314 28.4041 62.6517 28.1062C62.3831 27.8082 62.1705 27.4385 62.0139 26.9971C61.8684 26.5557 61.7957 26.0426 61.7957 25.4578V20.5582H63.1048V25.2922C63.1048 26.153 63.2839 26.782 63.6419 27.1792C64 27.5765 64.5483 27.7751 65.2868 27.7751C66.0812 27.7751 66.7022 27.5103 67.1498 26.9806C67.6085 26.4399 67.8379 25.7226 67.8379 24.8288V20.5582Z" fill="#ECECEC"/>
<path d="M71.888 20.5582H74.5063V17.1815H75.8154V20.5582H79.0379V21.75H75.8154V27.0799C75.8154 27.411 75.9665 27.5765 76.2686 27.5765H78.6351V28.7683H75.7986C75.4182 28.7683 75.1049 28.6469 74.8587 28.4041C74.6237 28.1613 74.5063 27.8524 74.5063 27.4772V21.75H71.888V20.5582Z" fill="#ECECEC"/>
<path d="M83.4069 25.0605C83.4405 25.8771 83.6978 26.5337 84.1789 27.0303C84.6601 27.5268 85.3314 27.7751 86.193 27.7751C86.5846 27.7751 86.9259 27.731 87.2168 27.6427C87.5078 27.5544 87.7539 27.433 87.9553 27.2785C88.1679 27.124 88.3358 26.9475 88.4589 26.7489C88.5931 26.5392 88.6994 26.3185 88.7777 26.0868L90.0198 26.4178C89.7848 27.1792 89.3484 27.8027 88.7106 28.2882C88.084 28.7627 87.2336 29 86.1595 29C85.5664 29 85.0181 28.9007 84.5146 28.7021C84.0223 28.4924 83.5971 28.2 83.239 27.8248C82.881 27.4496 82.6012 27.0027 82.3998 26.484C82.1984 25.9654 82.0977 25.3916 82.0977 24.7626V24.3653C82.0977 23.7915 82.1984 23.2563 82.3998 22.7597C82.6124 22.2631 82.9034 21.8383 83.2726 21.4852C83.6419 21.121 84.0726 20.8396 84.565 20.641C85.0685 20.4313 85.6112 20.3265 86.193 20.3265C86.8756 20.3265 87.463 20.4534 87.9553 20.7072C88.4589 20.95 88.8673 21.2534 89.1806 21.6176C89.5051 21.9817 89.74 22.379 89.8855 22.8094C90.0421 23.2397 90.1205 23.637 90.1205 24.0011V25.0605H83.4069ZM86.193 21.5514C85.8238 21.5514 85.4769 21.6121 85.1524 21.7334C84.8391 21.8438 84.5594 22.0038 84.3132 22.2135C84.0782 22.4231 83.8824 22.6714 83.7258 22.9583C83.5803 23.2342 83.4852 23.5377 83.4404 23.8687H88.8113C88.7889 23.5156 88.6994 23.1956 88.5428 22.9087C88.3973 22.6218 88.2015 22.379 87.9553 22.1804C87.7204 21.9817 87.4462 21.8272 87.1329 21.7169C86.8308 21.6065 86.5175 21.5514 86.193 21.5514Z" fill="#ECECEC"/>
</svg>
