<svg width="95" height="14" viewBox="0 0 95 14" fill="none" xmlns="http://www.w3.org/2000/svg">
<path d="M5.06825 13.6075C3.90402 13.6075 3.04232 13.5366 2.48316 13.3948C1.96947 13.277 1.49578 13.0262 1.10958 12.6675C0.700359 12.2556 0.409289 11.7413 0.266795 11.1785C0.0694892 10.3727 -0.0190875 9.54417 0.00342377 8.71492V0.00341797H1.52085V8.71492C1.50912 9.23425 1.5437 9.7536 1.62417 10.2668C1.67884 10.561 1.78735 10.8426 1.94427 11.0974C2.14829 11.4386 2.46175 11.7006 2.83365 11.8409C3.35124 12.0155 3.89644 12.0938 4.44224 12.0719H9.32271C9.87256 12.0951 10.422 12.0168 10.9435 11.8409C11.3144 11.6972 11.6282 11.4361 11.8369 11.0974C11.9926 10.8426 12.0991 10.5609 12.1509 10.2668C12.2233 9.75286 12.2511 9.23364 12.234 8.71492V0.00341797H13.7514V8.61565C13.7709 9.46284 13.6824 10.3091 13.488 11.1339C13.3523 11.7098 13.0656 12.2392 12.6574 12.6675C12.2829 13.0292 11.8161 13.2808 11.3081 13.3948C10.749 13.5366 9.88457 13.6075 8.71493 13.6075H5.06825Z" fill="white"/>
<path d="M25.5303 1.48486H17.6636V6.70569H25.5303C26.6486 6.70569 27.3914 6.55509 27.7588 6.2539C28.1262 5.95272 28.3092 5.34494 28.3078 4.43057V3.77011C28.3078 2.85709 28.1248 2.24931 27.7588 1.94677C27.3928 1.64424 26.6499 1.49026 25.5303 1.48486ZM17.6636 13.6182H16.1117V0.00390625H25.0258C27.0139 0.00390625 28.3301 0.234187 28.9744 0.694749C29.6186 1.15531 29.9428 2.00553 29.9468 3.2454V4.88235C29.9468 5.72379 29.7861 6.33899 29.4646 6.72797C29.1432 7.11695 28.5746 7.40531 27.7588 7.59304C28.0569 7.61128 28.348 7.69109 28.6137 7.82742C28.8794 7.96376 29.1139 8.15367 29.3026 8.38518C29.6483 8.83359 29.8219 9.45353 29.8232 10.245V13.6182H28.2714V10.5793C28.2714 9.68988 28.0931 9.0821 27.7385 8.75593C27.384 8.42975 26.5534 8.27173 25.2507 8.27173H17.6636V13.6182Z" fill="white"/>
<path d="M41.8514 7.30906H33.9078V12.0639H41.8514C43.0319 12.0639 43.8038 11.9194 44.1671 11.6304C44.5304 11.3413 44.7127 10.7423 44.7141 9.83337C44.7141 8.77178 44.5378 8.08567 44.1853 7.77502C43.8328 7.46438 43.0548 7.30906 41.8514 7.30906V7.30906ZM33.9078 1.48451V5.7187H40.8162C42.4369 5.7187 43.4222 5.58364 43.772 5.31352C44.1164 5.03799 44.2907 4.48086 44.2907 3.6401C44.3034 3.24484 44.2632 2.84966 44.1711 2.46506C44.1153 2.22218 43.9754 2.00688 43.7761 1.85728C43.5226 1.69843 43.2366 1.59872 42.9394 1.56554C42.3131 1.49664 41.6831 1.4689 41.0532 1.48248H33.9078V1.48451ZM43.7599 6.34674C44.6189 6.41292 45.2347 6.65266 45.6075 7.06595C45.9803 7.47924 46.1667 8.12686 46.1667 9.00882V10.4533C46.1667 11.6608 45.8182 12.4894 45.1213 12.9391C44.4244 13.3889 42.9785 13.6151 40.7838 13.6178H32.3984V0.00354968H41.0694C41.8747 -0.0137674 42.6802 0.0322958 43.4783 0.141313C43.9251 0.204119 44.3525 0.364594 44.7303 0.611329C45.0946 0.85892 45.374 1.21256 45.5305 1.6243C45.7132 2.21405 45.7934 2.83077 45.7676 3.44763C45.7676 4.39307 45.6217 5.06838 45.33 5.47357C45.0382 5.87875 44.5162 6.17049 43.7639 6.34877" fill="white"/>
<path d="M48.4999 13.6482V0.135254H60.4165V1.64255H49.9708V5.8808H60.4165V7.38809H49.9708V12.143H60.4165V13.6482H48.4999Z" fill="white"/>
<path d="M83.0835 13.6482V0.135254H95V1.64255H84.5543V5.8808H95V7.38809H84.5543V12.143H95V13.6482H83.0835Z" fill="white"/>
<path d="M64.5826 12.0942H63.0247V13.64H64.5826V12.0942Z" fill="white"/>
<path d="M79.094 0.0947266L73.8144 11.8735L68.5409 0.0947266H66.9647V1.41563H66.9627V13.6482H66.9647H68.0263H68.6158V4.03922L72.9675 13.6482H74.647L79.0636 3.89537V13.6482H79.6551H80.7167V1.41563V0.0947266H79.094Z" fill="white"/>
</svg>
