<svg width="103" height="105" viewBox="0 0 103 105" fill="none" xmlns="http://www.w3.org/2000/svg">
<path d="M51.5486 64.0127L2 83.9399L51.5486 103.867L101.097 83.9399L51.5486 64.0127Z" fill="#C4C4C4" stroke="black"/>
<path d="M32.6953 8.54001V16.08L51.5453 23.62L70.3953 16.08V8.54001L51.5453 1L32.6953 8.54001Z" fill="white"/>
<path d="M32.6953 8.54001V16.08L51.5453 23.62M32.6953 8.54001L51.5453 1L70.3953 8.54001M32.6953 8.54001L51.5453 16.08M70.3953 8.54001V16.08L51.5453 23.62M70.3953 8.54001L51.5453 16.08M51.5453 23.62V16.08" stroke="black"/>
<path d="M32.6953 23.6206V16.0806L51.5453 23.6206L70.3953 16.0806V23.6206L51.5453 31.1606L32.6953 23.6206Z" fill="white"/>
<path d="M51.5453 31.1606L70.3953 23.6206V16.0806L51.5453 23.6206M51.5453 31.1606L32.6953 23.6206V16.0806L51.5453 23.6206M51.5453 31.1606V23.6206" stroke="black"/>
<path d="M32.6953 31.1606V23.6206L51.5453 31.1606L70.3953 23.6206V31.1606L51.5453 38.7006L32.6953 31.1606Z" fill="white"/>
<path d="M51.5453 38.7006L70.3953 31.1606V23.6206L51.5453 31.1606M51.5453 38.7006L32.6953 31.1606V23.6206L51.5453 31.1606M51.5453 38.7006V31.1606" stroke="black"/>
<path d="M32.6953 38.7009V31.1609L51.5453 38.7009L70.3953 31.1609V38.7009L51.5453 46.2409L32.6953 38.7009Z" fill="white"/>
<path d="M51.5453 46.2409L70.3953 38.7009V31.1609L51.5453 38.7009M51.5453 46.2409L32.6953 38.7009V31.1609L51.5453 38.7009M51.5453 46.2409V38.7009" stroke="black"/>
<path d="M32.6953 46.24V38.7L51.5453 46.24L70.3953 38.7V46.24L51.5453 53.78L32.6953 46.24Z" fill="white"/>
<path d="M51.5453 53.78L70.3953 46.24V38.7L51.5453 46.24M51.5453 53.78L32.6953 46.24V38.7L51.5453 46.24M51.5453 53.78V46.24" stroke="black"/>
<path d="M32.6953 53.7802V46.2402L51.5453 53.7802L70.3953 46.2402V53.7802L51.5453 61.3202L32.6953 53.7802Z" fill="white"/>
<path d="M51.5453 61.3202L70.3953 53.7802V46.2402L51.5453 53.7802M51.5453 61.3202L32.6953 53.7802V46.2402L51.5453 53.7802M51.5453 61.3202V53.7802" stroke="black"/>
<path d="M32.6953 61.3205V53.7805L51.5453 61.3205L70.3953 53.7805V61.3205L51.5453 68.8605L32.6953 61.3205Z" fill="white"/>
<path d="M51.5453 68.8605L70.3953 61.3205V53.7805L51.5453 61.3205M51.5453 68.8605L32.6953 61.3205V53.7805L51.5453 61.3205M51.5453 68.8605V61.3205" stroke="black"/>
<path d="M32.6953 68.8606V61.3206L51.5453 68.8606L70.3953 61.3206V68.8606L51.5453 76.4006L32.6953 68.8606Z" fill="white"/>
<path d="M51.5453 76.4006L70.3953 68.8606V61.3206L51.5453 68.8606M51.5453 76.4006L32.6953 68.8606V61.3206L51.5453 68.8606M51.5453 76.4006V68.8606" stroke="black"/>
<path d="M32.6953 76.3994V68.8594L51.5453 76.3994L70.3953 68.8594V76.3994L51.5453 83.9394L32.6953 76.3994Z" fill="white"/>
<path d="M51.5453 83.9394L70.3953 76.3994V68.8594L51.5453 76.3994M51.5453 83.9394L32.6953 76.3994V68.8594L51.5453 76.3994M51.5453 83.9394V76.3994" stroke="black"/>
<path d="M32.6953 83.9397V76.3997L51.5453 83.9397L70.3953 76.3997V83.9397L51.5453 91.4797L32.6953 83.9397Z" fill="white"/>
<path d="M51.5453 91.4797L70.3953 83.9397V76.3997L51.5453 83.9397M51.5453 91.4797L32.6953 83.9397V76.3997L51.5453 83.9397M51.5453 91.4797V83.9397" stroke="black"/>
</svg>
