<svg width="119" height="101" viewBox="0 0 119 101" fill="none" xmlns="http://www.w3.org/2000/svg">
<path d="M13.5024 55.3201L2 60.2497L13.5024 65.1793L25.0048 60.2497L13.5024 55.3201Z" fill="white" stroke="black"/>
<path d="M25.0043 60.25L13.5019 65.1796L25.0043 70.1092L36.5067 65.1796L25.0043 60.25Z" fill="white" stroke="black"/>
<path d="M25.0043 50.3904L13.5019 55.32L25.0043 60.2496L36.5067 55.32L25.0043 50.3904Z" fill="white" stroke="black"/>
<path d="M36.5061 55.3201L25.0037 60.2497L36.5061 65.1793L48.0085 60.2497L36.5061 55.3201Z" fill="white" stroke="black"/>
<path d="M36.5061 65.1794L25.0037 70.109L36.5061 75.0386L48.0085 70.109L36.5061 65.1794Z" fill="white" stroke="black"/>
<path d="M48.0112 70.1094L36.5088 75.039L48.0112 79.9686L59.5136 75.039L48.0112 70.1094Z" fill="white" stroke="black"/>
<path d="M48.0112 60.25L36.5088 65.1796L48.0112 70.1092L59.5136 65.1796L48.0112 60.25Z" fill="white" stroke="black"/>
<path d="M59.513 65.1794L48.0106 70.109L59.513 75.0386L71.0154 70.109L59.513 65.1794Z" fill="white" stroke="black"/>
<path d="M13.5024 75.0391L2 79.9687L13.5024 84.8983L25.0048 79.9687L13.5024 75.0391Z" fill="white" stroke="black"/>
<path d="M25.0043 79.9675L13.5019 84.8971L25.0043 89.8267L36.5067 84.8971L25.0043 79.9675Z" fill="white" stroke="black"/>
<path d="M25.0043 70.1094L13.5019 75.039L25.0043 79.9686L36.5067 75.039L25.0043 70.1094Z" fill="white" stroke="black"/>
<path d="M36.5061 75.0391L25.0037 79.9687L36.5061 84.8983L48.0085 79.9687L36.5061 75.0391Z" fill="white" stroke="black"/>
<path d="M36.5061 84.8972L25.0037 89.8268L36.5061 94.7564L48.0085 89.8268L36.5061 84.8972Z" fill="white" stroke="black"/>
<path d="M48.0112 89.8269L36.5088 94.7565L48.0112 99.6861L59.5136 94.7565L48.0112 89.8269Z" fill="white" stroke="black"/>
<path d="M48.0112 79.9675L36.5088 84.8971L48.0112 89.8267L59.5136 84.8971L48.0112 79.9675Z" fill="white" stroke="black"/>
<path d="M59.513 84.8972L48.0106 89.8268L59.513 94.7564L71.0154 89.8268L59.513 84.8972Z" fill="white" stroke="black"/>
<path d="M59.513 75.0391L48.0106 79.9687L59.513 84.8983L71.0154 79.9687L59.513 75.0391Z" fill="white" stroke="black"/>
<path d="M71.0149 79.9675L59.5125 84.8971L71.0149 89.8267L82.5173 84.8971L71.0149 79.9675Z" fill="white" stroke="black"/>
<path d="M71.0149 70.1094L59.5125 75.039L71.0149 79.9686L82.5173 75.039L71.0149 70.1094Z" fill="white" stroke="black"/>
<path d="M82.5167 75.0391L71.0143 79.9687L82.5167 84.8983L94.0192 79.9687L82.5167 75.0391Z" fill="white" stroke="black"/>
<path d="M82.5167 65.1794L71.0143 70.109L82.5167 75.0386L94.0192 70.109L82.5167 65.1794Z" fill="white" stroke="black"/>
<path d="M94.0186 70.1094L82.5162 75.039L94.0186 79.9686L105.521 75.039L94.0186 70.1094Z" fill="white" stroke="black"/>
<path d="M94.0186 60.25L82.5162 65.1796L94.0186 70.1092L105.521 65.1796L94.0186 60.25Z" fill="white" stroke="black"/>
<path d="M105.52 65.1794L94.0181 70.109L105.52 75.0386L117.023 70.109L105.52 65.1794Z" fill="white" stroke="black"/>
<circle cx="69.0947" cy="9.58534" r="9.58534" fill="white"/>
<path d="M71.4636 12.2747C71.6478 11.9676 71.7502 11.6298 71.7502 11.2511C71.7502 10.6266 71.5352 10.1762 71.1053 9.88956C70.6753 9.60293 70.1021 9.3982 69.3855 9.27536C68.9351 9.2037 68.5768 9.13204 68.3209 9.05015C68.0547 8.96826 67.85 8.85565 67.6862 8.7021C67.5224 8.54855 67.4405 8.33358 67.4405 8.05718C67.4405 7.68866 67.5736 7.39179 67.8602 7.18706C68.1366 6.98232 68.5154 6.86972 68.9965 6.86972C69.4674 6.86972 69.8666 7.0028 70.1942 7.24848C70.5115 7.5044 70.6958 7.84221 70.7572 8.25168H71.6376C71.5966 7.67842 71.3919 7.20753 71.0131 6.81853C70.6241 6.42954 70.1328 6.19409 69.5186 6.10196V5.0271H68.7406V6.07125C68.0854 6.12243 67.5531 6.32717 67.1539 6.69569C66.7444 7.06422 66.5499 7.53511 66.5499 8.10837C66.5499 8.74305 66.7546 9.19346 67.1846 9.46986C67.6043 9.75649 68.1776 9.95098 68.8941 10.0738C69.3446 10.1557 69.6926 10.2274 69.9588 10.3093C70.2249 10.3912 70.4399 10.5038 70.6037 10.6676C70.7675 10.8313 70.8596 11.0566 70.8596 11.3329C70.8596 11.7219 70.706 12.0188 70.3989 12.2338C70.0918 12.4488 69.7028 12.5511 69.2115 12.5511C68.6587 12.5511 68.2083 12.4078 67.8602 12.1212C67.5019 11.8346 67.3074 11.4456 67.2767 10.9542H66.3964C66.4168 11.6093 66.642 12.1417 67.0515 12.5716C67.461 13.0015 68.024 13.2575 68.7406 13.3394V14.3937H69.5186V13.3496C69.9485 13.3189 70.3375 13.2063 70.6753 13.022C71.0131 12.8378 71.2793 12.5818 71.4636 12.2747Z" fill="black"/>
<circle cx="84.4329" cy="38.6144" r="15.0627" fill="white"/>
<path d="M88.1563 42.8362C88.4459 42.3536 88.6068 41.8227 88.6068 41.2275C88.6068 40.2463 88.269 39.5385 87.5933 39.088C86.9177 38.6376 86.0169 38.3159 84.8908 38.1229C84.183 38.0103 83.62 37.8976 83.2178 37.769C82.7996 37.6403 82.4779 37.4633 82.2205 37.222C81.9631 36.9807 81.8344 36.6429 81.8344 36.2086C81.8344 35.6295 82.0435 35.163 82.494 34.8412C82.9283 34.5195 83.5235 34.3426 84.2795 34.3426C85.0195 34.3426 85.6469 34.5517 86.1616 34.9378C86.6603 35.3399 86.9499 35.8708 87.0464 36.5142H88.4298C88.3655 35.6134 88.0437 34.8734 87.4485 34.2621C86.8373 33.6509 86.0651 33.2809 85.0999 33.1361V31.447H83.8774V33.0878C82.8479 33.1683 82.0114 33.49 81.384 34.0691C80.7405 34.6482 80.4349 35.3882 80.4349 36.289C80.4349 37.2864 80.7566 37.9942 81.4323 38.4285C82.0918 38.8789 82.9926 39.1846 84.1187 39.3776C84.8265 39.5063 85.3734 39.6189 85.7917 39.7476C86.2099 39.8763 86.5477 40.0532 86.8051 40.3106C87.0625 40.568 87.2073 40.9219 87.2073 41.3562C87.2073 41.9675 86.966 42.434 86.4834 42.7718C86.0008 43.1096 85.3895 43.2705 84.6173 43.2705C83.7487 43.2705 83.0409 43.0453 82.494 42.5949C81.9309 42.1444 81.6253 41.5332 81.577 40.761H80.1936C80.2258 41.7905 80.5797 42.627 81.2231 43.3027C81.8666 43.9783 82.7513 44.3804 83.8774 44.5091V46.166H85.0999V44.5252C85.7756 44.477 86.3868 44.3 86.9177 44.0105C87.4485 43.7209 87.8668 43.3187 88.1563 42.8362Z" fill="black"/>
<path d="M54.3813 48.1344C54.3813 48.3366 54.5031 48.519 54.6899 48.5963C54.8768 48.6737 55.0918 48.631 55.2348 48.488L59.0609 44.6619C59.1865 44.5363 59.3901 44.5363 59.5157 44.6619C59.6413 44.7875 59.6413 44.9911 59.5157 45.1167L54.2871 50.3453C54.1615 50.4709 53.9578 50.4709 53.8323 50.3453L48.6036 45.1167C48.478 44.9911 48.478 44.7875 48.6036 44.6619C48.7292 44.5363 48.9328 44.5363 49.0584 44.6619L52.8845 48.488C53.0275 48.631 53.2426 48.6737 53.4294 48.5963C53.6162 48.519 53.7381 48.3366 53.7381 48.1344L53.7381 26.0176C53.7381 25.84 53.882 25.696 54.0597 25.696C54.2373 25.696 54.3813 25.84 54.3813 26.0176L54.3813 48.1344Z" fill="white" stroke="white" stroke-linejoin="round"/>
</svg>
