<svg width="82" height="24" viewBox="0 0 82 24" fill="none" xmlns="http://www.w3.org/2000/svg">
<path d="M0 0.719486V18.7066H6.33129C8.15512 18.7066 9.74445 18.3469 11.1514 17.576C12.5584 16.8051 13.6266 15.7516 14.3822 14.3897C15.1378 13.0278 15.5286 11.4604 15.5286 9.71306C15.5286 7.96574 15.1378 6.42398 14.3822 5.0621C13.6266 3.70021 12.5584 2.64668 11.1514 1.8758C9.74445 1.10492 8.15512 0.719486 6.33129 0.719486H0ZM6.33129 15.4946H3.9082V3.93148H6.33129C7.97273 3.93148 9.24941 4.47109 10.1613 5.52463C11.0732 6.57816 11.5422 7.96574 11.5422 9.71306C11.5422 11.4604 11.0732 12.8737 10.1613 13.9272C9.24941 14.9807 7.97273 15.4946 6.33129 15.4946Z" fill="white"/>
<path d="M17.9641 8.55675C17.3909 9.58458 17.1303 10.7666 17.1303 12.1285C17.1303 13.4904 17.4169 14.6724 17.9901 15.7002C18.5634 16.7281 19.3971 17.4989 20.4914 18.0385C21.5857 18.6039 22.8624 18.8608 24.3735 18.8608C25.52 18.8608 26.5361 18.6809 27.4219 18.2698C28.3078 17.8587 29.0113 17.3191 29.5584 16.5996C30.0795 15.9058 30.4182 15.1092 30.5746 14.2355H26.953C26.7966 14.8522 26.4579 15.3405 25.9629 15.6488C25.4678 15.9572 24.8425 16.1113 24.113 16.1113C23.175 16.1113 22.4194 15.8544 21.8984 15.2891C21.3512 14.7495 21.0385 14.0043 20.9604 13.0278V12.9251H30.6788C30.7309 12.5653 30.783 12.1542 30.783 11.6916C30.7569 10.4069 30.4443 9.30193 29.8711 8.35118C29.2979 7.40043 28.4902 6.65525 27.448 6.14133C26.4058 5.62741 25.2334 5.34475 23.8785 5.34475C22.5237 5.34475 21.3512 5.62741 20.3351 6.19272C19.3189 6.75803 18.5373 7.52891 17.9641 8.55675ZM27.1093 10.561H21.0385C21.1428 9.79015 21.4554 9.19914 22.0026 8.73662C22.5497 8.27409 23.2271 8.04283 24.0348 8.04283C24.8686 8.04283 25.546 8.27409 26.0932 8.71092C26.6403 9.14775 26.979 9.76445 27.1093 10.561Z" fill="white"/>
<path d="M35.6851 14.3126H32.1938C32.2459 15.7259 32.8712 16.8308 34.0437 17.6531C35.1901 18.4754 36.7013 18.8608 38.5772 18.8608C39.7757 18.8608 40.8179 18.7066 41.7298 18.3469C42.6418 17.9872 43.3452 17.4989 43.8663 16.8308C44.3874 16.1884 44.648 15.4433 44.648 14.5696C44.648 13.2334 44.1529 12.2827 43.1889 11.7173C42.2249 11.152 40.844 10.7666 39.0462 10.561C38.1864 10.4839 37.5871 10.4069 37.2224 10.3298C36.8576 10.2784 36.545 10.1499 36.3365 9.99572C36.102 9.84154 35.9978 9.61028 35.9978 9.30193C35.9978 8.89079 36.2062 8.53105 36.6231 8.27409C37.04 8.01713 37.6132 7.88865 38.3167 7.88865C39.0462 7.88865 39.6715 8.06852 40.1405 8.37687C40.6095 8.68522 40.8961 9.09636 40.9482 9.58458H44.4395C44.3353 8.24839 43.736 7.22056 42.6157 6.44968C41.4953 5.7045 40.0363 5.31906 38.2125 5.29336C37.066 5.29336 36.076 5.47323 35.2162 5.83298C34.3303 6.19272 33.6529 6.70664 33.1839 7.37473C32.7149 8.04283 32.4804 8.78801 32.4804 9.63597C32.4804 10.5096 32.7149 11.1777 33.1839 11.6916C33.6529 12.2056 34.2782 12.591 35.0598 12.8223C35.8415 13.0792 36.8055 13.2591 38.004 13.4133C38.8638 13.5161 39.4891 13.6188 39.88 13.6959C40.2447 13.773 40.5574 13.9015 40.7658 14.0557C40.9743 14.2355 41.0785 14.4925 41.0785 14.8266C41.0785 15.2891 40.844 15.6488 40.401 15.9058C39.9321 16.1627 39.3328 16.2655 38.5512 16.2655C37.7174 16.2655 37.066 16.0857 36.545 15.7259C36.0239 15.3662 35.7373 14.9036 35.6851 14.3126Z" fill="white"/>
<path d="M50.1205 0.591006C49.7036 0.205568 49.2085 0 48.6093 0C47.984 0 47.4889 0.205568 47.0721 0.591006C46.6552 0.976445 46.4728 1.46467 46.4728 2.02998C46.4728 2.62098 46.6552 3.10921 47.0721 3.49465C47.4889 3.90578 47.984 4.08565 48.6093 4.08565C49.2085 4.08565 49.7036 3.90578 50.1205 3.49465C50.5113 3.10921 50.7197 2.62098 50.7197 2.02998C50.7197 1.46467 50.5113 0.976445 50.1205 0.591006ZM46.7594 5.49893V18.7066H50.4331V5.49893H46.7594Z" fill="white"/>
<path d="M66.3853 5.49893H63.1545L62.8419 7.32334C61.7997 5.98715 60.4188 5.31906 58.6731 5.31906C57.4746 5.31906 56.4064 5.60171 55.4684 6.14133C54.5304 6.70664 53.7748 7.47752 53.2537 8.47966C52.7326 9.50749 52.4721 10.6638 52.4721 11.9743C52.4721 13.3105 52.7326 14.4925 53.2537 15.4946C53.7748 16.4968 54.5304 17.2677 55.4684 17.8073C56.4064 18.3726 57.4485 18.6296 58.6471 18.6296C60.4188 18.6296 61.7997 18.0385 62.7898 16.8051V18.1927C62.7898 19.2206 62.5032 19.9657 61.93 20.4797C61.3567 20.9936 60.5491 21.2505 59.5069 21.2505C58.6731 21.2505 57.9957 21.0964 57.4746 20.7366C56.9535 20.4026 56.6148 19.9143 56.4585 19.2719H52.7587C52.8369 20.788 53.4622 21.9443 54.6346 22.7666C55.781 23.5889 57.3183 24 59.2203 24C61.6694 24 63.4672 23.4861 64.6396 22.4582C65.786 21.4304 66.3853 20.0685 66.3853 18.3212V5.49893ZM61.8778 14.6981C61.2786 15.3919 60.4969 15.7259 59.5069 15.7259C58.5168 15.7259 57.7091 15.3919 57.1098 14.6981C56.5106 14.03 56.224 13.1306 56.224 12C56.224 10.8951 56.5106 9.99572 57.1098 9.30193C57.7091 8.60814 58.5168 8.24839 59.5069 8.24839C60.4969 8.24839 61.2786 8.60814 61.8778 9.30193C62.451 10.0214 62.7637 10.9208 62.7637 12.0257C62.7637 13.1306 62.451 14.03 61.8778 14.6981Z" fill="white"/>
<path d="M80.4888 6.78373C79.4727 5.83298 78.196 5.34475 76.6327 5.34475C75.6427 5.34475 74.835 5.52463 74.1836 5.83298C73.5062 6.14133 72.959 6.57816 72.49 7.14347L72.1513 5.49893H68.9466V18.7066H72.6203V11.9486C72.6203 10.818 72.8809 9.91863 73.402 9.27623C73.923 8.65953 74.6526 8.32548 75.6166 8.32548C77.4144 8.32548 78.3263 9.4818 78.3263 11.743V18.7066H82V11.5375C82 9.32762 81.4789 7.76017 80.4888 6.78373Z" fill="white"/>
</svg>
