<svg width="61" height="79" viewBox="0 0 61 79" fill="none" xmlns="http://www.w3.org/2000/svg">
<path d="M44.3049 11.4493V15.5689H41.9901V11.4493H37.8499V9.13639H41.9901V4.99609H44.3049V9.13639H48.4227V11.4493H44.3049Z" fill="black"/>
<path d="M59.0538 20.7425C58.301 21.4652 57.1587 21.8849 55.958 21.8849C54.7573 21.8849 53.6131 21.4953 52.8829 20.7425C52.1018 20.0217 51.6502 19.0601 51.6502 17.4359V16.0847H54.0854V17.5263C54.0854 18.9697 54.9267 19.6905 55.9504 19.6905C56.1951 19.7064 56.44 19.6635 56.6646 19.5652C56.8892 19.467 57.087 19.3164 57.2415 19.1259C57.6931 18.614 57.9039 17.833 57.9039 15.6387C57.9039 13.0246 57.7533 12.4525 57.2716 11.8748C57.1086 11.6877 56.9055 11.5398 56.6774 11.442C56.4493 11.3443 56.2021 11.2992 55.9542 11.3102H54.8119V9.19487H55.9542C56.4642 9.19487 56.8858 9.04431 57.1248 8.74508C57.6066 8.20308 57.727 7.48229 57.727 5.6775C57.727 3.8727 57.5764 3.18391 57.185 2.70213C57.0301 2.53163 56.8395 2.3975 56.6267 2.30932C56.4139 2.22115 56.1843 2.18113 55.9542 2.19212C54.9605 2.19212 54.2397 2.8828 54.2397 4.29614V5.80171H51.8083V4.42035C51.8083 2.85645 52.2298 1.86466 52.9807 1.11376C53.7913 0.370855 54.8588 -0.0279624 55.958 0.00152615C57.2189 0.00152615 58.2408 0.39109 58.9333 1.08365C59.8047 1.95499 60.166 3.21778 60.166 5.53258C60.166 7.30538 60.0757 8.20684 59.624 9.04807C59.3355 9.54741 58.9208 9.96212 58.4214 10.2506C58.9078 10.5535 59.3273 10.9525 59.6541 11.4231C60.2187 12.3641 60.3467 13.2561 60.3467 15.6311C60.3467 18.424 60.1359 19.6849 59.0538 20.7425Z" fill="black"/>
<path d="M28.7638 78.4959L12.562 42.1347L4.40565 56.27V78.4959H0V9.08569H4.40941V48.665L26.671 9.08569H31.5189L15.432 37.65L33.6173 78.4883L28.7638 78.4959Z" fill="black"/>
</svg>
