<svg width="67" height="19" viewBox="0 0 67 19" fill="none" xmlns="http://www.w3.org/2000/svg">
<path d="M7.70472 0H0V18.8385H4.05511V12.5142H7.70472C9.05642 12.5142 10.2459 12.272 11.2732 11.7606C12.3005 11.2493 13.1115 10.5227 13.6793 9.58074C14.247 8.63881 14.5443 7.53541 14.5443 6.27054C14.5443 5.03258 14.247 3.92918 13.6793 2.96034C13.1115 2.01841 12.3005 1.29179 11.2732 0.780454C10.2459 0.269122 9.05642 0 7.70472 0ZM4.05511 9.15014V3.36402H7.32624C8.27243 3.36402 9.02939 3.63315 9.59711 4.14448C10.1378 4.68272 10.4352 5.38244 10.4352 6.27054C10.4352 7.15864 10.1378 7.85836 9.59711 8.36969C9.02939 8.90793 8.27243 9.15014 7.32624 9.15014H4.05511Z" fill="white"/>
<path d="M16.5197 0V18.8385H20.3315V0H16.5197Z" fill="white"/>
<path d="M36.6671 15.636H36.2346C35.9102 15.636 35.6939 15.5822 35.5587 15.4476C35.3965 15.3399 35.3424 15.0977 35.3424 14.7479V9.87677C35.3424 8.26204 34.8018 6.99717 33.7204 6.13598C32.639 5.27479 31.1251 4.84419 29.1787 4.84419C27.2863 4.84419 25.7994 5.24788 24.664 6.02833C23.5285 6.80878 22.8797 7.91218 22.7716 9.31161H26.4482C26.5293 8.80028 26.7997 8.3966 27.2592 8.07365C27.6918 7.77762 28.2865 7.61615 28.9894 7.61615C29.7734 7.61615 30.3952 7.80453 30.8818 8.1813C31.3414 8.55807 31.5847 9.04249 31.5847 9.66147V10.3343H28.8272C26.7456 10.3343 25.1506 10.738 24.0692 11.5453C22.9879 12.3527 22.4472 13.483 22.4472 14.9363C22.4472 16.228 22.9068 17.2507 23.8529 17.9504C24.7991 18.6501 26.0427 19 27.6107 19C28.638 19 29.5301 18.8116 30.2871 18.381C31.017 17.9773 31.6388 17.3853 32.1524 16.5779C32.0983 18.085 32.9634 18.8385 34.7207 18.8385H36.6671V15.636ZM31.5847 12.864V13.1331C31.5577 14.102 31.2603 14.8555 30.6926 15.4207C30.0978 15.9858 29.3138 16.255 28.3406 16.255C27.6918 16.255 27.2052 16.1204 26.8267 15.8244C26.4482 15.5552 26.286 15.1516 26.286 14.6671C26.286 14.102 26.5023 13.6714 26.9348 13.3484C27.3674 13.0255 27.9892 12.864 28.8002 12.864H31.5847Z" fill="white"/>
<path d="M49.3339 17.5737C50.5234 16.6048 51.2262 15.2861 51.4966 13.5907H47.5766C47.4144 14.3173 47.09 14.8824 46.6034 15.2861C46.1168 15.7167 45.495 15.9051 44.7651 15.9051C43.7648 15.9051 42.9808 15.5552 42.3861 14.8017C41.7913 14.0751 41.494 13.1062 41.494 11.9221C41.494 10.738 41.7913 9.79603 42.3861 9.04249C42.9808 8.31586 43.7648 7.93909 44.7651 7.93909C45.468 7.93909 46.0898 8.15439 46.5764 8.55807C47.063 8.96176 47.3874 9.5 47.5496 10.1728H51.4966C51.2262 8.50425 50.4963 7.21246 49.3339 6.27054C48.1444 5.32861 46.6304 4.84419 44.7921 4.84419C43.3323 4.84419 42.0617 5.14023 40.9803 5.73229C39.899 6.32436 39.0609 7.13173 38.4661 8.20821C37.8714 9.2847 37.6011 10.5227 37.6011 11.9221C37.6011 13.3215 37.8714 14.5595 38.4661 15.636C39.0609 16.7125 39.899 17.5467 40.9803 18.1388C42.0617 18.7309 43.3052 19 44.7651 19C46.6304 19 48.1444 18.5425 49.3339 17.5737Z" fill="white"/>
<path d="M53.6992 8.20821C53.1045 9.2847 52.8341 10.5227 52.8341 11.949C52.8341 13.3754 53.1315 14.6133 53.7263 15.6898C54.321 16.7663 55.1861 17.5737 56.3215 18.1388C57.457 18.7309 58.7816 19 60.3496 19C61.5391 19 62.5934 18.8116 63.5126 18.381C64.4318 17.9504 65.1617 17.3853 65.7294 16.6317C66.2701 15.9051 66.6215 15.0708 66.7837 14.1558H63.026C62.8638 14.8017 62.5123 15.313 61.9987 15.636C61.485 15.9589 60.8362 16.1204 60.0793 16.1204C59.106 16.1204 58.3221 15.8513 57.7814 15.2592C57.2137 14.694 56.8892 13.9136 56.8081 12.8909V12.7833H66.8919C66.9459 12.4065 67 11.9759 67 11.4915C66.973 10.1459 66.6486 8.98867 66.0538 7.99292C65.4591 6.99717 64.621 6.21671 63.5396 5.67847C62.4583 5.14023 61.2417 4.84419 59.836 4.84419C58.4302 4.84419 57.2137 5.14023 56.1593 5.73229C55.105 6.32436 54.294 7.13173 53.6992 8.20821ZM63.1882 10.3074H56.8892C56.9974 9.5 57.3218 8.88102 57.8895 8.3966C58.4572 7.91218 59.1601 7.66997 59.9982 7.66997C60.8633 7.66997 61.5661 7.91218 62.1339 8.36969C62.7016 8.8272 63.053 9.47309 63.1882 10.3074Z" fill="white"/>
</svg>
