<svg width="23" height="25" viewBox="0 0 23 25" fill="none" xmlns="http://www.w3.org/2000/svg">
<path d="M11.1952 21.0579L19.147 9.42985L11.1952 21.0579ZM11.1952 21.0579L3.25246 9.41948C3.25242 9.41942 3.25237 9.41935 3.25233 9.41928C2.62798 8.50337 2.3607 7.34895 2.51699 6.21145C2.67327 5.07408 3.23797 4.06112 4.07338 3.3895C4.90704 2.71928 5.94352 2.44133 6.95634 2.60543C7.97019 2.7697 8.89436 3.36656 9.51801 4.28135L9.51935 4.2833C9.87274 4.79642 10.114 5.394 10.2218 6.02986C10.2626 6.27031 10.4709 6.44627 10.7148 6.44627H11.6943C11.9393 6.44627 12.1482 6.26875 12.1877 6.02697C12.291 5.39543 12.5317 4.80277 12.8868 4.29808L12.8869 4.29811L12.8909 4.29225C13.5144 3.37884 14.438 2.78326 15.4509 2.61989C16.4628 2.45668 17.4981 2.73508 18.3305 3.40524C19.1647 4.07681 19.7282 5.08918 19.8837 6.22555C20.0391 7.36198 19.7714 8.51501 19.1472 9.42953L11.1952 21.0579ZM2.85979 1.75861L2.85978 1.75861L2.8575 1.76046C1.60849 2.77304 0.788355 4.27284 0.562908 5.92644C0.337487 7.57985 0.722739 9.26681 1.6421 10.6203L1.64326 10.622L10.3905 23.3864C10.4837 23.5224 10.638 23.6038 10.8029 23.6038H11.5865C11.7516 23.6038 11.9059 23.5224 11.9991 23.3862L20.7366 10.6218L20.7366 10.6217C21.1945 9.95234 21.5252 9.19367 21.7114 8.38935C21.8976 7.58505 21.936 6.74934 21.8246 5.92943C21.7132 5.10951 21.4541 4.31984 21.0605 3.60554C20.667 2.8912 20.1462 2.26527 19.5261 1.76503C18.906 1.2647 18.1988 0.900072 17.4443 0.694143C16.6898 0.488184 15.9045 0.445513 15.1341 0.568913C13.5778 0.818199 12.1882 1.72644 11.2633 3.07732C11.2401 3.1106 11.2172 3.14413 11.1947 3.17792C11.1721 3.14396 11.1491 3.11026 11.1258 3.07681C10.1984 1.72857 8.80889 0.822211 7.25327 0.572108C5.6961 0.321756 4.11603 0.752358 2.85979 1.75861Z" fill="black" stroke="black" stroke-linejoin="round"/>
</svg>
