<svg width="75" height="22" viewBox="0 0 75 22" fill="none" xmlns="http://www.w3.org/2000/svg">
<path d="M37.6171 21.9994H35.4626C34.5827 21.9994 33.7389 21.6562 33.1164 21.0451C32.4939 20.4341 32.1438 19.6053 32.1428 18.7407V3.25872C32.1442 2.39488 32.4941 1.56683 33.1157 0.956005C33.7373 0.345181 34.5799 0.00140398 35.459 4.29894e-06H37.6135C38.0497 -0.000691349 38.4817 0.0830463 38.885 0.246435C39.2883 0.409825 39.6548 0.649666 39.9638 0.952266C40.2727 1.25487 40.5179 1.6143 40.6855 2.01004C40.8531 2.40578 40.9397 2.83008 40.9404 3.25872V18.7407C40.9399 19.1691 40.8536 19.5932 40.6864 19.9888C40.5191 20.3844 40.2742 20.7438 39.9656 21.0464C39.657 21.349 39.2907 21.5889 38.8878 21.7524C38.4848 21.9159 38.053 21.9999 37.6171 21.9994ZM35.4626 2.0625C35.1408 2.06297 34.8324 2.18878 34.6049 2.41235C34.3774 2.63592 34.2493 2.93901 34.2489 3.25519V18.7372C34.2489 19.0535 34.3767 19.3568 34.6043 19.5805C34.832 19.8042 35.1407 19.9298 35.4626 19.9298H37.6171C37.9392 19.9298 38.248 19.8042 38.4759 19.5806C38.7038 19.357 38.8321 19.0536 38.8326 18.7372V3.25872C38.8316 2.94238 38.7032 2.63929 38.4754 2.41577C38.2476 2.19225 37.939 2.0665 37.6171 2.06603L35.4626 2.0625Z" fill="black"/>
<path d="M48.6885 21.9994H46.4227C44.5877 21.9994 43.0383 20.5085 43.0383 18.7442V14.4198H45.1407V18.7442C45.1407 19.3776 45.7404 19.9334 46.4227 19.9334H48.6885C49.0139 19.9336 49.3267 19.8098 49.5611 19.588C49.7955 19.3662 49.9332 19.0637 49.9453 18.7442V13.1778C49.9322 12.8625 49.7927 12.5651 49.5572 12.3505C49.3217 12.136 49.0094 12.0217 48.6885 12.0327H46.4227C45.5303 12.0259 44.6762 11.6757 44.0436 11.0573C43.4109 10.4388 43.05 9.60143 43.0383 8.72459V3.15991C43.0383 1.41675 44.5572 0 46.4227 0H48.6885C50.5719 0 52.0478 1.38853 52.0478 3.15991V7.36783H49.9453V3.15991C49.9453 2.47535 49.3061 2.06603 48.6885 2.06603H46.4227C45.7925 2.06603 45.1407 2.47535 45.1407 3.15991V8.72459C45.1569 9.05126 45.2979 9.35991 45.5355 9.58887C45.7732 9.81783 46.09 9.95023 46.4227 9.95962H48.6885C50.5396 9.95962 52.0478 11.4011 52.0478 13.1707V18.7371C52.0421 19.6074 51.6851 20.4397 51.0552 21.0514C50.4253 21.6631 49.5741 22.0041 48.6885 21.9994Z" fill="black"/>
<path d="M56.2627 22H54.1603V3.16052C54.1603 1.35914 55.5589 0.000605016 57.4154 0.000605016H59.6812C60.1084 -0.00761997 60.533 0.0680896 60.93 0.223292C61.327 0.378493 61.6885 0.61006 61.9932 0.904403C62.2979 1.19875 62.5397 1.54993 62.7045 1.93736C62.8692 2.32478 62.9535 2.74064 62.9525 3.16052V13.1219C62.9525 14.978 61.4856 16.4865 59.6812 16.4865H56.2699L56.2627 22ZM56.2627 14.4134H59.674C60.2971 14.4134 60.8429 13.8065 60.8429 13.1148V3.16052C60.8429 2.51654 60.3617 2.06663 59.674 2.06663H57.4154C57.2646 2.05614 57.1133 2.07694 56.9713 2.12767C56.8292 2.17841 56.6996 2.25794 56.5909 2.36111C56.4822 2.46428 56.3968 2.58877 56.3403 2.7265C56.2837 2.86422 56.2573 3.0121 56.2627 3.16052V14.4134Z" fill="black"/>
<path d="M74.0525 21.9994H71.95V16.4859H67.1544V21.9994H65.0448V3.15991C65.0448 1.39558 66.5135 0 68.3897 0H70.6555C72.5282 0 74.0525 1.41146 74.0525 3.15991V21.9994ZM67.1472 14.4128H71.95V3.15991C71.95 2.48417 71.2785 2.06603 70.6555 2.06603H68.3897C67.6823 2.06603 67.1472 2.53534 67.1472 3.15991V14.4128Z" fill="black"/>
<path d="M1.82351 7.55853C2.13276 7.13949 2.55398 6.79901 3.08717 6.5371C3.63102 6.26472 4.23352 6.12853 4.89468 6.12853C5.67313 6.12853 6.37693 6.31187 7.0061 6.67853C7.63526 7.0452 8.13112 7.56901 8.49369 8.24996C8.85626 8.92044 9.03754 9.69044 9.03754 10.56C9.03754 11.4295 8.85626 12.21 8.49369 12.9014C8.13112 13.5823 7.62992 14.1166 6.9901 14.5042C6.36093 14.8814 5.66247 15.07 4.89468 15.07C4.2122 15.07 3.60436 14.939 3.07117 14.6771C2.54865 14.4152 2.13276 14.08 1.82351 13.6714V14.9285H0V3.29996H1.82351V7.55853ZM7.18205 10.56C7.18205 9.96282 7.05409 9.44948 6.79816 9.01996C6.55289 8.57996 6.22231 8.24996 5.80643 8.02996C5.4012 7.79948 4.96399 7.68425 4.49478 7.68425C4.03624 7.68425 3.59903 7.79948 3.18314 8.02996C2.77792 8.26044 2.44734 8.59568 2.19141 9.03568C1.94614 9.47568 1.82351 9.99425 1.82351 10.5914C1.82351 11.1885 1.94614 11.7123 2.19141 12.1628C2.44734 12.6028 2.77792 12.9381 3.18314 13.1685C3.59903 13.399 4.03624 13.5142 4.49478 13.5142C4.96399 13.5142 5.4012 13.399 5.80643 13.1685C6.22231 12.9276 6.55289 12.5819 6.79816 12.1314C7.05409 11.6809 7.18205 11.1571 7.18205 10.56Z" fill="black"/>
<path d="M18.7746 6.26996L13.3681 18.9985H11.4806L13.2721 14.7871L9.80109 6.26996H11.8325L14.3119 12.87L16.8872 6.26996H18.7746Z" fill="black"/>
</svg>
