<svg width="49" height="16" viewBox="0 0 49 16" fill="none" xmlns="http://www.w3.org/2000/svg">
<rect width="49" height="16" rx="8" fill="#A4CBC8"/>
<path d="M16.4056 11.063C15.9916 11.063 15.6196 10.991 15.2896 10.847C14.9656 10.697 14.7106 10.493 14.5246 10.235C14.3386 9.971 14.2426 9.668 14.2366 9.326H15.1096C15.1396 9.62 15.2596 9.869 15.4696 10.073C15.6856 10.271 15.9976 10.37 16.4056 10.37C16.7956 10.37 17.1016 10.274 17.3236 10.082C17.5516 9.884 17.6656 9.632 17.6656 9.326C17.6656 9.086 17.5996 8.891 17.4676 8.741C17.3356 8.591 17.1706 8.477 16.9726 8.399C16.7746 8.321 16.5076 8.237 16.1716 8.147C15.7576 8.039 15.4246 7.931 15.1726 7.823C14.9266 7.715 14.7136 7.547 14.5336 7.319C14.3596 7.085 14.2726 6.773 14.2726 6.383C14.2726 6.041 14.3596 5.738 14.5336 5.474C14.7076 5.21 14.9506 5.006 15.2626 4.862C15.5806 4.718 15.9436 4.646 16.3516 4.646C16.9396 4.646 17.4196 4.793 17.7916 5.087C18.1696 5.381 18.3826 5.771 18.4306 6.257H17.5306C17.5006 6.017 17.3746 5.807 17.1526 5.627C16.9306 5.441 16.6366 5.348 16.2706 5.348C15.9286 5.348 15.6496 5.438 15.4336 5.618C15.2176 5.792 15.1096 6.038 15.1096 6.356C15.1096 6.584 15.1726 6.77 15.2986 6.914C15.4306 7.058 15.5896 7.169 15.7756 7.247C15.9676 7.319 16.2346 7.403 16.5766 7.499C16.9906 7.613 17.3236 7.727 17.5756 7.841C17.8276 7.949 18.0436 8.12 18.2236 8.354C18.4036 8.582 18.4936 8.894 18.4936 9.29C18.4936 9.596 18.4126 9.884 18.2506 10.154C18.0886 10.424 17.8486 10.643 17.5306 10.811C17.2126 10.979 16.8376 11.063 16.4056 11.063ZM21.8499 11.081C21.3879 11.081 20.9679 10.976 20.5899 10.766C20.2179 10.556 19.9239 10.259 19.7079 9.875C19.4979 9.485 19.3929 9.035 19.3929 8.525C19.3929 8.021 19.5009 7.577 19.7169 7.193C19.9389 6.803 20.2389 6.506 20.6169 6.302C20.9949 6.092 21.4179 5.987 21.8859 5.987C22.3539 5.987 22.7769 6.092 23.1549 6.302C23.5329 6.506 23.8299 6.8 24.0459 7.184C24.2679 7.568 24.3789 8.015 24.3789 8.525C24.3789 9.035 24.2649 9.485 24.0369 9.875C23.8149 10.259 23.5119 10.556 23.1279 10.766C22.7439 10.976 22.3179 11.081 21.8499 11.081ZM21.8499 10.361C22.1439 10.361 22.4199 10.292 22.6779 10.154C22.9359 10.016 23.1429 9.809 23.2989 9.533C23.4609 9.257 23.5419 8.921 23.5419 8.525C23.5419 8.129 23.4639 7.793 23.3079 7.517C23.1519 7.241 22.9479 7.037 22.6959 6.905C22.4439 6.767 22.1709 6.698 21.8769 6.698C21.5769 6.698 21.3009 6.767 21.0489 6.905C20.8029 7.037 20.6049 7.241 20.4549 7.517C20.3049 7.793 20.2299 8.129 20.2299 8.525C20.2299 8.927 20.3019 9.266 20.4459 9.542C20.5959 9.818 20.7939 10.025 21.0399 10.163C21.2859 10.295 21.5559 10.361 21.8499 10.361ZM27.6067 11.081C27.1447 11.081 26.7247 10.976 26.3467 10.766C25.9747 10.556 25.6807 10.259 25.4647 9.875C25.2547 9.485 25.1497 9.035 25.1497 8.525C25.1497 8.021 25.2577 7.577 25.4737 7.193C25.6957 6.803 25.9957 6.506 26.3737 6.302C26.7517 6.092 27.1747 5.987 27.6427 5.987C28.1107 5.987 28.5337 6.092 28.9117 6.302C29.2897 6.506 29.5867 6.8 29.8027 7.184C30.0247 7.568 30.1357 8.015 30.1357 8.525C30.1357 9.035 30.0217 9.485 29.7937 9.875C29.5717 10.259 29.2687 10.556 28.8847 10.766C28.5007 10.976 28.0747 11.081 27.6067 11.081ZM27.6067 10.361C27.9007 10.361 28.1767 10.292 28.4347 10.154C28.6927 10.016 28.8997 9.809 29.0557 9.533C29.2177 9.257 29.2987 8.921 29.2987 8.525C29.2987 8.129 29.2207 7.793 29.0647 7.517C28.9087 7.241 28.7047 7.037 28.4527 6.905C28.2007 6.767 27.9277 6.698 27.6337 6.698C27.3337 6.698 27.0577 6.767 26.8057 6.905C26.5597 7.037 26.3617 7.241 26.2117 7.517C26.0617 7.793 25.9867 8.129 25.9867 8.525C25.9867 8.927 26.0587 9.266 26.2027 9.542C26.3527 9.818 26.5507 10.025 26.7967 10.163C27.0427 10.295 27.3127 10.361 27.6067 10.361ZM33.6155 5.978C34.2155 5.978 34.7015 6.161 35.0735 6.527C35.4455 6.887 35.6315 7.409 35.6315 8.093V11H34.8215V8.21C34.8215 7.718 34.6985 7.343 34.4525 7.085C34.2065 6.821 33.8705 6.689 33.4445 6.689C33.0125 6.689 32.6675 6.824 32.4095 7.094C32.1575 7.364 32.0315 7.757 32.0315 8.273V11H31.2125V6.068H32.0315V6.77C32.1935 6.518 32.4125 6.323 32.6885 6.185C32.9705 6.047 33.2795 5.978 33.6155 5.978Z" fill="#646464"/>
</svg>
