<svg width="106" height="70" viewBox="0 0 106 70" fill="none" xmlns="http://www.w3.org/2000/svg">
<path d="M96.5215 22.562V27.4942H91.7696V31.1624H96.5215V36.1254H100.55V31.1624H105.333V27.4942H100.55V22.562H96.5215Z" fill="black"/>
<path d="M23.6264 44.8198V47.7285H20.824V49.8919H23.6264V52.8188H26.0019V49.8919H28.8229V47.7285H26.0019V44.8198H23.6264Z" fill="black"/>
<path d="M36.8392 4.82495V7.73365H34.0368V9.897H36.8392V12.8239H39.2148V9.897H42.0358V7.73365H39.2148V4.82495H36.8392Z" fill="black"/>
<path d="M42.7324 47.1392V58.1523L70.5547 69.1653L98.3771 58.1523V47.1392L70.5547 36.1262L42.7324 47.1392Z" fill="white"/>
<path d="M42.7324 47.1392V58.1523L70.5547 69.1653M42.7324 47.1392L70.5547 36.1262L98.3771 47.1392M42.7324 47.1392L70.5547 58.1523M98.3771 47.1392V58.1523L70.5547 69.1653M98.3771 47.1392L70.5547 58.1523M70.5547 69.1653V58.1523" stroke="black"/>
<path d="M1 24.5336V32.4167L20.9973 40.2997L40.9947 32.4167V24.5336L20.9973 16.6506L1 24.5336Z" fill="white"/>
<path d="M1 24.5336V32.4167L20.9973 40.2997M1 24.5336L20.9973 16.6506L40.9947 24.5336M1 24.5336L20.9973 32.4167M40.9947 24.5336V32.4167L20.9973 40.2997M40.9947 24.5336L20.9973 32.4167M20.9973 40.2997V32.4167" stroke="black"/>
<path d="M50.731 8.88301V16.766L70.7284 24.649L90.7257 16.766V8.88301L70.7284 1L50.731 8.88301Z" fill="white"/>
<path d="M50.731 8.88301V16.766L70.7284 24.649M50.731 8.88301L70.7284 1L90.7257 8.88301M50.731 8.88301L70.7284 16.766M90.7257 8.88301V16.766L70.7284 24.649M90.7257 8.88301L70.7284 16.766M70.7284 24.649V16.766" stroke="black"/>
</svg>
