<svg width="109" height="116" viewBox="0 0 109 116" fill="none" xmlns="http://www.w3.org/2000/svg">
<path d="M35.3102 54.4493V62.0546L54.3234 69.6599L73.3366 62.0546V54.4493L54.3234 46.844L35.3102 54.4493Z" fill="white"/>
<path d="M35.3102 54.4493V62.0546L54.3234 69.6599M35.3102 54.4493L54.3234 46.844L73.3366 54.4493M35.3102 54.4493L54.3234 62.0546M73.3366 54.4493V62.0546L54.3234 69.6599M73.3366 54.4493L54.3234 62.0546M54.3234 69.6599V62.0546" stroke="black"/>
<path d="M35.3102 69.6592V62.054L54.3234 69.6592L73.3366 62.054V69.6592L54.3234 77.2645L35.3102 69.6592Z" fill="white"/>
<path d="M54.3234 77.2645L73.3366 69.6592V62.054L54.3234 69.6592M54.3234 77.2645L35.3102 69.6592V62.054L54.3234 69.6592M54.3234 77.2645V69.6592" stroke="black"/>
<path d="M35.3102 77.2642V69.6589L54.3234 77.2642L73.3366 69.6589V77.2642L54.3234 84.8695L35.3102 77.2642Z" fill="white"/>
<path d="M54.3234 84.8695L73.3366 77.2642V69.6589L54.3234 77.2642M54.3234 84.8695L35.3102 77.2642V69.6589L54.3234 77.2642M54.3234 84.8695V77.2642" stroke="black"/>
<path d="M35.3102 84.8702V77.2649L54.3234 84.8702L73.3366 77.2649V84.8702L54.3234 92.4755L35.3102 84.8702Z" fill="white"/>
<path d="M54.3234 92.4755L73.3366 84.8702V77.2649L54.3234 84.8702M54.3234 92.4755L35.3102 84.8702V77.2649L54.3234 84.8702M54.3234 92.4755V84.8702" stroke="black"/>
<path d="M35.3102 92.4752V84.8699L54.3234 92.4752L73.3366 84.8699V92.4752L54.3234 100.08L35.3102 92.4752Z" fill="white"/>
<path d="M54.3234 100.08L73.3366 92.4752V84.8699L54.3234 92.4752M54.3234 100.08L35.3102 92.4752V84.8699L54.3234 92.4752M54.3234 100.08V92.4752" stroke="black"/>
<path d="M35.3102 100.08V92.4749L54.3234 100.08L73.3366 92.4749V100.08L54.3234 107.685L35.3102 100.08Z" fill="white"/>
<path d="M54.3234 107.685L73.3366 100.08V92.4749L54.3234 100.08M54.3234 107.685L35.3102 100.08V92.4749L54.3234 100.08M54.3234 107.685V100.08" stroke="black"/>
<path d="M35.3102 107.686V100.081L54.3234 107.686L73.3366 100.081V107.686L54.3234 115.292L35.3102 107.686Z" fill="white"/>
<path d="M54.3234 115.292L73.3366 107.686V100.081L54.3234 107.686M54.3234 115.292L35.3102 107.686V100.081L54.3234 107.686M54.3234 115.292V107.686" stroke="black"/>
<path d="M95.8626 64.1429C95.8626 63.9406 95.7408 63.7583 95.5539 63.6809C95.3671 63.6035 95.152 63.6463 95.009 63.7893L91.2144 67.584C91.0914 67.7069 90.8921 67.7069 90.7691 67.584C90.6462 67.461 90.6462 67.2616 90.7691 67.1387L95.9548 61.953C96.0778 61.83 96.2771 61.83 96.4001 61.953L101.586 67.1387C101.709 67.2616 101.709 67.461 101.586 67.584C101.463 67.7069 101.263 67.7069 101.14 67.584L97.3458 63.7893C97.2028 63.6463 96.9878 63.6035 96.8009 63.6809C96.6141 63.7583 96.4923 63.9406 96.4923 64.1429L96.4923 86.078C96.4923 86.2519 96.3513 86.3928 96.1774 86.3928C96.0035 86.3928 95.8626 86.2519 95.8626 86.078L95.8626 64.1429Z" fill="black" stroke="black" stroke-linejoin="round"/>
<path d="M12.8332 101.495C12.8332 101.698 12.955 101.88 13.1418 101.957C13.3286 102.035 13.5437 101.992 13.6867 101.849L17.4814 98.0542C17.6043 97.9313 17.8037 97.9313 17.9266 98.0542C18.0496 98.1772 18.0496 98.3765 17.9266 98.4995L12.7409 103.685C12.618 103.808 12.4186 103.808 12.2957 103.685L7.10998 98.4995C6.98702 98.3765 6.98702 98.1772 7.10998 98.0542C7.23293 97.9313 7.43229 97.9313 7.55525 98.0542L11.3499 101.849C11.4929 101.992 11.708 102.035 11.8948 101.957C12.0816 101.88 12.2034 101.698 12.2034 101.495L12.2035 79.5602C12.2035 79.3863 12.3444 79.2454 12.5183 79.2454C12.6922 79.2454 12.8332 79.3863 12.8332 79.5602L12.8332 101.495Z" fill="white" stroke="white" stroke-linejoin="round"/>
<circle cx="53.5565" cy="19.5565" r="19.5565" fill="black"/>
<path d="M46.3783 14.5582C46.0797 15.0343 45.949 15.5836 45.949 16.1696C45.949 16.7738 46.0797 17.3049 46.3783 17.781C46.6582 18.257 47.0502 18.6233 47.5727 18.8796C48.0767 19.1543 48.6552 19.2825 49.2898 19.2825C49.9243 19.2825 50.4842 19.1543 51.0068 18.8796C51.5107 18.6233 51.9026 18.257 52.2012 17.781C52.4812 17.3049 52.6305 16.7738 52.6305 16.1696C52.6305 15.5836 52.4812 15.0343 52.2012 14.5582C51.9026 14.0821 51.5107 13.7158 51.0068 13.4412C50.4842 13.1848 49.9243 13.0383 49.2898 13.0383C48.6552 13.0383 48.0767 13.1848 47.5727 13.4412C47.0502 13.7158 46.6582 14.0821 46.3783 14.5582ZM48.114 25.9661H50.0923L59.032 13.1482H57.035L48.114 25.9661ZM50.4656 15.0159C50.7642 15.3272 50.9321 15.7118 50.9321 16.1696C50.9321 16.6457 50.7642 17.0302 50.4656 17.3415C50.1483 17.6528 49.7563 17.7993 49.2898 17.7993C48.8232 17.7993 48.4313 17.6528 48.1326 17.3415C47.8154 17.0302 47.6661 16.6457 47.6661 16.1696C47.6661 15.7118 47.8154 15.3272 48.1326 15.0159C48.4313 14.7047 48.8232 14.5399 49.2898 14.5399C49.7563 14.5399 50.1483 14.7047 50.4656 15.0159ZM54.9074 21.3517C54.6088 21.8277 54.4782 22.3771 54.4782 22.963C54.4782 23.549 54.6088 24.08 54.9074 24.5561C55.1874 25.0322 55.5793 25.4168 56.1019 25.6731C56.6058 25.9478 57.1843 26.076 57.8189 26.076C58.4534 26.076 59.0133 25.9478 59.5359 25.6731C60.0398 25.4168 60.4317 25.0322 60.7304 24.5561C61.0103 24.08 61.1596 23.549 61.1596 22.963C61.1596 22.3771 61.0103 21.8277 60.7304 21.3517C60.4317 20.8756 60.0398 20.5093 59.5359 20.2347C59.0133 19.9783 58.4534 19.8318 57.8189 19.8318C57.1843 19.8318 56.6058 19.9783 56.1019 20.2347C55.5793 20.5093 55.1874 20.8756 54.9074 21.3517ZM58.976 21.7911C59.2746 22.1207 59.4426 22.5053 59.4426 22.963C59.4426 23.4391 59.2746 23.8237 58.976 24.1167C58.6774 24.428 58.2855 24.5744 57.8189 24.5744C57.3336 24.5744 56.9417 24.428 56.6431 24.1167C56.3258 23.8237 56.1765 23.4391 56.1765 22.963C56.1765 22.5053 56.3258 22.1207 56.6431 21.7911C56.9604 21.4798 57.3523 21.315 57.8189 21.315C58.2668 21.315 58.6587 21.4798 58.976 21.7911Z" fill="white"/>
<circle cx="96.154" cy="91.7822" r="12.4944" fill="black"/>
<path d="M99.2401 95.2861C99.4803 94.8858 99.6137 94.4455 99.6137 93.9517C99.6137 93.1378 99.3335 92.5507 98.7731 92.177C98.2127 91.8034 97.4654 91.5366 96.5314 91.3764C95.9443 91.283 95.4772 91.1896 95.1437 91.0829C94.7967 90.9761 94.5299 90.8294 94.3164 90.6292C94.1029 90.429 93.9961 90.1488 93.9961 89.7886C93.9961 89.3082 94.1696 88.9212 94.5432 88.6544C94.9035 88.3875 95.3972 88.2407 96.0243 88.2407C96.6381 88.2407 97.1585 88.4142 97.5855 88.7344C97.9992 89.068 98.2394 89.5083 98.3194 90.0421H99.467C99.4136 89.2948 99.1467 88.681 98.653 88.174C98.146 87.6669 97.5055 87.36 96.7049 87.2399V85.8389H95.6907V87.1999C94.8368 87.2666 94.1429 87.5335 93.6225 88.0139C93.0888 88.4942 92.8352 89.108 92.8352 89.8553C92.8352 90.6826 93.1021 91.2697 93.6625 91.63C94.2096 92.0036 94.9568 92.2571 95.8909 92.4172C96.478 92.524 96.9317 92.6174 97.2786 92.7241C97.6256 92.8309 97.9058 92.9777 98.1193 93.1912C98.3328 93.4047 98.4529 93.6982 98.4529 94.0585C98.4529 94.5655 98.2527 94.9525 97.8524 95.2327C97.4521 95.5129 96.945 95.6464 96.3045 95.6464C95.584 95.6464 94.9969 95.4596 94.5432 95.0859C94.0762 94.7123 93.8226 94.2053 93.7826 93.5648H92.6351C92.6618 94.4188 92.9553 95.1126 93.4891 95.6731C94.0228 96.2335 94.7567 96.5671 95.6907 96.6738V98.0482H96.7049V96.6872C97.2653 96.6471 97.7723 96.5004 98.2127 96.2602C98.653 96.02 98.9999 95.6864 99.2401 95.2861Z" fill="white"/>
<circle cx="12.4944" cy="73.856" r="12.4944" fill="white"/>
<path d="M15.5812 77.3598C15.8214 76.9595 15.9548 76.5192 15.9548 76.0255C15.9548 75.2115 15.6746 74.6244 15.1142 74.2508C14.5537 73.8772 13.8065 73.6103 12.8724 73.4502C12.2853 73.3568 11.8183 73.2634 11.4847 73.1566C11.1378 73.0499 10.8709 72.9031 10.6574 72.7029C10.4439 72.5028 10.3372 72.2226 10.3372 71.8623C10.3372 71.3819 10.5106 70.995 10.8843 70.7281C11.2445 70.4612 11.7382 70.3144 12.3654 70.3144C12.9792 70.3144 13.4996 70.4879 13.9266 70.8081C14.3402 71.1417 14.5804 71.5821 14.6605 72.1158H15.808C15.7547 71.3686 15.4878 70.7548 14.9941 70.2477C14.487 69.7407 13.8465 69.4338 13.0459 69.3137V67.9126H12.0318V69.2736C11.1778 69.3404 10.484 69.6072 9.96356 70.0876C9.42982 70.568 9.17629 71.1818 9.17629 71.929C9.17629 72.7563 9.44316 73.3434 10.0036 73.7037C10.5507 74.0773 11.2979 74.3308 12.232 74.491C12.8191 74.5977 13.2728 74.6911 13.6197 74.7979C13.9666 74.9046 14.2468 75.0514 14.4603 75.2649C14.6738 75.4784 14.7939 75.7719 14.7939 76.1322C14.7939 76.6393 14.5938 77.0262 14.1935 77.3065C13.7932 77.5867 13.2861 77.7201 12.6456 77.7201C11.9251 77.7201 11.3379 77.5333 10.8843 77.1597C10.4172 76.7861 10.1637 76.279 10.1237 75.6385H8.97614C9.00282 76.4925 9.29638 77.1864 9.83012 77.7468C10.3639 78.3072 11.0978 78.6408 12.0318 78.7476V80.1219H13.0459V78.7609C13.6063 78.7209 14.1134 78.5741 14.5537 78.3339C14.9941 78.0937 15.341 77.7601 15.5812 77.3598Z" fill="black"/>
</svg>
