<svg width="122" height="113" viewBox="0 0 122 113" fill="none" xmlns="http://www.w3.org/2000/svg">
<path d="M33.136 48.7742V56.3795L52.1493 63.9848L71.1625 56.3795V48.7742L52.1493 41.1689L33.136 48.7742Z" fill="white"/>
<path d="M33.136 48.7742V56.3795L52.1493 63.9848M33.136 48.7742L52.1493 41.1689L71.1625 48.7742M33.136 48.7742L52.1493 56.3795M71.1625 48.7742V56.3795L52.1493 63.9848M71.1625 48.7742L52.1493 56.3795M52.1493 63.9848V56.3795" stroke="black"/>
<path d="M33.136 63.984V56.3787L52.1493 63.984L71.1625 56.3787V63.984L52.1493 71.5892L33.136 63.984Z" fill="white"/>
<path d="M52.1493 71.5892L71.1625 63.984V56.3787L52.1493 63.984M52.1493 71.5892L33.136 63.984V56.3787L52.1493 63.984M52.1493 71.5892V63.984" stroke="black"/>
<path d="M33.136 71.5902V63.9849L52.1493 71.5902L71.1625 63.9849V71.5902L52.1493 79.1954L33.136 71.5902Z" fill="white"/>
<path d="M52.1493 79.1954L71.1625 71.5902V63.9849L52.1493 71.5902M52.1493 79.1954L33.136 71.5902V63.9849L52.1493 71.5902M52.1493 79.1954V71.5902" stroke="black"/>
<path d="M33.136 79.1949V71.5896L52.1493 79.1949L71.1625 71.5896V79.1949L52.1493 86.8002L33.136 79.1949Z" fill="white"/>
<path d="M52.1493 86.8002L71.1625 79.1949V71.5896L52.1493 79.1949M52.1493 86.8002L33.136 79.1949V71.5896L52.1493 79.1949M52.1493 86.8002V79.1949" stroke="black"/>
<path d="M33.136 86.7999V79.1946L52.1493 86.7999L71.1625 79.1946V86.7999L52.1493 94.4052L33.136 86.7999Z" fill="white"/>
<path d="M52.1493 94.4052L71.1625 86.7999V79.1946L52.1493 86.7999M52.1493 94.4052L33.136 86.7999V79.1946L52.1493 86.7999M52.1493 94.4052V86.7999" stroke="black"/>
<path d="M33.136 94.4061V86.8008L52.1493 94.4061L71.1625 86.8008V94.4061L52.1493 102.011L33.136 94.4061Z" fill="white"/>
<path d="M52.1493 102.011L71.1625 94.4061V86.8008L52.1493 94.4061M52.1493 102.011L33.136 94.4061V86.8008L52.1493 94.4061M52.1493 102.011V94.4061" stroke="black"/>
<path d="M33.136 102.011V94.4055L52.1493 102.011L71.1625 94.4055V102.011L52.1493 109.616L33.136 102.011Z" fill="white"/>
<path d="M52.1493 109.616L71.1625 102.011V94.4055L52.1493 102.011M52.1493 109.616L33.136 102.011V94.4055L52.1493 102.011M52.1493 109.616V102.011" stroke="black"/>
<circle cx="93.9773" cy="40.4738" r="15.2106" fill="white"/>
<path d="M97.7369 44.7393C98.0293 44.2519 98.1918 43.7159 98.1918 43.1148C98.1918 42.1239 97.8507 41.4092 97.1684 40.9543C96.4861 40.4995 95.5765 40.1746 94.4394 39.9797C93.7246 39.866 93.1561 39.7522 92.7499 39.6223C92.3276 39.4923 92.0027 39.3137 91.7428 39.07C91.4829 38.8263 91.3529 38.4852 91.3529 38.0466C91.3529 37.4618 91.5641 36.9907 92.019 36.6658C92.4575 36.3409 93.0586 36.1623 93.8221 36.1623C94.5693 36.1623 95.2028 36.3734 95.7227 36.7633C96.2262 37.1694 96.5186 37.7055 96.6161 38.3552H98.0131C97.9481 37.4456 97.6232 36.6983 97.0222 36.081C96.4049 35.4638 95.6252 35.0901 94.6505 34.9439V33.2383H93.416V34.8952C92.3763 34.9764 91.5316 35.3013 90.8981 35.8861C90.2483 36.4709 89.9397 37.2181 89.9397 38.1278C89.9397 39.135 90.2646 39.8497 90.9468 40.2883C91.6128 40.7432 92.5225 41.0518 93.6596 41.2467C94.3744 41.3767 94.9267 41.4904 95.349 41.6203C95.7714 41.7503 96.1125 41.929 96.3724 42.1889C96.6323 42.4488 96.7785 42.8062 96.7785 43.2448C96.7785 43.8621 96.5349 44.3331 96.0475 44.6743C95.5602 45.0154 94.9429 45.1778 94.1632 45.1778C93.286 45.1778 92.5713 44.9504 92.019 44.4956C91.4504 44.0407 91.1418 43.4235 91.093 42.6437H89.696C89.7285 43.6834 90.0859 44.5281 90.7357 45.2103C91.3854 45.8926 92.2789 46.2987 93.416 46.4287V48.1018H94.6505V46.4449C95.3328 46.3962 95.9501 46.2175 96.4861 45.9251C97.0222 45.6327 97.4446 45.2266 97.7369 44.7393Z" fill="black"/>
<circle cx="10.8348" cy="68.1505" r="10.8348" fill="white"/>
<path d="M13.5117 71.1875C13.72 70.8404 13.8357 70.4585 13.8357 70.0304C13.8357 69.3245 13.5927 68.8154 13.1067 68.4914C12.6207 68.1674 11.9727 67.936 11.1628 67.7971C10.6536 67.7162 10.2486 67.6352 9.95936 67.5426C9.65851 67.45 9.42709 67.3227 9.24195 67.1492C9.05681 66.9756 8.96424 66.7326 8.96424 66.4202C8.96424 66.0036 9.11467 65.6681 9.43866 65.4366C9.75108 65.2052 10.1792 65.0779 10.7231 65.0779C11.2553 65.0779 11.7066 65.2284 12.0769 65.5061C12.4356 65.7953 12.6439 66.1772 12.7133 66.64H13.7084C13.6621 65.992 13.4307 65.4598 13.0026 65.0201C12.5629 64.5804 12.0075 64.3142 11.3132 64.2101V62.9951H10.4338V64.1754C9.69322 64.2332 9.09152 64.4647 8.64025 64.8812C8.1774 65.2978 7.95755 65.8301 7.95755 66.478C7.95755 67.1954 8.18897 67.7046 8.67496 68.017C9.14938 68.341 9.79736 68.5608 10.6073 68.6997C11.1165 68.7923 11.5099 68.8733 11.8107 68.9658C12.1116 69.0584 12.3546 69.1857 12.5397 69.3708C12.7249 69.556 12.829 69.8105 12.829 70.123C12.829 70.5627 12.6554 70.8982 12.3083 71.1412C11.9612 71.3842 11.5215 71.4999 10.9661 71.4999C10.3412 71.4999 9.83208 71.3379 9.43866 71.0139C9.03367 70.6899 8.81381 70.2502 8.7791 69.6948H7.78398C7.80712 70.4354 8.06169 71.0371 8.52454 71.5231C8.98738 72.0091 9.6238 72.2983 10.4338 72.3909V73.5827H11.3132V72.4025C11.7992 72.3678 12.2389 72.2405 12.6207 72.0322C13.0026 71.8239 13.3034 71.5346 13.5117 71.1875Z" fill="black"/>
<circle cx="102.127" cy="93.1693" r="19.5565" fill="white"/>
<path d="M106.958 98.6532C107.333 98.0266 107.542 97.3374 107.542 96.5646C107.542 95.2906 107.104 94.3716 106.227 93.7868C105.349 93.202 104.18 92.7843 102.718 92.5337C101.799 92.3875 101.068 92.2413 100.546 92.0742C100.003 91.9071 99.5849 91.6774 99.2508 91.3641C98.9166 91.0508 98.7495 90.6122 98.7495 90.0483C98.7495 89.2965 99.021 88.6908 99.6058 88.2731C100.17 87.8553 100.943 87.6256 101.924 87.6256C102.885 87.6256 103.699 87.8971 104.368 88.3984C105.015 88.9205 105.391 89.6097 105.516 90.4452H107.313C107.229 89.2756 106.811 88.3148 106.039 87.5212C105.245 86.7275 104.242 86.2472 102.989 86.0592V83.8662H101.402V85.9965C100.065 86.101 98.9793 86.5187 98.1647 87.2706C97.3293 88.0224 96.9325 88.9832 96.9325 90.1528C96.9325 91.4477 97.3502 92.3666 98.2274 92.9305C99.0837 93.5153 100.253 93.9122 101.715 94.1628C102.634 94.3299 103.344 94.4761 103.887 94.6431C104.43 94.8102 104.869 95.04 105.203 95.3741C105.537 95.7083 105.725 96.1678 105.725 96.7317C105.725 97.5254 105.412 98.131 104.785 98.5696C104.159 99.0082 103.365 99.2171 102.363 99.2171C101.235 99.2171 100.316 98.9247 99.6058 98.3399C98.8748 97.7551 98.478 96.9614 98.4154 95.9589H96.6192C96.661 97.2956 97.1205 98.3817 97.9559 99.2589C98.7913 100.136 99.94 100.658 101.402 100.825V102.976H102.989V100.846C103.866 100.783 104.66 100.554 105.349 100.178C106.039 99.8019 106.582 99.2797 106.958 98.6532Z" fill="black"/>
<path d="M52.4875 22.75C52.4875 22.9522 52.6093 23.1345 52.7961 23.2119C52.9829 23.2893 53.198 23.2465 53.341 23.1035L57.1357 19.3089C57.2586 19.1859 57.458 19.1859 57.5809 19.3089C57.7039 19.4318 57.7039 19.6312 57.5809 19.7541L52.3952 24.9398C52.2723 25.0628 52.0729 25.0628 51.95 24.9398L46.7643 19.7541C46.6413 19.6312 46.6413 19.4318 46.7643 19.3089C46.8872 19.1859 47.0866 19.1859 47.2095 19.3089L51.0042 23.1035C51.1472 23.2465 51.3623 23.2893 51.5491 23.2119C51.7359 23.1345 51.8577 22.9522 51.8577 22.75L51.8577 0.814852C51.8577 0.640964 51.9987 0.5 52.1726 0.5C52.3465 0.5 52.4875 0.640964 52.4875 0.814852L52.4875 22.75Z" fill="white" stroke="white" stroke-linejoin="round"/>
</svg>
