<svg width="116" height="116" viewBox="0 0 116 116" fill="none" xmlns="http://www.w3.org/2000/svg">
<path d="M39.1124 53.9302V61.5355L58.1256 69.1408L77.1388 61.5355V53.9302L58.1256 46.325L39.1124 53.9302Z" fill="white"/>
<path d="M39.1124 53.9302V61.5355L58.1256 69.1408M39.1124 53.9302L58.1256 46.325L77.1388 53.9302M39.1124 53.9302L58.1256 61.5355M77.1388 53.9302V61.5355L58.1256 69.1408M77.1388 53.9302L58.1256 61.5355M58.1256 69.1408V61.5355" stroke="black"/>
<path d="M39.1124 69.1407V61.5354L58.1256 69.1407L77.1388 61.5354V69.1407L58.1256 76.746L39.1124 69.1407Z" fill="white"/>
<path d="M58.1256 76.746L77.1388 69.1407V61.5354L58.1256 69.1407M58.1256 76.746L39.1124 69.1407V61.5354L58.1256 69.1407M58.1256 76.746V69.1407" stroke="black"/>
<path d="M39.1124 76.7454V69.1401L58.1256 76.7454L77.1388 69.1401V76.7454L58.1256 84.3507L39.1124 76.7454Z" fill="white"/>
<path d="M58.1256 84.3507L77.1388 76.7454V69.1401L58.1256 76.7454M58.1256 84.3507L39.1124 76.7454V69.1401L58.1256 76.7454M58.1256 84.3507V76.7454" stroke="black"/>
<path d="M39.1124 84.3504V76.7451L58.1256 84.3504L77.1388 76.7451V84.3504L58.1256 91.9557L39.1124 84.3504Z" fill="white"/>
<path d="M58.1256 91.9557L77.1388 84.3504V76.7451L58.1256 84.3504M58.1256 91.9557L39.1124 84.3504V76.7451L58.1256 84.3504M58.1256 91.9557V84.3504" stroke="black"/>
<path d="M39.1124 91.9566V84.3513L58.1256 91.9566L77.1388 84.3513V91.9566L58.1256 99.5619L39.1124 91.9566Z" fill="white"/>
<path d="M58.1256 99.5619L77.1388 91.9566V84.3513L58.1256 91.9566M58.1256 99.5619L39.1124 91.9566V84.3513L58.1256 91.9566M58.1256 99.5619V91.9566" stroke="black"/>
<path d="M39.1124 99.5613V91.9561L58.1256 99.5613L77.1388 91.9561V99.5613L58.1256 107.167L39.1124 99.5613Z" fill="white"/>
<path d="M58.1256 107.167L77.1388 99.5613V91.9561L58.1256 99.5613M58.1256 107.167L39.1124 99.5613V91.9561L58.1256 99.5613M58.1256 107.167V99.5613" stroke="black"/>
<path d="M39.1124 107.166V99.561L58.1256 107.166L77.1388 99.561V107.166L58.1256 114.772L39.1124 107.166Z" fill="white"/>
<path d="M58.1256 114.772L77.1388 107.166V99.561L58.1256 107.166M58.1256 114.772L39.1124 107.166V99.561L58.1256 107.166M58.1256 114.772V107.166" stroke="black"/>
<circle cx="99.9522" cy="45.6315" r="15.2106" fill="black"/>
<path d="M103.711 49.8967C104.003 49.4094 104.166 48.8733 104.166 48.2723C104.166 47.2814 103.825 46.5666 103.142 46.1118C102.46 45.657 101.55 45.3321 100.413 45.1371C99.6986 45.0234 99.13 44.9097 98.7239 44.7798C98.3016 44.6498 97.9767 44.4711 97.7168 44.2275C97.4569 43.9838 97.3269 43.6427 97.3269 43.2041C97.3269 42.6193 97.5381 42.1482 97.9929 41.8233C98.4315 41.4984 99.0326 41.3197 99.796 41.3197C100.543 41.3197 101.177 41.5309 101.697 41.9208C102.2 42.3269 102.493 42.8629 102.59 43.5127H103.987C103.922 42.603 103.597 41.8558 102.996 41.2385C102.379 40.6212 101.599 40.2476 100.624 40.1014V38.3958H99.3899V40.0527C98.3503 40.1339 97.5056 40.4588 96.8721 41.0436C96.2223 41.6284 95.9136 42.3756 95.9136 43.2853C95.9136 44.2924 96.2385 45.0072 96.9208 45.4458C97.5868 45.9006 98.4965 46.2093 99.6336 46.4042C100.348 46.5342 100.901 46.6479 101.323 46.7778C101.745 46.9078 102.086 47.0865 102.346 47.3464C102.606 47.6063 102.753 47.9637 102.753 48.4022C102.753 49.0195 102.509 49.4906 102.022 49.8317C101.534 50.1729 100.917 50.3353 100.137 50.3353C99.26 50.3353 98.5452 50.1079 97.9929 49.6531C97.4244 49.1982 97.1157 48.5809 97.067 47.8012H95.67C95.7025 48.8408 96.0598 49.6855 96.7096 50.3678C97.3594 51.0501 98.2528 51.4562 99.3899 51.5861V53.2593H100.624V51.6024C101.307 51.5536 101.924 51.375 102.46 51.0826C102.996 50.7902 103.419 50.3841 103.711 49.8967Z" fill="white"/>
<circle cx="16.8111" cy="73.3067" r="10.8348" fill="black"/>
<path d="M19.488 76.3445C19.6963 75.9973 19.812 75.6155 19.812 75.1874C19.812 74.4815 19.569 73.9724 19.083 73.6484C18.5971 73.3244 17.9491 73.093 17.1391 72.9541C16.63 72.8731 16.225 72.7921 15.9357 72.6996C15.6348 72.607 15.4034 72.4797 15.2183 72.3061C15.0331 72.1326 14.9406 71.8896 14.9406 71.5772C14.9406 71.1606 15.091 70.825 15.415 70.5936C15.7274 70.3622 16.1555 70.2349 16.6994 70.2349C17.2317 70.2349 17.6829 70.3853 18.0532 70.663C18.4119 70.9523 18.6202 71.3342 18.6896 71.797H19.6848C19.6385 71.149 19.407 70.6168 18.9789 70.1771C18.5392 69.7373 17.9838 69.4712 17.2895 69.3671V68.1521H16.4101V69.3324C15.6696 69.3902 15.0679 69.6216 14.6166 70.0382C14.1537 70.4548 13.9339 70.987 13.9339 71.635C13.9339 72.3524 14.1653 72.8616 14.6513 73.174C15.1257 73.498 15.7737 73.7178 16.5837 73.8567C17.0928 73.9493 17.4862 74.0303 17.7871 74.1228C18.0879 74.2154 18.3309 74.3427 18.5161 74.5278C18.7012 74.7129 18.8053 74.9675 18.8053 75.2799C18.8053 75.7196 18.6318 76.0552 18.2846 76.2982C17.9375 76.5412 17.4978 76.6569 16.9424 76.6569C16.3175 76.6569 15.8084 76.4949 15.415 76.1709C15.01 75.8469 14.7901 75.4072 14.7554 74.8518H13.7603C13.7835 75.5924 14.038 76.1941 14.5009 76.68C14.9637 77.166 15.6001 77.4553 16.4101 77.5479V78.7397H17.2895V77.5595C17.7755 77.5247 18.2152 77.3975 18.5971 77.1892C18.9789 76.9809 19.2798 76.6916 19.488 76.3445Z" fill="white"/>
<circle cx="19.5565" cy="19.5565" r="19.5565" fill="black"/>
<path d="M24.3881 25.0409C24.764 24.4143 24.9729 23.7251 24.9729 22.9523C24.9729 21.6783 24.5343 20.7593 23.6571 20.1745C22.7799 19.5897 21.6103 19.172 20.1483 18.9214C19.2294 18.7752 18.4984 18.629 17.9762 18.4619C17.4332 18.2948 17.0155 18.0651 16.6813 17.7518C16.3472 17.4385 16.1801 16.9999 16.1801 16.436C16.1801 15.6841 16.4516 15.0785 17.0364 14.6608C17.6003 14.243 18.3731 14.0133 19.3547 14.0133C20.3154 14.0133 21.1299 14.2848 21.7983 14.7861C22.4457 15.3082 22.8217 15.9974 22.947 16.8329H24.7431C24.6596 15.6633 24.2419 14.7025 23.4691 13.9089C22.6755 13.1152 21.673 12.6349 20.4198 12.4469V10.2539H18.8325V12.3842C17.4959 12.4887 16.4098 12.9064 15.5953 13.6582C14.7599 14.4101 14.363 15.3709 14.363 16.5405C14.363 17.8354 14.7807 18.7543 15.6579 19.3182C16.5142 19.903 17.6838 20.2998 19.1458 20.5505C20.0648 20.7176 20.7749 20.8638 21.3179 21.0308C21.8609 21.1979 22.2995 21.4277 22.6337 21.7618C22.9679 22.096 23.1558 22.5555 23.1558 23.1194C23.1558 23.913 22.8426 24.5187 22.216 24.9573C21.5894 25.3959 20.7958 25.6048 19.7933 25.6048C18.6654 25.6048 17.7465 25.3124 17.0364 24.7276C16.3054 24.1428 15.9086 23.3491 15.8459 22.3466H14.0497C14.0915 23.6833 14.551 24.7694 15.3864 25.6465C16.2218 26.5237 17.3705 27.0459 18.8325 27.213V29.3642H20.4198V27.2338C21.297 27.1712 22.0907 26.9415 22.7799 26.5655C23.4691 26.1896 24.0121 25.6674 24.3881 25.0409Z" fill="white"/>
<path d="M57.8321 6.58451C57.8321 6.38228 57.7102 6.19996 57.5234 6.12257C57.3366 6.04518 57.1215 6.08796 56.9785 6.23095L53.1839 10.0256C53.0609 10.1486 52.8616 10.1486 52.7386 10.0256C52.6156 9.90265 52.6156 9.70329 52.7386 9.58034L57.9243 4.39465C58.0472 4.27169 58.2466 4.27169 58.3696 4.39465L63.5552 9.58033C63.6782 9.70329 63.6782 9.90265 63.5552 10.0256C63.4323 10.1486 63.2329 10.1486 63.11 10.0256L59.3153 6.23095C59.1723 6.08796 58.9573 6.04518 58.7704 6.12257C58.5836 6.19996 58.4618 6.38228 58.4618 6.58451L58.4618 28.5196C58.4618 28.6935 58.3208 28.8345 58.1469 28.8345C57.973 28.8345 57.8321 28.6935 57.8321 28.5196L57.8321 6.58451Z" fill="black" stroke="black" stroke-linejoin="round"/>
</svg>
