<svg width="139" height="20" viewBox="0 0 139 20" fill="none" xmlns="http://www.w3.org/2000/svg">
<path d="M105.681 19.9994H103.711C102.906 19.9994 102.134 19.6874 101.565 19.132C100.996 18.5765 100.676 17.823 100.675 17.037V2.96247C100.676 2.17717 100.996 1.42439 101.564 0.869096C102.133 0.313801 102.903 0.00127634 103.707 3.90813e-06H105.678C106.076 -0.000628499 106.472 0.0754967 106.84 0.224032C107.209 0.372568 107.544 0.590606 107.827 0.865696C108.109 1.14079 108.334 1.46754 108.487 1.82731C108.64 2.18707 108.719 2.5728 108.72 2.96247V17.037C108.719 17.4264 108.641 17.812 108.488 18.1716C108.335 18.5313 108.111 18.858 107.828 19.1331C107.546 19.4082 107.211 19.6263 106.843 19.7749C106.474 19.9236 106.079 19.9999 105.681 19.9994ZM103.711 1.875C103.416 1.87543 103.134 1.9898 102.926 2.19304C102.718 2.39629 102.601 2.67183 102.601 2.95926V17.0338C102.601 17.3213 102.718 17.5971 102.926 17.8005C103.134 18.0038 103.416 18.118 103.711 18.118H105.681C105.975 18.118 106.258 18.0039 106.466 17.8006C106.675 17.5973 106.792 17.3215 106.792 17.0338V2.96247C106.791 2.67489 106.674 2.39935 106.466 2.19615C106.257 1.99295 105.975 1.87863 105.681 1.87821L103.711 1.875Z" fill="black"/>
<path d="M115.805 19.9994H113.733C112.055 19.9994 110.638 18.6441 110.638 17.0402V13.1089H112.561V17.0402C112.561 17.616 113.109 18.1212 113.733 18.1212H115.805C116.103 18.1214 116.389 18.0089 116.603 17.8073C116.818 17.6056 116.944 17.3307 116.955 17.0402V11.9798C116.943 11.6931 116.815 11.4228 116.6 11.2277C116.384 11.0327 116.099 10.9288 115.805 10.9388H113.733C112.917 10.9326 112.136 10.6143 111.558 10.0521C110.979 9.48986 110.649 8.72857 110.638 7.93145V2.87264C110.638 1.28796 112.027 0 113.733 0H115.805C117.528 0 118.877 1.2623 118.877 2.87264V6.69802H116.955V2.87264C116.955 2.25032 116.37 1.87821 115.805 1.87821H113.733C113.157 1.87821 112.561 2.25032 112.561 2.87264V7.93145C112.576 8.22842 112.705 8.50901 112.922 8.71716C113.139 8.9253 113.429 9.04566 113.733 9.0542H115.805C117.498 9.0542 118.877 10.3646 118.877 11.9734V17.0338C118.872 17.8249 118.546 18.5816 117.97 19.1377C117.394 19.6937 116.615 20.0037 115.805 19.9994Z" fill="black"/>
<path d="M122.732 20H120.809V2.8732C120.809 1.23558 122.088 0.000550014 123.786 0.000550014H125.858C126.249 -0.00692725 126.637 0.0618997 127 0.202992C127.363 0.344085 127.693 0.5546 127.972 0.822184C128.251 1.08977 128.472 1.40903 128.623 1.76123C128.773 2.11344 128.85 2.49149 128.849 2.8732V11.929C128.849 13.6163 127.508 14.9877 125.858 14.9877H122.738L122.732 20ZM122.732 13.1031H125.851C126.421 13.1031 126.92 12.5513 126.92 11.9226V2.8732C126.92 2.28776 126.48 1.87876 125.851 1.87876H123.786C123.648 1.86922 123.51 1.88813 123.38 1.93425C123.25 1.98037 123.131 2.05267 123.032 2.14646C122.932 2.24025 122.854 2.35343 122.803 2.47863C122.751 2.60384 122.727 2.73827 122.732 2.8732V13.1031Z" fill="black"/>
<path d="M139 19.9994H137.077V14.9872H132.692V19.9994H130.763V2.87265C130.763 1.26871 132.106 0 133.822 0H135.894C137.606 0 139 1.28315 139 2.87265V19.9994ZM132.685 13.1025H137.077V2.87265C137.077 2.25834 136.463 1.87821 135.894 1.87821H133.822C133.175 1.87821 132.685 2.30485 132.685 2.87265V13.1025Z" fill="black"/>
<path d="M7.10901 6.59997C7.10901 7.10473 6.98712 7.58092 6.74332 8.02854C6.49953 8.47616 6.10946 8.84282 5.57312 9.12854C5.03677 9.40473 4.34927 9.54282 3.51062 9.54282H1.66755V13.5714H0V3.64282H3.51062C4.29076 3.64282 4.949 3.77615 5.48535 4.04282C6.03145 4.29996 6.43614 4.65235 6.69944 5.09996C6.97249 5.54758 7.10901 6.04758 7.10901 6.59997ZM3.51062 8.21425C4.14449 8.21425 4.61745 8.07616 4.9295 7.79997C5.24156 7.51425 5.39758 7.11425 5.39758 6.59997C5.39758 5.51425 4.7686 4.97139 3.51062 4.97139H1.66755V8.21425H3.51062Z" fill="black"/>
<path d="M12.1954 13.7C11.4348 13.7 10.7473 13.5333 10.1329 13.2C9.51857 12.8571 9.03586 12.3809 8.68479 11.7714C8.33373 11.1523 8.1582 10.4381 8.1582 9.62854C8.1582 8.82854 8.33861 8.11901 8.69942 7.49997C9.06024 6.88092 9.5527 6.40473 10.1768 6.07139C10.8009 5.73806 11.4982 5.57139 12.2686 5.57139C13.0389 5.57139 13.7362 5.73806 14.3603 6.07139C14.9844 6.40473 15.4769 6.88092 15.8377 7.49997C16.1985 8.11901 16.3789 8.82854 16.3789 9.62854C16.3789 10.4285 16.1936 11.1381 15.8231 11.7571C15.4525 12.3762 14.9454 12.8571 14.3018 13.2C13.6679 13.5333 12.9658 13.7 12.1954 13.7ZM12.1954 12.2857C12.6245 12.2857 13.0243 12.1857 13.3949 11.9857C13.7752 11.7857 14.0824 11.4857 14.3164 11.0857C14.5505 10.6857 14.6675 10.2 14.6675 9.62854C14.6675 9.05711 14.5553 8.57616 14.331 8.18568C14.1068 7.78568 13.8093 7.48568 13.4388 7.28568C13.0682 7.08568 12.6684 6.98568 12.2393 6.98568C11.8102 6.98568 11.4104 7.08568 11.0398 7.28568C10.679 7.48568 10.3913 7.78568 10.1768 8.18568C9.96227 8.57616 9.855 9.05711 9.855 9.62854C9.855 10.4762 10.0744 11.1333 10.5132 11.6C10.9618 12.0571 11.5225 12.2857 12.1954 12.2857Z" fill="black"/>
<path d="M28.8518 5.69997L26.3505 13.5714H24.5952L22.9715 7.75711L21.3478 13.5714H19.5925L17.0766 5.69997H18.7734L20.4556 12.0285L22.167 5.69997H23.9077L25.546 12L27.2135 5.69997H28.8518Z" fill="black"/>
<path d="M37.4849 9.44282C37.4849 9.73806 37.4654 10.0047 37.4264 10.2428H31.2682C31.317 10.8714 31.5559 11.3762 31.985 11.7571C32.414 12.1381 32.9406 12.3285 33.5647 12.3285C34.4619 12.3285 35.0958 11.9619 35.4663 11.2285H37.2655C37.0217 11.9523 36.578 12.5476 35.9344 13.0143C35.3005 13.4714 34.5107 13.7 33.5647 13.7C32.7943 13.7 32.102 13.5333 31.4876 13.2C30.883 12.8571 30.4052 12.3809 30.0541 11.7714C29.7128 11.1523 29.5421 10.4381 29.5421 9.62854C29.5421 8.81901 29.7079 8.10949 30.0395 7.49997C30.3808 6.88092 30.8538 6.40473 31.4584 6.07139C32.0727 5.73806 32.7748 5.57139 33.5647 5.57139C34.3254 5.57139 35.0031 5.7333 35.598 6.05711C36.1928 6.38092 36.656 6.83806 36.9876 7.42854C37.3192 8.00949 37.4849 8.68092 37.4849 9.44282ZM35.7442 8.92854C35.7345 8.32854 35.5151 7.84758 35.086 7.48568C34.6569 7.12377 34.1255 6.94282 33.4916 6.94282C32.9162 6.94282 32.4238 7.12377 32.0142 7.48568C31.6046 7.83806 31.3608 8.31901 31.2828 8.92854H35.7442Z" fill="black"/>
<path d="M40.7935 6.84282C41.0373 6.44282 41.3591 6.1333 41.7589 5.91425C42.1685 5.68568 42.6512 5.57139 43.2071 5.57139V7.25711H42.7829C42.1295 7.25711 41.6322 7.41901 41.2908 7.74282C40.9593 8.06663 40.7935 8.62854 40.7935 9.42854V13.5714H39.126V5.69997H40.7935V6.84282Z" fill="black"/>
<path d="M52.1268 9.44282C52.1268 9.73806 52.1073 10.0047 52.0683 10.2428H45.9101C45.9588 10.8714 46.1978 11.3762 46.6268 11.7571C47.0559 12.1381 47.5825 12.3285 48.2066 12.3285C49.1038 12.3285 49.7376 11.9619 50.1082 11.2285H51.9074C51.6636 11.9523 51.2199 12.5476 50.5763 13.0143C49.9424 13.4714 49.1525 13.7 48.2066 13.7C47.4362 13.7 46.7439 13.5333 46.1295 13.2C45.5249 12.8571 45.0471 12.3809 44.696 11.7714C44.3547 11.1523 44.184 10.4381 44.184 9.62854C44.184 8.81901 44.3498 8.10949 44.6814 7.49997C45.0227 6.88092 45.4956 6.40473 46.1002 6.07139C46.7146 5.73806 47.4167 5.57139 48.2066 5.57139C48.9673 5.57139 49.645 5.7333 50.2399 6.05711C50.8347 6.38092 51.2979 6.83806 51.6295 7.42854C51.961 8.00949 52.1268 8.68092 52.1268 9.44282ZM50.3861 8.92854C50.3764 8.32854 50.157 7.84758 49.7279 7.48568C49.2988 7.12377 48.7673 6.94282 48.1335 6.94282C47.5581 6.94282 47.0657 7.12377 46.6561 7.48568C46.2465 7.83806 46.0027 8.31901 45.9247 8.92854H50.3861Z" fill="black"/>
<path d="M53.212 9.59997C53.212 8.80949 53.3778 8.10949 53.7093 7.49997C54.0506 6.89044 54.509 6.41901 55.0843 6.08568C55.6694 5.74282 56.3179 5.57139 57.0298 5.57139C57.5564 5.57139 58.0732 5.68568 58.5803 5.91425C59.0972 6.1333 59.5067 6.42854 59.809 6.79996V2.99997H61.4912V13.5714H59.809V12.3857C59.536 12.7666 59.1557 13.0809 58.6681 13.3285C58.1903 13.5762 57.6393 13.7 57.0152 13.7C56.3131 13.7 55.6694 13.5285 55.0843 13.1857C54.509 12.8333 54.0506 12.3476 53.7093 11.7285C53.3778 11.1 53.212 10.3904 53.212 9.59997ZM59.809 9.62854C59.809 9.08568 59.692 8.61425 59.458 8.21425C59.2337 7.81425 58.9363 7.50949 58.5657 7.29996C58.1951 7.09044 57.7953 6.98568 57.3662 6.98568C56.9372 6.98568 56.5373 7.09044 56.1668 7.29996C55.7962 7.49996 55.4939 7.79997 55.2599 8.19997C55.0356 8.59044 54.9234 9.05711 54.9234 9.59997C54.9234 10.1428 55.0356 10.619 55.2599 11.0285C55.4939 11.4381 55.7962 11.7523 56.1668 11.9714C56.5471 12.1809 56.9469 12.2857 57.3662 12.2857C57.7953 12.2857 58.1951 12.1809 58.5657 11.9714C58.9363 11.7619 59.2337 11.4571 59.458 11.0571C59.692 10.6476 59.809 10.1714 59.809 9.62854Z" fill="black"/>
<path d="M72.9485 6.87139C73.2313 6.49044 73.6165 6.18092 74.1041 5.94282C74.6014 5.6952 75.1524 5.57139 75.757 5.57139C76.4689 5.57139 77.1125 5.73806 77.6879 6.07139C78.2632 6.40473 78.7167 6.88092 79.0482 7.49997C79.3798 8.10949 79.5456 8.80949 79.5456 9.59997C79.5456 10.3904 79.3798 11.1 79.0482 11.7285C78.7167 12.3476 78.2583 12.8333 77.6732 13.1857C77.0979 13.5285 76.4591 13.7 75.757 13.7C75.1329 13.7 74.5771 13.5809 74.0895 13.3428C73.6116 13.1047 73.2313 12.8 72.9485 12.4285V13.5714H71.281V2.99997H72.9485V6.87139ZM77.8488 9.59997C77.8488 9.05711 77.7317 8.59044 77.4977 8.19997C77.2734 7.79997 76.9711 7.49996 76.5908 7.29996C76.2202 7.09044 75.8204 6.98568 75.3913 6.98568C74.972 6.98568 74.5722 7.09044 74.1919 7.29996C73.8213 7.50949 73.519 7.81425 73.285 8.21425C73.0607 8.61425 72.9485 9.08568 72.9485 9.62854C72.9485 10.1714 73.0607 10.6476 73.285 11.0571C73.519 11.4571 73.8213 11.7619 74.1919 11.9714C74.5722 12.1809 74.972 12.2857 75.3913 12.2857C75.8204 12.2857 76.2202 12.1809 76.5908 11.9714C76.9711 11.7523 77.2734 11.4381 77.4977 11.0285C77.7317 10.619 77.8488 10.1428 77.8488 9.59997Z" fill="black"/>
<path d="M88.4499 5.69997L83.5058 17.2714H81.7797L83.418 13.4428L80.2438 5.69997H82.1015L84.3688 11.7L86.7238 5.69997H88.4499Z" fill="black"/>
</svg>
