<svg width="105" height="30" viewBox="0 0 105 30" fill="none" xmlns="http://www.w3.org/2000/svg">
<path d="M12.0746 0H0V29.745H6.35503V19.7592H12.0746C14.1929 19.7592 16.057 19.3768 17.667 18.5694C19.2769 17.762 20.5479 16.6147 21.4376 15.1275C22.3273 13.6402 22.7934 11.898 22.7934 9.90085C22.7934 7.94618 22.3273 6.20397 21.4376 4.67422C20.5479 3.18697 19.2769 2.03966 17.667 1.2323C16.057 0.424929 14.1929 0 12.0746 0ZM6.35503 14.4476V5.31161H11.4814C12.9643 5.31161 14.1505 5.73655 15.0402 6.54391C15.8876 7.39377 16.3536 8.49858 16.3536 9.90085C16.3536 11.3031 15.8876 12.4079 15.0402 13.2153C14.1505 14.0652 12.9643 14.4476 11.4814 14.4476H6.35503Z" fill="black"/>
<path d="M25.8891 0V29.745H31.8629V0H25.8891Z" fill="black"/>
<path d="M57.4634 24.6884H56.7855C56.2771 24.6884 55.9382 24.6034 55.7263 24.3909C55.4721 24.221 55.3874 23.8385 55.3874 23.2861V15.5949C55.3874 13.0453 54.5401 11.0482 52.8454 9.68838C51.1507 8.32861 48.7782 7.64873 45.7278 7.64873C42.7621 7.64873 40.4319 8.28612 38.6525 9.51841C36.8731 10.7507 35.8563 12.4929 35.6868 14.7025H41.4487C41.5758 13.8952 41.9995 13.2578 42.7197 12.7479C43.3976 12.2805 44.3296 12.0255 45.4312 12.0255C46.6598 12.0255 47.6343 12.3229 48.3969 12.9178C49.1171 13.5127 49.4984 14.2776 49.4984 15.255V16.3173H45.177C41.9147 16.3173 39.4151 16.9547 37.7204 18.2295C36.0257 19.5042 35.1784 21.2889 35.1784 23.5836C35.1784 25.6232 35.8986 27.238 37.3815 28.3428C38.8643 29.4476 40.8132 30 43.2705 30C44.8804 30 46.2785 29.7025 47.4648 29.0227C48.6087 28.3853 49.5831 27.4504 50.3881 26.1756C50.3034 28.5552 51.6591 29.745 54.413 29.745H57.4634V24.6884ZM49.4984 20.3116V20.7365C49.456 22.2663 48.99 23.4561 48.1003 24.3484C47.1682 25.2408 45.9396 25.6657 44.4144 25.6657C43.3976 25.6657 42.635 25.4533 42.0418 24.9858C41.4487 24.5609 41.1945 23.9235 41.1945 23.1586C41.1945 22.2663 41.5334 21.5864 42.2113 21.0765C42.8892 20.5666 43.8636 20.3116 45.1346 20.3116H49.4984Z" fill="black"/>
<path d="M77.3142 27.7479C79.1784 26.2181 80.2799 24.136 80.7036 21.4589H74.5604C74.3062 22.6062 73.7978 23.4986 73.0352 24.136C72.2726 24.8159 71.2982 25.1133 70.1543 25.1133C68.5867 25.1133 67.358 24.5609 66.426 23.3711C65.4939 22.2238 65.0279 20.6941 65.0279 18.8244C65.0279 16.9547 65.4939 15.4674 66.426 14.2776C67.358 13.1303 68.5867 12.5354 70.1543 12.5354C71.2558 12.5354 72.2302 12.8754 72.9928 13.5127C73.7554 14.1501 74.2638 15 74.518 16.0623H80.7036C80.2799 13.4278 79.136 11.3881 77.3142 9.90085C75.4501 8.4136 73.0776 7.64873 70.1966 7.64873C67.9088 7.64873 65.9176 8.11615 64.2229 9.05099C62.5282 9.98584 61.2148 11.2606 60.2828 12.9603C59.3507 14.6601 58.927 16.6147 58.927 18.8244C58.927 21.034 59.3507 22.9887 60.2828 24.6884C61.2148 26.3881 62.5282 27.7054 64.2229 28.6402C65.9176 29.5751 67.8664 30 70.1543 30C73.0776 30 75.4501 29.2776 77.3142 27.7479Z" fill="black"/>
<path d="M84.1555 12.9603C83.2234 14.6601 82.7998 16.6147 82.7998 18.8669C82.7998 21.119 83.2658 23.0737 84.1979 24.7734C85.1299 26.4731 86.4857 27.7479 88.2651 28.6402C90.0445 29.5751 92.1205 30 94.5778 30C96.4419 30 98.0942 29.7025 99.5347 29.0227C100.975 28.3428 102.119 27.4504 103.009 26.2606C103.856 25.1133 104.407 23.796 104.661 22.3513H98.7721C98.5179 23.3711 97.9671 24.1785 97.1621 24.6884C96.3572 25.1983 95.3404 25.4533 94.1541 25.4533C92.6289 25.4533 91.4002 25.0283 90.5529 24.0935C89.6632 23.2011 89.1548 21.9688 89.0277 20.3541V20.1841H104.831C104.915 19.5892 105 18.9093 105 18.1445C104.958 16.0198 104.449 14.1926 103.517 12.6204C102.585 11.0482 101.272 9.81586 99.577 8.96601C97.8824 8.11615 95.9759 7.64873 93.7728 7.64873C91.5697 7.64873 89.6632 8.11615 88.0109 9.05099C86.3586 9.98584 85.0876 11.2606 84.1555 12.9603ZM99.0263 16.2748H89.1548C89.3243 15 89.8327 14.0227 90.7224 13.2578C91.6121 12.4929 92.7136 12.1105 94.027 12.1105C95.3827 12.1105 96.4843 12.4929 97.374 13.2153C98.2637 13.9377 98.8144 14.9575 99.0263 16.2748Z" fill="black"/>
</svg>
