<svg width="48" height="48" viewBox="0 0 48 48" fill="none" xmlns="http://www.w3.org/2000/svg">
<g opacity="0.5">
<rect y="48" width="48" height="48" rx="9" transform="rotate(-90 0 48)" fill="white"/>
<path d="M23 33C23 33.5523 23.4477 34 24 34C24.5523 34 25 33.5523 25 33L23 33ZM24.7071 14.2929C24.3166 13.9024 23.6834 13.9024 23.2929 14.2929L16.9289 20.6569C16.5384 21.0474 16.5384 21.6805 16.9289 22.0711C17.3195 22.4616 17.9526 22.4616 18.3431 22.0711L24 16.4142L29.6569 22.0711C30.0474 22.4616 30.6805 22.4616 31.0711 22.0711C31.4616 21.6805 31.4616 21.0474 31.0711 20.6569L24.7071 14.2929ZM25 33L25 15L23 15L23 33L25 33Z" fill="#646464"/>
</g>
</svg>
