<svg width="22" height="16" viewBox="0 0 22 16" fill="none" xmlns="http://www.w3.org/2000/svg">
<path d="M1.29895 7C0.746666 7 0.29895 7.44772 0.29895 8C0.29895 8.55228 0.746665 9 1.29895 9L1.29895 7ZM21.0278 8.70711C21.4183 8.31658 21.4183 7.68342 21.0278 7.2929L14.6638 0.928933C14.2733 0.538409 13.6401 0.538409 13.2496 0.928933C12.8591 1.31946 12.8591 1.95262 13.2496 2.34315L18.9065 8L13.2496 13.6569C12.8591 14.0474 12.8591 14.6805 13.2496 15.0711C13.6401 15.4616 14.2733 15.4616 14.6638 15.0711L21.0278 8.70711ZM1.29895 9L20.3207 9L20.3207 7L1.29895 7L1.29895 9Z" fill="white"/>
</svg>
