<svg width="296" height="228" viewBox="0 0 296 228" fill="none" xmlns="http://www.w3.org/2000/svg">
<path fill-rule="evenodd" clip-rule="evenodd" d="M185.58 2.2334L293.309 63.0952L185.413 214.518L153.481 148.147L2.57428 104.785L92.8606 21.0236L185.58 2.2334ZM154.387 147.723L185.58 212.56L291.495 63.9173L185.838 79.0125L154.387 147.723ZM184.661 79.1807L153.823 146.552L125.478 87.6361L184.661 79.1807ZM185.997 77.9797L289.695 63.1643L185.997 41.4497V77.9797ZM184.997 41.2403V78.1225L125.023 86.6909L106.25 47.6704L136.059 30.9928L184.997 41.2403ZM185.997 40.428L289.527 62.1074L185.997 3.61724V40.428ZM182.461 3.88579L95.5755 21.4937L135.898 29.9373L182.461 3.88579ZM137.388 30.2493L184.997 40.2186V3.61316L137.388 30.2493ZM134.569 30.6807L93.9879 22.183L105.816 46.7676L134.569 30.6807ZM104.941 47.2568L92.9409 22.3132L6.97172 102.069L104.941 47.2568ZM5.947 104.713L152.9 146.94L124.44 87.7844L5.947 104.713ZM6.15129 103.674L123.985 86.8392L105.376 48.1596L6.15129 103.674Z" fill="white"/>
<path d="M6.3219 104.928C6.3219 106.453 5.08563 107.69 3.56061 107.69C2.03559 107.69 0.799316 106.453 0.799316 104.928C0.799316 103.403 2.03559 102.167 3.56061 102.167C5.08563 102.167 6.3219 103.403 6.3219 104.928Z" fill="black"/>
<path d="M96.5223 22.0899C96.5223 23.6149 95.286 24.8512 93.761 24.8512C92.236 24.8512 90.9997 23.6149 90.9997 22.0899C90.9997 20.5649 92.236 19.3286 93.761 19.3286C95.286 19.3286 96.5223 20.5649 96.5223 22.0899Z" fill="black"/>
<path d="M187.645 2.76129C187.645 4.28631 186.409 5.52259 184.884 5.52259C183.359 5.52259 182.122 4.28631 182.122 2.76129C182.122 1.23627 183.359 0 184.884 0C186.409 0 187.645 1.23627 187.645 2.76129Z" fill="black"/>
<path d="M108.489 47.8621C108.489 49.3871 107.253 50.6234 105.728 50.6234C104.203 50.6234 102.966 49.3871 102.966 47.8621C102.966 46.3371 104.203 45.1008 105.728 45.1008C107.253 45.1008 108.489 46.3371 108.489 47.8621Z" fill="black"/>
<path d="M138.868 30.3724C138.868 31.8974 137.632 33.1337 136.107 33.1337C134.582 33.1337 133.345 31.8974 133.345 30.3724C133.345 28.8474 134.582 27.6111 136.107 27.6111C137.632 27.6111 138.868 28.8474 138.868 30.3724Z" fill="black"/>
<path d="M188.568 41.4185C188.568 42.9435 187.332 44.1798 185.807 44.1798C184.282 44.1798 183.046 42.9435 183.046 41.4185C183.046 39.8935 184.282 38.6572 185.807 38.6572C187.332 38.6572 188.568 39.8935 188.568 41.4185Z" fill="black"/>
<path d="M187.645 79.1568C187.645 80.6818 186.409 81.9181 184.884 81.9181C183.359 81.9181 182.123 80.6818 182.123 79.1568C182.123 77.6318 183.359 76.3955 184.884 76.3955C186.409 76.3955 187.645 77.6318 187.645 79.1568Z" fill="black"/>
<path d="M295.338 63.5076C295.338 65.0327 294.102 66.2689 292.577 66.2689C291.052 66.2689 289.816 65.0327 289.816 63.5076C289.816 61.9826 291.052 60.7463 292.577 60.7463C294.102 60.7463 295.338 61.9826 295.338 63.5076Z" fill="black"/>
<path d="M188.572 213.537C188.572 215.062 187.335 216.298 185.81 216.298C184.285 216.298 183.049 215.062 183.049 213.537C183.049 212.012 184.285 210.776 185.81 210.776C187.335 210.776 188.572 212.012 188.572 213.537Z" fill="black"/>
<path d="M126.903 87.4385C126.903 88.9636 125.666 90.1998 124.141 90.1998C122.616 90.1998 121.38 88.9636 121.38 87.4385C121.38 85.9135 122.616 84.6772 124.141 84.6772C125.666 84.6772 126.903 85.9135 126.903 87.4385Z" fill="black"/>
<path d="M155.434 147.268C155.434 148.793 154.198 150.029 152.673 150.029C151.148 150.029 149.912 148.793 149.912 147.268C149.912 145.743 151.148 144.506 152.673 144.506C154.198 144.506 155.434 145.743 155.434 147.268Z" fill="black"/>
<path d="M43.6055 112.135L17.3943 123.368L43.6055 134.601L69.8167 123.368L43.6055 112.135Z" fill="#DADADA" stroke="white"/>
<path d="M69.8121 123.368L43.6009 134.602L69.8121 145.835L96.0233 134.602L69.8121 123.368Z" fill="#DADADA" stroke="white"/>
<path d="M69.8121 100.901L43.6009 112.134L69.8121 123.368L96.0233 112.134L69.8121 100.901Z" fill="#A8A8A8" stroke="white"/>
<path d="M96.0281 112.135L69.8169 123.368L96.0281 134.601L122.239 123.368L96.0281 112.135Z" fill="white" stroke="white"/>
<path d="M96.0281 134.602L69.8169 145.835L96.0281 157.069L122.239 145.835L96.0281 134.602Z" fill="#DADADA" stroke="white"/>
<path d="M122.241 145.836L96.0298 157.069L122.241 168.302L148.452 157.069L122.241 145.836Z" fill="#DADADA" stroke="white"/>
<path d="M122.241 123.368L96.0298 134.602L122.241 145.835L148.452 134.602L122.241 123.368Z" fill="#DADADA" stroke="white"/>
<path d="M148.457 134.602L122.246 145.835L148.457 157.069L174.668 145.835L148.457 134.602Z" fill="#A8A8A8" stroke="white"/>
<path d="M43.6055 157.069L17.3943 168.303L43.6055 179.536L69.8167 168.303L43.6055 157.069Z" fill="#DADADA" stroke="white"/>
<path d="M69.8121 168.3L43.6009 179.533L69.8121 190.767L96.0233 179.533L69.8121 168.3Z" fill="#A8A8A8" stroke="white"/>
<path d="M69.8121 145.836L43.6009 157.069L69.8121 168.302L96.0233 157.069L69.8121 145.836Z" fill="#DADADA" stroke="white"/>
<path d="M96.0281 157.069L69.8169 168.303L96.0281 179.536L122.239 168.303L96.0281 157.069Z" fill="#DADADA" stroke="white"/>
<path d="M96.0281 179.533L69.8169 190.767L96.0281 202L122.239 190.767L96.0281 179.533Z" fill="white" stroke="white"/>
<path d="M148.457 179.533L122.246 190.767L148.457 202L174.668 190.767L148.457 179.533Z" fill="#A8A8A8" stroke="white"/>
<path d="M174.66 168.3L148.449 179.533L174.66 190.767L200.872 179.533L174.66 168.3Z" fill="#DADADA" stroke="white"/>
<path d="M174.66 145.836L148.449 157.069L174.66 168.302L200.872 157.069L174.66 145.836Z" fill="#DADADA" stroke="white"/>
<path d="M200.876 157.069L174.665 168.303L200.876 179.536L227.088 168.303L200.876 157.069Z" fill="#DADADA" stroke="white"/>
<path d="M227.08 145.836L200.869 157.069L227.08 168.302L253.291 157.069L227.08 145.836Z" fill="#A8A8A8" stroke="white"/>
<path d="M227.08 123.368L200.869 134.602L227.08 145.835L253.291 134.602L227.08 123.368Z" fill="#A8A8A8" stroke="white"/>
<path d="M253.296 134.602L227.085 145.835L253.296 157.069L279.507 145.835L253.296 134.602Z" fill="#DADADA" stroke="white"/>
<circle cx="40.9739" cy="109.965" r="11.9741" fill="black"/>
<path d="M43.932 113.324C44.1622 112.941 44.2901 112.519 44.2901 112.046C44.2901 111.265 44.0215 110.703 43.4844 110.345C42.9473 109.987 42.2312 109.731 41.3361 109.577C40.7734 109.488 40.3258 109.398 40.0061 109.296C39.6736 109.194 39.4179 109.053 39.2133 108.861C39.0087 108.67 38.9064 108.401 38.9064 108.056C38.9064 107.595 39.0726 107.225 39.4307 106.969C39.7759 106.713 40.2491 106.572 40.8501 106.572C41.4384 106.572 41.9371 106.739 42.3463 107.045C42.7427 107.365 42.9729 107.787 43.0496 108.299H44.1494C44.0982 107.583 43.8425 106.994 43.3693 106.508C42.8834 106.022 42.2696 105.728 41.5023 105.613V104.271H40.5304V105.575C39.712 105.639 39.047 105.895 38.5483 106.355C38.0368 106.815 37.7938 107.404 37.7938 108.12C37.7938 108.913 38.0496 109.475 38.5867 109.82C39.111 110.179 39.8271 110.421 40.7222 110.575C41.2849 110.677 41.7197 110.767 42.0522 110.869C42.3847 110.971 42.6532 111.112 42.8578 111.317C43.0624 111.521 43.1775 111.803 43.1775 112.148C43.1775 112.634 42.9857 113.005 42.6021 113.273C42.2184 113.542 41.7325 113.67 41.1187 113.67C40.4281 113.67 39.8654 113.491 39.4307 113.133C38.9831 112.774 38.7401 112.289 38.7017 111.675H37.602C37.6276 112.493 37.9089 113.158 38.4204 113.695C38.9319 114.232 39.6353 114.552 40.5304 114.654V115.971H41.5023V114.667C42.0394 114.629 42.5253 114.488 42.9473 114.258C43.3693 114.028 43.7018 113.708 43.932 113.324Z" fill="white"/>
<circle cx="60.1338" cy="146.228" r="18.8165" fill="black"/>
<path d="M64.7874 151.502C65.1491 150.899 65.3501 150.236 65.3501 149.493C65.3501 148.267 64.9281 147.383 64.0841 146.82C63.2401 146.257 62.1148 145.855 60.7081 145.614C59.8239 145.474 59.1206 145.333 58.6182 145.172C58.0957 145.011 57.6938 144.79 57.3723 144.489C57.0508 144.187 56.89 143.765 56.89 143.223C56.89 142.499 57.1512 141.917 57.7139 141.515C58.2565 141.113 59 140.892 59.9445 140.892C60.8689 140.892 61.6526 141.153 62.2956 141.635C62.9186 142.138 63.2803 142.801 63.4009 143.605H65.1291C65.0487 142.479 64.6468 141.555 63.9032 140.791C63.1396 140.028 62.175 139.566 60.9693 139.385V137.275H59.4421V139.324C58.156 139.425 57.111 139.827 56.3273 140.55C55.5235 141.274 55.1417 142.198 55.1417 143.323C55.1417 144.569 55.5436 145.453 56.3876 145.996C57.2115 146.559 58.3368 146.94 59.7435 147.182C60.6277 147.342 61.311 147.483 61.8334 147.644C62.3559 147.805 62.7779 148.026 63.0994 148.347C63.421 148.669 63.6018 149.111 63.6018 149.653C63.6018 150.417 63.3004 151 62.6975 151.422C62.0947 151.844 61.331 152.045 60.3665 152.045C59.2813 152.045 58.3971 151.763 57.7139 151.201C57.0106 150.638 56.6288 149.874 56.5685 148.91H54.8403C54.8805 150.196 55.3226 151.241 56.1264 152.085C56.9302 152.929 58.0354 153.431 59.4421 153.592V155.662H60.9693V153.612C61.8133 153.552 62.577 153.331 63.2401 152.969C63.9032 152.607 64.4257 152.105 64.7874 151.502Z" fill="white"/>
<path d="M66.6388 86.5043C66.6388 86.302 66.517 86.1197 66.3301 86.0423C66.1433 85.9649 65.9282 86.0077 65.7852 86.1507L61.0057 90.9303C60.8001 91.1359 60.4668 91.1359 60.2613 90.9303C60.0557 90.7248 60.0557 90.3915 60.2613 90.1859L66.793 83.6543C66.9985 83.4487 67.3318 83.4487 67.5373 83.6543L74.069 90.1859C74.2746 90.3915 74.2746 90.7248 74.069 90.9303C73.8635 91.1359 73.5302 91.1359 73.3246 90.9303L68.5451 86.1507C68.4021 86.0077 68.187 85.9649 68.0002 86.0423C67.8133 86.1197 67.6915 86.302 67.6915 86.5043L67.6915 114.133C67.6915 114.424 67.4558 114.659 67.1651 114.659C66.8745 114.659 66.6388 114.424 66.6388 114.133L66.6388 86.5043Z" fill="black" stroke="black" stroke-linejoin="round"/>
<circle cx="246.09" cy="136.391" r="11.9741" fill="black"/>
<path d="M249.05 139.751C249.28 139.367 249.408 138.945 249.408 138.472C249.408 137.692 249.139 137.129 248.602 136.771C248.065 136.413 247.349 136.157 246.454 136.004C245.891 135.914 245.444 135.825 245.124 135.722C244.792 135.62 244.536 135.479 244.331 135.288C244.127 135.096 244.024 134.827 244.024 134.482C244.024 134.022 244.191 133.651 244.549 133.395C244.894 133.139 245.367 132.999 245.968 132.999C246.556 132.999 247.055 133.165 247.464 133.472C247.861 133.791 248.091 134.213 248.168 134.725H249.267C249.216 134.009 248.96 133.421 248.487 132.935C248.001 132.449 247.387 132.155 246.62 132.04V130.697H245.648V132.001C244.83 132.065 244.165 132.321 243.666 132.781C243.155 133.242 242.912 133.83 242.912 134.546C242.912 135.339 243.167 135.901 243.705 136.247C244.229 136.605 244.945 136.848 245.84 137.001C246.403 137.104 246.838 137.193 247.17 137.295C247.503 137.398 247.771 137.538 247.976 137.743C248.18 137.948 248.295 138.229 248.295 138.574C248.295 139.06 248.104 139.431 247.72 139.699C247.336 139.968 246.85 140.096 246.237 140.096C245.546 140.096 244.983 139.917 244.549 139.559C244.101 139.201 243.858 138.715 243.82 138.101H242.72C242.745 138.919 243.027 139.584 243.538 140.121C244.05 140.659 244.753 140.978 245.648 141.081V142.398H246.62V141.093C247.157 141.055 247.643 140.914 248.065 140.684C248.487 140.454 248.82 140.134 249.05 139.751Z" fill="white"/>
<path d="M224.031 111.504C224.031 111.302 223.91 111.12 223.723 111.042C223.536 110.965 223.321 111.008 223.178 111.151L218.398 115.93C218.193 116.136 217.859 116.136 217.654 115.93C217.448 115.725 217.448 115.391 217.654 115.186L224.186 108.654C224.391 108.449 224.724 108.449 224.93 108.654L231.462 115.186C231.667 115.391 231.667 115.725 231.462 115.93C231.256 116.136 230.923 116.136 230.717 115.93L225.938 111.151C225.795 111.008 225.58 110.965 225.393 111.042C225.206 111.12 225.084 111.302 225.084 111.504L225.084 139.133C225.084 139.424 224.848 139.659 224.558 139.659C224.267 139.659 224.031 139.424 224.031 139.133L224.031 111.504Z" fill="black" stroke="black" stroke-linejoin="round"/>
<circle cx="168.092" cy="192.391" r="11.9741" fill="black"/>
<path d="M171.051 195.751C171.281 195.367 171.409 194.945 171.409 194.472C171.409 193.692 171.14 193.129 170.603 192.771C170.066 192.413 169.35 192.157 168.455 192.004C167.892 191.914 167.444 191.825 167.125 191.722C166.792 191.62 166.536 191.479 166.332 191.288C166.127 191.096 166.025 190.827 166.025 190.482C166.025 190.022 166.191 189.651 166.549 189.395C166.894 189.139 167.368 188.999 167.969 188.999C168.557 188.999 169.056 189.165 169.465 189.472C169.861 189.791 170.091 190.213 170.168 190.725H171.268C171.217 190.009 170.961 189.421 170.488 188.935C170.002 188.449 169.388 188.155 168.621 188.04V186.697H167.649V188.001C166.831 188.065 166.166 188.321 165.667 188.781C165.155 189.242 164.912 189.83 164.912 190.546C164.912 191.339 165.168 191.901 165.705 192.247C166.23 192.605 166.946 192.848 167.841 193.001C168.403 193.104 168.838 193.193 169.171 193.295C169.503 193.398 169.772 193.538 169.976 193.743C170.181 193.948 170.296 194.229 170.296 194.574C170.296 195.06 170.104 195.431 169.721 195.699C169.337 195.968 168.851 196.096 168.237 196.096C167.547 196.096 166.984 195.917 166.549 195.559C166.102 195.201 165.859 194.715 165.82 194.101H164.721C164.746 194.919 165.027 195.584 165.539 196.121C166.05 196.659 166.754 196.978 167.649 197.081V198.398H168.621V197.093C169.158 197.055 169.644 196.914 170.066 196.684C170.488 196.454 170.82 196.134 171.051 195.751Z" fill="white"/>
<path d="M146.031 167.504C146.031 167.302 145.91 167.12 145.723 167.042C145.536 166.965 145.321 167.008 145.178 167.151L140.398 171.93C140.193 172.136 139.859 172.136 139.654 171.93C139.448 171.725 139.448 171.391 139.654 171.186L146.186 164.654C146.391 164.449 146.724 164.449 146.93 164.654L153.462 171.186C153.667 171.391 153.667 171.725 153.462 171.93C153.256 172.136 152.923 172.136 152.717 171.93L147.938 167.151C147.795 167.008 147.58 166.965 147.393 167.042C147.206 167.12 147.084 167.302 147.084 167.504L147.084 195.133C147.084 195.424 146.848 195.659 146.558 195.659C146.267 195.659 146.031 195.424 146.031 195.133L146.031 167.504Z" fill="black" stroke="black" stroke-linejoin="round"/>
<circle cx="131.326" cy="109.601" r="8.05824" fill="white"/>
<path d="M133.316 111.862C133.471 111.604 133.557 111.32 133.557 111.001C133.557 110.476 133.377 110.098 133.015 109.857C132.654 109.616 132.172 109.444 131.569 109.34C131.191 109.28 130.89 109.22 130.674 109.151C130.451 109.082 130.279 108.988 130.141 108.859C130.003 108.729 129.934 108.549 129.934 108.316C129.934 108.007 130.046 107.757 130.287 107.585C130.519 107.413 130.838 107.318 131.242 107.318C131.638 107.318 131.974 107.43 132.249 107.637C132.516 107.852 132.671 108.136 132.723 108.48H133.463C133.428 107.998 133.256 107.602 132.938 107.275C132.611 106.948 132.198 106.75 131.681 106.673V105.769H131.027V106.647C130.476 106.69 130.029 106.862 129.693 107.172C129.349 107.482 129.186 107.877 129.186 108.359C129.186 108.893 129.358 109.272 129.719 109.504C130.072 109.745 130.554 109.908 131.156 110.012C131.535 110.081 131.828 110.141 132.051 110.21C132.275 110.279 132.456 110.373 132.593 110.511C132.731 110.649 132.809 110.838 132.809 111.07C132.809 111.397 132.68 111.647 132.421 111.828C132.163 112.008 131.836 112.094 131.423 112.094C130.958 112.094 130.58 111.974 130.287 111.733C129.986 111.492 129.822 111.165 129.797 110.752H129.056C129.074 111.303 129.263 111.75 129.607 112.112C129.951 112.473 130.425 112.688 131.027 112.757V113.643H131.681V112.766C132.043 112.74 132.37 112.645 132.654 112.49C132.938 112.335 133.161 112.12 133.316 111.862Z" fill="black"/>
<path d="M115.792 107.148C115.792 107.35 115.914 107.532 116.1 107.61C116.286 107.688 116.501 107.646 116.644 107.503L120.703 103.475C120.849 103.331 121.086 103.331 121.232 103.475C121.375 103.618 121.375 103.847 121.232 103.989L115.685 109.493C115.539 109.638 115.302 109.638 115.156 109.493L109.609 103.989C109.466 103.847 109.466 103.618 109.609 103.475C109.755 103.331 109.992 103.331 110.137 103.475L114.197 107.503C114.34 107.646 114.555 107.688 114.741 107.61C114.927 107.532 115.049 107.35 115.049 107.148L115.049 83.8649C115.049 83.667 115.212 83.5 115.42 83.5C115.629 83.5 115.792 83.667 115.792 83.8649L115.792 107.148Z" fill="white" stroke="white" stroke-linejoin="round"/>
<circle cx="78.0599" cy="219.601" r="8.05824" fill="white"/>
<path d="M80.0506 221.862C80.2055 221.604 80.2916 221.32 80.2916 221.001C80.2916 220.476 80.1109 220.098 79.7494 219.857C79.388 219.616 78.9061 219.444 78.3036 219.34C77.925 219.28 77.6238 219.22 77.4086 219.151C77.1849 219.082 77.0128 218.988 76.8751 218.859C76.7374 218.729 76.6685 218.549 76.6685 218.316C76.6685 218.007 76.7804 217.757 77.0214 217.585C77.2537 217.413 77.5721 217.318 77.9766 217.318C78.3725 217.318 78.7081 217.43 78.9835 217.637C79.2503 217.852 79.4052 218.136 79.4568 218.48H80.1969C80.1625 217.998 79.9904 217.602 79.672 217.275C79.345 216.948 78.9319 216.75 78.4155 216.673V215.769H77.7615V216.647C77.2107 216.69 76.7632 216.862 76.4276 217.172C76.0833 217.482 75.9198 217.877 75.9198 218.359C75.9198 218.893 76.0919 219.272 76.4534 219.504C76.8062 219.745 77.2882 219.908 77.8906 220.012C78.2692 220.081 78.5618 220.141 78.7856 220.21C79.0093 220.279 79.1901 220.373 79.3277 220.511C79.4654 220.649 79.5429 220.838 79.5429 221.07C79.5429 221.397 79.4138 221.647 79.1556 221.828C78.8975 222.008 78.5704 222.094 78.1573 222.094C77.6926 222.094 77.314 221.974 77.0214 221.733C76.7202 221.492 76.5566 221.165 76.5308 220.752H75.7907C75.8079 221.303 75.9973 221.75 76.3415 222.112C76.6857 222.473 77.1591 222.688 77.7615 222.757V223.643H78.4155V222.766C78.777 222.74 79.104 222.645 79.388 222.49C79.672 222.335 79.8957 222.12 80.0506 221.862Z" fill="black"/>
<path d="M97.1984 217.148C97.1984 217.35 97.3198 217.532 97.5061 217.61C97.6925 217.688 97.9072 217.646 98.0505 217.503L102.11 213.475C102.255 213.331 102.493 213.331 102.638 213.475C102.781 213.618 102.781 213.847 102.638 213.989L97.0909 219.493C96.9454 219.638 96.708 219.638 96.5625 219.493L91.0154 213.989C90.8721 213.847 90.8721 213.618 91.0154 213.475C91.1609 213.331 91.3983 213.331 91.5437 213.475L95.6029 217.503C95.7462 217.646 95.9609 217.688 96.1473 217.61C96.3337 217.532 96.4551 217.35 96.4551 217.148L96.4551 193.865C96.4551 193.667 96.6178 193.5 96.8267 193.5C97.0356 193.5 97.1984 193.667 97.1984 193.865L97.1984 217.148Z" fill="white" stroke="white" stroke-linejoin="round"/>
</svg>
