<svg width="295" height="195" viewBox="0 0 295 195" fill="none" xmlns="http://www.w3.org/2000/svg">
<path d="M47.6051 104.135L21.3939 115.368L47.6051 126.601L73.8163 115.368L47.6051 104.135Z" fill="#EFEFEF" stroke="black"/>
<path d="M73.8117 115.368L47.6006 126.602L73.8117 137.835L100.023 126.602L73.8117 115.368Z" fill="#EFEFEF" stroke="black"/>
<path d="M73.8117 92.9009L47.6006 104.134L73.8117 115.368L100.023 104.134L73.8117 92.9009Z" fill="#EFEFEF" stroke="black"/>
<path d="M100.028 104.135L73.8165 115.368L100.028 126.601L126.239 115.368L100.028 104.135Z" fill="#EFEFEF" stroke="black"/>
<path d="M100.028 126.602L73.8165 137.835L100.028 149.069L126.239 137.835L100.028 126.602Z" fill="#EFEFEF" stroke="black"/>
<path d="M126.241 137.836L100.029 149.069L126.241 160.302L152.452 149.069L126.241 137.836Z" fill="#EFEFEF" stroke="black"/>
<path d="M126.241 115.368L100.029 126.602L126.241 137.835L152.452 126.602L126.241 115.368Z" fill="#EFEFEF" stroke="black"/>
<path d="M152.457 126.602L126.245 137.835L152.457 149.069L178.668 137.835L152.457 126.602Z" fill="#EFEFEF" stroke="black"/>
<path d="M47.6051 149.069L21.3939 160.303L47.6051 171.536L73.8163 160.303L47.6051 149.069Z" fill="#EFEFEF" stroke="black"/>
<path d="M73.8117 160.3L47.6006 171.533L73.8117 182.767L100.023 171.533L73.8117 160.3Z" fill="#EFEFEF" stroke="black"/>
<path d="M73.8117 137.836L47.6006 149.069L73.8117 160.302L100.023 149.069L73.8117 137.836Z" fill="#EFEFEF" stroke="black"/>
<path d="M100.028 149.069L73.8165 160.303L100.028 171.536L126.239 160.303L100.028 149.069Z" fill="#EFEFEF" stroke="black"/>
<path d="M100.028 171.533L73.8165 182.767L100.028 194L126.239 182.767L100.028 171.533Z" fill="#EFEFEF" stroke="black"/>
<path d="M152.457 171.533L126.245 182.767L152.457 194L178.668 182.767L152.457 171.533Z" fill="#EFEFEF" stroke="black"/>
<path d="M178.66 160.3L152.449 171.533L178.66 182.767L204.871 171.533L178.66 160.3Z" fill="#EFEFEF" stroke="black"/>
<path d="M178.66 137.836L152.449 149.069L178.66 160.302L204.871 149.069L178.66 137.836Z" fill="#EFEFEF" stroke="black"/>
<path d="M204.876 149.069L178.665 160.303L204.876 171.536L231.087 160.303L204.876 149.069Z" fill="#EFEFEF" stroke="black"/>
<path d="M231.08 137.836L204.868 149.069L231.08 160.302L257.291 149.069L231.08 137.836Z" fill="#EFEFEF" stroke="black"/>
<path d="M231.08 115.368L204.868 126.602L231.08 137.835L257.291 126.602L231.08 115.368Z" fill="#EFEFEF" stroke="black"/>
<path d="M257.296 126.602L231.084 137.835L257.296 149.069L283.507 137.835L257.296 126.602Z" fill="#EFEFEF" stroke="black"/>
<circle cx="11.9741" cy="26.9646" r="11.9741" fill="black"/>
<path d="M14.9322 30.3243C15.1624 29.9407 15.2903 29.5187 15.2903 29.0456C15.2903 28.2655 15.0218 27.7028 14.4847 27.3448C13.9476 26.9867 13.2315 26.7309 12.3363 26.5775C11.7736 26.488 11.3261 26.3985 11.0064 26.2962C10.6739 26.1939 10.4181 26.0532 10.2135 25.8614C10.0089 25.6695 9.9066 25.401 9.9066 25.0557C9.9066 24.5954 10.0728 24.2245 10.4309 23.9688C10.7762 23.713 11.2493 23.5723 11.8504 23.5723C12.4386 23.5723 12.9373 23.7386 13.3465 24.0455C13.743 24.3652 13.9732 24.7872 14.0499 25.2987H15.1496C15.0985 24.5826 14.8427 23.9943 14.3696 23.5084C13.8836 23.0225 13.2698 22.7283 12.5025 22.6132V21.2705H11.5307V22.5749C10.7122 22.6388 10.0473 22.8946 9.54854 23.3549C9.03702 23.8153 8.79405 24.4035 8.79405 25.1197C8.79405 25.9125 9.04981 26.4752 9.5869 26.8205C10.1112 27.1785 10.8273 27.4215 11.7225 27.5749C12.2852 27.6772 12.7199 27.7668 13.0524 27.8691C13.3849 27.9714 13.6535 28.112 13.8581 28.3166C14.0627 28.5213 14.1778 28.8026 14.1778 29.1479C14.1778 29.6338 13.9859 30.0046 13.6023 30.2732C13.2187 30.5417 12.7327 30.6696 12.1189 30.6696C11.4284 30.6696 10.8657 30.4906 10.4309 30.1325C9.98333 29.7745 9.74036 29.2885 9.70199 28.6747H8.60223C8.62781 29.4931 8.90914 30.1581 9.42066 30.6952C9.93218 31.2323 10.6355 31.552 11.5307 31.6543V32.9714H12.5025V31.6671C13.0396 31.6287 13.5256 31.488 13.9476 31.2579C14.3696 31.0277 14.7021 30.708 14.9322 30.3243Z" fill="white"/>
<circle cx="31.1341" cy="63.2281" r="18.8165" fill="black"/>
<path d="M35.7877 68.5021C36.1494 67.8993 36.3503 67.2361 36.3503 66.4926C36.3503 65.2668 35.9283 64.3826 35.0843 63.8199C34.2403 63.2572 33.115 62.8553 31.7083 62.6142C30.8241 62.4735 30.1208 62.3329 29.6184 62.1721C29.096 62.0113 28.694 61.7903 28.3725 61.4889C28.051 61.1874 27.8902 60.7654 27.8902 60.2229C27.8902 59.4994 28.1515 58.9167 28.7141 58.5148C29.2567 58.1129 30.0002 57.8918 30.9447 57.8918C31.8691 57.8918 32.6528 58.153 33.2959 58.6353C33.9188 59.1377 34.2805 59.8009 34.4011 60.6047H36.1293C36.0489 59.4793 35.647 58.555 34.9035 57.7913C34.1399 57.0277 33.1753 56.5655 31.9696 56.3847V54.2747H30.4423V56.3244C29.1562 56.4249 28.1113 56.8268 27.3276 57.5502C26.5238 58.2736 26.1419 59.198 26.1419 60.3233C26.1419 61.5692 26.5439 62.4534 27.3879 62.996C28.2118 63.5587 29.3371 63.9405 30.7438 64.1816C31.628 64.3424 32.3112 64.4831 32.8337 64.6438C33.3562 64.8046 33.7782 65.0256 34.0997 65.3472C34.4212 65.6687 34.6021 66.1108 34.6021 66.6534C34.6021 67.417 34.3006 67.9997 33.6978 68.4217C33.0949 68.8437 32.3313 69.0447 31.3667 69.0447C30.2816 69.0447 29.3974 68.7634 28.7141 68.2007C28.0108 67.638 27.629 66.8744 27.5687 65.9098H25.8405C25.8807 67.1959 26.3228 68.2409 27.1266 69.0849C27.9304 69.9289 29.0357 70.4313 30.4423 70.592V72.6618H31.9696V70.6121C32.8136 70.5518 33.5772 70.3308 34.2403 69.9691C34.9035 69.6074 35.426 69.105 35.7877 68.5021Z" fill="white"/>
<path d="M37.639 3.50428C37.639 3.30205 37.5172 3.11973 37.3304 3.04234C37.1435 2.96495 36.9285 3.00773 36.7855 3.15072L32.0059 7.93031C31.8003 8.13586 31.4671 8.13586 31.2615 7.93031C31.056 7.72475 31.056 7.39148 31.2615 7.18593L37.7932 0.654252C37.9988 0.448697 38.332 0.448697 38.5376 0.654252L45.0693 7.18593C45.2748 7.39148 45.2748 7.72475 45.0693 7.93031C44.8637 8.13586 44.5304 8.13586 44.3249 7.93031L39.5453 3.15072C39.4023 3.00773 39.1872 2.96495 39.0004 3.04234C38.8136 3.11973 38.6917 3.30205 38.6917 3.50428L38.6917 31.1328C38.6917 31.4235 38.4561 31.6592 38.1654 31.6592C37.8747 31.6592 37.639 31.4235 37.639 31.1328L37.639 3.50428Z" fill="black" stroke="black" stroke-linejoin="round"/>
<circle cx="282.99" cy="66.9036" r="11.9741" fill="black"/>
<path d="M285.95 70.2631C286.18 69.8794 286.308 69.4574 286.308 68.9843C286.308 68.2042 286.039 67.6415 285.502 67.2835C284.965 66.9254 284.249 66.6697 283.354 66.5162C282.791 66.4267 282.343 66.3372 282.024 66.2349C281.691 66.1326 281.435 65.9919 281.231 65.8001C281.026 65.6083 280.924 65.3397 280.924 64.9944C280.924 64.5341 281.09 64.1632 281.448 63.9075C281.794 63.6517 282.267 63.5111 282.868 63.5111C283.456 63.5111 283.955 63.6773 284.364 63.9842C284.76 64.3039 284.99 64.7259 285.067 65.2374H286.167C286.116 64.5213 285.86 63.9331 285.387 63.4471C284.901 62.9612 284.287 62.6671 283.52 62.552V61.2092H282.548V62.5136C281.73 62.5775 281.065 62.8333 280.566 63.2937C280.054 63.754 279.811 64.3423 279.811 65.0584C279.811 65.8512 280.067 66.4139 280.604 66.7592C281.129 67.1172 281.845 67.3602 282.74 67.5137C283.302 67.616 283.737 67.7055 284.07 67.8078C284.402 67.9101 284.671 68.0508 284.875 68.2554C285.08 68.46 285.195 68.7413 285.195 69.0866C285.195 69.5725 285.003 69.9434 284.62 70.2119C284.236 70.4805 283.75 70.6083 283.136 70.6083C282.446 70.6083 281.883 70.4293 281.448 70.0712C281.001 69.7132 280.758 69.2272 280.719 68.6134H279.62C279.645 69.4319 279.926 70.0968 280.438 70.6339C280.95 71.171 281.653 71.4907 282.548 71.593V72.9102H283.52V71.6058C284.057 71.5674 284.543 71.4268 284.965 71.1966C285.387 70.9664 285.719 70.6467 285.95 70.2631Z" fill="white"/>
<path d="M260.931 42.0167C260.931 41.8145 260.809 41.6322 260.622 41.5548C260.436 41.4774 260.221 41.5202 260.078 41.6632L255.298 46.4428C255.092 46.6483 254.759 46.6483 254.554 46.4428C254.348 46.2372 254.348 45.9039 254.554 45.6984L261.085 39.1667C261.291 38.9611 261.624 38.9611 261.83 39.1667L268.361 45.6984C268.567 45.9039 268.567 46.2372 268.361 46.4428C268.156 46.6483 267.823 46.6483 267.617 46.4428L262.837 41.6632C262.694 41.5202 262.479 41.4774 262.292 41.5548C262.106 41.6322 261.984 41.8145 261.984 42.0167L261.984 69.6453C261.984 69.936 261.748 70.1716 261.457 70.1716C261.167 70.1716 260.931 69.936 260.931 69.6453L260.931 42.0167Z" fill="black" stroke="black" stroke-linejoin="round"/>
<circle cx="120.969" cy="162.157" r="11.9741" fill="black"/>
<path d="M123.928 165.517C124.158 165.133 124.286 164.711 124.286 164.238C124.286 163.458 124.018 162.895 123.48 162.537C122.943 162.179 122.227 161.924 121.332 161.77C120.769 161.681 120.322 161.591 120.002 161.489C119.67 161.386 119.414 161.246 119.209 161.054C119.005 160.862 118.902 160.594 118.902 160.248C118.902 159.788 119.069 159.417 119.427 159.161C119.772 158.906 120.245 158.765 120.846 158.765C121.434 158.765 121.933 158.931 122.342 159.238C122.739 159.558 122.969 159.98 123.046 160.491H124.145C124.094 159.775 123.839 159.187 123.365 158.701C122.879 158.215 122.266 157.921 121.498 157.806V156.463H120.526V157.768C119.708 157.831 119.043 158.087 118.544 158.548C118.033 159.008 117.79 159.596 117.79 160.312C117.79 161.105 118.046 161.668 118.583 162.013C119.107 162.371 119.823 162.614 120.718 162.768C121.281 162.87 121.716 162.959 122.048 163.062C122.381 163.164 122.649 163.305 122.854 163.509C123.058 163.714 123.174 163.995 123.174 164.34C123.174 164.826 122.982 165.197 122.598 165.466C122.214 165.734 121.729 165.862 121.115 165.862C120.424 165.862 119.861 165.683 119.427 165.325C118.979 164.967 118.736 164.481 118.698 163.867H117.598C117.624 164.686 117.905 165.351 118.416 165.888C118.928 166.425 119.631 166.745 120.526 166.847V168.164H121.498V166.86C122.035 166.821 122.521 166.681 122.943 166.45C123.365 166.22 123.698 165.901 123.928 165.517Z" fill="white"/>
<path d="M98.9089 137.271C98.9089 137.068 98.7871 136.886 98.6002 136.809C98.4134 136.731 98.1983 136.774 98.0553 136.917L93.2758 141.697C93.0702 141.902 92.7369 141.902 92.5314 141.697C92.3258 141.491 92.3258 141.158 92.5314 140.952L99.0631 134.421C99.2686 134.215 99.6019 134.215 99.8074 134.421L106.339 140.952C106.545 141.158 106.545 141.491 106.339 141.697C106.134 141.902 105.8 141.902 105.595 141.697L100.815 136.917C100.672 136.774 100.457 136.731 100.27 136.809C100.083 136.886 99.9616 137.068 99.9616 137.271L99.9616 164.899C99.9616 165.19 99.726 165.426 99.4353 165.426C99.1446 165.426 98.9089 165.19 98.9089 164.899L98.9089 137.271Z" fill="black" stroke="black" stroke-linejoin="round"/>
<circle cx="173.519" cy="70.8192" r="8.05824" fill="black"/>
<path d="M175.51 73.08C175.665 72.8219 175.751 72.5379 175.751 72.2194C175.751 71.6945 175.57 71.3158 175.209 71.0749C174.847 70.8339 174.365 70.6618 173.763 70.5585C173.384 70.4983 173.083 70.438 172.868 70.3692C172.644 70.3003 172.472 70.2057 172.334 70.0766C172.197 69.9475 172.128 69.7668 172.128 69.5344C172.128 69.2246 172.24 68.975 172.481 68.8029C172.713 68.6308 173.031 68.5361 173.436 68.5361C173.832 68.5361 174.167 68.648 174.443 68.8545C174.709 69.0697 174.864 69.3537 174.916 69.6979H175.656C175.622 69.216 175.45 68.8201 175.131 68.4931C174.804 68.1661 174.391 67.9681 173.875 67.8907V66.9871H173.221V67.8649C172.67 67.9079 172.222 68.08 171.887 68.3898C171.542 68.6996 171.379 69.0955 171.379 69.5774C171.379 70.111 171.551 70.4897 171.913 70.722C172.265 70.963 172.747 71.1265 173.35 71.2298C173.728 71.2986 174.021 71.3589 174.245 71.4277C174.468 71.4965 174.649 71.5912 174.787 71.7289C174.925 71.8666 175.002 72.0559 175.002 72.2883C175.002 72.6153 174.873 72.8649 174.615 73.0456C174.357 73.2263 174.03 73.3124 173.616 73.3124C173.152 73.3124 172.773 73.1919 172.481 72.9509C172.179 72.71 172.016 72.383 171.99 71.9699H171.25C171.267 72.5206 171.456 72.9682 171.801 73.3296C172.145 73.691 172.618 73.9062 173.221 73.975V74.8614H173.875V73.9836C174.236 73.9578 174.563 73.8632 174.847 73.7083C175.131 73.5534 175.355 73.3382 175.51 73.08Z" fill="white"/>
<path d="M157.246 47.1711C157.246 46.9692 157.125 46.7872 156.939 46.7095C156.752 46.6319 156.537 46.674 156.394 46.8162L152.335 50.8441C152.19 50.9885 151.952 50.9885 151.807 50.8441C151.663 50.7019 151.663 50.4729 151.807 50.3307L157.354 44.8263C157.499 44.6819 157.737 44.6819 157.882 44.8263L163.429 50.3307C163.573 50.4729 163.573 50.7019 163.429 50.8441C163.284 50.9885 163.046 50.9885 162.901 50.8441L158.842 46.8162C158.699 46.674 158.484 46.6319 158.297 46.7095C158.111 46.7872 157.99 46.9692 157.99 47.1711L157.99 70.4546C157.99 70.6526 157.827 70.8196 157.618 70.8196C157.409 70.8196 157.246 70.6526 157.246 70.4546L157.246 47.1711Z" fill="black" stroke="black" stroke-linejoin="round"/>
<path d="M61.865 106.173V59.0111L74.3571 54.0791L85.6 59.0111V106.173L74.3571 111.543L61.865 106.173Z" fill="white"/>
<path d="M61.865 59.0111V106.173L74.3571 111.543M61.865 59.0111L74.3571 54.0791L85.6 59.0111M61.865 59.0111L74.3571 64.2513M85.6 59.0111V106.173L74.3571 111.543M85.6 59.0111L74.3571 64.2513M74.3571 111.543V64.2513" stroke="black"/>
<path d="M144.314 139.353V98.3426L154.176 94.054L163.052 98.3426V139.353L154.176 144.022L144.314 139.353Z" fill="white"/>
<path d="M144.314 98.3426V139.353L154.176 144.022M144.314 98.3426L154.176 94.054L163.052 98.3426M144.314 98.3426L154.176 102.899M163.052 98.3426V139.353L154.176 144.022M163.052 98.3426L154.176 102.899M154.176 144.022V102.899" stroke="black"/>
<path d="M216.144 148.109L211.771 91.5556L233.896 66.5713L245.5 75.3158L249.872 148.109L233.896 156.515L216.144 148.109Z" fill="white"/>
<path d="M211.771 91.5556L216.144 148.109L233.896 156.515M211.771 91.5556L233.896 66.5713L245.5 75.3158M211.771 91.5556L238.629 84.6849M245.5 75.3158L249.872 148.109L233.896 156.515M245.5 75.3158L238.629 84.6849M233.896 156.515L238.629 84.6849" stroke="black"/>
<path d="M61.8642 172.381V125.219L74.3563 114.666L85.5993 128.407V172.381L74.3563 177.751L61.8642 172.381Z" fill="white"/>
<path d="M61.8642 125.219V172.381L74.3563 177.751M61.8642 125.219L74.3563 114.666L85.5993 128.407M61.8642 125.219L74.3563 144.647M85.5993 128.407V172.381L74.3563 177.751M85.5993 128.407L74.3563 144.647M74.3563 177.751L69.9841 164.01L74.3563 144.647" stroke="black"/>
</svg>
