<svg width="266" height="189" viewBox="0 0 266 189" fill="none" xmlns="http://www.w3.org/2000/svg">
<path d="M28.2112 98.4746L2 109.708L28.2112 120.941L54.4224 109.708L28.2112 98.4746Z" stroke="white"/>
<path d="M54.4178 109.708L28.2066 120.942L54.4178 132.175L80.629 120.942L54.4178 109.708Z" stroke="white"/>
<path d="M54.4178 87.2407L28.2066 98.4741L54.4178 109.707L80.629 98.4741L54.4178 87.2407Z" stroke="white"/>
<path d="M80.6338 98.4746L54.4226 109.708L80.6338 120.941L106.845 109.708L80.6338 98.4746Z" stroke="white"/>
<path d="M80.6338 120.942L54.4226 132.175L80.6338 143.409L106.845 132.175L80.6338 120.942Z" stroke="white"/>
<path d="M106.847 132.176L80.6355 143.409L106.847 154.642L133.058 143.409L106.847 132.176Z" stroke="white"/>
<path d="M106.847 109.708L80.6355 120.942L106.847 132.175L133.058 120.942L106.847 109.708Z" stroke="white"/>
<path d="M133.063 120.942L106.851 132.175L133.063 143.409L159.274 132.175L133.063 120.942Z" stroke="white"/>
<path d="M28.2112 143.409L2 154.643L28.2112 165.876L54.4224 154.643L28.2112 143.409Z" stroke="white"/>
<path d="M54.4178 154.64L28.2066 165.873L54.4178 177.107L80.629 165.873L54.4178 154.64Z" stroke="white"/>
<path d="M54.4178 132.176L28.2066 143.409L54.4178 154.642L80.629 143.409L54.4178 132.176Z" stroke="white"/>
<path d="M80.6338 143.409L54.4226 154.643L80.6338 165.876L106.845 154.643L80.6338 143.409Z" stroke="white"/>
<path d="M80.6338 165.873L54.4226 177.107L80.6338 188.34L106.845 177.107L80.6338 165.873Z" stroke="white"/>
<path d="M133.063 165.873L106.851 177.107L133.063 188.34L159.274 177.107L133.063 165.873Z" stroke="white"/>
<path d="M159.266 154.64L133.055 165.873L159.266 177.107L185.477 165.873L159.266 154.64Z" stroke="white"/>
<path d="M159.266 132.176L133.055 143.409L159.266 154.642L185.477 143.409L159.266 132.176Z" stroke="white"/>
<path d="M185.482 143.409L159.271 154.643L185.482 165.876L211.693 154.643L185.482 143.409Z" stroke="white"/>
<path d="M211.686 132.176L185.474 143.409L211.686 154.642L237.897 143.409L211.686 132.176Z" stroke="white"/>
<path d="M211.686 109.708L185.474 120.942L211.686 132.175L237.897 120.942L211.686 109.708Z" stroke="white"/>
<path d="M237.902 120.942L211.69 132.175L237.902 143.409L264.113 132.175L237.902 120.942Z" stroke="white"/>
<path d="M42.4711 100.513V53.3511L54.9632 48.4192L66.2061 53.3511V100.513L54.9632 105.883L42.4711 100.513Z" fill="white"/>
<path d="M42.4711 53.3511V100.513L54.9632 105.883M42.4711 53.3511L54.9632 48.4192L66.2061 53.3511M42.4711 53.3511L54.9632 58.5914M66.2061 53.3511V100.513L54.9632 105.883M66.2061 53.3511L54.9632 58.5914M54.9632 105.883V58.5914" stroke="black"/>
<path d="M124.92 133.693V92.6827L134.782 88.394L143.658 92.6827V133.693L134.782 138.363L124.92 133.693Z" fill="white"/>
<path d="M124.92 92.6827V133.693L134.782 138.363M124.92 92.6827L134.782 88.394L143.658 92.6827M124.92 92.6827L134.782 97.2394M143.658 92.6827V133.693L134.782 138.363M143.658 92.6827L134.782 97.2394M134.782 138.363V97.2394" stroke="black"/>
<path d="M196.75 142.45L192.377 85.8956L214.502 60.9114L226.106 69.6559L230.478 142.45L214.502 150.855L196.75 142.45Z" fill="white"/>
<path d="M192.377 85.8956L196.75 142.45L214.502 150.855M192.377 85.8956L214.502 60.9114L226.106 69.6559M192.377 85.8956L219.235 79.025M226.106 69.6559L230.478 142.45L214.502 150.855M226.106 69.6559L219.235 79.025M214.502 150.855L219.235 79.025" stroke="black"/>
<path d="M42.4703 166.721V119.56L54.9624 109.006L66.2053 122.747V166.721L54.9624 172.091L42.4703 166.721Z" fill="white"/>
<path d="M42.4703 119.56V166.721L54.9624 172.091M42.4703 119.56L54.9624 109.006L66.2053 122.747M42.4703 119.56L54.9624 138.987M66.2053 122.747V166.721L54.9624 172.091M66.2053 122.747L54.9624 138.987M54.9624 172.091L50.5902 158.35L54.9624 138.987" stroke="black"/>
<path d="M205.743 13.65C205.743 12.5033 205.93 11.61 206.303 10.97C206.676 10.3233 207.33 10 208.263 10C209.19 10 209.84 10.3233 210.213 10.97C210.586 11.61 210.773 12.5033 210.773 13.65C210.773 14.8167 210.586 15.7233 210.213 16.37C209.84 17.0167 209.19 17.34 208.263 17.34C207.33 17.34 206.676 17.0167 206.303 16.37C205.93 15.7233 205.743 14.8167 205.743 13.65ZM209.873 13.65C209.873 13.07 209.833 12.58 209.753 12.18C209.68 11.7733 209.523 11.4467 209.283 11.2C209.05 10.9533 208.71 10.83 208.263 10.83C207.81 10.83 207.463 10.9533 207.223 11.2C206.99 11.4467 206.833 11.7733 206.753 12.18C206.68 12.58 206.643 13.07 206.643 13.65C206.643 14.25 206.68 14.7533 206.753 15.16C206.833 15.5667 206.99 15.8933 207.223 16.14C207.463 16.3867 207.81 16.51 208.263 16.51C208.71 16.51 209.05 16.3867 209.283 16.14C209.523 15.8933 209.68 15.5667 209.753 15.16C209.833 14.7533 209.873 14.25 209.873 13.65Z" fill="black"/>
<path d="M211.782 10.94V10.11H213.662V17.34H212.742V10.94H211.782Z" fill="black"/>
<path d="M215.225 13.65C215.225 12.5033 215.412 11.61 215.785 10.97C216.159 10.3233 216.812 10 217.745 10C218.672 10 219.322 10.3233 219.695 10.97C220.069 11.61 220.255 12.5033 220.255 13.65C220.255 14.8167 220.069 15.7233 219.695 16.37C219.322 17.0167 218.672 17.34 217.745 17.34C216.812 17.34 216.159 17.0167 215.785 16.37C215.412 15.7233 215.225 14.8167 215.225 13.65ZM219.355 13.65C219.355 13.07 219.315 12.58 219.235 12.18C219.162 11.7733 219.005 11.4467 218.765 11.2C218.532 10.9533 218.192 10.83 217.745 10.83C217.292 10.83 216.945 10.9533 216.705 11.2C216.472 11.4467 216.315 11.7733 216.235 12.18C216.162 12.58 216.125 13.07 216.125 13.65C216.125 14.25 216.162 14.7533 216.235 15.16C216.315 15.5667 216.472 15.8933 216.705 16.14C216.945 16.3867 217.292 16.51 217.745 16.51C218.192 16.51 218.532 16.3867 218.765 16.14C219.005 15.8933 219.162 15.5667 219.235 15.16C219.315 14.7533 219.355 14.25 219.355 13.65Z" fill="black"/>
<path d="M221.265 10.94V10.11H223.145V17.34H222.225V10.94H221.265Z" fill="black"/>
<path d="M205.743 27.65C205.743 26.5033 205.93 25.61 206.303 24.97C206.676 24.3233 207.33 24 208.263 24C209.19 24 209.84 24.3233 210.213 24.97C210.586 25.61 210.773 26.5033 210.773 27.65C210.773 28.8167 210.586 29.7233 210.213 30.37C209.84 31.0167 209.19 31.34 208.263 31.34C207.33 31.34 206.676 31.0167 206.303 30.37C205.93 29.7233 205.743 28.8167 205.743 27.65ZM209.873 27.65C209.873 27.07 209.833 26.58 209.753 26.18C209.68 25.7733 209.523 25.4467 209.283 25.2C209.05 24.9533 208.71 24.83 208.263 24.83C207.81 24.83 207.463 24.9533 207.223 25.2C206.99 25.4467 206.833 25.7733 206.753 26.18C206.68 26.58 206.643 27.07 206.643 27.65C206.643 28.25 206.68 28.7533 206.753 29.16C206.833 29.5667 206.99 29.8933 207.223 30.14C207.463 30.3867 207.81 30.51 208.263 30.51C208.71 30.51 209.05 30.3867 209.283 30.14C209.523 29.8933 209.68 29.5667 209.753 29.16C209.833 28.7533 209.873 28.25 209.873 27.65Z" fill="black"/>
<path d="M211.782 24.94V24.11H213.662V31.34H212.742V24.94H211.782Z" fill="black"/>
<path d="M214.985 24.94V24.11H216.865V31.34H215.945V24.94H214.985Z" fill="black"/>
<path d="M218.429 27.65C218.429 26.5033 218.615 25.61 218.989 24.97C219.362 24.3233 220.015 24 220.949 24C221.875 24 222.525 24.3233 222.899 24.97C223.272 25.61 223.459 26.5033 223.459 27.65C223.459 28.8167 223.272 29.7233 222.899 30.37C222.525 31.0167 221.875 31.34 220.949 31.34C220.015 31.34 219.362 31.0167 218.989 30.37C218.615 29.7233 218.429 28.8167 218.429 27.65ZM222.559 27.65C222.559 27.07 222.519 26.58 222.439 26.18C222.365 25.7733 222.209 25.4467 221.969 25.2C221.735 24.9533 221.395 24.83 220.949 24.83C220.495 24.83 220.149 24.9533 219.909 25.2C219.675 25.4467 219.519 25.7733 219.439 26.18C219.365 26.58 219.329 27.07 219.329 27.65C219.329 28.25 219.365 28.7533 219.439 29.16C219.519 29.5667 219.675 29.8933 219.909 30.14C220.149 30.3867 220.495 30.51 220.949 30.51C221.395 30.51 221.735 30.3867 221.969 30.14C222.209 29.8933 222.365 29.5667 222.439 29.16C222.519 28.7533 222.559 28.25 222.559 27.65Z" fill="black"/>
<path d="M205.743 41.65C205.743 40.5033 205.93 39.61 206.303 38.97C206.676 38.3233 207.33 38 208.263 38C209.19 38 209.84 38.3233 210.213 38.97C210.586 39.61 210.773 40.5033 210.773 41.65C210.773 42.8167 210.586 43.7233 210.213 44.37C209.84 45.0167 209.19 45.34 208.263 45.34C207.33 45.34 206.676 45.0167 206.303 44.37C205.93 43.7233 205.743 42.8167 205.743 41.65ZM209.873 41.65C209.873 41.07 209.833 40.58 209.753 40.18C209.68 39.7733 209.523 39.4467 209.283 39.2C209.05 38.9533 208.71 38.83 208.263 38.83C207.81 38.83 207.463 38.9533 207.223 39.2C206.99 39.4467 206.833 39.7733 206.753 40.18C206.68 40.58 206.643 41.07 206.643 41.65C206.643 42.25 206.68 42.7533 206.753 43.16C206.833 43.5667 206.99 43.8933 207.223 44.14C207.463 44.3867 207.81 44.51 208.263 44.51C208.71 44.51 209.05 44.3867 209.283 44.14C209.523 43.8933 209.68 43.5667 209.753 43.16C209.833 42.7533 209.873 42.25 209.873 41.65Z" fill="black"/>
<path d="M212.022 41.65C212.022 40.5033 212.209 39.61 212.582 38.97C212.956 38.3233 213.609 38 214.542 38C215.469 38 216.119 38.3233 216.492 38.97C216.866 39.61 217.052 40.5033 217.052 41.65C217.052 42.8167 216.866 43.7233 216.492 44.37C216.119 45.0167 215.469 45.34 214.542 45.34C213.609 45.34 212.956 45.0167 212.582 44.37C212.209 43.7233 212.022 42.8167 212.022 41.65ZM216.152 41.65C216.152 41.07 216.112 40.58 216.032 40.18C215.959 39.7733 215.802 39.4467 215.562 39.2C215.329 38.9533 214.989 38.83 214.542 38.83C214.089 38.83 213.742 38.9533 213.502 39.2C213.269 39.4467 213.112 39.7733 213.032 40.18C212.959 40.58 212.922 41.07 212.922 41.65C212.922 42.25 212.959 42.7533 213.032 43.16C213.112 43.5667 213.269 43.8933 213.502 44.14C213.742 44.3867 214.089 44.51 214.542 44.51C214.989 44.51 215.329 44.3867 215.562 44.14C215.802 43.8933 215.959 43.5667 216.032 43.16C216.112 42.7533 216.152 42.25 216.152 41.65Z" fill="black"/>
<path d="M218.062 38.94V38.11H219.942V45.34H219.022V38.94H218.062Z" fill="black"/>
<path d="M221.265 38.94V38.11H223.145V45.34H222.225V38.94H221.265Z" fill="black"/>
<path d="M125.743 41.65C125.743 40.5033 125.93 39.61 126.303 38.97C126.676 38.3233 127.33 38 128.263 38C129.19 38 129.84 38.3233 130.213 38.97C130.586 39.61 130.773 40.5033 130.773 41.65C130.773 42.8167 130.586 43.7233 130.213 44.37C129.84 45.0167 129.19 45.34 128.263 45.34C127.33 45.34 126.676 45.0167 126.303 44.37C125.93 43.7233 125.743 42.8167 125.743 41.65ZM129.873 41.65C129.873 41.07 129.833 40.58 129.753 40.18C129.68 39.7733 129.523 39.4467 129.283 39.2C129.05 38.9533 128.71 38.83 128.263 38.83C127.81 38.83 127.463 38.9533 127.223 39.2C126.99 39.4467 126.833 39.7733 126.753 40.18C126.68 40.58 126.643 41.07 126.643 41.65C126.643 42.25 126.68 42.7533 126.753 43.16C126.833 43.5667 126.99 43.8933 127.223 44.14C127.463 44.3867 127.81 44.51 128.263 44.51C128.71 44.51 129.05 44.3867 129.283 44.14C129.523 43.8933 129.68 43.5667 129.753 43.16C129.833 42.7533 129.873 42.25 129.873 41.65Z" fill="black"/>
<path d="M131.782 38.94V38.11H133.662V45.34H132.742V38.94H131.782Z" fill="black"/>
<path d="M135.225 41.65C135.225 40.5033 135.412 39.61 135.785 38.97C136.159 38.3233 136.812 38 137.745 38C138.672 38 139.322 38.3233 139.695 38.97C140.069 39.61 140.255 40.5033 140.255 41.65C140.255 42.8167 140.069 43.7233 139.695 44.37C139.322 45.0167 138.672 45.34 137.745 45.34C136.812 45.34 136.159 45.0167 135.785 44.37C135.412 43.7233 135.225 42.8167 135.225 41.65ZM139.355 41.65C139.355 41.07 139.315 40.58 139.235 40.18C139.162 39.7733 139.005 39.4467 138.765 39.2C138.532 38.9533 138.192 38.83 137.745 38.83C137.292 38.83 136.945 38.9533 136.705 39.2C136.472 39.4467 136.315 39.7733 136.235 40.18C136.162 40.58 136.125 41.07 136.125 41.65C136.125 42.25 136.162 42.7533 136.235 43.16C136.315 43.5667 136.472 43.8933 136.705 44.14C136.945 44.3867 137.292 44.51 137.745 44.51C138.192 44.51 138.532 44.3867 138.765 44.14C139.005 43.8933 139.162 43.5667 139.235 43.16C139.315 42.7533 139.355 42.25 139.355 41.65Z" fill="black"/>
<path d="M141.265 38.94V38.11H143.145V45.34H142.225V38.94H141.265Z" fill="black"/>
<path d="M125.743 55.65C125.743 54.5033 125.93 53.61 126.303 52.97C126.676 52.3233 127.33 52 128.263 52C129.19 52 129.84 52.3233 130.213 52.97C130.586 53.61 130.773 54.5033 130.773 55.65C130.773 56.8167 130.586 57.7233 130.213 58.37C129.84 59.0167 129.19 59.34 128.263 59.34C127.33 59.34 126.676 59.0167 126.303 58.37C125.93 57.7233 125.743 56.8167 125.743 55.65ZM129.873 55.65C129.873 55.07 129.833 54.58 129.753 54.18C129.68 53.7733 129.523 53.4467 129.283 53.2C129.05 52.9533 128.71 52.83 128.263 52.83C127.81 52.83 127.463 52.9533 127.223 53.2C126.99 53.4467 126.833 53.7733 126.753 54.18C126.68 54.58 126.643 55.07 126.643 55.65C126.643 56.25 126.68 56.7533 126.753 57.16C126.833 57.5667 126.99 57.8933 127.223 58.14C127.463 58.3867 127.81 58.51 128.263 58.51C128.71 58.51 129.05 58.3867 129.283 58.14C129.523 57.8933 129.68 57.5667 129.753 57.16C129.833 56.7533 129.873 56.25 129.873 55.65Z" fill="black"/>
<path d="M131.782 52.94V52.11H133.662V59.34H132.742V52.94H131.782Z" fill="black"/>
<path d="M134.985 52.94V52.11H136.865V59.34H135.945V52.94H134.985Z" fill="black"/>
<path d="M138.429 55.65C138.429 54.5033 138.615 53.61 138.989 52.97C139.362 52.3233 140.015 52 140.949 52C141.875 52 142.525 52.3233 142.899 52.97C143.272 53.61 143.459 54.5033 143.459 55.65C143.459 56.8167 143.272 57.7233 142.899 58.37C142.525 59.0167 141.875 59.34 140.949 59.34C140.015 59.34 139.362 59.0167 138.989 58.37C138.615 57.7233 138.429 56.8167 138.429 55.65ZM142.559 55.65C142.559 55.07 142.519 54.58 142.439 54.18C142.365 53.7733 142.209 53.4467 141.969 53.2C141.735 52.9533 141.395 52.83 140.949 52.83C140.495 52.83 140.149 52.9533 139.909 53.2C139.675 53.4467 139.519 53.7733 139.439 54.18C139.365 54.58 139.329 55.07 139.329 55.65C139.329 56.25 139.365 56.7533 139.439 57.16C139.519 57.5667 139.675 57.8933 139.909 58.14C140.149 58.3867 140.495 58.51 140.949 58.51C141.395 58.51 141.735 58.3867 141.969 58.14C142.209 57.8933 142.365 57.5667 142.439 57.16C142.519 56.7533 142.559 56.25 142.559 55.65Z" fill="black"/>
<path d="M125.743 69.65C125.743 68.5033 125.93 67.61 126.303 66.97C126.676 66.3233 127.33 66 128.263 66C129.19 66 129.84 66.3233 130.213 66.97C130.586 67.61 130.773 68.5033 130.773 69.65C130.773 70.8167 130.586 71.7233 130.213 72.37C129.84 73.0167 129.19 73.34 128.263 73.34C127.33 73.34 126.676 73.0167 126.303 72.37C125.93 71.7233 125.743 70.8167 125.743 69.65ZM129.873 69.65C129.873 69.07 129.833 68.58 129.753 68.18C129.68 67.7733 129.523 67.4467 129.283 67.2C129.05 66.9533 128.71 66.83 128.263 66.83C127.81 66.83 127.463 66.9533 127.223 67.2C126.99 67.4467 126.833 67.7733 126.753 68.18C126.68 68.58 126.643 69.07 126.643 69.65C126.643 70.25 126.68 70.7533 126.753 71.16C126.833 71.5667 126.99 71.8933 127.223 72.14C127.463 72.3867 127.81 72.51 128.263 72.51C128.71 72.51 129.05 72.3867 129.283 72.14C129.523 71.8933 129.68 71.5667 129.753 71.16C129.833 70.7533 129.873 70.25 129.873 69.65Z" fill="black"/>
<path d="M132.022 69.65C132.022 68.5033 132.209 67.61 132.582 66.97C132.956 66.3233 133.609 66 134.542 66C135.469 66 136.119 66.3233 136.492 66.97C136.866 67.61 137.052 68.5033 137.052 69.65C137.052 70.8167 136.866 71.7233 136.492 72.37C136.119 73.0167 135.469 73.34 134.542 73.34C133.609 73.34 132.956 73.0167 132.582 72.37C132.209 71.7233 132.022 70.8167 132.022 69.65ZM136.152 69.65C136.152 69.07 136.112 68.58 136.032 68.18C135.959 67.7733 135.802 67.4467 135.562 67.2C135.329 66.9533 134.989 66.83 134.542 66.83C134.089 66.83 133.742 66.9533 133.502 67.2C133.269 67.4467 133.112 67.7733 133.032 68.18C132.959 68.58 132.922 69.07 132.922 69.65C132.922 70.25 132.959 70.7533 133.032 71.16C133.112 71.5667 133.269 71.8933 133.502 72.14C133.742 72.3867 134.089 72.51 134.542 72.51C134.989 72.51 135.329 72.3867 135.562 72.14C135.802 71.8933 135.959 71.5667 136.032 71.16C136.112 70.7533 136.152 70.25 136.152 69.65Z" fill="black"/>
<path d="M138.062 66.94V66.11H139.942V73.34H139.022V66.94H138.062Z" fill="black"/>
<path d="M141.265 66.94V66.11H143.145V73.34H142.225V66.94H141.265Z" fill="black"/>
<path d="M45.743 3.65C45.743 2.50333 45.9297 1.61 46.303 0.97C46.6764 0.323333 47.3297 0 48.263 0C49.1897 0 49.8397 0.323333 50.213 0.97C50.5864 1.61 50.773 2.50333 50.773 3.65C50.773 4.81667 50.5864 5.72333 50.213 6.37C49.8397 7.01667 49.1897 7.34 48.263 7.34C47.3297 7.34 46.6764 7.01667 46.303 6.37C45.9297 5.72333 45.743 4.81667 45.743 3.65ZM49.873 3.65C49.873 3.07 49.833 2.58 49.753 2.18C49.6797 1.77333 49.523 1.44667 49.283 1.2C49.0497 0.953333 48.7097 0.83 48.263 0.83C47.8097 0.83 47.463 0.953333 47.223 1.2C46.9897 1.44667 46.833 1.77333 46.753 2.18C46.6797 2.58 46.643 3.07 46.643 3.65C46.643 4.25 46.6797 4.75333 46.753 5.16C46.833 5.56667 46.9897 5.89333 47.223 6.14C47.463 6.38667 47.8097 6.51 48.263 6.51C48.7097 6.51 49.0497 6.38667 49.283 6.14C49.523 5.89333 49.6797 5.56667 49.753 5.16C49.833 4.75333 49.873 4.25 49.873 3.65Z" fill="black"/>
<path d="M51.7823 0.94V0.11H53.6623V7.34H52.7423V0.94H51.7823Z" fill="black"/>
<path d="M55.2255 3.65C55.2255 2.50333 55.4121 1.61 55.7855 0.97C56.1588 0.323333 56.8121 0 57.7455 0C58.6721 0 59.3221 0.323333 59.6955 0.97C60.0688 1.61 60.2555 2.50333 60.2555 3.65C60.2555 4.81667 60.0688 5.72333 59.6955 6.37C59.3221 7.01667 58.6721 7.34 57.7455 7.34C56.8121 7.34 56.1588 7.01667 55.7855 6.37C55.4121 5.72333 55.2255 4.81667 55.2255 3.65ZM59.3555 3.65C59.3555 3.07 59.3155 2.58 59.2355 2.18C59.1621 1.77333 59.0055 1.44667 58.7655 1.2C58.5321 0.953333 58.1921 0.83 57.7455 0.83C57.2921 0.83 56.9455 0.953333 56.7055 1.2C56.4721 1.44667 56.3155 1.77333 56.2355 2.18C56.1621 2.58 56.1255 3.07 56.1255 3.65C56.1255 4.25 56.1621 4.75333 56.2355 5.16C56.3155 5.56667 56.4721 5.89333 56.7055 6.14C56.9455 6.38667 57.2921 6.51 57.7455 6.51C58.1921 6.51 58.5321 6.38667 58.7655 6.14C59.0055 5.89333 59.1621 5.56667 59.2355 5.16C59.3155 4.75333 59.3555 4.25 59.3555 3.65Z" fill="black"/>
<path d="M61.2648 0.94V0.11H63.1448V7.34H62.2248V0.94H61.2648Z" fill="black"/>
<path d="M45.743 17.65C45.743 16.5033 45.9297 15.61 46.303 14.97C46.6764 14.3233 47.3297 14 48.263 14C49.1897 14 49.8397 14.3233 50.213 14.97C50.5864 15.61 50.773 16.5033 50.773 17.65C50.773 18.8167 50.5864 19.7233 50.213 20.37C49.8397 21.0167 49.1897 21.34 48.263 21.34C47.3297 21.34 46.6764 21.0167 46.303 20.37C45.9297 19.7233 45.743 18.8167 45.743 17.65ZM49.873 17.65C49.873 17.07 49.833 16.58 49.753 16.18C49.6797 15.7733 49.523 15.4467 49.283 15.2C49.0497 14.9533 48.7097 14.83 48.263 14.83C47.8097 14.83 47.463 14.9533 47.223 15.2C46.9897 15.4467 46.833 15.7733 46.753 16.18C46.6797 16.58 46.643 17.07 46.643 17.65C46.643 18.25 46.6797 18.7533 46.753 19.16C46.833 19.5667 46.9897 19.8933 47.223 20.14C47.463 20.3867 47.8097 20.51 48.263 20.51C48.7097 20.51 49.0497 20.3867 49.283 20.14C49.523 19.8933 49.6797 19.5667 49.753 19.16C49.833 18.7533 49.873 18.25 49.873 17.65Z" fill="black"/>
<path d="M51.7823 14.94V14.11H53.6623V21.34H52.7423V14.94H51.7823Z" fill="black"/>
<path d="M54.9855 14.94V14.11H56.8655V21.34H55.9455V14.94H54.9855Z" fill="black"/>
<path d="M58.4286 17.65C58.4286 16.5033 58.6153 15.61 58.9886 14.97C59.3619 14.3233 60.0153 14 60.9486 14C61.8753 14 62.5253 14.3233 62.8986 14.97C63.2719 15.61 63.4586 16.5033 63.4586 17.65C63.4586 18.8167 63.2719 19.7233 62.8986 20.37C62.5253 21.0167 61.8753 21.34 60.9486 21.34C60.0153 21.34 59.3619 21.0167 58.9886 20.37C58.6153 19.7233 58.4286 18.8167 58.4286 17.65ZM62.5586 17.65C62.5586 17.07 62.5186 16.58 62.4386 16.18C62.3653 15.7733 62.2086 15.4467 61.9686 15.2C61.7353 14.9533 61.3953 14.83 60.9486 14.83C60.4953 14.83 60.1486 14.9533 59.9086 15.2C59.6753 15.4467 59.5186 15.7733 59.4386 16.18C59.3653 16.58 59.3286 17.07 59.3286 17.65C59.3286 18.25 59.3653 18.7533 59.4386 19.16C59.5186 19.5667 59.6753 19.8933 59.9086 20.14C60.1486 20.3867 60.4953 20.51 60.9486 20.51C61.3953 20.51 61.7353 20.3867 61.9686 20.14C62.2086 19.8933 62.3653 19.5667 62.4386 19.16C62.5186 18.7533 62.5586 18.25 62.5586 17.65Z" fill="black"/>
<path d="M45.743 31.65C45.743 30.5033 45.9297 29.61 46.303 28.97C46.6764 28.3233 47.3297 28 48.263 28C49.1897 28 49.8397 28.3233 50.213 28.97C50.5864 29.61 50.773 30.5033 50.773 31.65C50.773 32.8167 50.5864 33.7233 50.213 34.37C49.8397 35.0167 49.1897 35.34 48.263 35.34C47.3297 35.34 46.6764 35.0167 46.303 34.37C45.9297 33.7233 45.743 32.8167 45.743 31.65ZM49.873 31.65C49.873 31.07 49.833 30.58 49.753 30.18C49.6797 29.7733 49.523 29.4467 49.283 29.2C49.0497 28.9533 48.7097 28.83 48.263 28.83C47.8097 28.83 47.463 28.9533 47.223 29.2C46.9897 29.4467 46.833 29.7733 46.753 30.18C46.6797 30.58 46.643 31.07 46.643 31.65C46.643 32.25 46.6797 32.7533 46.753 33.16C46.833 33.5667 46.9897 33.8933 47.223 34.14C47.463 34.3867 47.8097 34.51 48.263 34.51C48.7097 34.51 49.0497 34.3867 49.283 34.14C49.523 33.8933 49.6797 33.5667 49.753 33.16C49.833 32.7533 49.873 32.25 49.873 31.65Z" fill="black"/>
<path d="M52.0223 31.65C52.0223 30.5033 52.209 29.61 52.5823 28.97C52.9557 28.3233 53.609 28 54.5423 28C55.469 28 56.119 28.3233 56.4923 28.97C56.8657 29.61 57.0523 30.5033 57.0523 31.65C57.0523 32.8167 56.8657 33.7233 56.4923 34.37C56.119 35.0167 55.469 35.34 54.5423 35.34C53.609 35.34 52.9557 35.0167 52.5823 34.37C52.209 33.7233 52.0223 32.8167 52.0223 31.65ZM56.1523 31.65C56.1523 31.07 56.1123 30.58 56.0323 30.18C55.959 29.7733 55.8023 29.4467 55.5623 29.2C55.329 28.9533 54.989 28.83 54.5423 28.83C54.089 28.83 53.7423 28.9533 53.5023 29.2C53.269 29.4467 53.1123 29.7733 53.0323 30.18C52.959 30.58 52.9223 31.07 52.9223 31.65C52.9223 32.25 52.959 32.7533 53.0323 33.16C53.1123 33.5667 53.269 33.8933 53.5023 34.14C53.7423 34.3867 54.089 34.51 54.5423 34.51C54.989 34.51 55.329 34.3867 55.5623 34.14C55.8023 33.8933 55.959 33.5667 56.0323 33.16C56.1123 32.7533 56.1523 32.25 56.1523 31.65Z" fill="black"/>
<path d="M58.0616 28.94V28.11H59.9416V35.34H59.0216V28.94H58.0616Z" fill="black"/>
<path d="M61.2648 28.94V28.11H63.1448V35.34H62.2248V28.94H61.2648Z" fill="black"/>
</svg>
