<svg width="122" height="116" viewBox="0 0 122 116" fill="none" xmlns="http://www.w3.org/2000/svg">
<path d="M45.2944 75.6727L2.70123 93.44L57.7884 114.668L100.382 96.9002L45.2944 75.6727Z" fill="#E6E6E6" stroke="black"/>
<path d="M34.3387 47.3526V54.03L51.0322 60.7074L67.7257 54.03V47.3526L51.0322 40.6752L34.3387 47.3526Z" fill="white"/>
<path d="M34.3387 47.3526V54.03L51.0322 60.7074M34.3387 47.3526L51.0322 40.6752L67.7257 47.3526M34.3387 47.3526L51.0322 54.03M67.7257 47.3526V54.03L51.0322 60.7074M67.7257 47.3526L51.0322 54.03M51.0322 60.7074V54.03" stroke="black"/>
<path d="M34.3387 60.7061V54.0287L51.0322 60.7061L67.7257 54.0287V60.7061L51.0322 67.3836L34.3387 60.7061Z" fill="white"/>
<path d="M51.0322 67.3836L67.7257 60.7061V54.0287L51.0322 60.7061M51.0322 67.3836L34.3387 60.7061V54.0287L51.0322 60.7061M51.0322 67.3836V60.7061" stroke="black"/>
<path d="M34.3387 67.3836V60.7062L51.0322 67.3836L67.7257 60.7062V67.3836L51.0322 74.061L34.3387 67.3836Z" fill="white"/>
<path d="M51.0322 74.061L67.7257 67.3836V60.7062L51.0322 67.3836M51.0322 74.061L34.3387 67.3836V60.7062L51.0322 67.3836M51.0322 74.061V67.3836" stroke="black"/>
<path d="M34.3387 74.0607V67.3833L51.0322 74.0607L67.7257 67.3833V74.0607L51.0322 80.7381L34.3387 74.0607Z" fill="white"/>
<path d="M51.0322 80.7381L67.7257 74.0607V67.3833L51.0322 74.0607M51.0322 80.7381L34.3387 74.0607V67.3833L51.0322 74.0607M51.0322 80.7381V74.0607" stroke="black"/>
<path d="M34.3387 80.7389V74.0615L51.0322 80.7389L67.7257 74.0615V80.7389L51.0322 87.4163L34.3387 80.7389Z" fill="white"/>
<path d="M51.0322 87.4163L67.7257 80.7389V74.0615L51.0322 80.7389M51.0322 87.4163L34.3387 80.7389V74.0615L51.0322 80.7389M51.0322 87.4163V80.7389" stroke="black"/>
<path d="M34.3387 87.4157V80.7383L51.0322 87.4157L67.7257 80.7383V87.4157L51.0322 94.0931L34.3387 87.4157Z" fill="white"/>
<path d="M51.0322 94.0931L67.7257 87.4157V80.7383L51.0322 87.4157M51.0322 94.0931L34.3387 87.4157V80.7383L51.0322 87.4157M51.0322 94.0931V87.4157" stroke="black"/>
<path d="M34.3387 94.092V87.4146L51.0322 94.092L67.7257 87.4146V94.092L51.0322 100.769L34.3387 94.092Z" fill="white"/>
<path d="M51.0322 100.769L67.7257 94.092V87.4146L51.0322 94.092M51.0322 100.769L34.3387 94.092V87.4146L51.0322 94.092M51.0322 100.769V94.092" stroke="black"/>
<circle cx="18.7832" cy="53.5279" r="9.51311" fill="black"/>
<path d="M21.1328 56.1934C21.3156 55.8886 21.4172 55.5533 21.4172 55.1774C21.4172 54.5577 21.2039 54.1107 20.7772 53.8262C20.3505 53.5417 19.7815 53.3385 19.0704 53.2166C18.6233 53.1455 18.2678 53.0744 18.0138 52.9931C17.7496 52.9118 17.5464 52.8001 17.3839 52.6477C17.2213 52.4953 17.14 52.2819 17.14 52.0076C17.14 51.6419 17.2721 51.3472 17.5566 51.144C17.8309 50.9409 18.2068 50.8291 18.6843 50.8291C19.1516 50.8291 19.5479 50.9612 19.873 51.205C20.1879 51.459 20.3708 51.7943 20.4318 52.2006H21.3055C21.2649 51.6317 21.0617 51.1644 20.6858 50.7783C20.2997 50.3922 19.812 50.1586 19.2024 50.0671V49.0004H18.4303V50.0366C17.7801 50.0874 17.2518 50.2906 16.8556 50.6564C16.4492 51.0221 16.2562 51.4895 16.2562 52.0584C16.2562 52.6883 16.4593 53.1353 16.8861 53.4096C17.3026 53.6941 17.8715 53.8871 18.5827 54.0091C19.0297 54.0903 19.3752 54.1615 19.6393 54.2427C19.9035 54.324 20.1168 54.4358 20.2794 54.5983C20.4419 54.7609 20.5334 54.9844 20.5334 55.2587C20.5334 55.6448 20.381 55.9394 20.0762 56.1527C19.7714 56.3661 19.3853 56.4677 18.8977 56.4677C18.349 56.4677 17.902 56.3255 17.5566 56.041C17.201 55.7565 17.008 55.3705 16.9775 54.8828H16.1038C16.1241 55.533 16.3476 56.0613 16.754 56.488C17.1604 56.9147 17.7191 57.1687 18.4303 57.25V58.2964H19.2024V57.2601C19.6292 57.2297 20.0152 57.1179 20.3505 56.935C20.6858 56.7522 20.9499 56.4982 21.1328 56.1934Z" fill="white"/>
<circle cx="17.1705" cy="17.1705" r="17.1705" fill="black"/>
<path d="M21.4175 21.9864C21.7475 21.4362 21.9309 20.8311 21.9309 20.1526C21.9309 19.034 21.5458 18.2271 20.7756 17.7137C20.0055 17.2002 18.9785 16.8335 17.6949 16.6134C16.888 16.485 16.2462 16.3567 15.7878 16.21C15.311 16.0633 14.9442 15.8616 14.6508 15.5865C14.3574 15.3114 14.2107 14.9263 14.2107 14.4312C14.2107 13.7711 14.4491 13.2393 14.9626 12.8725C15.4577 12.5057 16.1362 12.304 16.9981 12.304C17.8416 12.304 18.5568 12.5424 19.1436 12.9825C19.7121 13.441 20.0421 14.0461 20.1522 14.7796H21.7292C21.6559 13.7527 21.2891 12.9092 20.6106 12.2123C19.9138 11.5155 19.0336 11.0937 17.9333 10.9287V9.00323H16.5396V10.8737C15.366 10.9654 14.4124 11.3321 13.6973 11.9923C12.9638 12.6525 12.6153 13.496 12.6153 14.5229C12.6153 15.6598 12.9821 16.4667 13.7523 16.9618C14.5041 17.4753 15.531 17.8237 16.8147 18.0438C17.6215 18.1905 18.245 18.3188 18.7218 18.4655C19.1986 18.6122 19.5837 18.8139 19.8771 19.1073C20.1705 19.4008 20.3355 19.8042 20.3355 20.2993C20.3355 20.9961 20.0605 21.5279 19.5103 21.913C18.9602 22.2981 18.2634 22.4815 17.3832 22.4815C16.3929 22.4815 15.5861 22.2248 14.9626 21.7113C14.3208 21.1979 13.9723 20.501 13.9173 19.6208H12.3403C12.3769 20.7944 12.7804 21.748 13.5139 22.5182C14.2474 23.2884 15.256 23.7468 16.5396 23.8935V25.7823H17.9333V23.9118C18.7035 23.8568 19.4003 23.6551 20.0055 23.325C20.6106 22.995 21.0874 22.5365 21.4175 21.9864Z" fill="white"/>
<path fill-rule="evenodd" clip-rule="evenodd" d="M51.0609 25.7552C50.6658 25.7552 50.3455 25.4349 50.3455 25.0398L50.3455 5.78048L47.0137 9.11224C46.7343 9.39164 46.2813 9.39164 46.0019 9.11224C45.7225 8.83284 45.7225 8.37984 46.0019 8.10044L50.555 3.54733C50.8344 3.26793 51.2874 3.26793 51.5668 3.54733L56.1199 8.10043C56.3993 8.37984 56.3993 8.83283 56.1199 9.11224C55.8405 9.39164 55.3875 9.39164 55.1081 9.11224L51.7764 5.78048L51.7764 25.0398C51.7764 25.4349 51.456 25.7552 51.0609 25.7552Z" fill="black" stroke="black" stroke-linejoin="round"/>
<circle cx="100.59" cy="74.5171" r="9.12082" fill="white" stroke="black"/>
<path d="M80.3303 106.079C80.3303 94.9827 89.3256 85.9875 100.422 85.9875C111.518 85.9875 120.513 94.9827 120.513 106.079V114.356H80.3303V106.079Z" fill="white" stroke="black"/>
</svg>
