<svg width="87" height="77" viewBox="0 0 87 77" fill="none" xmlns="http://www.w3.org/2000/svg">
<path d="M1 7.6774V14.3548L17.6935 21.0322L34.387 14.3548V7.6774L17.6935 1L1 7.6774Z" fill="white"/>
<path d="M1 7.6774V14.3548L17.6935 21.0322M1 7.6774L17.6935 1L34.387 7.6774M1 7.6774L17.6935 14.3548M34.387 7.6774V14.3548L17.6935 21.0322M34.387 7.6774L17.6935 14.3548M17.6935 21.0322V14.3548" stroke="black"/>
<path d="M1 21.0309V14.3535L17.6935 21.0309L34.387 14.3535V21.0309L17.6935 27.7083L1 21.0309Z" fill="white"/>
<path d="M17.6935 27.7083L34.387 21.0309V14.3535L17.6935 21.0309M17.6935 27.7083L1 21.0309V14.3535L17.6935 21.0309M17.6935 27.7083V21.0309" stroke="black"/>
<path d="M1 27.7083V21.0309L17.6935 27.7083L34.387 21.0309V27.7083L17.6935 34.3857L1 27.7083Z" fill="white"/>
<path d="M17.6935 34.3857L34.387 27.7083V21.0309L17.6935 27.7083M17.6935 34.3857L1 27.7083V21.0309L17.6935 27.7083M17.6935 34.3857V27.7083" stroke="black"/>
<path d="M1 34.3855V27.7081L17.6935 34.3855L34.387 27.7081V34.3855L17.6935 41.0629L1 34.3855Z" fill="white"/>
<path d="M17.6935 41.0629L34.387 34.3855V27.7081L17.6935 34.3855M17.6935 41.0629L1 34.3855V27.7081L17.6935 34.3855M17.6935 41.0629V34.3855" stroke="black"/>
<path d="M1 41.0637V34.3863L17.6935 41.0637L34.387 34.3863V41.0637L17.6935 47.7411L1 41.0637Z" fill="white"/>
<path d="M17.6935 47.7411L34.387 41.0637V34.3863L17.6935 41.0637M17.6935 47.7411L1 41.0637V34.3863L17.6935 41.0637M17.6935 47.7411V41.0637" stroke="black"/>
<path d="M1 47.7405V41.063L17.6935 47.7405L34.387 41.063V47.7405L17.6935 54.4179L1 47.7405Z" fill="white"/>
<path d="M17.6935 54.4179L34.387 47.7405V41.063L17.6935 47.7405M17.6935 54.4179L1 47.7405V41.063L17.6935 47.7405M17.6935 54.4179V47.7405" stroke="black"/>
<path d="M1 54.4168V47.7394L17.6935 54.4168L34.387 47.7394V54.4168L17.6935 61.0942L1 54.4168Z" fill="white"/>
<path d="M17.6935 61.0942L34.387 54.4168V47.7394L17.6935 54.4168M17.6935 61.0942L1 54.4168V47.7394L17.6935 54.4168M17.6935 61.0942V54.4168" stroke="black"/>
<circle cx="66.0506" cy="35.3707" r="9.12082" fill="white" stroke="black"/>
<path d="M45.7909 66.9326C45.7909 55.8364 54.7862 46.8411 65.8824 46.8411C76.9786 46.8411 85.9739 55.8364 85.9739 66.9326V75.2093H45.7909V66.9326Z" fill="white" stroke="black"/>
<circle cx="39.2862" cy="58.9817" r="17.1705" fill="black"/>
<path d="M32.3231 53.6732C32.0299 54.1622 31.9016 54.7265 31.9016 55.3283C31.9016 55.949 32.0299 56.4944 32.3231 56.9834C32.598 57.4724 32.9829 57.8486 33.496 58.1119C33.9909 58.394 34.559 58.5257 35.1821 58.5257C35.8052 58.5257 36.355 58.394 36.8682 58.1119C37.363 57.8486 37.7479 57.4724 38.0411 56.9834C38.316 56.4944 38.4626 55.949 38.4626 55.3283C38.4626 54.7265 38.316 54.1622 38.0411 53.6732C37.7479 53.1842 37.363 52.808 36.8682 52.5259C36.355 52.2626 35.8052 52.1122 35.1821 52.1122C34.559 52.1122 33.9909 52.2626 33.496 52.5259C32.9829 52.808 32.598 53.1842 32.3231 53.6732ZM34.0275 65.3906H35.9702L44.7487 52.225H42.7877L34.0275 65.3906ZM36.3367 54.1434C36.6299 54.4631 36.7949 54.8581 36.7949 55.3283C36.7949 55.8173 36.6299 56.2123 36.3367 56.532C36.0251 56.8518 35.6403 57.0022 35.1821 57.0022C34.7239 57.0022 34.3391 56.8518 34.0458 56.532C33.7343 56.2123 33.5877 55.8173 33.5877 55.3283C33.5877 54.8581 33.7343 54.4631 34.0458 54.1434C34.3391 53.8237 34.7239 53.6544 35.1821 53.6544C35.6403 53.6544 36.0251 53.8237 36.3367 54.1434ZM40.6985 60.651C40.4053 61.14 40.277 61.7042 40.277 62.3061C40.277 62.9079 40.4053 63.4533 40.6985 63.9423C40.9734 64.4314 41.3583 64.8263 41.8714 65.0896C42.3662 65.3717 42.9344 65.5034 43.5575 65.5034C44.1806 65.5034 44.7304 65.3717 45.2435 65.0896C45.7384 64.8263 46.1232 64.4314 46.4165 63.9423C46.6914 63.4533 46.838 62.9079 46.838 62.3061C46.838 61.7042 46.6914 61.14 46.4165 60.651C46.1232 60.162 45.7384 59.7858 45.2435 59.5037C44.7304 59.2404 44.1806 59.0899 43.5575 59.0899C42.9344 59.0899 42.3662 59.2404 41.8714 59.5037C41.3583 59.7858 40.9734 60.162 40.6985 60.651ZM44.6937 61.1023C44.987 61.4409 45.1519 61.8359 45.1519 62.3061C45.1519 62.7951 44.987 63.19 44.6937 63.491C44.4005 63.8107 44.0156 63.9612 43.5575 63.9612C43.081 63.9612 42.6961 63.8107 42.4029 63.491C42.0913 63.19 41.9447 62.7951 41.9447 62.3061C41.9447 61.8359 42.0913 61.4409 42.4029 61.1023C42.7144 60.7826 43.0993 60.6133 43.5575 60.6133C43.9973 60.6133 44.3822 60.7826 44.6937 61.1023Z" fill="white"/>
</svg>
