<svg width="116" height="95" viewBox="0 0 116 95" fill="none" xmlns="http://www.w3.org/2000/svg">
<path d="M59.0749 54.5979L16.4817 72.3653L71.5689 93.5928L114.162 75.8254L59.0749 54.5979Z" fill="#E6E6E6" stroke="black"/>
<path d="M48.1221 26.2777V32.9551L64.8156 39.6325L81.5091 32.9551V26.2777L64.8156 19.6003L48.1221 26.2777Z" fill="white"/>
<path d="M48.1221 26.2777V32.9551L64.8156 39.6325M48.1221 26.2777L64.8156 19.6003L81.5091 26.2777M48.1221 26.2777L64.8156 32.9551M81.5091 26.2777V32.9551L64.8156 39.6325M81.5091 26.2777L64.8156 32.9551M64.8156 39.6325V32.9551" stroke="black"/>
<path d="M48.1221 39.6305V32.9531L64.8156 39.6305L81.5091 32.9531V39.6305L64.8156 46.3079L48.1221 39.6305Z" fill="white"/>
<path d="M64.8156 46.3079L81.5091 39.6305V32.9531L64.8156 39.6305M64.8156 46.3079L48.1221 39.6305V32.9531L64.8156 39.6305M64.8156 46.3079V39.6305" stroke="black"/>
<path d="M48.1221 46.308V39.6306L64.8156 46.308L81.5091 39.6306V46.308L64.8156 52.9854L48.1221 46.308Z" fill="white"/>
<path d="M64.8156 52.9854L81.5091 46.308V39.6306L64.8156 46.308M64.8156 52.9854L48.1221 46.308V39.6306L64.8156 46.308M64.8156 52.9854V46.308" stroke="black"/>
<path d="M48.1221 52.9851V46.3077L64.8156 52.9851L81.5091 46.3077V52.9851L64.8156 59.6625L48.1221 52.9851Z" fill="white"/>
<path d="M64.8156 59.6625L81.5091 52.9851V46.3077L64.8156 52.9851M64.8156 59.6625L48.1221 52.9851V46.3077L64.8156 52.9851M64.8156 59.6625V52.9851" stroke="black"/>
<path d="M48.1221 59.664V52.9866L64.8156 59.664L81.5091 52.9866V59.664L64.8156 66.3414L48.1221 59.664Z" fill="white"/>
<path d="M64.8156 66.3414L81.5091 59.664V52.9866L64.8156 59.664M64.8156 66.3414L48.1221 59.664V52.9866L64.8156 59.664M64.8156 66.3414V59.664" stroke="black"/>
<path d="M48.1221 66.3404V59.663L64.8156 66.3404L81.5091 59.663V66.3404L64.8156 73.0178L48.1221 66.3404Z" fill="white"/>
<path d="M64.8156 73.0178L81.5091 66.3404V59.663L64.8156 66.3404M64.8156 73.0178L48.1221 66.3404V59.663L64.8156 66.3404M64.8156 73.0178V66.3404" stroke="black"/>
<path d="M48.1221 73.0175V66.3401L64.8156 73.0175L81.5091 66.3401V73.0175L64.8156 79.6949L48.1221 73.0175Z" fill="white"/>
<path d="M64.8156 79.6949L81.5091 73.0175V66.3401L64.8156 73.0175M64.8156 79.6949L48.1221 73.0175V66.3401L64.8156 73.0175M64.8156 79.6949V73.0175" stroke="black"/>
<circle cx="20.7597" cy="54.2221" r="9.12082" fill="white" stroke="black"/>
<path d="M0.5 85.7832C0.5 74.687 9.49527 65.6917 20.5915 65.6917C31.6877 65.6917 40.683 74.687 40.683 85.7832V94.0599H0.5V85.7832Z" fill="white" stroke="black"/>
<path d="M93.0613 16.7564C92.866 16.5611 92.5494 16.5611 92.3541 16.7564L89.1722 19.9384C88.9769 20.1336 88.9769 20.4502 89.1722 20.6455C89.3674 20.8407 89.684 20.8407 89.8793 20.6455L92.7077 17.817L95.5361 20.6455C95.7314 20.8407 96.048 20.8407 96.2432 20.6455C96.4385 20.4502 96.4385 20.1336 96.2432 19.9384L93.0613 16.7564ZM92.3541 77.7241C92.5494 77.9194 92.866 77.9194 93.0613 77.7241L96.2432 74.5421C96.4385 74.3469 96.4385 74.0303 96.2432 73.835C96.048 73.6398 95.7314 73.6398 95.5361 73.835L92.7077 76.6635L89.8793 73.835C89.684 73.6398 89.3674 73.6398 89.1722 73.835C88.9769 74.0303 88.9769 74.3469 89.1722 74.5421L92.3541 77.7241ZM92.2077 17.1099L92.2077 77.3706L93.2077 77.3706L93.2077 17.1099L92.2077 17.1099Z" fill="black"/>
<path d="M31.4732 16.9804C31.3678 17.2357 31.4893 17.528 31.7446 17.6334L35.9041 19.3504C36.1593 19.4558 36.4517 19.3343 36.557 19.079C36.6624 18.8238 36.5409 18.5314 36.2857 18.4261L32.5883 16.8998L34.1145 13.2024C34.2199 12.9472 34.0984 12.6549 33.8432 12.5495C33.5879 12.4441 33.2956 12.5656 33.1902 12.8209L31.4732 16.9804ZM66.0042 3.39391C66.1096 3.13866 65.9881 2.84632 65.7328 2.74096L61.5733 1.02392C61.318 0.918555 61.0257 1.04006 60.9203 1.29531C60.8149 1.55056 60.9364 1.8429 61.1917 1.94826L64.8891 3.47452L63.3628 7.17189C63.2574 7.42714 63.3789 7.71948 63.6342 7.82484C63.8895 7.93021 64.1818 7.8087 64.2872 7.55345L66.0042 3.39391ZM32.1272 17.6329L65.7339 3.66484L65.3501 2.74142L31.7434 16.7095L32.1272 17.6329Z" fill="black"/>
</svg>
